<?xml version="1.0" encoding="utf-8"?>
<!-- Generator: Adobe Illustrator 22.1.0, SVG Export Plug-In . SVG Version: 6.00 Build 0)  -->
<svg version="1.1" id="Capa_1" xmlns="http://www.w3.org/2000/svg" xmlns:xlink="http://www.w3.org/1999/xlink" x="0px" y="0px"
	 viewBox="0 0 1920 413" style="enable-background:new 0 0 1920 413;" xml:space="preserve">
<style type="text/css">
	.st0{fill:#A60303;stroke:#0C3559;stroke-width:1.8172;stroke-miterlimit:10;}
	.st1{fill:none;stroke:#FC7E12;stroke-width:4;stroke-miterlimit:10;}
	.st2{fill:none;stroke:#FC7E12;stroke-width:2.6587;stroke-miterlimit:10;}
	.st3{fill:#EFD46B;stroke:#FC7E12;stroke-width:0.75;stroke-miterlimit:10;}
	.st4{fill:#EFD46B;stroke:#FC7E12;stroke-width:1.9314;stroke-miterlimit:10;}
	.st5{fill:#EFD46B;stroke:#FC7E12;stroke-width:0.6092;stroke-miterlimit:10;}
	.st6{fill:none;stroke:#FC7E12;stroke-width:1.8746;stroke-miterlimit:10;}
	.st7{fill:#FC7E12;}
</style>
<g>
	<rect class="st0" width="1920" height="413"/>
	<rect x="35.9" y="21.5" class="st1" width="1848.2" height="370"/>
	<polyline class="st1" points="685,67.9 54.1,67.9 54.1,192 	"/>
	<polyline class="st1" points="1233.5,67.9 1864.4,67.9 1864.4,192 	"/>
	<polyline class="st1" points="685,345.3 54.1,345.3 54.1,230.3 	"/>
	<polyline class="st1" points="1233.5,345.3 1864.4,345.3 1864.4,230.3 	"/>
	<g>
		<polyline class="st2" points="32.5,107 126,107 126,21.5 		"/>
		<polyline class="st2" points="87.9,22 87.9,107 87.9,134.8 143.4,134.8 143.4,95.7 190.4,95.7 190.4,67.9 		"/>
		<polyline class="st2" points="115.6,134.8 115.6,165.1 54.1,165.1 		"/>
		<polyline class="st2" points="32.5,305.4 126,305.4 126,391.1 		"/>
		<polyline class="st2" points="87.9,390.6 87.9,305.4 87.9,277.8 143.4,277.8 143.4,316.8 190.4,316.8 190.4,344.7 		"/>
		<polyline class="st2" points="115.6,277.8 115.6,247.3 54.1,247.3 		"/>
	</g>
	<g>
		<polyline class="st2" points="1887.5,107.4 1794,107.4 1794,21.7 		"/>
		<polyline class="st2" points="1832.1,22.4 1832.1,107.4 1832.1,135 1776.6,135 1776.6,96 1729.6,96 1729.6,68.3 		"/>
		<polyline class="st2" points="1804.4,135 1804.4,165.5 1865.9,165.5 		"/>
		<polyline class="st2" points="1887.5,305.8 1794,305.8 1794,391.5 		"/>
		<polyline class="st2" points="1832.1,390.7 1832.1,305.8 1832.1,278.2 1776.6,278.2 1776.6,317.1 1729.6,317.1 1729.6,344.9 		"/>
		<polyline class="st2" points="1804.4,278.2 1804.4,247.7 1865.9,247.7 		"/>
	</g>
	<line class="st2" x1="698.6" y1="67.9" x2="738.6" y2="67.9"/>
	<line class="st2" x1="698.6" y1="345.3" x2="738.6" y2="345.3"/>
	<line class="st2" x1="1181.6" y1="67.9" x2="1221.6" y2="67.9"/>
	<line class="st2" x1="1181.6" y1="345.3" x2="1221.6" y2="345.3"/>
	<g>
		<path class="st3" d="M559,160.3c-3.4,0-6.7-0.7-9.6-2c-3-1.3-5.6-3.1-7.8-5.3c-2.2-2.3-4-4.9-5.3-7.9c-1.3-3-1.9-6.2-1.9-9.5
			c0-3.4,0.6-6.5,1.9-9.5c1.3-3,3-5.6,5.3-7.9c2.2-2.3,4.8-4,7.8-5.3c3-1.3,6.2-2,9.6-2c3.1,0,6.1,0.6,9,1.7c2.9,1.1,5.5,2.8,8,5
			l-9.6,8.4c-2.3-1.6-4.8-2.5-7.3-2.5c-1.7,0-3.2,0.3-4.7,1c-1.4,0.6-2.7,1.5-3.7,2.6c-1,1.1-1.9,2.4-2.5,3.9s-0.9,3-0.9,4.6
			c0,1.6,0.3,3.2,0.9,4.6c0.6,1.5,1.4,2.7,2.5,3.8c1,1.1,2.3,2,3.7,2.6c1.4,0.7,3,1,4.6,1c1.9,0,3.7-0.4,5.4-1.3
			c1.7-0.9,3.1-2.1,4.4-3.7l9.9,8c-2.5,3-5.4,5.4-8.8,7C566.4,159.4,562.8,160.3,559,160.3z"/>
		<path class="st3" d="M584.3,158.8v-46.6h37.1v11.1h-25v6.7H620v11.1h-23.6v6.7h25v11H584.3z"/>
		<path class="st3" d="M629.2,158.8v-46.6h12.9v35h24.5v11.5H629.2z"/>
		<path class="st3" d="M671.9,158.8v-46.6H709v11.1h-25v6.7h23.6v11.1H684v6.7h25v11H671.9z"/>
		<path class="st3" d="M743.2,158.8h-26.4v-46.6h24.4c0.9,0,1.8,0.1,2.7,0.3c0.9,0.2,1.9,0.5,2.8,1c0.9,0.4,1.7,0.9,2.5,1.5
			c0.8,0.6,1.4,1.2,2,1.9c1,1.2,1.8,2.5,2.3,4c0.5,1.5,0.8,3,0.8,4.6c0,1.8-0.4,3.5-1.1,5.2c-0.7,1.7-1.8,3.1-3.1,4.3
			c0.9,0.6,1.7,1.2,2.4,2c0.7,0.8,1.4,1.7,1.9,2.6c0.5,1,0.9,2,1.2,3c0.3,1.1,0.4,2.1,0.4,3.1c0,1.8-0.3,3.4-1,5s-1.6,3-2.8,4.1
			c-1.2,1.2-2.5,2.1-4.1,2.8C746.7,158.5,745,158.8,743.2,158.8z M737.4,121.6h-8.3v9.5h8.3c1.3,0,2.4-0.5,3.3-1.4
			c0.9-0.9,1.4-2,1.4-3.3c0-1.3-0.5-2.4-1.4-3.3C739.8,122.1,738.7,121.6,737.4,121.6z M737.8,139.6h-8.8v9.4h8.8
			c1.3,0,2.4-0.5,3.4-1.4c0.9-0.9,1.4-2,1.4-3.4c0-1.3-0.5-2.4-1.4-3.3C740.3,140,739.1,139.6,737.8,139.6z"/>
		<path class="st3" d="M791.2,158.8l-8.1-14.4h-7.9l0.1,14.4h-12.8v-46.6h23.3c1.1,0,2.3,0.2,3.4,0.6c1.2,0.4,2.3,1,3.4,1.7
			c1.1,0.7,2.1,1.5,3,2.4c0.9,0.9,1.7,1.8,2.3,2.7c0.8,1.2,1.4,2.5,1.8,4c0.4,1.5,0.6,3,0.6,4.4c0,2.3-0.5,4.5-1.6,6.5
			c-1.1,2-2.6,3.7-4.5,5l10.9,19.2H791.2z M782.1,122.6h-7.3v10h7.3c0.7,0,1.4-0.1,2-0.4c0.6-0.3,1.2-0.6,1.7-1.1
			c0.5-0.5,0.9-1,1.1-1.6c0.3-0.6,0.4-1.3,0.4-2s-0.1-1.4-0.4-2c-0.3-0.6-0.7-1.1-1.1-1.6c-0.5-0.5-1-0.8-1.7-1.1
			C783.5,122.8,782.8,122.6,782.1,122.6z"/>
		<path class="st3" d="M839.2,158.8l-2.4-6.4h-14.3l-2.4,6.4h-13.1l17.2-46.6h11l17.2,46.6H839.2z M829.6,129.2l-3.7,12.3h7.4
			L829.6,129.2z"/>
		<path class="st3" d="M876.7,158.8v-46.6h37.1v11.1h-25v6.7h23.6v11.1h-23.6v6.7h25v11H876.7z"/>
		<path class="st3" d="M921.6,158.8v-46.6h12.9v35H959v11.5H921.6z"/>
		<path class="st3" d="M1013.6,158.8l-2.4-6.4h-14.3l-2.4,6.4h-13.1l17.2-46.6h11l17.2,46.6H1013.6z M1004,129.2l-3.7,12.3h7.4
			L1004,129.2z"/>
		<path class="st3" d="M1060.9,158.8l-16.1-24.8v24.8h-12.4v-46.5h12.4l16.2,25.1v-25.1h12.5v46.5H1060.9z M1061.2,101.1
			c0.5,0.4,0.9,0.9,1.4,1.3s0.8,0.9,1.2,1.4c-0.1,0.6-0.4,1.2-0.8,1.9c-0.4,0.7-0.8,1.3-1.4,1.9c-0.5,0.6-1.1,1-1.8,1.4
			c-0.7,0.4-1.3,0.5-2,0.5c-0.8,0-1.6-0.2-2.3-0.6s-1.4-0.9-2.1-1.4c-0.7-0.5-1.3-0.9-2-1.3s-1.3-0.6-1.9-0.6c-0.6,0-1,0.1-1.3,0.2
			c-0.3,0.2-0.6,0.4-0.8,0.6c-0.2,0.3-0.4,0.6-0.6,0.9c-0.2,0.3-0.4,0.7-0.8,1c-0.2,0-0.5-0.1-0.8-0.4c-0.3-0.3-0.6-0.5-0.9-0.9
			c-0.3-0.3-0.6-0.7-0.8-1c-0.2-0.4-0.3-0.7-0.3-0.9c0-0.5,0.2-1,0.7-1.6c0.5-0.6,0.9-1,1.2-1.3c0.6-0.6,1.2-1.1,1.8-1.5
			c0.7-0.4,1.4-0.7,2.3-0.7c0.8,0,1.6,0.2,2.3,0.6s1.4,0.9,2.1,1.4c0.7,0.5,1.3,1,2,1.4s1.3,0.6,1.9,0.6c0.9,0,1.6-0.3,2.1-1
			C1060.2,102.4,1060.7,101.7,1061.2,101.1z"/>
		<path class="st3" d="M1105.3,160.3c-3.4,0-6.7-0.6-9.7-1.9c-3-1.3-5.6-3-7.9-5.3c-2.2-2.2-4-4.8-5.3-7.8s-1.9-6.2-1.9-9.6
			c0-3.4,0.6-6.6,1.9-9.6s3.1-5.6,5.3-7.8c2.2-2.2,4.9-4,7.9-5.3c3-1.3,6.2-2,9.7-2c3.4,0,6.6,0.7,9.6,2c3,1.3,5.6,3.1,7.9,5.3
			c2.2,2.2,4,4.8,5.3,7.8s2,6.2,2,9.6c0,3.4-0.7,6.6-2,9.6s-3.1,5.6-5.3,7.8c-2.2,2.2-4.9,4-7.9,5.3
			C1111.9,159.6,1108.7,160.3,1105.3,160.3z M1105.3,122.9c-1.8,0-3.4,0.4-4.9,1.1s-2.8,1.6-3.9,2.8s-1.9,2.5-2.5,4
			c-0.6,1.5-0.9,3.2-0.9,4.9c0,1.7,0.3,3.3,0.9,4.9c0.6,1.6,1.5,2.9,2.5,4.1s2.4,2.1,3.9,2.8c1.5,0.7,3.1,1,4.9,1s3.4-0.3,4.9-1
			c1.5-0.7,2.8-1.6,3.9-2.8s1.9-2.5,2.5-4.1c0.6-1.6,0.9-3.2,0.9-4.9c0-1.7-0.3-3.3-0.9-4.9c-0.6-1.5-1.5-2.9-2.5-4
			s-2.4-2.1-3.9-2.8S1107.1,122.9,1105.3,122.9z"/>
		<path class="st3" d="M1184.5,158.8l-16.1-24.8v24.8h-12.4v-46.5h12.4l16.2,25.1v-25.1h12.5v46.5H1184.5z"/>
		<path class="st3" d="M1243.1,141.8c0,2.1-0.4,4.1-1,6c-0.7,1.9-1.7,3.6-2.9,5.1c-1.3,1.5-2.8,2.8-4.5,3.9c-1.7,1.1-3.6,2-5.6,2.5
			c-0.9,0.3-1.8,0.5-2.7,0.7c-0.9,0.2-1.8,0.2-2.8,0.2c-0.9,0-1.8-0.1-2.7-0.2c-0.9-0.2-1.8-0.4-2.7-0.7c-2-0.6-3.9-1.4-5.6-2.5
			c-1.7-1.1-3.2-2.4-4.5-3.9c-1.3-1.5-2.2-3.2-2.9-5.1c-0.7-1.9-1-3.9-1-6v-29.5h13V141c0,0.9,0.2,1.7,0.5,2.4
			c0.4,0.7,0.8,1.4,1.4,1.9c0.6,0.5,1.3,1,2.1,1.3c0.8,0.3,1.6,0.5,2.4,0.5c0.9,0,1.7-0.2,2.5-0.5c0.8-0.3,1.5-0.7,2.1-1.3
			c0.6-0.5,1.1-1.2,1.4-1.9c0.4-0.7,0.5-1.5,0.5-2.4v-28.7h13V141.8z"/>
		<path class="st3" d="M1249.7,158.8v-46.6h37.1v11.1h-25v6.7h23.6v11.1h-23.6v6.7h25v11H1249.7z"/>
		<path class="st3" d="M1318.7,158.8h-11.2l-17.3-46.4h13.9l9,24.1l9-24.1h13.9L1318.7,158.8z"/>
		<path class="st3" d="M1359,160.3c-3.4,0-6.7-0.6-9.7-1.9c-3-1.3-5.6-3-7.9-5.3c-2.2-2.2-4-4.8-5.3-7.8s-2-6.2-2-9.6
			c0-3.4,0.7-6.6,2-9.6s3.1-5.6,5.3-7.8c2.2-2.2,4.9-4,7.9-5.3c3-1.3,6.2-2,9.7-2c3.4,0,6.6,0.7,9.6,2c3,1.3,5.6,3.1,7.9,5.3
			c2.2,2.2,4,4.8,5.3,7.8s2,6.2,2,9.6c0,3.4-0.7,6.6-2,9.6s-3.1,5.6-5.3,7.8c-2.2,2.2-4.9,4-7.9,5.3
			C1365.6,159.6,1362.4,160.3,1359,160.3z M1359,122.9c-1.8,0-3.4,0.4-4.9,1.1s-2.8,1.6-3.9,2.8s-1.9,2.5-2.5,4
			c-0.6,1.5-0.9,3.2-0.9,4.9c0,1.7,0.3,3.3,0.9,4.9c0.6,1.6,1.5,2.9,2.5,4.1s2.4,2.1,3.9,2.8c1.5,0.7,3.1,1,4.9,1
			c1.8,0,3.4-0.3,4.9-1c1.5-0.7,2.8-1.6,3.9-2.8s1.9-2.5,2.6-4.1c0.6-1.6,0.9-3.2,0.9-4.9c0-1.7-0.3-3.3-0.9-4.9
			c-0.6-1.5-1.5-2.9-2.6-4s-2.4-2.1-3.9-2.8S1360.8,122.9,1359,122.9z"/>
		<path class="st3" d="M598.4,232.3c-3.4,0-6.7-0.7-9.6-2c-3-1.3-5.6-3.1-7.8-5.3c-2.2-2.3-4-4.9-5.3-7.9c-1.3-3-1.9-6.2-1.9-9.5
			c0-3.4,0.6-6.5,1.9-9.5c1.3-3,3-5.6,5.3-7.9c2.2-2.3,4.8-4,7.8-5.3c3-1.3,6.2-2,9.6-2c3.1,0,6.1,0.6,9,1.7c2.9,1.1,5.5,2.8,8,5
			l-9.6,8.4c-2.3-1.6-4.8-2.5-7.3-2.5c-1.7,0-3.2,0.3-4.7,1c-1.4,0.6-2.7,1.5-3.7,2.6c-1,1.1-1.9,2.4-2.5,3.9s-0.9,3-0.9,4.6
			c0,1.6,0.3,3.2,0.9,4.6c0.6,1.5,1.4,2.7,2.5,3.8c1,1.1,2.3,2,3.7,2.6c1.4,0.7,3,1,4.6,1c1.9,0,3.7-0.4,5.4-1.3
			c1.7-0.9,3.1-2.1,4.4-3.7l9.9,8c-2.5,3-5.4,5.4-8.8,7C605.9,231.4,602.3,232.3,598.4,232.3z"/>
		<path class="st3" d="M650.5,230.8v-17.6H634v17.6h-12.9v-46.6H634V202h16.5v-17.8h13v46.6H650.5z"/>
		<path class="st3" d="M671.3,230.8v-46.6h12.5v46.6H671.3z"/>
		<path class="st3" d="M719.9,230.8l-16.1-24.8v24.8h-12.4v-46.5h12.4l16.2,25.1v-25.1h12.5v46.5H719.9z"/>
		<path class="st3" d="M761.5,232.3c-3.4,0-6.7-0.6-9.7-1.9c-3-1.3-5.6-3-7.9-5.3c-2.2-2.2-4-4.8-5.3-7.8c-1.3-3-1.9-6.2-1.9-9.6
			c0-3.4,0.6-6.6,1.9-9.6c1.3-3,3.1-5.6,5.3-7.8c2.2-2.2,4.9-4,7.9-5.3c3-1.3,6.2-2,9.7-2c3.4,0,6.6,0.7,9.6,2
			c3,1.3,5.6,3.1,7.9,5.3c2.2,2.2,4,4.8,5.3,7.8c1.3,3,2,6.2,2,9.6c0,3.4-0.7,6.6-2,9.6c-1.3,3-3.1,5.6-5.3,7.8
			c-2.2,2.2-4.9,4-7.9,5.3C768.1,231.6,764.9,232.3,761.5,232.3z M761.5,194.9c-1.8,0-3.4,0.4-4.9,1.1s-2.8,1.6-3.9,2.8
			s-1.9,2.5-2.6,4c-0.6,1.5-0.9,3.2-0.9,4.9c0,1.7,0.3,3.3,0.9,4.9c0.6,1.6,1.5,2.9,2.6,4.1s2.4,2.1,3.9,2.8c1.5,0.7,3.1,1,4.9,1
			c1.8,0,3.4-0.3,4.9-1c1.5-0.7,2.8-1.6,3.9-2.8s1.9-2.5,2.5-4.1c0.6-1.6,0.9-3.2,0.9-4.9c0-1.7-0.3-3.3-0.9-4.9
			c-0.6-1.5-1.5-2.9-2.5-4s-2.4-2.1-3.9-2.8S763.3,194.9,761.5,194.9z"/>
		<path class="st3" d="M835.3,232.3c-3.4,0-6.7-0.7-9.6-2c-3-1.3-5.6-3.1-7.8-5.3c-2.2-2.3-4-4.9-5.3-7.9c-1.3-3-1.9-6.2-1.9-9.5
			c0-3.4,0.6-6.5,1.9-9.5c1.3-3,3-5.6,5.3-7.9c2.2-2.3,4.8-4,7.8-5.3c3-1.3,6.2-2,9.6-2c3.1,0,6.1,0.6,9,1.7c2.9,1.1,5.5,2.8,8,5
			l-9.6,8.4c-2.3-1.6-4.8-2.5-7.3-2.5c-1.7,0-3.2,0.3-4.7,1c-1.4,0.6-2.7,1.5-3.7,2.6c-1,1.1-1.9,2.4-2.5,3.9s-0.9,3-0.9,4.6
			c0,1.6,0.3,3.2,0.9,4.6c0.6,1.5,1.4,2.7,2.5,3.8c1,1.1,2.3,2,3.7,2.6c1.4,0.7,3,1,4.6,1c1.9,0,3.7-0.4,5.4-1.3
			c1.7-0.9,3.1-2.1,4.4-3.7l9.9,8c-2.5,3-5.4,5.4-8.8,7C842.8,231.4,839.2,232.3,835.3,232.3z"/>
		<path class="st3" d="M879.4,232.3c-3.4,0-6.7-0.6-9.7-1.9c-3-1.3-5.6-3-7.9-5.3c-2.2-2.2-4-4.8-5.3-7.8c-1.3-3-1.9-6.2-1.9-9.6
			c0-3.4,0.6-6.6,1.9-9.6c1.3-3,3.1-5.6,5.3-7.8c2.2-2.2,4.9-4,7.9-5.3c3-1.3,6.2-2,9.7-2c3.4,0,6.6,0.7,9.6,2
			c3,1.3,5.6,3.1,7.9,5.3c2.2,2.2,4,4.8,5.3,7.8c1.3,3,2,6.2,2,9.6c0,3.4-0.7,6.6-2,9.6c-1.3,3-3.1,5.6-5.3,7.8
			c-2.2,2.2-4.9,4-7.9,5.3C886,231.6,882.8,232.3,879.4,232.3z M879.4,194.9c-1.8,0-3.4,0.4-4.9,1.1s-2.8,1.6-3.9,2.8
			s-1.9,2.5-2.6,4c-0.6,1.5-0.9,3.2-0.9,4.9c0,1.7,0.3,3.3,0.9,4.9c0.6,1.6,1.5,2.9,2.6,4.1s2.4,2.1,3.9,2.8c1.5,0.7,3.1,1,4.9,1
			c1.8,0,3.4-0.3,4.9-1c1.5-0.7,2.8-1.6,3.9-2.8s1.9-2.5,2.5-4.1c0.6-1.6,0.9-3.2,0.9-4.9c0-1.7-0.3-3.3-0.9-4.9
			c-0.6-1.5-1.5-2.9-2.5-4s-2.4-2.1-3.9-2.8S881.1,194.9,879.4,194.9z"/>
		<path class="st3" d="M937.4,230.8l-16.1-24.8v24.8h-12.4v-46.5h12.4l16.2,25.1v-25.1h12.5v46.5H937.4z"/>
		<path class="st3" d="M1004.9,230.8l-16.1-24.8v24.8h-12.4v-46.5h12.4l16.2,25.1v-25.1h12.5v46.5H1004.9z"/>
		<path class="st3" d="M1046.5,232.3c-3.4,0-6.7-0.6-9.7-1.9c-3-1.3-5.6-3-7.9-5.3c-2.2-2.2-4-4.8-5.3-7.8s-1.9-6.2-1.9-9.6
			c0-3.4,0.6-6.6,1.9-9.6s3.1-5.6,5.3-7.8c2.2-2.2,4.9-4,7.9-5.3c3-1.3,6.2-2,9.7-2c3.4,0,6.6,0.7,9.6,2c3,1.3,5.6,3.1,7.9,5.3
			c2.2,2.2,4,4.8,5.3,7.8s2,6.2,2,9.6c0,3.4-0.7,6.6-2,9.6s-3.1,5.6-5.3,7.8c-2.2,2.2-4.9,4-7.9,5.3
			C1053.1,231.6,1049.9,232.3,1046.5,232.3z M1046.5,194.9c-1.8,0-3.4,0.4-4.9,1.1s-2.8,1.6-3.9,2.8s-1.9,2.5-2.5,4
			c-0.6,1.5-0.9,3.2-0.9,4.9c0,1.7,0.3,3.3,0.9,4.9c0.6,1.6,1.5,2.9,2.5,4.1s2.4,2.1,3.9,2.8c1.5,0.7,3.1,1,4.9,1s3.4-0.3,4.9-1
			c1.5-0.7,2.8-1.6,3.9-2.8s1.9-2.5,2.5-4.1c0.6-1.6,0.9-3.2,0.9-4.9c0-1.7-0.3-3.3-0.9-4.9c-0.6-1.5-1.5-2.9-2.5-4
			s-2.4-2.1-3.9-2.8S1048.3,194.9,1046.5,194.9z"/>
		<path class="st3" d="M1093.3,232.3c-3.1,0-6.2-0.4-9.3-1.1c-3.1-0.7-6-1.8-8.8-3.1c-0.1,0-0.3-0.1-0.6-0.2
			c-0.3-0.2-0.5-0.3-0.5-0.4c0,0,0.1-0.2,0.2-0.5c0.2-0.3,0.4-0.6,0.6-1c0.2-0.4,0.5-0.9,0.8-1.4s0.6-1.1,1-1.6
			c0.7-1.1,1.3-2.2,1.9-3.2c0.6-1,1-1.7,1.3-2.2c0.5,0.2,1,0.4,1.5,0.7c2.2,1.1,4.3,1.9,6.5,2.5c2.2,0.6,4.5,0.9,6.9,0.9
			c0.7,0,1.4,0,2.2-0.1c0.8-0.1,1.5-0.2,2.1-0.5c0.6-0.2,1.2-0.6,1.6-1.1c0.4-0.5,0.6-1.2,0.6-2.1c0-0.4-0.1-0.8-0.4-1.2
			c-0.2-0.3-0.5-0.6-0.9-0.9s-0.7-0.5-1.1-0.7c-0.4-0.2-0.8-0.4-1.1-0.5c-0.8-0.3-1.7-0.6-2.6-0.7s-1.8-0.3-2.6-0.5
			c-1.2-0.3-2.3-0.5-3.4-0.8c-1.1-0.2-2.2-0.5-3.2-0.8c-1.1-0.3-2.1-0.7-3.1-1.1c-1-0.4-1.9-0.8-2.7-1.4c-1.7-1-3.1-2.4-4.1-4.2
			c-1-1.7-1.5-4.1-1.5-6.9c0-1,0.1-2,0.3-3c0.2-1,0.5-2,1-2.9c0.9-1.8,2-3.4,3.4-4.6c1.4-1.2,2.9-2.1,4.7-2.8
			c1.7-0.7,3.5-1.2,5.4-1.4s3.8-0.4,5.6-0.4c3.1,0,6.1,0.4,9.1,1.1s5.9,2,8.6,3.7c-1,1.7-2,3.3-2.9,5c-0.9,1.6-1.9,3.3-2.9,5
			c-2.3-1.1-4.6-2-6.8-2.8c-2.2-0.7-4.5-1.1-7-1.1c-0.6,0-1.2,0-1.9,0.1c-0.7,0.1-1.3,0.2-1.8,0.4c-0.6,0.2-1,0.6-1.4,1
			c-0.4,0.5-0.5,1.1-0.5,1.8c0,0.6,0.1,1,0.4,1.4c0.3,0.4,0.8,0.8,1.5,1.2c0.7,0.3,1.7,0.6,2.7,0.9c1.1,0.3,2.3,0.6,3.5,0.8
			c1.3,0.3,2.6,0.6,4,0.9c1.4,0.4,2.7,0.8,4.1,1.2c1.4,0.5,2.7,1,3.9,1.7c1.2,0.7,2.3,1.4,3.3,2.3c1,0.9,1.7,2,2.3,3.2
			c0.4,0.9,0.7,1.9,0.9,3c0.2,1.1,0.2,2.1,0.2,3.1c0,3-0.6,5.5-1.9,7.5c-1.2,2-2.9,3.5-4.9,4.6c-2,1.1-4.3,1.9-6.8,2.4
			C1098.3,232,1095.8,232.3,1093.3,232.3z"/>
		<path class="st3" d="M1142.4,232.3c-3.4,0-6.7-0.6-9.7-1.9c-3-1.3-5.6-3-7.9-5.3c-2.2-2.2-4-4.8-5.3-7.8c-1.3-3-2-6.2-2-9.6
			c0-3.4,0.6-6.6,2-9.6c1.3-3,3.1-5.6,5.3-7.8s4.9-4,7.9-5.3c3-1.3,6.2-2,9.7-2c3.4,0,6.6,0.7,9.6,2c3,1.3,5.6,3.1,7.9,5.3
			s4,4.8,5.3,7.8c1.3,3,2,6.2,2,9.6c0,3.4-0.7,6.6-2,9.6c-1.3,3-3.1,5.6-5.3,7.8c-2.2,2.2-4.9,4-7.9,5.3
			C1149,231.6,1145.8,232.3,1142.4,232.3z M1142.4,194.9c-1.8,0-3.4,0.4-4.9,1.1s-2.8,1.6-3.9,2.8s-1.9,2.5-2.6,4s-0.9,3.2-0.9,4.9
			c0,1.7,0.3,3.3,0.9,4.9c0.6,1.6,1.5,2.9,2.6,4.1s2.4,2.1,3.9,2.8c1.5,0.7,3.1,1,4.9,1c1.8,0,3.4-0.3,4.9-1
			c1.5-0.7,2.8-1.6,3.9-2.8s1.9-2.5,2.5-4.1c0.6-1.6,0.9-3.2,0.9-4.9c0-1.7-0.3-3.3-0.9-4.9s-1.5-2.9-2.5-4s-2.4-2.1-3.9-2.8
			S1144.2,194.9,1142.4,194.9z"/>
		<path class="st3" d="M1204.7,195.8h-12.8v35h-12.7v-35h-12.8l-0.8-0.8v-10.7h39.9v10.7L1204.7,195.8z"/>
		<path class="st3" d="M1238,230.8l-8.1-14.4h-7.9l0.1,14.4h-12.8v-46.6h23.3c1.1,0,2.3,0.2,3.4,0.6s2.3,1,3.4,1.7
			c1.1,0.7,2.1,1.5,3,2.4c0.9,0.9,1.7,1.8,2.3,2.7c0.8,1.2,1.4,2.5,1.8,4c0.4,1.5,0.6,3,0.6,4.4c0,2.3-0.5,4.5-1.6,6.5
			c-1.1,2-2.6,3.7-4.5,5l10.9,19.2H1238z M1228.9,194.6h-7.3v10h7.3c0.7,0,1.4-0.1,2-0.4s1.2-0.6,1.7-1.1c0.5-0.5,0.9-1,1.1-1.6
			c0.3-0.6,0.4-1.3,0.4-2s-0.1-1.4-0.4-2c-0.3-0.6-0.7-1.1-1.1-1.6c-0.5-0.5-1-0.8-1.7-1.1S1229.6,194.6,1228.9,194.6z"/>
		<path class="st3" d="M1276,232.3c-3.4,0-6.7-0.6-9.7-1.9c-3-1.3-5.6-3-7.9-5.3c-2.2-2.2-4-4.8-5.3-7.8c-1.3-3-2-6.2-2-9.6
			c0-3.4,0.6-6.6,2-9.6c1.3-3,3.1-5.6,5.3-7.8s4.9-4,7.9-5.3c3-1.3,6.2-2,9.7-2c3.4,0,6.6,0.7,9.6,2c3,1.3,5.6,3.1,7.9,5.3
			c2.2,2.2,4,4.8,5.3,7.8s2,6.2,2,9.6c0,3.4-0.7,6.6-2,9.6s-3.1,5.6-5.3,7.8c-2.2,2.2-4.9,4-7.9,5.3
			C1282.6,231.6,1279.4,232.3,1276,232.3z M1276,194.9c-1.8,0-3.4,0.4-4.9,1.1s-2.8,1.6-3.9,2.8s-1.9,2.5-2.5,4
			c-0.6,1.5-0.9,3.2-0.9,4.9c0,1.7,0.3,3.3,0.9,4.9c0.6,1.6,1.5,2.9,2.5,4.1s2.4,2.1,3.9,2.8c1.5,0.7,3.1,1,4.9,1
			c1.8,0,3.4-0.3,4.9-1c1.5-0.7,2.8-1.6,3.9-2.8s1.9-2.5,2.6-4.1c0.6-1.6,0.9-3.2,0.9-4.9c0-1.7-0.3-3.3-0.9-4.9
			c-0.6-1.5-1.5-2.9-2.6-4s-2.4-2.1-3.9-2.8S1277.8,194.9,1276,194.9z"/>
		<path class="st3" d="M1322.8,232.3c-3.1,0-6.2-0.4-9.3-1.1c-3.1-0.7-6-1.8-8.8-3.1c-0.1,0-0.3-0.1-0.6-0.2
			c-0.3-0.2-0.5-0.3-0.5-0.4c0,0,0.1-0.2,0.2-0.5c0.2-0.3,0.4-0.6,0.6-1c0.2-0.4,0.5-0.9,0.8-1.4c0.3-0.5,0.6-1.1,1-1.6
			c0.7-1.1,1.3-2.2,1.9-3.2c0.6-1,1-1.7,1.3-2.2c0.5,0.2,1,0.4,1.5,0.7c2.2,1.1,4.3,1.9,6.5,2.5c2.2,0.6,4.5,0.9,6.9,0.9
			c0.7,0,1.4,0,2.2-0.1c0.8-0.1,1.5-0.2,2.1-0.5c0.6-0.2,1.2-0.6,1.6-1.1c0.4-0.5,0.6-1.2,0.6-2.1c0-0.4-0.1-0.8-0.4-1.2
			s-0.5-0.6-0.9-0.9c-0.4-0.3-0.7-0.5-1.1-0.7c-0.4-0.2-0.8-0.4-1.1-0.5c-0.8-0.3-1.7-0.6-2.6-0.7c-0.9-0.2-1.8-0.3-2.6-0.5
			c-1.2-0.3-2.3-0.5-3.4-0.8c-1.1-0.2-2.2-0.5-3.2-0.8c-1.1-0.3-2.1-0.7-3.1-1.1s-1.9-0.8-2.7-1.4c-1.7-1-3.1-2.4-4.1-4.2
			c-1-1.7-1.5-4.1-1.5-6.9c0-1,0.1-2,0.3-3c0.2-1,0.5-2,1-2.9c0.9-1.8,2-3.4,3.4-4.6s2.9-2.1,4.7-2.8c1.7-0.7,3.5-1.2,5.4-1.4
			c1.9-0.3,3.8-0.4,5.6-0.4c3.1,0,6.1,0.4,9.1,1.1s5.9,2,8.6,3.7c-1,1.7-2,3.3-2.9,5c-0.9,1.6-1.9,3.3-2.8,5c-2.3-1.1-4.6-2-6.8-2.8
			c-2.2-0.7-4.5-1.1-7.1-1.1c-0.6,0-1.2,0-1.9,0.1c-0.7,0.1-1.3,0.2-1.8,0.4c-0.6,0.2-1,0.6-1.4,1c-0.4,0.5-0.5,1.1-0.5,1.8
			c0,0.6,0.1,1,0.4,1.4c0.3,0.4,0.8,0.8,1.5,1.2c0.7,0.3,1.7,0.6,2.7,0.9c1.1,0.3,2.3,0.6,3.5,0.8c1.3,0.3,2.6,0.6,4,0.9
			c1.4,0.4,2.7,0.8,4.1,1.2c1.4,0.5,2.7,1,3.9,1.7c1.2,0.7,2.3,1.4,3.3,2.3c1,0.9,1.7,2,2.3,3.2c0.4,0.9,0.7,1.9,0.9,3
			s0.2,2.1,0.2,3.1c0,3-0.6,5.5-1.9,7.5c-1.2,2-2.9,3.5-4.9,4.6c-2,1.1-4.3,1.9-6.8,2.4C1327.8,232,1325.3,232.3,1322.8,232.3z"/>
	</g>
	<g>
		<path class="st4" d="M300.3,147.4c0,3.5,0,6.7,0,9.5c-10-1.1-19.9-0.8-30-0.1c0-2.8,0-6,0-9.4c3.4,0,6.9,0,10.5,0
			c-4.3-5.9-2.5-11.7,3.9-12.8c0-2,0-3.9,0-5.9c0-8.5-0.1-17,0-25.5c0-1.9-0.5-2.4-2.3-2.4c-20.8,0.1-41.6,0-62.4,0
			c-3,0-4.7-1.7-4.5-4.6c0.1-2.3,1.9-3.8,4.7-3.8c11.5,0,23.1,0,34.6,0c0.4,0,0.7,0,1.1,0c1.3,0.1,2.3-0.6,2.4-1.9
			c0-1.4-0.9-2.1-2.4-2.1c-5.3,0-10.6,0-15.8,0c-2,0-3.8-1.4-4.1-3.2c-0.4-2.1,0.6-4.1,2.5-4.9c0.6-0.2,1.3-0.3,1.9-0.3
			c9.7,0,19.3,0,29,0c0.6,0,1.5,0,1.9-0.4c0.5-0.5,1-1.4,0.9-2c-0.1-0.6-0.9-1.2-1.5-1.6c-0.4-0.2-1.1-0.1-1.6-0.1
			c-16.2,0-32.4,0-48.6,0c-2.8,0-4.7-1.5-4.9-3.8c-0.2-2.8,1.6-4.6,4.5-4.6c8.9,0,17.8,0,26.8,0c16.2,0,32.4,0,48.6,0
			c2.6,0,4.3,1.7,4.3,4.3c0,2.4-1.7,4.1-4.3,4.2c-3.6,0.1-7.3,0-10.9,0c-1.4,0-3-0.2-3.1,1.8c-0.1,1.5,0.9,2.2,3.1,2.2
			c11.5,0,23,0,34.4,0c2.3,0,3.9,1.3,4.3,3.6c0.3,1.7-0.8,3.7-2.7,4.5c-0.6,0.3-1.4,0.3-2.1,0.3c-17.1,0-34.1,0-51.2,0
			c-1.4,0-2.7,0.2-2.9,1.9c-0.1,1.4,0.9,2.1,3,2.1c9.4,0,18.7,0,28.1,0c2.1,0,4,1.4,4.3,3.2c0.4,2.2-0.7,4.3-2.7,4.9
			c-1,0.3-2,0.2-3.1,0.2c-2.4,0-4.7,0-7.1,0c-0.1,0-0.2,0.1-0.5,0.1c0,11.1,0,22.3,0,33.5c5.6,1.2,8.6,7.2,3.7,12.9
			C293.4,147.4,296.7,147.4,300.3,147.4z M290.9,141.9c0.3-3.8-3-5.8-5.3-5.8c-3.8-0.1-5.8,2.9-5.9,5.5c-0.1,3,2.7,5.7,5.9,5.8
			C288.2,147.4,290.8,144.8,290.9,141.9z"/>
		<path class="st4" d="M282.6,291c-2-1.4-2.5-3.2-2.3-5.2c0.2-1.9,1.5-3,3.2-3.9c0.5-0.3,1.1-0.9,1.1-1.4c0.1-8.1,0-16.1,0-24.2
			c-3.4-1.2-4.2-4.8-0.9-7.4c-0.9-0.8-1.7-1.6-2.8-2.6c-0.7,1-1.5,2-2.2,3c-1.3-1.1-1.3-1.1,1.1-4c-0.9-0.8-1.8-1.6-2.7-2.4
			c-1.4,1.8-2.9,2.4-4.6,1.7c-1.5-0.6-2.4-1.8-2.5-3.4c0-1.6,1.3-3.3,2.7-3.6c1.8-0.5,3.1,0.1,4.4,2.1c0.9-0.9,1.8-1.8,2.7-2.7
			c-0.8-1.1-1.7-2.1-2.5-3.1c0-0.1,0.3-0.4,0.7-0.9c0.8,1.1,1.6,2.1,2.5,3.2c1.1-1.2,1.9-2.1,2.7-3c-0.5-0.7-1.2-1.4-1.6-2.3
			c-0.7-1.6,0.2-3.4,1.8-4.5c0.4-0.3,1-0.8,1-1.2c0.1-2,0-4,0-5.8c-4.5,0-8.8,0-13.2,0c-0.4,0-1.2-0.6-1.2-1
			c-0.1-2.9-0.1-5.9-0.1-8.5c10.1,0.8,20,0.8,30.2,0c0,2.7,0,5.8-0.1,8.9c0,0.2-1,0.6-1.6,0.6c-4.1,0.1-8.3,0-12.7,0
			c0,2.1,0,4.1,0,6.1c0,0.3,0.5,0.7,0.9,1c2.8,1.9,2.8,4.9-0.4,7c1,0.8,2,1.6,3,2.5c0.9-0.8,1.9-1.7,3-2.7c1,2.3-1.5,2.5-1.7,4.2
			c0.6,0.6,1.4,1.5,2.3,2.4c2.2-2.4,4.4-2.8,6-1.3c1.6,1.6,1.7,4,0.2,5.5c-1.8,1.7-3.9,1.4-6.1-1.1c-0.9,0.9-1.8,1.7-2.7,2.7
			c0.7,0.7,1.5,1.3,2.1,2c0.3,0.3,0.2,0.9,0.3,1.4c-0.4-0.1-1-0.1-1.3-0.3c-0.7-0.6-1.2-1.4-1.9-2.2c-1.1,1-2,1.8-2.6,2.3
			c0.7,1.6,1.6,2.9,1.7,4.3c0.2,1.7-1.2,2.8-2.8,3.4c0,8.5,0,16.9,0,25.3c4.9,2.6,5.7,5.8,2.1,9.5c2.9,1.9,3.4,4.7,3.3,8
			c-0.2,6.7,0,13.3,0,20c0,0.8-0.5,1.6-0.7,2.4c-0.2-0.8-0.7-1.5-0.7-2.3c-0.1-6.4,0-12.7,0-19.2c-1.4,0-2.6,0-4,0
			c0,4.3,0,8.5,0,12.7c0,2.4,0,4.7,0,7.1c0,0.6-0.4,1.2-0.7,1.8c-0.2-0.1-0.4-0.1-0.6-0.2c0-7.1,0-14.1,0-21.3c-1.4,0-2.7,0-4.1,0
			c0,4.2,0,8.3,0,12.5c0,2.4,0,4.9,0,7.3c0,0.6-0.4,1.1-0.6,1.7c-0.2,0-0.5-0.1-0.7-0.1c-0.1-0.7-0.2-1.3-0.2-2
			c0-7.2,0.1-14.5,0-21.7C279.1,294.8,279.8,292.5,282.6,291z M281.7,286.8c0,2.1,1.5,3.6,3.7,3.6c1.9,0,3.6-1.7,3.6-3.6
			c0-1.8-1.9-3.7-3.8-3.7C283.2,283.1,281.7,284.6,281.7,286.8z M286.9,240.9c0.9,1.2,1.7,2.3,2.5,3.4c1.2-1.2,2.2-2.2,3.2-3.1
			c-1-1.1-1.9-2.1-2.9-3.1C288.6,239.1,287.6,240.2,286.9,240.9z M285.2,242.4c-0.9,0.9-1.9,2-2.7,2.9c0.9,1.1,1.9,2.2,2.8,3.4
			c1.2-1.2,2.1-2.3,3.2-3.4C287.4,244.2,286.3,243.3,285.2,242.4z M284.3,241.2c-1.2-1.2-2.1-2.2-3-3.2c-1.1,1.1-2.2,2.1-3.1,3
			c0.9,1.2,1.8,2.3,2.7,3.5C282.1,243.3,283.1,242.3,284.3,241.2z M285.5,234c-1.2,1-2.4,1.9-3.2,2.6c1.1,1.2,2.1,2.3,3.1,3.4
			c1-1,2-2,3-3C287.4,235.8,286.4,234.8,285.5,234z M287.6,229.9c0-1.6-1.2-2.8-2.3-2.6c-1.4,0.2-2.3,1.1-2.2,2.4
			c0,1.4,1.1,2.1,2.5,2.1C286.8,231.8,287.5,230.9,287.6,229.9z M287.6,252.3c-0.1-1-0.9-1.8-2.2-2c-1.1-0.1-2.4,1.1-2.3,2.3
			c0,1.4,1,2.2,2.2,2.4C286.3,255.1,287.5,253.8,287.6,252.3z M273.9,243.4c1.3-0.1,2.1-0.9,2.2-2.1c0-1.3-0.6-2.3-2.2-2.3
			c-1.5,0-2.3,0.8-2.3,2.2C271.5,242.6,272.5,243.2,273.9,243.4z M296.5,243.3c1.5,0,2.9-1.2,2.7-2.2c-0.2-1.3-0.9-2.3-2.4-2.2
			c-1.3,0.1-2.2,0.8-2.2,2.1C294.5,242.4,295.4,243.1,296.5,243.3z"/>
		<path class="st4" d="M281.8,209c-4.8,1.2-8-1.9-10.9-5.2c-4.1-4.6-6.3-10.1-7-16.3c-1-8.1,0.6-15.6,5.2-22.4
			c2.1-3.2,4.9-5.7,8.3-7.4c1.3-0.6,3.1-0.4,4.6-0.6C277.1,174.5,277.2,191.7,281.8,209z"/>
		<path class="st4" d="M288.7,209.2c4.9-17.5,4.8-34.6,0.1-51.7c4.3-1,7.3,1.4,10,4.2c5.6,5.7,8.1,12.7,8.3,20.7
			c0.2,7.7-1.7,14.7-6.6,20.6c-1.8,2.2-4.3,4.1-6.8,5.6C292.3,209.3,290.3,209,288.7,209.2z"/>
		<path class="st4" d="M334,131.1c-10.1,0-20.2,0-30.2,0c-3.1,0-5-1.8-5-4.7c0-2.7,2.2-4.8,5-4.8c2.2,0,4.4,0.1,6.6,0
			c0.7,0,1.3-0.7,2-1.1c-0.7-0.5-1.3-1.4-2-1.4c-4.6-0.1-9.2-0.1-13.8-0.1c-3.1,0-5.2-2-5.2-4.8c0-2.5,2.4-4.7,5.2-4.7
			c13.3,0,26.6,0,39.9,0c0.4,0,0.8,0.1,1.1,0c0.7-0.3,1.3-0.8,1.9-1.2c-0.7-0.4-1.3-1-2-1.3c-0.6-0.2-1.3,0-2,0
			c-5.4,0-10.8,0-16.2,0c-3,0-5.2-2-5.2-4.8c0-2.6,2.3-4.7,5.2-4.7c13.1,0,26.1,0,39.2,0c3.1,0,5.1,1.9,5.1,4.8
			c0,2.8-2.1,4.6-5.1,4.7c-2.4,0-4.7-0.1-7.1,0.1c-0.7,0-1.8,0.7-1.9,1.1c-0.1,1,0.8,1.4,1.9,1.4c6.9,0,13.7,0,20.6,0
			c3,0,5.1,2,5.1,4.9c0,2.7-2,4.6-5,4.6c-15.2,0-30.4,0-45.6,0c-0.4,0-0.9-0.2-1.3,0c-0.6,0.4-1,0.9-1.5,1.4c0.5,0.4,1,1.1,1.5,1.1
			c3.4,0.1,6.8,0.1,10.2,0.1c9.7,0,19.3,0,29,0c2,0,3.6,0.9,4.7,2.6c1,1.6,0.8,3.2-0.2,4.8c-1,1.5-2.4,2.1-4.1,2.1
			C354.4,131.1,344.2,131.1,334,131.1z M333.9,129.6C333.9,129.6,333.9,129.7,333.9,129.6c2.2,0,4.5,0,6.7,0c7.9,0,15.9,0,23.8,0.1
			c1.5,0,2.6-0.6,3.3-1.9c1.3-2.3-0.5-4.8-3.4-4.8c-13.1,0-26.1,0-39.2,0c-2.4,0-3.7-2-2.7-4c0.8-1.4,2.1-1.5,3.4-1.5
			c15.2,0,30.5,0,45.7,0c2.6,0,3.8-1,3.8-3.2c0-2.1-1.4-3.3-3.8-3.3c-6.9,0-13.7,0-20.6,0c-1.9,0-3.1-1-3.1-2.7
			c0-1.6,1.2-2.7,3.2-2.7c2.4,0,4.7,0,7.1,0c2.2,0,3.7-1.3,3.7-3.3c0-2-1.3-3.3-3.6-3.3c-13.1,0-26.2,0-39.3,0c-0.8,0-2,0.3-2.4,0.9
			c-0.6,0.9-1.1,2.2-1,3.2c0.3,1.6,1.5,2.5,3.3,2.5c6.3,0,12.5,0,18.8,0c1.5,0,2.6,0.6,3,2.1c0.6,1.9-0.8,3.4-3,3.4
			c-13.8,0-27.6,0-41.3,0c-2,0-3.6,1.4-3.6,3.2c0,1.9,1.4,3.3,3.5,3.3c2.8,0,5.6,0,8.4,0c2.2,0,4.4-0.1,6.5,0.1
			c1.8,0.2,2.6,1.3,2.5,3c-0.1,1.5-1.2,2.4-2.9,2.4c-2.2,0-4.5,0-6.7,0c-2.3,0-4.1,1.5-4,3.3c0.1,1.8,1.5,3.3,3.8,3.3
			C313.8,129.6,323.8,129.6,333.9,129.6z"/>
		<path class="st4" d="M291.3,181.7c-0.3,8.9-0.4,17.5-3.2,25.7c-0.7,2-1.9,1.5-3.2,1.7c-1.5,0.2-1.9-0.7-2.2-1.8
			c-2.7-8-3.1-16.2-3.1-24.5c0-7.1,0.4-14.1,2.2-21c0.2-0.8,0.4-1.5,0.7-2.2c0.8-2.2,2-2.9,4.3-2.2c0.4,0.1,0.8,0.7,0.9,1.1
			c1,3.9,2.1,7.9,2.8,11.9C291,174.2,291,178.1,291.3,181.7z"/>
		<path class="st4" d="M295.7,157c2.3,0.8,4.6,1.6,6.8,2.5c6.3,2.8,11.4,7.1,14.6,13.3c5,9.9,2.8,20.4-5.6,28.3
			c-3.9,3.7-8.5,6.2-13.7,7.8c-0.3,0.1-0.6,0.2-0.9,0.2c-0.4,0-0.8,0-1.7,0c9.1-6.5,13-15.3,12.9-25.8c0-10.5-3.8-19.4-12.6-25.6
			C295.5,157.4,295.6,157.2,295.7,157z"/>
		<path class="st4" d="M274.9,209.3c-1.5-0.5-3.1-0.8-4.6-1.4c-6.8-2.8-12.5-6.9-16.3-13.4c-2-3.5-3.3-7.4-3.2-11.3
			c0.1-5,1.8-9.8,4.9-13.9c4.5-6,10.7-9.6,17.7-11.9c0.5-0.2,1.1-0.1,2.2-0.1c-9.2,6.5-13,15.4-13.1,25.8c0,10.5,3.7,19.4,12.6,25.7
			C275.1,209,275,209.1,274.9,209.3z"/>
		<path class="st4" d="M321.4,263.7c-1-1.8-0.6-3.5-0.4-5.3c0-0.1,0.9-0.3,1-0.1C322.5,258.8,322,262.9,321.4,263.7z"/>
		<path class="st4" d="M260.9,117.5c-0.4,0.5-0.5,0.7-0.7,0.9c-0.9,1-1.8,1.9-2.8,2.8c-0.2,0.2-0.6,0.2-0.9,0.2
			c0-0.4-0.1-0.8,0.1-1.1c0.9-1,1.8-2,2.8-2.9C259.6,117.3,260.2,117.5,260.9,117.5z"/>
		<path class="st4" d="M329.5,261c0,0.4,0.1,0.9-0.1,1.1c-0.9,1-1.9,2-2.9,2.9c-0.2,0.2-0.7,0.1-1,0.1c0.1-0.3,0-0.7,0.2-0.9
			c1-1.2,2.1-2.4,3.1-3.7C328.9,260.7,329.2,260.9,329.5,261z"/>
		<path class="st4" d="M321.2,274.5c1.2,1.1,1.3,4.6,0,6C321.2,278.4,321.2,276.5,321.2,274.5z"/>
		<path class="st4" d="M244.5,133.1c1-1.7,2.1-3.2,4.1-3.8C247.7,131.2,246.4,132.5,244.5,133.1z"/>
		<path class="st4" d="M318.2,273.8c-1.2,1.1-2.4,2.1-3.6,3.2c-0.2,0.2-0.6,0.1-0.9,0.1c0-0.3-0.1-0.7,0-0.8c1-1.1,2.1-2.2,3.2-3.2
			c0.2-0.1,0.7,0.1,1,0.2C317.9,273.4,318.1,273.6,318.2,273.8z"/>
		<path class="st4" d="M244,126c-0.5,0-1.1,0.1-1.6,0c-0.4-0.1-0.7-0.4-1.1-0.6c0.3-0.2,0.6-0.6,0.9-0.6c1.2-0.1,2.4-0.1,3.6,0
			c0.3,0,0.6,0.5,0.9,0.7c-0.3,0.2-0.6,0.5-0.9,0.6C245.2,126,244.6,126,244,126z"/>
		<path class="st4" d="M317.8,264.9c-1.5,0.1-3.8-2-4.4-3.9C315.6,261.7,316.4,263.6,317.8,264.9z"/>
		<path class="st4" d="M325.5,273c0.1,0,0.7-0.1,0.9,0.1c1.1,1.2,2.2,2.4,3.2,3.6c-0.2,0.2-0.4,0.4-0.6,0.6
			C327.9,275.9,326.7,274.5,325.5,273z"/>
		<path class="st4" d="M252.8,136.5c-1.1-0.6-1.3-4.1,0-6.1C252.8,132.7,252.8,134.6,252.8,136.5z"/>
		<path class="st4" d="M252.8,114.1c0,1.9,0,3.7,0,5.6C251.6,119.1,251.4,115.5,252.8,114.1z"/>
		<path class="st4" d="M263.8,124.9c-0.9,1.4-4.7,1.4-5.9,0C259.9,124.9,261.7,124.9,263.8,124.9z"/>
		<path class="st4" d="M327.1,269.5c0.9-1.5,4.9-1.4,5.6,0C330.9,269.5,329.1,269.5,327.1,269.5z"/>
		<path class="st4" d="M244.6,117.5c0.1,0,0.7-0.2,0.8,0c1.1,1.2,2.8,2.1,2.8,4.2C247.1,120.3,245.8,118.9,244.6,117.5z"/>
		<path class="st4" d="M310.5,269.4c0.6-1.3,4.4-1.4,5.6,0C314.1,269.4,312.3,269.4,310.5,269.4z"/>
		<path class="st4" d="M256.9,129.1c1.2,1.2,2.5,2.4,3.8,3.6c-1,0.6-1,0.6-3.7-2.2c-0.3-0.3-0.4-0.9-0.6-1.3
			C256.5,129.2,256.7,129.2,256.9,129.1z"/>
	</g>
	<g>
		<path class="st4" d="M1626.1,147.8c-4.9-5.7-1.9-11.7,3.7-12.9c0-11.2,0-22.4,0-33.5c-0.3-0.1-0.4-0.1-0.5-0.1c-2.4,0-4.7,0-7.1,0
			c-1,0-2.1,0.1-3.1-0.2c-2-0.6-3.2-2.8-2.7-4.9c0.3-1.8,2.2-3.2,4.3-3.2c9.4,0,18.7,0,28.1,0c2,0,3.1-0.7,3-2.1
			c-0.1-1.8-1.4-1.9-2.9-1.9c-17.1,0-34.1,0-51.2,0c-0.7,0-1.5,0-2.1-0.3c-1.9-0.8-3-2.8-2.7-4.5c0.4-2.2,2-3.6,4.3-3.6
			c11.5,0,23,0,34.4,0c2.2,0,3.2-0.7,3.1-2.2c-0.1-2-1.7-1.8-3.1-1.8c-3.6,0-7.3,0-10.9,0c-2.6,0-4.3-1.8-4.3-4.2
			c0-2.6,1.7-4.3,4.3-4.3c16.2,0,32.4,0,48.6,0c8.9,0,17.8,0,26.8,0c2.9,0,4.7,1.8,4.5,4.6c-0.2,2.3-2,3.8-4.9,3.8
			c-16.2,0-32.4,0-48.6,0c-0.5,0-1.2-0.2-1.6,0.1c-0.6,0.4-1.4,1-1.5,1.6c-0.1,0.6,0.4,1.5,0.9,2c0.4,0.4,1.2,0.4,1.9,0.4
			c9.7,0,19.3,0,29,0c0.6,0,1.3,0.1,1.9,0.3c1.9,0.8,3,2.8,2.5,4.9c-0.4,1.8-2.1,3.2-4.1,3.2c-5.3,0-10.6,0-15.8,0
			c-1.5,0-2.4,0.7-2.4,2.1c0,1.3,1,2,2.4,1.9c0.4,0,0.7,0,1.1,0c11.5,0,23.1,0,34.6,0c2.8,0,4.5,1.5,4.7,3.8
			c0.2,2.9-1.5,4.6-4.5,4.6c-20.8,0-41.6,0-62.4,0c-1.8,0-2.4,0.5-2.3,2.4c0.1,8.5,0,17,0,25.5c0,2,0,4,0,5.9
			c6.4,1.1,8.1,7,3.9,12.8c3.6,0,7.1,0,10.5,0c0,3.4,0,6.6,0,9.4c-10.1-0.6-20-1-30,0.1c0-2.9,0-6.1,0-9.5
			C1619.2,147.8,1622.6,147.8,1626.1,147.8z M1630.5,147.8c3.1-0.1,6-2.8,5.9-5.8c-0.1-2.6-2.2-5.6-5.9-5.5c-2.3,0-5.7,2.1-5.3,5.8
			C1625.1,145.2,1627.7,147.8,1630.5,147.8z"/>
		<path class="st4" d="M1636.8,298c-0.1,7.2,0,14.4,0,21.7c0,0.7-0.1,1.3-0.2,2c-0.2,0-0.5,0.1-0.7,0.1c-0.2-0.6-0.5-1.1-0.6-1.7
			c-0.1-2.4,0-4.9,0-7.3c0-4.2,0-8.3,0-12.5c-1.5,0-2.7,0-4.1,0c0,7.2,0,14.3,0,21.3c-0.2,0.1-0.4,0.1-0.6,0.2
			c-0.2-0.6-0.6-1.2-0.7-1.8c-0.1-2.4,0-4.7,0-7.1c0-4.2,0-8.5,0-12.7c-1.4,0-2.7,0-4,0c0,6.5,0,12.8,0,19.2c0,0.8-0.4,1.5-0.7,2.3
			c-0.3-0.8-0.7-1.6-0.7-2.4c0-6.7,0.2-13.3,0-20c-0.1-3.3,0.4-6.1,3.3-8c-3.6-3.7-2.8-6.9,2.1-9.5c0-8.4,0-16.9,0-25.3
			c-1.7-0.6-3-1.7-2.8-3.4c0.1-1.4,1-2.7,1.7-4.3c-0.5-0.5-1.4-1.3-2.6-2.3c-0.7,0.8-1.2,1.6-1.9,2.2c-0.3,0.3-0.8,0.2-1.3,0.3
			c0.1-0.5,0-1.1,0.3-1.4c0.6-0.7,1.4-1.3,2.1-2c-1-1-1.8-1.8-2.7-2.7c-2.2,2.4-4.3,2.8-6.1,1.1c-1.5-1.5-1.5-3.9,0.2-5.5
			c1.6-1.5,3.8-1.1,6,1.3c0.8-0.9,1.7-1.8,2.3-2.4c-0.2-1.7-2.7-2-1.7-4.2c1.2,1,2.1,1.9,3,2.7c1.1-0.9,2-1.6,3-2.5
			c-3.2-2.1-3.2-5.1-0.4-7c0.4-0.2,0.9-0.6,0.9-1c0.1-2,0-4,0-6.1c-4.4,0-8.6,0-12.7,0c-0.5,0-1.6-0.4-1.6-0.6
			c-0.1-3.1-0.1-6.1-0.1-8.9c10.2,0.8,20.1,0.8,30.2,0c0,2.7,0,5.6-0.1,8.5c0,0.4-0.8,1-1.2,1c-4.3,0.1-8.7,0-13.2,0
			c0,1.9-0.1,3.9,0,5.8c0,0.4,0.6,0.9,1,1.2c1.6,1.1,2.5,3,1.8,4.5c-0.4,0.9-1.1,1.6-1.6,2.3c0.8,0.9,1.6,1.8,2.7,3
			c0.9-1.1,1.7-2.1,2.5-3.2c0.4,0.5,0.8,0.8,0.7,0.9c-0.8,1.1-1.6,2.1-2.5,3.1c0.9,0.9,1.8,1.8,2.7,2.7c1.3-2,2.6-2.6,4.4-2.1
			c1.4,0.4,2.8,2,2.7,3.6c0,1.7-0.9,2.8-2.5,3.4c-1.7,0.7-3.1,0.1-4.6-1.7c-0.9,0.8-1.8,1.6-2.7,2.4c2.5,3,2.5,3,1.1,4
			c-0.7-1-1.5-2-2.2-3c-1.1,1-1.9,1.8-2.8,2.6c3.3,2.6,2.5,6.2-0.9,7.4c0,8.1,0,16.1,0,24.2c0,0.5,0.6,1.1,1.1,1.4
			c1.6,0.9,2.9,2,3.2,3.9c0.2,2-0.3,3.8-2.3,5.2C1636.1,292.9,1636.8,295.2,1636.8,298z M1630.7,283.5c-1.9,0-3.8,1.9-3.8,3.7
			c0,1.9,1.7,3.6,3.6,3.6c2.2,0,3.7-1.4,3.7-3.6C1634.3,285,1632.8,283.5,1630.7,283.5z M1626.2,238.4c-0.9,1-1.9,2.1-2.9,3.1
			c0.9,0.9,2,1.9,3.2,3.1c0.8-1.1,1.6-2.2,2.5-3.4C1628.3,240.6,1627.3,239.5,1626.2,238.4z M1627.4,245.6c1.1,1.2,2.1,2.2,3.2,3.4
			c1-1.2,1.9-2.3,2.8-3.4c-0.8-0.8-1.8-1.9-2.7-2.9C1629.6,243.7,1628.6,244.6,1627.4,245.6z M1635.1,244.9c1-1.3,1.8-2.4,2.7-3.5
			c-0.9-0.9-2-1.9-3.1-3c-0.9,1-1.9,2-3,3.2C1632.8,242.7,1633.9,243.7,1635.1,244.9z M1627.5,237.3c1,1,2,2,3,3
			c1-1.1,2-2.2,3.1-3.4c-0.8-0.7-2-1.6-3.2-2.6C1629.6,235.2,1628.6,236.2,1627.5,237.3z M1630.5,232.2c1.4,0.1,2.4-0.7,2.5-2.1
			c0-1.3-0.8-2.3-2.2-2.4c-1.2-0.1-2.3,1-2.3,2.6C1628.4,231.3,1629.2,232.2,1630.5,232.2z M1630.7,255.3c1.3-0.2,2.2-1,2.2-2.4
			c0-1.1-1.3-2.4-2.3-2.3c-1.3,0.2-2.2,1-2.2,2C1628.4,254.2,1629.7,255.5,1630.7,255.3z M1644.4,241.5c-0.1-1.4-0.9-2.2-2.3-2.2
			c-1.6,0-2.2,1-2.2,2.3c0,1.3,0.9,2,2.2,2.1C1643.5,243.6,1644.5,243,1644.4,241.5z M1621.4,241.4c0-1.4-0.9-2.1-2.2-2.1
			c-1.5-0.1-2.2,1-2.4,2.2c-0.2,1,1.3,2.2,2.7,2.2C1620.5,243.5,1621.5,242.8,1621.4,241.4z"/>
		<path class="st4" d="M1634.2,209.4c4.8,1.2,8-1.9,10.9-5.2c4.1-4.6,6.3-10.1,7-16.3c1-8.1-0.6-15.6-5.2-22.4
			c-2.1-3.2-4.9-5.7-8.3-7.4c-1.3-0.6-3.1-0.4-4.6-0.6C1638.8,174.9,1638.8,192.1,1634.2,209.4z"/>
		<path class="st4" d="M1627.3,209.6c-4.9-17.5-4.8-34.6-0.1-51.7c-4.3-1-7.3,1.4-10,4.2c-5.6,5.7-8.1,12.7-8.3,20.7
			c-0.2,7.7,1.7,14.7,6.6,20.6c1.8,2.2,4.3,4.1,6.8,5.6C1623.6,209.7,1625.6,209.4,1627.3,209.6z"/>
		<path class="st4" d="M1551.4,131.5c-1.8,0-3.2-0.6-4.1-2.1c-1-1.5-1.2-3.2-0.2-4.8c1.1-1.7,2.6-2.6,4.7-2.6c9.7,0,19.3,0,29,0
			c3.4,0,6.8,0,10.2-0.1c0.5,0,1-0.7,1.5-1.1c-0.5-0.5-1-1-1.5-1.4c-0.3-0.2-0.8,0-1.3,0c-15.2,0-30.4,0-45.6,0c-3,0-5-1.9-5-4.6
			c0-2.9,2-4.9,5.1-4.9c6.9,0,13.7,0,20.6,0c1.1,0,1.9-0.4,1.9-1.4c0-0.4-1.2-1.1-1.9-1.1c-2.4-0.1-4.7,0-7.1-0.1
			c-3,0-5.1-1.9-5.1-4.7c0-2.9,2-4.8,5.1-4.8c13.1,0,26.1,0,39.2,0c2.9,0,5.2,2.1,5.2,4.7c-0.1,2.8-2.2,4.8-5.2,4.8
			c-5.4,0-10.8,0-16.2,0c-0.7,0-1.4-0.2-2,0c-0.7,0.3-1.3,0.8-2,1.3c0.6,0.4,1.2,0.9,1.9,1.2c0.3,0.1,0.7,0,1.1,0
			c13.3,0,26.6,0,39.9,0c2.8,0,5.2,2.2,5.2,4.7c0,2.8-2.2,4.8-5.2,4.8c-4.6,0-9.2-0.1-13.8,0.1c-0.7,0-1.3,0.9-2,1.4
			c0.7,0.4,1.3,1,2,1.1c2.2,0.1,4.4,0,6.6,0c2.9,0,5,2.1,5,4.8c0,2.9-1.9,4.7-5,4.7c-10.1,0-20.2,0-30.2,0
			C1571.8,131.5,1561.6,131.5,1551.4,131.5z M1612.1,130.1c2.3,0,3.7-1.5,3.8-3.3c0.1-1.9-1.7-3.3-4-3.3c-2.2,0-4.5,0-6.7,0
			c-1.7,0-2.8-0.9-2.9-2.4c-0.1-1.6,0.8-2.8,2.5-3c2.2-0.2,4.4-0.1,6.5-0.1c2.8,0,5.6,0,8.4,0c2.1,0,3.5-1.4,3.5-3.3
			c0-1.8-1.5-3.2-3.6-3.2c-13.8,0-27.6,0-41.3,0c-2.2,0-3.6-1.6-3-3.4c0.4-1.5,1.5-2.1,3-2.1c6.3,0,12.5,0,18.8,0
			c1.8,0,3-0.9,3.3-2.5c0.2-1-0.3-2.3-1-3.2c-0.4-0.6-1.6-0.8-2.4-0.9c-13.1,0-26.2,0-39.3,0c-2.3,0-3.7,1.2-3.6,3.3
			c0,2,1.5,3.3,3.7,3.3c2.4,0,4.7,0,7.1,0c2,0,3.2,1.1,3.2,2.7c0,1.7-1.2,2.7-3.1,2.7c-6.9,0-13.7,0-20.6,0c-2.4,0-3.8,1.2-3.8,3.3
			c0,2.2,1.2,3.2,3.8,3.2c15.2,0,30.5,0,45.7,0c1.4,0,2.7,0.1,3.4,1.5c1.1,2-0.3,4-2.7,4c-13.1,0-26.1,0-39.2,0
			c-2.9,0-4.7,2.5-3.4,4.8c0.7,1.2,1.8,1.9,3.3,1.9c7.9,0,15.9-0.1,23.8-0.1c2.2,0,4.5,0,6.7,0c0,0,0,0,0,0
			C1592.1,130.1,1602.1,130,1612.1,130.1z"/>
		<path class="st4" d="M1624.7,182.1c0.3,8.9,0.4,17.5,3.2,25.7c0.7,2,1.9,1.5,3.2,1.7c1.5,0.2,1.9-0.7,2.2-1.8
			c2.7-8,3.1-16.2,3.1-24.5c0-7.1-0.4-14.1-2.2-21c-0.2-0.8-0.4-1.5-0.7-2.2c-0.8-2.2-2-2.9-4.3-2.2c-0.4,0.1-0.8,0.7-0.9,1.1
			c-1,3.9-2.1,7.9-2.8,11.9C1624.9,174.7,1624.9,178.6,1624.7,182.1z"/>
		<path class="st4" d="M1620.3,157.4c-2.3,0.8-4.6,1.6-6.8,2.5c-6.3,2.8-11.4,7.1-14.6,13.3c-5,9.9-2.8,20.4,5.6,28.3
			c3.9,3.7,8.5,6.2,13.7,7.8c0.3,0.1,0.6,0.2,0.9,0.2c0.4,0,0.8,0,1.7,0c-9.1-6.5-13-15.3-12.9-25.8c0-10.5,3.8-19.4,12.6-25.6
			C1620.4,157.8,1620.4,157.6,1620.3,157.4z"/>
		<path class="st4" d="M1641,209.7c1.5-0.5,3.1-0.8,4.6-1.4c6.8-2.8,12.5-6.9,16.3-13.4c2-3.5,3.3-7.4,3.2-11.3
			c-0.1-5-1.8-9.8-4.9-13.9c-4.5-6-10.7-9.6-17.7-11.9c-0.5-0.2-1.1-0.1-2.2-0.1c9.2,6.5,13,15.4,13.1,25.8
			c0,10.5-3.7,19.4-12.6,25.7C1640.9,209.4,1641,209.6,1641,209.7z"/>
		<path class="st4" d="M1594.6,264.1c1-1.8,0.6-3.5,0.4-5.3c0-0.1-0.9-0.3-1-0.1C1593.5,259.2,1594,263.3,1594.6,264.1z"/>
		<path class="st4" d="M1655.1,117.9c0.4,0.5,0.5,0.7,0.7,0.9c0.9,1,1.8,1.9,2.8,2.8c0.2,0.2,0.6,0.2,0.9,0.2c0-0.4,0.1-0.8-0.1-1.1
			c-0.9-1-1.8-2-2.8-2.9C1656.4,117.7,1655.8,117.9,1655.1,117.9z"/>
		<path class="st4" d="M1586.5,261.4c0,0.4-0.1,0.9,0.1,1.1c0.9,1,1.9,2,2.9,2.9c0.2,0.2,0.7,0.1,1,0.1c-0.1-0.3,0-0.7-0.2-0.9
			c-1-1.2-2.1-2.4-3.1-3.7C1587,261.1,1586.8,261.3,1586.5,261.4z"/>
		<path class="st4" d="M1594.8,275c-1.2,1.1-1.3,4.6,0,6C1594.8,278.8,1594.8,277,1594.8,275z"/>
		<path class="st4" d="M1671.4,133.5c-1-1.7-2.1-3.2-4.1-3.8C1668.2,131.6,1669.6,132.9,1671.4,133.5z"/>
		<path class="st4" d="M1597.8,274.2c1.2,1.1,2.4,2.1,3.6,3.2c0.2,0.2,0.6,0.1,0.9,0.1c0-0.3,0.1-0.7,0-0.8c-1-1.1-2.1-2.2-3.2-3.2
			c-0.2-0.1-0.7,0.1-1,0.2C1598,273.8,1597.9,274,1597.8,274.2z"/>
		<path class="st4" d="M1671.9,126.4c0.5,0,1.1,0.1,1.6,0c0.4-0.1,0.7-0.4,1.1-0.6c-0.3-0.2-0.6-0.6-0.9-0.6c-1.2-0.1-2.4-0.1-3.6,0
			c-0.3,0-0.6,0.5-0.9,0.7c0.3,0.2,0.6,0.5,0.9,0.6C1670.7,126.4,1671.3,126.4,1671.9,126.4z"/>
		<path class="st4" d="M1598.1,265.3c1.5,0.1,3.8-2,4.4-3.9C1600.3,262.1,1599.5,264,1598.1,265.3z"/>
		<path class="st4" d="M1590.4,273.4c-0.1,0-0.7-0.1-0.9,0.1c-1.1,1.2-2.2,2.4-3.2,3.6c0.2,0.2,0.4,0.4,0.6,0.6
			C1588.1,276.3,1589.3,274.9,1590.4,273.4z"/>
		<path class="st4" d="M1663.2,136.9c1.1-0.6,1.3-4.1,0-6.1C1663.2,133.1,1663.2,135,1663.2,136.9z"/>
		<path class="st4" d="M1663.1,114.5c0,1.9,0,3.7,0,5.6C1664.3,119.5,1664.5,116,1663.1,114.5z"/>
		<path class="st4" d="M1652.2,125.3c0.9,1.4,4.7,1.4,5.9,0C1656,125.3,1654.2,125.3,1652.2,125.3z"/>
		<path class="st4" d="M1588.9,269.9c-0.9-1.5-4.9-1.4-5.6,0C1585.1,269.9,1586.9,269.9,1588.9,269.9z"/>
		<path class="st4" d="M1671.3,117.9c-0.1,0-0.7-0.2-0.8,0c-1.1,1.2-2.8,2.1-2.8,4.2C1668.9,120.7,1670.1,119.3,1671.3,117.9z"/>
		<path class="st4" d="M1605.4,269.8c-0.6-1.3-4.4-1.4-5.6,0C1601.8,269.8,1603.6,269.8,1605.4,269.8z"/>
		<path class="st4" d="M1659.1,129.6c-1.2,1.2-2.5,2.4-3.8,3.6c1,0.6,1,0.6,3.7-2.2c0.3-0.3,0.4-0.9,0.6-1.3
			C1659.5,129.6,1659.3,129.6,1659.1,129.6z"/>
	</g>
	<g>
		<path class="st5" d="M790.2,250.8v46.2h-11.5v-24.8c0-3.6-0.1-5.7-0.3-6.5s-0.6-1.3-1.4-1.6c-0.8-0.4-2.5-0.6-5.2-0.6h-1.1v-5.4
			c5.6-1.2,9.8-3.7,12.7-7.4H790.2z"/>
		<path class="st5" d="M823.9,266.5v15.4c0,3.5-0.2,6.1-0.6,7.7c-0.4,1.6-1.2,3.1-2.4,4.5s-2.6,2.4-4.3,3c-1.7,0.6-3.6,0.9-5.7,0.9
			c-2.8,0-5.1-0.3-6.9-1c-1.8-0.6-3.3-1.6-4.4-3c-1.1-1.4-1.9-2.8-2.3-4.3s-0.7-3.9-0.7-7.1v-16.1c0-4.2,0.4-7.4,1.1-9.5
			c0.7-2.1,2.2-3.8,4.4-5.1c2.2-1.3,4.8-1.9,7.9-1.9c2.5,0,4.8,0.4,6.8,1.3s3.5,2,4.5,3.2c1,1.3,1.7,2.7,2,4.3
			C823.7,260.4,823.9,263,823.9,266.5z M812.4,262.6c0-2.5-0.1-4-0.4-4.6c-0.2-0.6-0.8-0.9-1.7-0.9c-0.9,0-1.4,0.3-1.7,1
			c-0.3,0.7-0.4,2.2-0.4,4.6v22.6c0,2.7,0.1,4.3,0.4,4.9c0.3,0.6,0.8,0.8,1.7,0.8s1.4-0.3,1.7-1c0.3-0.6,0.4-2.1,0.4-4.4V262.6z"/>
		<path class="st5" d="M857.3,297.1h-14.5V265h14.5c2.2,0,4.3,0.4,6.2,1.3c1.9,0.8,3.6,2,5.1,3.4c1.5,1.4,2.6,3.1,3.5,5.1
			c0.8,1.9,1.3,4,1.3,6.2c0,2.2-0.4,4.3-1.3,6.2c-0.8,1.9-2,3.7-3.5,5.1c-1.5,1.5-3.2,2.6-5.1,3.5
			C861.6,296.7,859.5,297.1,857.3,297.1z M856.4,273.3H852v15.4h4.4c1.1,0,2.1-0.2,3-0.6c0.9-0.4,1.7-1,2.4-1.7
			c0.7-0.7,1.3-1.5,1.7-2.4c0.4-0.9,0.6-1.9,0.6-3c0-1.1-0.2-2.1-0.6-3c-0.4-0.9-1-1.7-1.7-2.4c-0.7-0.7-1.5-1.2-2.4-1.7
			C858.5,273.5,857.5,273.3,856.4,273.3z"/>
		<path class="st5" d="M876.3,297.1V265h25.5v8h-17v3.9h16.1v8.1h-16.1v3.9h17v8.1H876.3z"/>
		<path class="st5" d="M930.8,268.6v5.2h17.4v9.2h-17.4v14.1h-10.1v-37l0.8-0.8h29v9.3H930.8z"/>
		<path class="st5" d="M955.5,297.1V265h25.5v8h-17v3.9H980v8.1h-16.1v3.9h17v8.1H955.5z"/>
		<path class="st5" d="M1004,297.1h-17.9V265h16.6c0.6,0,1.3,0.1,1.9,0.2c0.6,0.2,1.3,0.4,1.9,0.7c0.6,0.3,1.2,0.6,1.8,1
			c0.6,0.4,1,0.8,1.4,1.3c0.7,0.8,1.2,1.8,1.6,2.8c0.4,1,0.6,2.1,0.6,3.2c0,1.2-0.2,2.4-0.7,3.5c-0.4,1.1-1.1,2.1-1.9,2.9
			c1.1,0.8,2,1.9,2.6,3.2c0.6,1.4,0.9,2.7,0.9,4.1c0,1.2-0.2,2.4-0.6,3.5c-0.4,1.1-1,2.1-1.8,2.9c-0.8,0.8-1.7,1.5-2.7,2
			C1006.4,296.8,1005.3,297.1,1004,297.1z M1000.1,272H995v5.6h5.1c0.8,0,1.4-0.3,2-0.8c0.5-0.6,0.8-1.2,0.8-2
			c0-0.7-0.3-1.4-0.8-1.9C1001.5,272.3,1000.9,272,1000.1,272z M1000.4,284.1H995v5.7h5.4c0.8,0,1.4-0.3,2-0.8
			c0.6-0.6,0.8-1.2,0.8-2c0-0.8-0.3-1.4-0.8-2C1001.8,284.3,1001.2,284.1,1000.4,284.1z"/>
		<path class="st5" d="M1036.6,297.1l-5.1-9.8h-5.7v9.8h-9.4V265h16.8c0.7,0,1.5,0.1,2.3,0.3c0.8,0.2,1.6,0.5,2.3,0.9
			c0.7,0.4,1.4,0.8,2.1,1.3c0.6,0.5,1.2,1.1,1.6,1.8c0.6,0.8,1,1.7,1.3,2.6c0.3,0.9,0.4,1.9,0.4,2.9c0,1.6-0.4,3-1.1,4.4
			s-1.7,2.5-2.9,3.5l7.5,14.4H1036.6z M1030.5,272.5h-4.7v6.1h4.7c0.8,0,1.6-0.3,2.2-0.9c0.6-0.6,0.9-1.3,0.9-2.2s-0.3-1.6-0.9-2.2
			C1032.1,272.8,1031.4,272.5,1030.5,272.5z"/>
		<path class="st5" d="M1048.3,297.1V265h25.5v8h-17v3.9h16.1v8.1h-16.1v3.9h17v8.1H1048.3z"/>
		<path class="st5" d="M1098.4,297.1l-5.1-9.8h-5.7v9.8h-9.4V265h16.8c0.7,0,1.5,0.1,2.3,0.3c0.8,0.2,1.6,0.5,2.3,0.9
			c0.7,0.4,1.4,0.8,2.1,1.3c0.6,0.5,1.2,1.1,1.6,1.8c0.6,0.8,1,1.7,1.3,2.6c0.3,0.9,0.4,1.9,0.4,2.9c0,1.6-0.4,3-1.1,4.4
			s-1.7,2.5-2.9,3.5l7.5,14.4H1098.4z M1092.3,272.5h-4.7v6.1h4.7c0.8,0,1.6-0.3,2.2-0.9c0.6-0.6,0.9-1.3,0.9-2.2s-0.3-1.6-0.9-2.2
			C1093.9,272.8,1093.2,272.5,1092.3,272.5z"/>
		<path class="st5" d="M1124.1,298c-2.3,0-4.5-0.4-6.6-1.3c-2.1-0.9-3.9-2.1-5.4-3.6c-1.5-1.5-2.8-3.3-3.7-5.4
			c-0.9-2.1-1.3-4.3-1.3-6.6c0-2.3,0.4-4.5,1.3-6.6c0.9-2.1,2.1-3.9,3.7-5.4c1.5-1.5,3.4-2.8,5.4-3.7c2.1-0.9,4.3-1.3,6.6-1.3
			s4.5,0.4,6.6,1.3c2.1,0.9,3.9,2.1,5.4,3.6c1.5,1.5,2.8,3.3,3.7,5.4c0.9,2.1,1.3,4.3,1.3,6.6c0,2.3-0.4,4.5-1.3,6.6
			c-0.9,2.1-2.1,3.9-3.7,5.4c-1.5,1.5-3.4,2.7-5.4,3.6C1128.7,297.6,1126.5,298,1124.1,298z M1124.2,272.8c-1.1,0-2.1,0.2-3.1,0.7
			c-1,0.4-1.8,1-2.5,1.8c-0.7,0.7-1.2,1.6-1.7,2.6c-0.4,1-0.6,2-0.6,3.1s0.2,2.1,0.6,3.1c0.4,1,1,1.9,1.7,2.6
			c0.7,0.8,1.5,1.4,2.5,1.8c1,0.4,2,0.7,3.1,0.7c1.1,0,2.1-0.2,3.1-0.7c1-0.4,1.8-1,2.5-1.8c0.7-0.8,1.2-1.6,1.6-2.6
			c0.4-1,0.6-2,0.6-3.1s-0.2-2.1-0.6-3.1c-0.4-1-0.9-1.9-1.6-2.6c-0.7-0.7-1.5-1.3-2.5-1.8C1126.3,273.1,1125.3,272.8,1124.2,272.8z
			"/>
	</g>
	<g>
		<ellipse class="st6" cx="444.5" cy="211" rx="18.8" ry="18.5"/>
		<ellipse class="st7" cx="355.6" cy="188.3" rx="2.2" ry="2.1"/>
		<ellipse class="st7" cx="369.6" cy="208.6" rx="2.2" ry="2.1"/>
		<ellipse class="st7" cx="341.5" cy="208.6" rx="2.2" ry="2.1"/>
		<ellipse class="st7" cx="355.6" cy="228.8" rx="2.2" ry="2.1"/>
		<ellipse class="st7" cx="522.3" cy="188.3" rx="2.2" ry="2.1"/>
		<ellipse class="st7" cx="536.3" cy="208.6" rx="2.2" ry="2.1"/>
		<ellipse class="st7" cx="508.2" cy="208.6" rx="2.2" ry="2.1"/>
		<ellipse class="st7" cx="522.3" cy="228.8" rx="2.2" ry="2.1"/>
		<ellipse class="st7" cx="444.5" cy="262.2" rx="2.2" ry="2.1"/>
		<ellipse class="st7" cx="458.6" cy="282.5" rx="2.2" ry="2.1"/>
		<ellipse class="st7" cx="430.5" cy="282.5" rx="2.2" ry="2.1"/>
		<ellipse class="st7" cx="444.5" cy="302.7" rx="2.2" ry="2.1"/>
		<ellipse class="st7" cx="444.5" cy="119.3" rx="2.2" ry="2.1"/>
		<ellipse class="st7" cx="458.6" cy="139.6" rx="2.2" ry="2.1"/>
		<ellipse class="st7" cx="430.5" cy="139.6" rx="2.2" ry="2.1"/>
		<ellipse class="st7" cx="444.5" cy="159.8" rx="2.2" ry="2.1"/>
	</g>
	<g>
		<ellipse class="st6" cx="1476.4" cy="211" rx="18.8" ry="18.5"/>
		<ellipse class="st7" cx="1387.5" cy="188.3" rx="2.2" ry="2.1"/>
		<ellipse class="st7" cx="1401.5" cy="208.6" rx="2.2" ry="2.1"/>
		<ellipse class="st7" cx="1373.4" cy="208.6" rx="2.2" ry="2.1"/>
		<ellipse class="st7" cx="1387.5" cy="228.8" rx="2.2" ry="2.1"/>
		<ellipse class="st7" cx="1554.2" cy="188.3" rx="2.2" ry="2.1"/>
		<ellipse class="st7" cx="1568.2" cy="208.6" rx="2.2" ry="2.1"/>
		<ellipse class="st7" cx="1540.1" cy="208.6" rx="2.2" ry="2.1"/>
		<ellipse class="st7" cx="1554.2" cy="228.8" rx="2.2" ry="2.1"/>
		<ellipse class="st7" cx="1476.4" cy="262.2" rx="2.2" ry="2.1"/>
		<ellipse class="st7" cx="1490.5" cy="282.5" rx="2.2" ry="2.1"/>
		<ellipse class="st7" cx="1462.4" cy="282.5" rx="2.2" ry="2.1"/>
		<ellipse class="st7" cx="1476.4" cy="302.7" rx="2.2" ry="2.1"/>
		<ellipse class="st7" cx="1476.4" cy="119.3" rx="2.2" ry="2.1"/>
		<ellipse class="st7" cx="1490.5" cy="139.6" rx="2.2" ry="2.1"/>
		<ellipse class="st7" cx="1462.4" cy="139.6" rx="2.2" ry="2.1"/>
		<ellipse class="st7" cx="1476.4" cy="159.8" rx="2.2" ry="2.1"/>
	</g>
</g>
</svg>
