<?xml version="1.0" encoding="utf-8"?>
<!-- Generator: Adobe Illustrator 22.1.0, SVG Export Plug-In . SVG Version: 6.00 Build 0)  -->
<svg version="1.1" id="Capa_1" xmlns="http://www.w3.org/2000/svg" xmlns:xlink="http://www.w3.org/1999/xlink" x="0px" y="0px"
	 viewBox="0 0 1920 202" style="enable-background:new 0 0 1920 202;" xml:space="preserve">
<style type="text/css">
	.st0{fill:#0C3559;stroke:#EFD46B;stroke-width:0.7094;stroke-miterlimit:10;}
	.st1{fill:none;stroke:#FC7E12;stroke-width:2;stroke-miterlimit:10;}
	.st2{fill:none;stroke:#FC7E12;stroke-width:0.7108;stroke-miterlimit:10;}
	.st3{fill:none;stroke:#FC7E12;stroke-width:0.6349;stroke-miterlimit:10;}
	.st4{fill:none;stroke:#FC7E12;stroke-width:1.4215;stroke-miterlimit:10;}
	.st5{fill:#FC7E12;}
</style>
<rect x="-1" class="st0" width="1920" height="202"/>
<g>
	<rect class="st1" width="1920" height="202"/>
	<polyline class="st1" points="674.7,25.1 22.4,25.1 22.4,93 	"/>
	<polyline class="st1" points="1241.8,25.1 1894.1,25.1 1894.1,93 	"/>
	<polyline class="st1" points="674.7,176.9 22.4,176.9 22.4,114 	"/>
	<polyline class="st1" points="1241.8,176.9 1894.1,176.9 1894.1,114 	"/>
	<g>
		<polyline class="st1" points="0,46.5 96.7,46.5 96.7,-0.3 		"/>
		<polyline class="st1" points="57.3,0 57.3,46.5 57.3,61.7 114.7,61.7 114.7,40.3 163.3,40.3 163.3,25.1 		"/>
		<polyline class="st1" points="86,61.7 86,78.3 22.4,78.3 		"/>
		<polyline class="st1" points="0,155.1 96.7,155.1 96.7,202 		"/>
		<polyline class="st1" points="57.3,201.7 57.3,155.1 57.3,140 114.7,140 114.7,161.3 163.3,161.3 163.3,176.6 		"/>
		<polyline class="st1" points="86,140 86,123.3 22.4,123.3 		"/>
	</g>
	<g>
		<polyline class="st1" points="1918,46.7 1821.3,46.7 1821.3,-0.2 		"/>
		<polyline class="st1" points="1860.7,0.2 1860.7,46.7 1860.7,61.8 1803.3,61.8 1803.3,40.5 1754.7,40.5 1754.7,25.3 		"/>
		<polyline class="st1" points="1832,61.8 1832,78.5 1895.6,78.5 		"/>
		<polyline class="st1" points="1918,155.3 1821.3,155.3 1821.3,202.2 		"/>
		<polyline class="st1" points="1860.7,201.8 1860.7,155.3 1860.7,140.2 1803.3,140.2 1803.3,161.5 1754.7,161.5 1754.7,176.7 		"/>
		<polyline class="st1" points="1832,140.2 1832,123.5 1895.6,123.5 		"/>
	</g>
	<line class="st1" x1="688.7" y1="25.1" x2="730.1" y2="25.1"/>
	<line class="st1" x1="688.7" y1="176.9" x2="730.1" y2="176.9"/>
	<line class="st1" x1="1188.1" y1="25.1" x2="1229.5" y2="25.1"/>
	<line class="st1" x1="1188.1" y1="176.9" x2="1229.5" y2="176.9"/>
</g>
<g>
	<path class="st2" d="M1454.2,104.1C1454.2,104.1,1454.2,104.1,1454.2,104.1c2.6,0,5.3,0,7.9,0c9.3,0,18.6,0,27.9,0.1
		c1.8,0,3-0.7,3.9-2.2c1.5-2.7-0.6-5.6-4-5.6c-15.3,0-30.6,0-45.9,0c-2.8,0-4.4-2.4-3.1-4.7c0.9-1.6,2.4-1.7,4-1.7
		c17.8,0,35.7,0,53.5,0c3,0,4.5-1.2,4.5-3.8c0-2.5-1.6-3.9-4.4-3.9c-8,0-16.1,0-24.1,0c-2.3,0-3.6-1.2-3.6-3.2
		c0-1.9,1.4-3.2,3.7-3.2c2.8,0,5.5,0,8.3,0c2.6,0,4.3-1.5,4.4-3.8c0-2.4-1.5-3.8-4.2-3.8c-15.4,0-30.7,0-46.1,0c-1,0-2.3,0.3-2.8,1
		c-0.7,1-1.3,2.6-1.1,3.7c0.3,1.8,1.7,3,3.8,3c7.3,0,14.7,0,22,0c1.8,0,3,0.7,3.5,2.4c0.7,2.2-0.9,4-3.5,4c-16.1,0-32.3,0-48.4,0
		c-2.4,0-4.2,1.6-4.2,3.8c0,2.2,1.6,3.9,4.1,3.9c3.3,0,6.5,0,9.8,0c2.6,0,5.1-0.1,7.7,0.1c2.1,0.2,3.1,1.6,2.9,3.5
		c-0.1,1.7-1.4,2.8-3.3,2.8c-2.6,0-5.3,0-7.9,0c-2.6,0-4.8,1.7-4.6,3.9c0.1,2.1,1.8,3.9,4.5,3.8
		C1430.8,104,1442.5,104.1,1454.2,104.1z"/>
	<path class="st3" d="M1535.4,138.2C1535.4,138.2,1535.4,138.2,1535.4,138.2c2.3,0,4.7,0,7,0c8.3,0,16.6,0,25,0.1
		c1.6,0,2.7-0.6,3.4-2c1.3-2.4-0.5-5-3.6-5c-13.7,0-27.3,0-41,0c-2.5,0-3.9-2.1-2.8-4.2c0.8-1.5,2.2-1.5,3.6-1.5
		c15.9,0,31.9,0,47.8,0c2.7,0,4-1.1,4-3.4c0-2.2-1.4-3.5-4-3.5c-7.2,0-14.4,0-21.5,0c-2,0-3.2-1.1-3.3-2.9c0-1.7,1.2-2.8,3.3-2.8
		c2.5,0,5,0,7.4,0c2.3,0,3.9-1.4,3.9-3.4c0-2.1-1.4-3.4-3.8-3.4c-13.7,0-27.4,0-41.2,0c-0.9,0-2.1,0.3-2.5,0.9
		c-0.7,0.9-1.2,2.3-1,3.3c0.3,1.7,1.5,2.6,3.4,2.6c6.5,0,13.1,0,19.6,0c1.6,0,2.7,0.6,3.2,2.2c0.6,1.9-0.8,3.6-3.2,3.6
		c-14.4,0-28.8,0-43.3,0c-2.1,0-3.7,1.5-3.8,3.4c0,2,1.5,3.5,3.6,3.5c2.9,0,5.8,0,8.8,0c2.3,0,4.6-0.1,6.9,0.1
		c1.8,0.2,2.7,1.4,2.6,3.1c-0.1,1.5-1.2,2.5-3,2.5c-2.4,0-4.7,0-7.1,0c-2.4,0-4.3,1.5-4.1,3.5c0.1,1.8,1.6,3.5,4,3.4
		C1514.4,138.1,1524.9,138.2,1535.4,138.2z"/>
	<path class="st2" d="M1794.1,104.1c2.7,0,4.3-1.8,4.5-3.8c0.1-2.2-2-3.9-4.6-3.9c-2.6,0-5.3,0-7.9,0c-2,0-3.2-1.1-3.3-2.8
		c-0.1-1.9,0.9-3.3,2.9-3.5c2.5-0.2,5.1-0.1,7.7-0.1c3.3,0,6.5,0,9.8,0c2.4,0,4.1-1.7,4.1-3.9c0-2.1-1.8-3.8-4.2-3.8
		c-16.1,0-32.3,0-48.4,0c-2.6,0-4.2-1.8-3.5-4c0.5-1.7,1.7-2.4,3.5-2.4c7.3,0,14.7,0,22,0c2.1,0,3.5-1.1,3.8-3
		c0.2-1.2-0.4-2.7-1.1-3.7c-0.5-0.7-1.8-1-2.8-1c-15.4-0.1-30.7,0-46.1,0c-2.7,0-4.3,1.5-4.2,3.8c0,2.3,1.8,3.8,4.4,3.8
		c2.8,0,5.5,0,8.3,0c2.3,0,3.7,1.3,3.7,3.2c0,2-1.4,3.2-3.6,3.2c-8,0-16.1,0-24.1,0c-2.8,0-4.4,1.4-4.4,3.9c0,2.5,1.5,3.8,4.5,3.8
		c17.8,0,35.7,0,53.5,0c1.6,0,3.2,0.1,4,1.7c1.3,2.3-0.3,4.7-3.1,4.7c-15.3,0-30.6,0-45.9,0c-3.4,0-5.5,2.9-4,5.6
		c0.8,1.5,2.1,2.2,3.9,2.2c9.3-0.1,18.6-0.1,27.9-0.1c2.6,0,5.3,0,7.9,0c0,0,0,0,0,0C1770.6,104.1,1782.4,104,1794.1,104.1z"/>
	<path class="st3" d="M1709.2,138.2c2.4,0,3.9-1.6,4-3.4c0.1-2-1.8-3.5-4.1-3.5c-2.4,0-4.7,0-7.1,0c-1.8,0-2.9-1-3-2.5
		c-0.1-1.7,0.8-2.9,2.6-3.1c2.3-0.2,4.6-0.1,6.9-0.1c2.9,0,5.8,0,8.8,0c2.2,0,3.7-1.5,3.6-3.5c0-1.9-1.6-3.4-3.8-3.4
		c-14.4,0-28.8,0-43.3,0c-2.3,0-3.7-1.6-3.2-3.6c0.5-1.5,1.5-2.2,3.2-2.2c6.5,0,13.1,0,19.6,0c1.9,0,3.1-1,3.4-2.6
		c0.2-1.1-0.4-2.4-1-3.3c-0.4-0.6-1.6-0.9-2.5-0.9c-13.7,0-27.4,0-41.2,0c-2.4,0-3.8,1.3-3.8,3.4c0,2.1,1.6,3.4,3.9,3.4
		c2.5,0,5,0,7.4,0c2.1,0,3.3,1.1,3.3,2.8c0,1.8-1.2,2.9-3.3,2.9c-7.2,0-14.4,0-21.5,0c-2.5,0-4,1.3-4,3.5c0,2.3,1.3,3.4,4,3.4
		c15.9,0,31.9,0,47.8,0c1.5,0,2.8,0.1,3.6,1.5c1.1,2.1-0.3,4.2-2.8,4.2c-13.7,0-27.3,0-41,0c-3.1,0-4.9,2.6-3.6,5
		c0.7,1.3,1.9,2,3.4,2c8.3,0,16.6-0.1,25-0.1c2.3,0,4.7,0,7,0c0,0,0,0,0,0C1688.3,138.2,1698.7,138.1,1709.2,138.2z"/>
	<ellipse class="st4" cx="1606.6" cy="74.8" rx="14.2" ry="14.1"/>
	<ellipse class="st5" cx="1539.1" cy="57.6" rx="1.7" ry="1.6"/>
	<ellipse class="st5" cx="1549.8" cy="73" rx="1.7" ry="1.6"/>
	<ellipse class="st5" cx="1528.5" cy="73" rx="1.7" ry="1.6"/>
	<ellipse class="st5" cx="1539.1" cy="88.3" rx="1.7" ry="1.6"/>
	<ellipse class="st5" cx="1665.5" cy="57.6" rx="1.7" ry="1.6"/>
	<ellipse class="st5" cx="1676.2" cy="73" rx="1.7" ry="1.6"/>
	<ellipse class="st5" cx="1654.9" cy="73" rx="1.7" ry="1.6"/>
	<ellipse class="st5" cx="1665.5" cy="88.3" rx="1.7" ry="1.6"/>
	<ellipse class="st5" cx="1758.7" cy="113.7" rx="1.7" ry="1.6"/>
	<ellipse class="st5" cx="1769.3" cy="129" rx="1.7" ry="1.6"/>
	<ellipse class="st5" cx="1748.1" cy="129" rx="1.7" ry="1.6"/>
	<ellipse class="st5" cx="1758.7" cy="144.4" rx="1.7" ry="1.6"/>
	<ellipse class="st5" cx="1606.6" cy="113.7" rx="1.7" ry="1.6"/>
	<ellipse class="st5" cx="1617.2" cy="129" rx="1.7" ry="1.6"/>
	<ellipse class="st5" cx="1595.9" cy="129" rx="1.7" ry="1.6"/>
	<ellipse class="st5" cx="1606.6" cy="144.4" rx="1.7" ry="1.6"/>
	<ellipse class="st5" cx="1454.5" cy="113.7" rx="1.7" ry="1.6"/>
	<ellipse class="st5" cx="1465.1" cy="129" rx="1.7" ry="1.6"/>
	<ellipse class="st5" cx="1443.8" cy="129" rx="1.7" ry="1.6"/>
	<ellipse class="st5" cx="1454.5" cy="144.4" rx="1.7" ry="1.6"/>
</g>
<g>
	<path class="st2" d="M158.5,104.1C158.5,104.1,158.5,104.1,158.5,104.1c2.6,0,5.3,0,7.9,0c9.3,0,18.6,0,27.9,0.1
		c1.8,0,3-0.7,3.9-2.2c1.5-2.7-0.6-5.6-4-5.6c-15.3,0-30.6,0-45.9,0c-2.8,0-4.4-2.4-3.1-4.7c0.9-1.6,2.4-1.7,4-1.7
		c17.8,0,35.7,0,53.5,0c3,0,4.5-1.2,4.5-3.8c0-2.5-1.6-3.9-4.4-3.9c-8,0-16.1,0-24.1,0c-2.3,0-3.6-1.2-3.6-3.2
		c0-1.9,1.4-3.2,3.7-3.2c2.8,0,5.5,0,8.3,0c2.6,0,4.3-1.5,4.4-3.8c0-2.4-1.5-3.8-4.2-3.8c-15.4,0-30.7,0-46.1,0c-1,0-2.3,0.3-2.8,1
		c-0.7,1-1.3,2.6-1.1,3.7c0.3,1.8,1.7,3,3.8,3c7.3,0,14.7,0,22,0c1.8,0,3,0.7,3.5,2.4c0.7,2.2-0.9,4-3.5,4c-16.1,0-32.3,0-48.4,0
		c-2.4,0-4.2,1.6-4.2,3.8c0,2.2,1.6,3.9,4.1,3.9c3.3,0,6.5,0,9.8,0c2.6,0,5.1-0.1,7.7,0.1c2.1,0.2,3.1,1.6,2.9,3.5
		c-0.1,1.7-1.4,2.8-3.3,2.8c-2.6,0-5.3,0-7.9,0c-2.6,0-4.8,1.7-4.6,3.9c0.1,2.1,1.8,3.9,4.5,3.8C135.1,104,146.8,104.1,158.5,104.1z
		"/>
	<path class="st3" d="M239.7,138.2C239.7,138.2,239.7,138.2,239.7,138.2c2.3,0,4.7,0,7,0c8.3,0,16.6,0,25,0.1c1.6,0,2.7-0.6,3.4-2
		c1.3-2.4-0.5-5-3.6-5c-13.7,0-27.3,0-41,0c-2.5,0-3.9-2.1-2.8-4.2c0.8-1.5,2.2-1.5,3.6-1.5c15.9,0,31.9,0,47.8,0c2.7,0,4-1.1,4-3.4
		c0-2.2-1.4-3.5-4-3.5c-7.2,0-14.4,0-21.5,0c-2,0-3.2-1.1-3.3-2.9c0-1.7,1.2-2.8,3.3-2.8c2.5,0,5,0,7.4,0c2.3,0,3.9-1.4,3.9-3.4
		c0-2.1-1.4-3.4-3.8-3.4c-13.7,0-27.4,0-41.2,0c-0.9,0-2.1,0.3-2.5,0.9c-0.7,0.9-1.2,2.3-1,3.3c0.3,1.7,1.5,2.6,3.4,2.6
		c6.5,0,13.1,0,19.6,0c1.6,0,2.7,0.6,3.2,2.2c0.6,1.9-0.8,3.6-3.2,3.6c-14.4,0-28.8,0-43.3,0c-2.1,0-3.7,1.5-3.8,3.4
		c0,2,1.5,3.5,3.6,3.5c2.9,0,5.8,0,8.8,0c2.3,0,4.6-0.1,6.9,0.1c1.8,0.2,2.7,1.4,2.6,3.1c-0.1,1.5-1.2,2.5-3,2.5c-2.4,0-4.7,0-7.1,0
		c-2.4,0-4.3,1.5-4.1,3.5c0.1,1.8,1.6,3.5,4,3.4C218.7,138.1,229.2,138.2,239.7,138.2z"/>
	<path class="st2" d="M498.4,104.1c2.7,0,4.3-1.8,4.5-3.8c0.1-2.2-2-3.9-4.6-3.9c-2.6,0-5.3,0-7.9,0c-2,0-3.2-1.1-3.3-2.8
		c-0.1-1.9,0.9-3.3,2.9-3.5c2.5-0.2,5.1-0.1,7.7-0.1c3.3,0,6.5,0,9.8,0c2.4,0,4.1-1.7,4.1-3.9c0-2.1-1.8-3.8-4.2-3.8
		c-16.1,0-32.3,0-48.4,0c-2.6,0-4.2-1.8-3.5-4c0.5-1.7,1.7-2.4,3.5-2.4c7.3,0,14.7,0,22,0c2.1,0,3.5-1.1,3.8-3
		c0.2-1.2-0.4-2.7-1.1-3.7c-0.5-0.7-1.8-1-2.8-1c-15.4-0.1-30.7,0-46.1,0c-2.7,0-4.3,1.5-4.2,3.8c0,2.3,1.8,3.8,4.4,3.8
		c2.8,0,5.5,0,8.3,0c2.3,0,3.7,1.3,3.7,3.2c0,2-1.4,3.2-3.6,3.2c-8,0-16.1,0-24.1,0c-2.8,0-4.4,1.4-4.4,3.9c0,2.5,1.5,3.8,4.5,3.8
		c17.8,0,35.7,0,53.5,0c1.6,0,3.2,0.1,4,1.7c1.3,2.3-0.3,4.7-3.1,4.7c-15.3,0-30.6,0-45.9,0c-3.4,0-5.5,2.9-4,5.6
		c0.8,1.5,2.1,2.2,3.9,2.2c9.3-0.1,18.6-0.1,27.9-0.1c2.6,0,5.3,0,7.9,0c0,0,0,0,0,0C474.9,104.1,486.7,104,498.4,104.1z"/>
	<path class="st3" d="M413.5,138.2c2.4,0,3.9-1.6,4-3.4c0.1-2-1.8-3.5-4.1-3.5c-2.4,0-4.7,0-7.1,0c-1.8,0-2.9-1-3-2.5
		c-0.1-1.7,0.8-2.9,2.6-3.1c2.3-0.2,4.6-0.1,6.9-0.1c2.9,0,5.8,0,8.8,0c2.2,0,3.7-1.5,3.6-3.5c0-1.9-1.6-3.4-3.8-3.4
		c-14.4,0-28.8,0-43.3,0c-2.3,0-3.7-1.6-3.2-3.6c0.5-1.5,1.5-2.2,3.2-2.2c6.5,0,13.1,0,19.6,0c1.9,0,3.1-1,3.4-2.6
		c0.2-1.1-0.4-2.4-1-3.3c-0.4-0.6-1.6-0.9-2.5-0.9c-13.7,0-27.4,0-41.2,0c-2.4,0-3.8,1.3-3.8,3.4c0,2.1,1.6,3.4,3.9,3.4
		c2.5,0,5,0,7.4,0c2.1,0,3.3,1.1,3.3,2.8c0,1.8-1.2,2.9-3.3,2.9c-7.2,0-14.4,0-21.5,0c-2.5,0-4,1.3-4,3.5c0,2.3,1.3,3.4,4,3.4
		c15.9,0,31.9,0,47.8,0c1.5,0,2.8,0.1,3.6,1.5c1.1,2.1-0.3,4.2-2.8,4.2c-13.7,0-27.3,0-41,0c-3.1,0-4.9,2.6-3.6,5
		c0.7,1.3,1.9,2,3.4,2c8.3,0,16.6-0.1,25-0.1c2.3,0,4.7,0,7,0c0,0,0,0,0,0C392.5,138.2,403,138.1,413.5,138.2z"/>
	<ellipse class="st4" cx="310.9" cy="74.8" rx="14.2" ry="14.1"/>
	<ellipse class="st5" cx="243.4" cy="57.6" rx="1.7" ry="1.6"/>
	<ellipse class="st5" cx="254" cy="73" rx="1.7" ry="1.6"/>
	<ellipse class="st5" cx="232.8" cy="73" rx="1.7" ry="1.6"/>
	<ellipse class="st5" cx="243.4" cy="88.3" rx="1.7" ry="1.6"/>
	<ellipse class="st5" cx="369.8" cy="57.6" rx="1.7" ry="1.6"/>
	<ellipse class="st5" cx="380.5" cy="73" rx="1.7" ry="1.6"/>
	<ellipse class="st5" cx="359.2" cy="73" rx="1.7" ry="1.6"/>
	<ellipse class="st5" cx="369.8" cy="88.3" rx="1.7" ry="1.6"/>
	<ellipse class="st5" cx="463" cy="113.7" rx="1.7" ry="1.6"/>
	<ellipse class="st5" cx="473.6" cy="129" rx="1.7" ry="1.6"/>
	<ellipse class="st5" cx="452.3" cy="129" rx="1.7" ry="1.6"/>
	<ellipse class="st5" cx="463" cy="144.4" rx="1.7" ry="1.6"/>
	<ellipse class="st5" cx="310.9" cy="113.7" rx="1.7" ry="1.6"/>
	<ellipse class="st5" cx="321.5" cy="129" rx="1.7" ry="1.6"/>
	<ellipse class="st5" cx="300.2" cy="129" rx="1.7" ry="1.6"/>
	<ellipse class="st5" cx="310.9" cy="144.4" rx="1.7" ry="1.6"/>
	<ellipse class="st5" cx="158.8" cy="113.7" rx="1.7" ry="1.6"/>
	<ellipse class="st5" cx="169.4" cy="129" rx="1.7" ry="1.6"/>
	<ellipse class="st5" cx="148.1" cy="129" rx="1.7" ry="1.6"/>
	<ellipse class="st5" cx="158.8" cy="144.4" rx="1.7" ry="1.6"/>
</g>
</svg>
