<?xml version="1.0" encoding="utf-8"?>
<!-- Generator: Adobe Illustrator 22.1.0, SVG Export Plug-In . SVG Version: 6.00 Build 0)  -->
<svg version="1.1" id="Capa_1" xmlns="http://www.w3.org/2000/svg" xmlns:xlink="http://www.w3.org/1999/xlink" x="0px" y="0px"
	 viewBox="0 0 1920 202" style="enable-background:new 0 0 1920 202;" xml:space="preserve">
<style type="text/css">
	.st0{fill:#C20000;stroke:#FC7E12;stroke-width:5;stroke-miterlimit:10;}
	.st1{fill:#EFD46B;stroke:#EFD46B;stroke-width:0.7094;stroke-miterlimit:10;}
	.st2{fill:none;stroke:#EFD46B;stroke-width:2;stroke-miterlimit:10;}
</style>
<rect x="-1" class="st0" width="1920" height="202"/>
<g>
	<g>
		<ellipse class="st1" cx="324.3" cy="105.2" rx="2.2" ry="2.1"/>
		<ellipse class="st1" cx="296.1" cy="105.2" rx="2.2" ry="2.1"/>
		<ellipse class="st1" cx="267.8" cy="104.8" rx="2.2" ry="2.1"/>
		<ellipse class="st1" cx="239.6" cy="104.8" rx="2.2" ry="2.1"/>
		<ellipse class="st1" cx="211.4" cy="105.2" rx="2.2" ry="2.1"/>
		<ellipse class="st1" cx="183.1" cy="105.2" rx="2.2" ry="2.1"/>
		<ellipse class="st1" cx="154.9" cy="104.8" rx="2.2" ry="2.1"/>
		
			<ellipse transform="matrix(4.621304e-02 -0.9989 0.9989 4.621304e-02 16.1893 226.4442)" class="st1" cx="126.7" cy="104.7" rx="2.1" ry="2.2"/>
		
			<ellipse transform="matrix(4.621304e-02 -0.9989 0.9989 4.621304e-02 -24.2621 264.9715)" class="st1" cx="126.6" cy="145.2" rx="2.1" ry="2.2"/>
		<ellipse class="st1" cx="324.3" cy="61.7" rx="2.2" ry="2.1"/>
		<ellipse class="st1" cx="296.1" cy="61.7" rx="2.2" ry="2.1"/>
		<ellipse class="st1" cx="267.8" cy="61.2" rx="2.2" ry="2.1"/>
		<ellipse class="st1" cx="239.6" cy="61.2" rx="2.2" ry="2.1"/>
		<ellipse class="st1" cx="211.4" cy="61.7" rx="2.2" ry="2.1"/>
		<ellipse class="st1" cx="183.1" cy="61.7" rx="2.2" ry="2.1"/>
		<ellipse class="st1" cx="154.9" cy="61.2" rx="2.2" ry="2.1"/>
		<ellipse class="st1" cx="126.7" cy="61.2" rx="2.2" ry="2.1"/>
		<ellipse class="st1" cx="338.4" cy="125.5" rx="2.2" ry="2.1"/>
		<ellipse class="st1" cx="310.2" cy="125.5" rx="2.2" ry="2.1"/>
		<ellipse class="st1" cx="282" cy="125" rx="2.2" ry="2.1"/>
		<ellipse class="st1" cx="253.7" cy="125" rx="2.2" ry="2.1"/>
		<ellipse class="st1" cx="225.5" cy="125.5" rx="2.2" ry="2.1"/>
		<ellipse class="st1" cx="197.3" cy="125.5" rx="2.2" ry="2.1"/>
		<ellipse class="st1" cx="169" cy="125" rx="2.2" ry="2.1"/>
		<ellipse class="st1" cx="140.8" cy="125" rx="2.2" ry="2.1"/>
		<ellipse class="st1" cx="112.5" cy="125" rx="2.2" ry="2.1"/>
		<ellipse class="st1" cx="324.3" cy="145.7" rx="2.2" ry="2.1"/>
		<ellipse class="st1" cx="296.1" cy="145.7" rx="2.2" ry="2.1"/>
		<ellipse class="st1" cx="267.8" cy="145.2" rx="2.2" ry="2.1"/>
		<ellipse class="st1" cx="239.6" cy="145.2" rx="2.2" ry="2.1"/>
		<ellipse class="st1" cx="211.4" cy="145.7" rx="2.2" ry="2.1"/>
		<ellipse class="st1" cx="183.1" cy="145.7" rx="2.2" ry="2.1"/>
		<ellipse class="st1" cx="154.9" cy="145.2" rx="2.2" ry="2.1"/>
		<ellipse class="st1" cx="310.2" cy="84.3" rx="2.2" ry="2.1"/>
		<ellipse class="st1" cx="282" cy="84.3" rx="2.2" ry="2.1"/>
		<ellipse class="st1" cx="253.7" cy="83.8" rx="2.2" ry="2.1"/>
		<ellipse class="st1" cx="225.5" cy="83.8" rx="2.2" ry="2.1"/>
		<ellipse class="st1" cx="197.3" cy="84.3" rx="2.2" ry="2.1"/>
		<ellipse class="st1" cx="169" cy="84.3" rx="2.2" ry="2.1"/>
		<ellipse class="st1" cx="140.8" cy="83.8" rx="2.2" ry="2.1"/>
		<ellipse class="st1" cx="112.5" cy="83.8" rx="2.2" ry="2.1"/>
	</g>
	<g>
		<ellipse class="st1" cx="1584.3" cy="105.2" rx="2.2" ry="2.1"/>
		<ellipse class="st1" cx="1612.5" cy="105.2" rx="2.2" ry="2.1"/>
		<ellipse class="st1" cx="1640.8" cy="104.8" rx="2.2" ry="2.1"/>
		<ellipse class="st1" cx="1669" cy="104.8" rx="2.2" ry="2.1"/>
		<ellipse class="st1" cx="1697.2" cy="105.2" rx="2.2" ry="2.1"/>
		<ellipse class="st1" cx="1725.5" cy="105.2" rx="2.2" ry="2.1"/>
		<ellipse class="st1" cx="1753.7" cy="104.8" rx="2.2" ry="2.1"/>
		
			<ellipse transform="matrix(0.9989 -4.622279e-02 4.622279e-02 0.9989 -2.9393 82.4785)" class="st1" cx="1781.9" cy="104.8" rx="2.2" ry="2.1"/>
		
			<ellipse transform="matrix(0.9989 -4.622279e-02 4.622279e-02 0.9989 -4.8066 82.5216)" class="st1" cx="1781.9" cy="145.2" rx="2.2" ry="2.1"/>
		<ellipse class="st1" cx="1584.3" cy="61.7" rx="2.2" ry="2.1"/>
		<ellipse class="st1" cx="1612.5" cy="61.7" rx="2.2" ry="2.1"/>
		<ellipse class="st1" cx="1640.8" cy="61.2" rx="2.2" ry="2.1"/>
		<ellipse class="st1" cx="1669" cy="61.2" rx="2.2" ry="2.1"/>
		<ellipse class="st1" cx="1697.2" cy="61.7" rx="2.2" ry="2.1"/>
		<ellipse class="st1" cx="1725.5" cy="61.7" rx="2.2" ry="2.1"/>
		<ellipse class="st1" cx="1753.7" cy="61.2" rx="2.2" ry="2.1"/>
		<ellipse class="st1" cx="1782" cy="61.2" rx="2.2" ry="2.1"/>
		<ellipse class="st1" cx="1570.2" cy="125.5" rx="2.2" ry="2.1"/>
		<ellipse class="st1" cx="1598.4" cy="125.5" rx="2.2" ry="2.1"/>
		<ellipse class="st1" cx="1626.6" cy="125" rx="2.2" ry="2.1"/>
		<ellipse class="st1" cx="1654.9" cy="125" rx="2.2" ry="2.1"/>
		<ellipse class="st1" cx="1683.1" cy="125.5" rx="2.2" ry="2.1"/>
		<ellipse class="st1" cx="1711.4" cy="125.5" rx="2.2" ry="2.1"/>
		<ellipse class="st1" cx="1739.6" cy="125" rx="2.2" ry="2.1"/>
		<ellipse class="st1" cx="1767.8" cy="125" rx="2.2" ry="2.1"/>
		<ellipse class="st1" cx="1796.1" cy="125" rx="2.2" ry="2.1"/>
		<ellipse class="st1" cx="1584.3" cy="145.7" rx="2.2" ry="2.1"/>
		<ellipse class="st1" cx="1612.5" cy="145.7" rx="2.2" ry="2.1"/>
		<ellipse class="st1" cx="1640.8" cy="145.2" rx="2.2" ry="2.1"/>
		<ellipse class="st1" cx="1669" cy="145.2" rx="2.2" ry="2.1"/>
		<ellipse class="st1" cx="1697.2" cy="145.7" rx="2.2" ry="2.1"/>
		<ellipse class="st1" cx="1725.5" cy="145.7" rx="2.2" ry="2.1"/>
		<ellipse class="st1" cx="1753.7" cy="145.2" rx="2.2" ry="2.1"/>
		<ellipse class="st1" cx="1598.4" cy="84.3" rx="2.2" ry="2.1"/>
		<ellipse class="st1" cx="1626.6" cy="84.3" rx="2.2" ry="2.1"/>
		<ellipse class="st1" cx="1654.9" cy="83.8" rx="2.2" ry="2.1"/>
		<ellipse class="st1" cx="1683.1" cy="83.8" rx="2.2" ry="2.1"/>
		<ellipse class="st1" cx="1711.4" cy="84.3" rx="2.2" ry="2.1"/>
		<ellipse class="st1" cx="1739.6" cy="84.3" rx="2.2" ry="2.1"/>
		<ellipse class="st1" cx="1767.8" cy="83.8" rx="2.2" ry="2.1"/>
		<ellipse class="st1" cx="1796.1" cy="83.8" rx="2.2" ry="2.1"/>
	</g>
	<circle class="st1" cx="48.3" cy="101" r="9"/>
	<circle class="st1" cx="1869.7" cy="101" r="9"/>
</g>
<g>
	<rect class="st2" width="1920" height="202"/>
	<polyline class="st2" points="674.7,25.1 22.4,25.1 22.4,93 	"/>
	<polyline class="st2" points="1241.8,25.1 1894.1,25.1 1894.1,93 	"/>
	<polyline class="st2" points="674.7,176.9 22.4,176.9 22.4,114 	"/>
	<polyline class="st2" points="1241.8,176.9 1894.1,176.9 1894.1,114 	"/>
	<g>
		<polyline class="st2" points="0,46.5 96.7,46.5 96.7,-0.3 		"/>
		<polyline class="st2" points="57.3,0 57.3,46.5 57.3,61.7 114.7,61.7 114.7,40.3 163.3,40.3 163.3,25.1 		"/>
		<polyline class="st2" points="86,61.7 86,78.3 22.4,78.3 		"/>
		<polyline class="st2" points="0,155.1 96.7,155.1 96.7,202 		"/>
		<polyline class="st2" points="57.3,201.7 57.3,155.1 57.3,140 114.7,140 114.7,161.3 163.3,161.3 163.3,176.6 		"/>
		<polyline class="st2" points="86,140 86,123.3 22.4,123.3 		"/>
	</g>
	<g>
		<polyline class="st2" points="1918,46.7 1821.3,46.7 1821.3,-0.2 		"/>
		<polyline class="st2" points="1860.7,0.2 1860.7,46.7 1860.7,61.8 1803.3,61.8 1803.3,40.5 1754.7,40.5 1754.7,25.3 		"/>
		<polyline class="st2" points="1832,61.8 1832,78.5 1895.6,78.5 		"/>
		<polyline class="st2" points="1918,155.3 1821.3,155.3 1821.3,202.2 		"/>
		<polyline class="st2" points="1860.7,201.8 1860.7,155.3 1860.7,140.2 1803.3,140.2 1803.3,161.5 1754.7,161.5 1754.7,176.7 		"/>
		<polyline class="st2" points="1832,140.2 1832,123.5 1895.6,123.5 		"/>
	</g>
	<line class="st2" x1="688.7" y1="25.1" x2="730.1" y2="25.1"/>
	<line class="st2" x1="688.7" y1="176.9" x2="730.1" y2="176.9"/>
	<line class="st2" x1="1188.1" y1="25.1" x2="1229.5" y2="25.1"/>
	<line class="st2" x1="1188.1" y1="176.9" x2="1229.5" y2="176.9"/>
</g>
</svg>
