<?xml version="1.0" encoding="utf-8"?>
<!-- Generator: Adobe Illustrator 22.1.0, SVG Export Plug-In . SVG Version: 6.00 Build 0)  -->
<svg version="1.1" xmlns="http://www.w3.org/2000/svg" xmlns:xlink="http://www.w3.org/1999/xlink" x="0px" y="0px"
	 viewBox="0 0 651 365" style="enable-background:new 0 0 651 365;" xml:space="preserve">
<style type="text/css">
	.st0{fill:#0C3559;}
	.st1{fill:none;}
	.st2{font-family:'Impact';}
	.st3{font-size:40px;}
	.st4{fill:#EFD46B;stroke:#FC7E12;stroke-width:2;stroke-miterlimit:10;}
	.st5{fill:#A60303;}
</style>
<g id="Capa_1">
</g>
<g id="Capa_2">
	<g>
		<path d="M34,47V16h8.6v23.4H59V47H34z"/>
	</g>
	<g>
		<path d="M144.4,47v-16l-6.6,11c-0.1,0.2-0.2,0.3-0.4,0.3c-0.2,0.1-0.3,0.1-0.5,0.1c-0.2,0-0.3,0-0.5-0.1c-0.2-0.1-0.3-0.2-0.4-0.3
			l-6.6-11v16h-8.1V16h7.6c0.3,0,0.5,0.1,0.7,0.4l7.4,12.3l7.4-12.3c0.2-0.2,0.4-0.4,0.6-0.4h7.6v31H144.4z"/>
	</g>
	<g>
		<path d="M231.3,47l-5.4-8h-0.4l-5.4,8h-9.8l10.4-15.8L210.7,16h9.8l5,7.6h0.4l5-7.6h9.8l-10.2,15.3L241.2,47H231.3z"/>
	</g>
	<g>
		<path d="M333,30.3c0,2.5-0.5,4.8-1.4,6.9c-0.9,2.1-2.2,4-3.9,5.6c-1.6,1.6-3.5,2.9-5.7,3.8c-2.2,0.9-4.5,1.4-6.9,1.4
			c-0.6,0-1.2,0-1.9-0.1c-0.6-0.1-1.3-0.2-2-0.3l1.6-8c0.4,0.1,0.8,0.1,1.1,0.2c0.3,0,0.6,0,0.9,0c1.4,0,2.6-0.3,3.9-0.8
			s2.3-1.2,3.2-2.1s1.6-1.9,2.1-3.1c0.5-1.2,0.8-2.5,0.8-3.8V16h8.2V30.3z"/>
	</g>
	<g>
		<path d="M422.2,47h-7.5l-11.6-31h9.3l6,16l6-16h9.3L422.2,47z"/>
	</g>
	<g>
		<path class="st0" d="M505.8,48c-2.1,0-4.1-0.2-6.2-0.7c-2-0.5-4-1.2-5.9-2c-0.1,0-0.2-0.1-0.4-0.2c-0.2-0.1-0.3-0.2-0.3-0.3
			c0,0,0.1-0.1,0.2-0.3s0.2-0.4,0.4-0.7c0.2-0.3,0.3-0.6,0.6-1c0.2-0.4,0.4-0.7,0.6-1.1c0.5-0.7,0.9-1.4,1.3-2.1
			c0.4-0.7,0.7-1.1,0.8-1.4c0.3,0.1,0.7,0.3,1,0.5c1.4,0.7,2.9,1.3,4.3,1.7c1.5,0.4,3,0.6,4.6,0.6c0.5,0,0.9,0,1.5-0.1
			c0.5,0,1-0.1,1.4-0.3c0.4-0.2,0.8-0.4,1.1-0.7c0.3-0.3,0.4-0.8,0.4-1.4c0-0.3-0.1-0.6-0.2-0.8c-0.2-0.2-0.4-0.4-0.6-0.6
			c-0.2-0.2-0.5-0.3-0.8-0.5s-0.5-0.2-0.8-0.3c-0.6-0.2-1.1-0.4-1.7-0.5c-0.6-0.1-1.2-0.2-1.8-0.4c-0.8-0.2-1.5-0.4-2.3-0.5
			c-0.7-0.2-1.5-0.3-2.2-0.6c-0.7-0.2-1.4-0.4-2.1-0.7s-1.3-0.6-1.8-0.9c-1.1-0.7-2.1-1.6-2.7-2.8c-0.7-1.2-1-2.7-1-4.6
			c0-0.7,0.1-1.3,0.2-2c0.1-0.7,0.4-1.3,0.7-1.9c0.6-1.2,1.3-2.2,2.3-3c0.9-0.8,2-1.4,3.1-1.9c1.1-0.5,2.3-0.8,3.6-1
			c1.3-0.2,2.5-0.3,3.8-0.3c2.1,0,4.1,0.2,6.1,0.7c2,0.5,3.9,1.3,5.7,2.4c-0.7,1.1-1.3,2.2-1.9,3.3s-1.3,2.2-1.9,3.3
			c-1.5-0.7-3-1.4-4.5-1.8c-1.5-0.5-3-0.7-4.7-0.7c-0.4,0-0.8,0-1.3,0.1c-0.4,0-0.8,0.1-1.2,0.3c-0.4,0.2-0.7,0.4-0.9,0.7
			c-0.2,0.3-0.4,0.7-0.4,1.2c0,0.4,0.1,0.7,0.2,1c0.2,0.3,0.5,0.6,1,0.8c0.5,0.2,1.1,0.4,1.8,0.6c0.7,0.2,1.5,0.4,2.4,0.5
			c0.9,0.2,1.7,0.4,2.7,0.6c0.9,0.2,1.8,0.5,2.7,0.8c0.9,0.3,1.8,0.7,2.6,1.1c0.8,0.4,1.5,1,2.2,1.6c0.6,0.6,1.1,1.3,1.5,2.1
			c0.3,0.6,0.5,1.3,0.6,2c0.1,0.7,0.2,1.4,0.2,2.1c0,2-0.4,3.7-1.2,5c-0.8,1.3-1.9,2.3-3.2,3.1s-2.8,1.3-4.5,1.6S507.5,48,505.8,48z
			"/>
	</g>
	<g>
		<path class="st0" d="M605.8,47h-13.9V16h13.9c2.2,0,4.2,0.4,6.1,1.2c1.9,0.8,3.5,1.9,5,3.3c1.4,1.4,2.5,3,3.3,4.9
			c0.8,1.9,1.2,3.9,1.2,6c0,2.1-0.4,4.1-1.2,6c-0.8,1.9-1.9,3.5-3.3,4.9c-1.4,1.4-3.1,2.5-5,3.3C610,46.6,607.9,47,605.8,47z
			 M604.8,23.5H600v15.9h4.8c1.1,0,2.2-0.2,3.1-0.6c1-0.4,1.8-1,2.5-1.7c0.7-0.7,1.3-1.6,1.7-2.5c0.4-1,0.6-2,0.6-3.1
			c0-1.1-0.2-2.1-0.6-3.1c-0.4-1-1-1.8-1.7-2.5c-0.7-0.7-1.6-1.3-2.5-1.7C607,23.8,605.9,23.5,604.8,23.5z"/>
	</g>
	<rect x="296.2" y="82.7" class="st1" width="52.5" height="39.3"/>
	<text transform="matrix(1 0 0 1 314.8682 114.3057)" class="st2 st3">1</text>
	<rect x="389.5" y="82.7" class="st1" width="58" height="39.3"/>
	<text transform="matrix(1 0 0 1 408.438 114.3057)" class="st2 st3">2</text>
	<rect x="478.1" y="82.7" class="st1" width="58" height="39.3"/>
	<text transform="matrix(1 0 0 1 496.4604 114.3057)" class="st0 st2 st3">3</text>
	<rect x="578" y="82.7" class="st1" width="58" height="39.3"/>
	<text transform="matrix(1 0 0 1 596.9951 114.3057)" class="st0 st2 st3">4</text>
	<rect x="20" y="137.7" class="st1" width="52.5" height="39.3"/>
	<text transform="matrix(1 0 0 1 35.5352 169.3057)" class="st2 st3">5</text>
	<rect x="108.2" y="137.7" class="st1" width="58" height="39.3"/>
	<text transform="matrix(1 0 0 1 126.4297 169.3057)" class="st2 st3">6</text>
	<rect x="196.8" y="137.7" class="st1" width="58" height="39.3"/>
	<text transform="matrix(1 0 0 1 218.0166 169.3057)" class="st2 st3">7</text>
	<rect x="296.2" y="137.7" class="st1" width="52.5" height="39.3"/>
	<text transform="matrix(1 0 0 1 311.792 169.3057)" class="st2 st3">8</text>
	<rect x="389.5" y="137.7" class="st1" width="58" height="39.3"/>
	<text transform="matrix(1 0 0 1 407.647 169.3057)" class="st2 st3">9</text>
	<rect x="478.1" y="137.7" class="st1" width="58" height="39.3"/>
	<text transform="matrix(1 0 0 1 488.7261 169.3057)" class="st4 st2 st3">10</text>
	<rect x="578" y="137.7" class="st1" width="58" height="39.3"/>
	<text transform="matrix(1 0 0 1 591.751 169.3057)" class="st0 st2 st3">11</text>
	<rect x="20" y="195.7" class="st1" width="52.5" height="39.3"/>
	<text transform="matrix(1 0 0 1 28.6113 227.3066)" class="st2 st3">12</text>
	<rect x="108.2" y="195.7" class="st1" width="58" height="39.3"/>
	<text transform="matrix(1 0 0 1 119.0371 227.3066)" class="st2 st3">13</text>
	<rect x="196.8" y="195.7" class="st1" width="58" height="39.3"/>
	<text transform="matrix(1 0 0 1 208.2412 227.3066)" class="st5 st2 st3">14</text>
	<rect x="296.2" y="195.7" class="st1" width="52.5" height="39.3"/>
	<text transform="matrix(1 0 0 1 304.1357 227.3066)" class="st2 st3">15</text>
	<rect x="389.5" y="195.7" class="st1" width="58" height="39.3"/>
	<text transform="matrix(1 0 0 1 400.0298 227.3066)" class="st2 st3">16</text>
	<rect x="478.1" y="195.7" class="st1" width="58" height="39.3"/>
	<text transform="matrix(1 0 0 1 491.6167 227.3066)" class="st0 st2 st3">17</text>
	<rect x="578" y="195.7" class="st1" width="58" height="39.3"/>
	<text transform="matrix(1 0 0 1 588.6748 227.3066)" class="st0 st2 st3">18</text>
	<rect x="20" y="255.7" class="st1" width="52.5" height="39.3"/>
	<text transform="matrix(1 0 0 1 27.8203 287.3066)" class="st2 st3">19</text>
	<rect x="108.2" y="255.7" class="st1" width="58" height="39.3"/>
	<text transform="matrix(1 0 0 1 116.498 287.3066)" class="st2 st3">20</text>
	<rect x="196.8" y="255.7" class="st1" width="58" height="39.3"/>
	<text transform="matrix(1 0 0 1 208.1924 287.3066)" class="st2 st3">21</text>
	<rect x="296.2" y="255.7" class="st1" width="52.5" height="39.3"/>
	<text transform="matrix(1 0 0 1 302.4072 287.3066)" class="st2 st3">22</text>
	<rect x="20" y="315.7" class="st1" width="52.5" height="39.3"/>
	<text transform="matrix(1 0 0 1 25.3984 347.3066)" class="st2 st3">26</text>
	<rect x="108.2" y="315.7" class="st1" width="58" height="39.3"/>
	<text transform="matrix(1 0 0 1 119.3887 347.3066)" class="st2 st3">27</text>
	<rect x="196.8" y="315.7" class="st1" width="58" height="39.3"/>
	<text transform="matrix(1 0 0 1 205.1162 347.3066)" class="st2 st3">28</text>
	<rect x="296.2" y="315.7" class="st1" width="52.5" height="39.3"/>
	<text transform="matrix(1 0 0 1 301.6162 347.3066)" class="st2 st3">29</text>
	<rect x="389.5" y="255.7" class="st1" width="58" height="39.3"/>
	<text transform="matrix(1 0 0 1 397.8325 287.3066)" class="st2 st3">23</text>
	<rect x="478.1" y="255.7" class="st1" width="58" height="39.3"/>
	<text transform="matrix(1 0 0 1 487.0366 287.3066)" class="st0 st2 st3">24</text>
	<rect x="578" y="253.7" class="st1" width="58" height="39.3"/>
	<text transform="matrix(1 0 0 1 586.2139 285.3066)" class="st0 st2 st3">25</text>
	<g>
		<path class="st5" d="M225.5,188.9l-3-3c-2.5-2.5,0.4-5.5,3-3c2.4-2.4,5.4,0.6,3,3L225.5,188.9z"/>
		<path class="st5" d="M221.2,188.6h-2.9c-2.4,0-2.4-2.8,0-2.8c0-2.3,2.9-2.3,2.9,0V188.6z"/>
		<path class="st5" d="M229.6,188.6h2.9c2.4,0,2.4-2.8,0-2.8c0-2.3-2.9-2.3-2.9,0V188.6z"/>
	</g>
</g>
</svg>
