<?xml version="1.0" encoding="utf-8"?>
<!-- Generator: Adobe Illustrator 22.1.0, SVG Export Plug-In . SVG Version: 6.00 Build 0)  -->
<svg version="1.1" id="Capa_1" xmlns="http://www.w3.org/2000/svg" xmlns:xlink="http://www.w3.org/1999/xlink" x="0px" y="0px"
	 viewBox="0 0 16 14" style="enable-background:new 0 0 16 14;" xml:space="preserve">
<style type="text/css">
	.st0{fill:#FFFFFF;}
</style>
<g>
	<g>
		<path d="M14.7,11.5c-0.7-0.5-1.4-0.6-2.2-0.4c-0.4,0.1-0.7,0.3-1,0.6c0.1,0,0.1,0.1,0.2,0.1c0,0,0.1,0,0.1,0
			c0.3-0.2,0.6-0.4,1-0.5c0.6-0.1,1.2,0,1.7,0.4c0,0,0.1,0,0.1,0c0,0.2,0,0.4,0,0.7c-0.2,0-0.4,0-0.6,0c0-0.1,0-0.2,0-0.3
			c-0.1,0-0.1,0-0.2,0c-0.7,0-1.3,0-2,0c-0.1,0-0.3,0-0.4-0.1c-0.3,0.1-0.6,0-0.9,0C10.4,12,10.2,12,10,12c-0.4,0-0.7,0-1.1,0
			c-0.2,0-0.4,0-0.6-0.1c-0.3,0-0.6,0-0.9,0C7.3,12,7.1,12,7,12c-0.4,0-0.8,0-1.2,0c-0.2,0-0.4,0-0.6-0.1c-0.4,0-0.5,0-0.9,0
			C4.2,12,4.1,12,3.9,12c-0.7,0-1.3,0-2,0c0,0-0.1,0-0.1,0c0,0.1,0,0.2,0,0.3c-0.2,0-0.5,0-0.7,0c0-0.2,0-0.5,0-0.7
			c0,0,0.1,0,0.1,0.1c0.6-0.4,1.2-0.5,1.9-0.4c0.3,0.1,0.6,0.2,0.9,0.4c0.1,0.1,0.2,0.1,0.3,0c-0.4-0.4-0.9-0.6-1.5-0.6
			c-0.6,0-1.1,0.1-1.6,0.5c0-0.1,0-0.2,0-0.3c0,0,0-0.1,0.1-0.1c0.3-0.2,0.7-0.3,1-0.3c0.1,0,0.1,0,0.2,0c-0.5-0.2-0.9,0-1.3,0.2
			c0-0.2,0-0.2,0.1-0.3c0.4-0.2,0.9-0.2,1.3-0.1c0.1,0,0.3,0.1,0.4,0.2c0.1,0,0.2,0,0.3,0c0.4-0.1,0.7-0.2,1.1-0.2
			c-0.1-0.2-0.3-0.3-0.4-0.5C3.8,9.8,3.6,9.4,3.6,9c0-0.1,0-0.2-0.1-0.3C3.5,8.6,3.3,8.4,3.1,8.4c-0.1,0-0.3-0.1-0.3-0.2
			c-0.1-0.3,0-0.6,0.4-0.6c0.2,0,0.5,0.1,0.7,0.2c0.4,0.2,0.7,0.5,0.9,0.9c0,0,0,0,0,0C4.7,8.9,4.8,8.9,5,9c0,0,0-0.1,0-0.1
			c0-0.4,0-0.7,0-1.1C5,7.8,5,7.8,5,7.7C4.4,7.7,4,7.4,3.9,6.9c0-0.1,0-0.1,0-0.2c0,0,0-0.1,0-0.1c0,0,0,0,0.1,0C4.2,7,4.6,7,5,7
			c0.2,0,0.4-0.1,0.6-0.2c0,0,0.1-0.1,0.1-0.1c0-0.2,0-0.5,0-0.7c0,0,0-0.1-0.1-0.1C5.3,5.7,5.2,5.4,5.1,5.1c0,0,0-0.1,0-0.1
			c0.2,0.3,0.4,0.4,0.7,0.3C6,5.2,6.2,5.1,6.3,5C5.7,4.9,5.5,4.5,5.4,4c0-0.1,0-0.2,0-0.2c0,0,0,0,0,0.1c0.2,0.6,0.7,0.5,1.1,0.3
			C7,4,7.2,3.6,7.4,3.3c0,0,0-0.1,0-0.1c0-0.1,0-0.2,0.1-0.3c0.1,0,0.1-0.1,0.1-0.2c0-0.2,0-0.2,0.2-0.2c0-0.2,0-0.3,0-0.5
			c0-0.2,0-0.4,0-0.6c0,0,0-0.1,0-0.1C7.7,1.2,7.7,1.1,7.8,1C7.8,0.9,8,0.9,8,1c0.1,0.1,0.1,0.2,0,0.3c0,0,0,0,0,0
			c0.1,0,0.2-0.1,0.2-0.1c0.1-0.1,0.3-0.1,0.4,0.1C8.7,1.5,8.9,1.4,9,1.4c0.1,0,0.2-0.1,0.3-0.1c0.2,0,0.2,0,0.3,0.1
			c-0.2,0-0.3,0.2-0.3,0.3c-0.1,0.2,0,0.3,0.1,0.4c0,0,0.1,0.1,0.1,0.1c0.1,0,0.1,0.1,0,0.1c-0.2-0.1-0.4,0-0.6,0c0,0,0,0,0,0
			c-0.2,0-0.3,0-0.3-0.2c0-0.1-0.1-0.1-0.2-0.1c-0.1,0-0.2,0-0.2,0c0,0,0,0,0,0.1c0,0,0,0.1,0,0.1c0,0,0,0.1,0.1,0.1
			c0.1,0,0.1,0.1,0.1,0.2c0,0.1,0,0.2,0.1,0.2C8.4,3,8.4,3.1,8.4,3.2c0,0.1,0,0.1,0,0.1C8.6,3.7,8.9,4,9.3,4.2
			c0.1,0,0.2,0.1,0.4,0.1c0.3,0,0.4-0.1,0.6-0.4c0-0.1,0.1-0.1,0.1-0.2c0.1,0,0.1,0.1,0.1,0.1c0,0.4-0.3,1-0.9,1.1c0,0,0,0,0,0
			C9.7,5.1,9.8,5.3,10,5.3c0.2,0,0.4,0,0.6-0.3c0,0,0,0,0.1,0c0,0,0,0,0,0.1c0,0.3-0.2,0.6-0.5,0.8c0,0-0.1,0.1-0.1,0.1
			c0,0.2,0,0.4,0,0.6c0,0,0,0.1,0.1,0.1C10.5,6.9,10.8,7,11.1,7c0.3,0,0.6-0.1,0.8-0.3c0,0,0,0,0.1,0c0,0,0,0,0,0.1
			c0,0.1,0,0.1,0,0.2c-0.2,0.5-0.5,0.7-0.9,0.8c0,0,0,0-0.1,0c-0.2,0-0.2,0-0.2,0.2c0,0.3,0,0.7,0,1c0.1,0,0.2-0.1,0.3-0.1
			c0,0,0,0,0-0.1c0.2-0.6,0.6-1,1.2-1.3c0.1-0.1,0.3-0.1,0.4,0c0.2,0.1,0.3,0.2,0.3,0.4c0,0.2-0.1,0.3-0.3,0.4c0,0-0.1,0-0.1,0
			c-0.2,0-0.4,0.2-0.4,0.4c0,0.2-0.1,0.4-0.1,0.6c-0.1,0.5-0.4,0.9-0.7,1.2c0,0,0,0,0,0c0.2,0,0.4,0.1,0.7,0.1
			c0.1,0,0.2,0.1,0.3,0.1c0.1,0.1,0.3,0.1,0.4,0.1c0,0,0.1,0,0.1,0c0.5-0.3,1.1-0.3,1.7-0.1c0.2,0.1,0.2,0.1,0.1,0.3
			c-0.4-0.2-0.8-0.4-1.3-0.2c0.2,0,0.5,0.1,0.7,0.1c0.2,0.1,0.4,0.1,0.6,0.2c0.1,0,0.1,0.1,0.1,0.1C14.7,11.4,14.7,11.4,14.7,11.5z
			 M8,7.9c0,0.6,0,1.2,0,1.8c0,0,0,0,0,0c0-0.1,0-0.2,0-0.3c0,0,0.1,0,0.1,0c0,0.1,0,0.1,0,0.2c0.1,0,0.1,0,0.2,0c0-0.1,0-0.2,0-0.2
			c0.1,0,0.1,0,0.1,0.1c0,0,0,0.1,0,0.1c0,0,0,0,0,0.1c0,0,0,0,0,0c0-0.2,0-0.4,0-0.6c0-0.3,0-0.6,0-0.9c0,0,0-0.1,0-0.1
			C8.6,8,8.5,8,8.5,8c0,0-0.1-0.1-0.1-0.1C8.3,7.9,8.2,7.9,8,7.9z M7.4,9.4c0,0.1,0,0.2,0,0.3c0.1,0,0.1,0,0.2,0
			c0.1-0.1-0.1-0.2,0.1-0.2c0,0.1,0,0.1,0,0.2c0,0,0,0,0,0c0,0,0,0,0,0c0,0,0,0,0-0.1c0-0.5,0-1,0-1.5c0,0,0-0.1,0-0.1
			c-0.1,0-0.3,0-0.4,0c0,0,0,0.1,0,0.1c0,0-0.1,0-0.1-0.1c0,0,0,0,0,0.1c0,0,0-0.1-0.1-0.1c0,0.1,0,0.1,0,0.1c0,0.2,0,0.5,0,0.7
			c0,0.3,0,0.6,0.1,0.8c0,0,0,0,0,0.1c0,0,0,0,0,0c0-0.1,0-0.2,0-0.2C7.3,9.4,7.3,9.4,7.4,9.4z M8.5,6.1c0,0.1,0,0.3,0,0.4
			c0,0.1,0,0.1,0,0.2c0,0,0,0,0,0c0,0,0,0,0,0c0,0,0-0.1,0-0.1C8.6,6.4,8.6,6.3,8.5,6.1c0.5,0,0.9,0,1.3,0c0,0,0,0.1,0,0.1
			c0,0.2,0,0.3,0,0.5c0,0.1,0,0.1,0.1,0.1c0-0.3,0-0.5,0-0.8C8.6,6,7.2,6,5.8,6c0,0.2,0,0.5,0,0.7c0,0.1,0,0.1,0.1,0.1
			c0-0.2,0-0.4,0-0.7c0.4,0,0.8,0,1.3,0c0,0,0,0.1,0,0.1c0,0.2,0,0.3,0,0.5c0,0,0,0,0,0.1c0,0,0,0,0-0.1c0-0.2,0-0.3,0-0.5
			c0,0,0-0.1,0-0.1C7.7,6.1,8.1,6.1,8.5,6.1z M6.7,10.2C6.7,10.2,6.7,10.2,6.7,10.2c0.1,0,0.1,0,0.1,0c0.1-0.1,0.1-0.2,0.2-0.2
			c0,0,0,0,0,0c0.1,0,0.1,0,0.2,0c0,0.2,0.1,0.3,0.2,0.3c-0.1-0.1-0.2-0.2-0.2-0.3c0.2,0,0.4,0,0.5,0c0,0.1-0.1,0.2-0.2,0.3
			c0.2,0,0.2-0.1,0.3-0.3c0.1,0,0.1,0,0.2,0c0,0.2,0.1,0.3,0.3,0.3C8.2,10.2,8,10.1,8.1,10c0.2,0,0.4,0,0.5,0
			c0.1,0.1-0.1,0.2-0.1,0.3c0.2,0,0.2-0.1,0.2-0.3c0.1,0,0.1,0,0.2,0c0.1,0.2,0.1,0.3,0.3,0.3c0,0-0.1-0.1-0.1-0.1C9,10.1,9,10,9,10
			c0,0,0-0.1,0-0.1c0.2,0,0.4,0,0.6-0.1c0,0.1,0,0.1-0.1,0.2c0,0.1-0.1,0.1-0.1,0.2c0.2,0,0.3-0.2,0.3-0.5c-1.2,0.2-2.3,0.2-3.5,0
			c0,0.3,0.1,0.5,0.3,0.5C6.3,10.1,6.3,10,6.3,9.8c0.2,0,0.4,0.1,0.6,0.1C6.8,10,6.8,10.1,6.7,10.2z M11,11.6
			c-0.5-0.4-1.1-0.6-1.7-0.5c-0.4,0-0.8,0.2-1.2,0.5c0.1,0,0.1,0,0.1,0c0.1,0.1,0.1,0,0.2,0c0.1-0.1,0.3-0.2,0.4-0.2
			c0.6-0.2,1.2-0.1,1.7,0.1C10.7,11.6,10.8,11.7,11,11.6C11,11.6,11,11.6,11,11.6z M4.8,11.6c0.1,0.1,0.3,0.1,0.4,0
			c0.1-0.1,0.3-0.1,0.5-0.2c0.6-0.2,1.2-0.1,1.7,0.2c0.1,0.1,0.2,0.1,0.3,0C7,10.9,5.7,10.9,4.8,11.6z M3.9,11.8
			c-0.1-0.1-0.2-0.1-0.3-0.2c-0.8-0.4-1.5-0.3-2.2,0.1c-0.1,0-0.1,0.1,0,0.2c0.2-0.1,0.3-0.2,0.5-0.2c0.6-0.2,1.2-0.2,1.8,0.1
			C3.7,11.9,3.8,11.9,3.9,11.8z M12,11.8c0.1,0,0.2,0,0.3,0c0.1-0.1,0.2-0.1,0.4-0.1c0.6-0.2,1.1-0.1,1.6,0.2c0.1,0,0.1,0.1,0.2,0.1
			c0-0.1,0-0.1-0.1-0.2c-0.6-0.4-1.2-0.5-1.8-0.3C12.4,11.6,12.2,11.7,12,11.8z M10.2,6.9C10.2,6.9,10.2,6.9,10.2,6.9
			C10.2,6.9,10.2,6.9,10.2,6.9C10.1,6.9,10,6.9,9.9,6.9c-1.1,0-2.2,0-3.4,0c-0.3,0-0.5,0-0.8,0c0,0-0.1,0-0.1,0c0,0,0,0,0,0
			C7.1,6.9,8.7,6.9,10.2,6.9z M5.7,7.9C5.6,8.1,5.5,8.3,5.5,8.5c0,0.1,0,0.1,0.1,0.1c0.1,0,0.2,0,0.3,0C6,8.6,6,8.6,6,8.5
			c0-0.1,0-0.1,0-0.2C6,8.1,6,8,6,7.9C5.9,7.9,5.8,7.9,5.7,7.9z M10.4,8.6c0-0.1,0-0.1,0-0.1c-0.1-0.2-0.2-0.3-0.2-0.5
			c0,0,0,0-0.1,0c-0.1,0-0.2,0-0.3,0c0,0.2,0,0.4,0,0.7C10,8.6,10.2,8.6,10.4,8.6z M7.3,11.8c-0.4-0.4-1.4-0.4-1.8,0
			c0,0,0.1,0,0.1,0c0.1,0,0.2,0,0.3,0c0.4-0.2,0.8-0.2,1.1,0C7.1,11.9,7.2,11.8,7.3,11.8z M9.7,8.6c0-0.2,0-0.5,0-0.7
			c-0.2,0-0.3,0-0.4,0c0,0.2,0,0.4,0,0.7C9.4,8.6,9.5,8.6,9.7,8.6z M8.5,11.8c0.1,0,0.2,0.1,0.3,0c0.4-0.2,0.8-0.2,1.2,0
			c0.1,0.1,0.2,0,0.3,0C9.7,11.2,8.9,11.4,8.5,11.8z M6.1,8.6c0.2,0,0.3,0,0.4,0c0-0.2,0-0.4,0-0.7c-0.2,0-0.3,0-0.4,0
			C6.1,8.1,6.1,8.4,6.1,8.6z M5.5,8.7c0,0.1,0,0.3,0,0.4c0,0,0,0.1,0,0.1c0.1,0,0.2,0,0.3,0.1c0-0.1,0-0.1,0-0.2c0.1,0,0.1,0,0.2,0
			C6,9.1,6,9,6,9c0-0.1,0-0.2,0-0.3C5.8,8.7,5.7,8.7,5.5,8.7z M3.5,7.9C3.5,7.9,3.6,7.9,3.5,7.9c0.3,0.2,0.6,0.5,0.9,0.7
			c0,0,0,0,0,0C4.3,8.5,4.2,8.3,4.1,8.2C3.8,8,3.6,7.8,3.3,7.7c-0.1,0-0.2,0-0.2,0c0,0-0.1,0.1-0.1,0.1C2.9,7.9,3,8,3.1,8
			C3,7.9,3,7.9,3,7.9c0.1,0,0.2,0,0.2,0c0,0,0,0.1,0,0.1C3.1,8.1,3.1,8.1,3,8c0,0,0,0-0.1,0c0,0,0,0-0.1,0c0,0.1,0.1,0.2,0.2,0.2
			c0.1,0,0.2,0,0.2-0.1c0.1-0.1,0-0.2-0.1-0.3c0,0,0,0,0,0C3.3,7.8,3.4,7.9,3.5,7.9C3.5,8,3.5,7.9,3.5,7.9z M9.8,9
			c0.1,0,0.2,0,0.2,0c0,0,0,0.1,0,0.1c0.1,0,0.2,0,0.3-0.1c0,0,0,0,0,0c0-0.1,0-0.3,0-0.4c-0.2,0-0.4,0-0.6,0C9.8,8.8,9.8,8.9,9.8,9
			z M6.1,8.7c0,0.1,0,0.2,0,0.3c0.1,0,0.2,0,0.3,0c0.1,0,0.1,0,0.1,0.1c0,0.1,0,0.3,0,0.4c0,0.1,0,0.1,0.1,0.1c0-0.3,0-0.6,0-0.9
			C6.4,8.7,6.3,8.7,6.1,8.7z M9.7,8.7c-0.2,0-0.3,0-0.4,0c0,0.3,0,0.6,0,0.9c0.1,0,0.1,0,0.1-0.1c0-0.2,0-0.3,0-0.5
			c0.1,0,0.2,0,0.4,0C9.7,8.9,9.7,8.8,9.7,8.7z M12.7,8c0.1,0,0.1-0.1,0.1-0.1c0,0,0-0.1-0.1-0.1c0,0-0.1,0-0.2,0
			c-0.1,0-0.2,0-0.3,0.1c-0.4,0.2-0.7,0.5-0.9,0.9c0,0,0,0,0,0c0.2-0.1,0.3-0.3,0.4-0.4c0.1-0.1,0.3-0.3,0.4-0.3c0,0,0.1,0,0.1,0
			c0.1,0,0.1-0.1,0.2-0.1c0.1,0,0.1-0.1,0.2-0.1c0,0,0,0,0,0c0,0,0.1,0,0.1,0.1C12.7,7.9,12.7,8,12.7,8z M11.8,9.1
			C11.8,9.1,11.8,9.1,11.8,9.1c-0.5,0.4-1,0.7-1.6,0.8c0.5-0.1,1.1-0.2,1.5-0.6c-0.1,0.1-0.3,0.1-0.4,0.2
			C11.5,9.4,11.7,9.2,11.8,9.1z M5.6,9.9C5,9.8,4.5,9.5,4,9.1c0,0,0,0,0,0c0.2,0.2,0.3,0.3,0.5,0.5c0,0,0,0,0,0
			C4.3,9.5,4.2,9.4,4,9.3C4.4,9.7,5.3,9.9,5.6,9.9z M8.8,8.6c0.1,0,0.2,0,0.2,0c0.1,0,0.1,0,0.1-0.1c0-0.1,0-0.2,0-0.3
			c0-0.1,0-0.2,0-0.3c-0.1,0-0.1,0-0.1,0c0,0,0,0,0.1,0C9,8,8.9,8,8.9,8.1C8.8,8.2,8.8,8.4,8.8,8.6z M7,8.6c0-0.1,0-0.1,0-0.2
			c0-0.1,0-0.2-0.1-0.3c0,0,0,0,0-0.1C6.9,8,6.8,8,6.7,8c0,0,0.1,0,0.1,0c-0.1,0-0.1,0-0.1,0c0,0.2,0,0.4,0,0.6
			C6.8,8.6,6.9,8.6,7,8.6z M9.1,9.7c0.1-0.1,0.1-0.8,0-1c-0.1,0-0.2,0-0.3,0c0,0.1,0,0.3,0,0.4c0.1,0,0.1,0,0.2-0.1c0,0,0,0.1,0,0.1
			C9.1,9.2,9,9.2,9,9.3C9.1,9.4,9.1,9.5,9.1,9.7z M7,8.7c-0.1,0-0.2,0-0.3,0c0,0.3,0,0.6,0,0.9c0,0,0,0,0,0.1c0-0.1,0-0.3,0-0.4
			c0,0,0-0.1,0-0.1c0,0,0,0,0,0c0,0,0-0.1,0-0.1c0.1,0,0.1,0,0.2,0.1C7,9,7,8.8,7,8.7z M3.5,11c0.1,0,0.1,0.1,0.2,0.1
			c0,0,0.1,0,0.1,0c0.3-0.1,0.6-0.2,1-0.2C4.4,10.8,4,10.8,3.5,11z M11,10.9c0.3,0,0.6,0,0.9,0.2c0.2,0.1,0.3,0,0.4-0.1
			C11.9,10.8,11.4,10.8,11,10.9z M11.3,9C11.3,9,11.3,9,11.3,9C11.3,9,11.2,9,11.3,9c-0.5,0.2-0.9,0.3-1.4,0.4c0,0,0,0-0.1,0.1
			c0,0.1-0.1,0.3-0.1,0.4c0,0.1,0,0.1,0,0.2c0,0,0,0,0,0c0.1-0.2,0.1-0.3,0.2-0.5c0-0.1,0-0.1,0.1-0.1c0.3-0.1,0.5-0.2,0.8-0.2
			C11,9.2,11.1,9.1,11.3,9z M6,10C6,10,6,10,6,10c0-0.1,0-0.1,0-0.1C6,9.7,6,9.6,5.9,9.5c0,0,0-0.1-0.1-0.1C5.6,9.3,5.4,9.3,5.2,9.2
			C5,9.2,4.7,9.1,4.5,9c0.1,0,0.1,0.1,0.1,0.1C5,9.3,5.4,9.4,5.8,9.5c0.1,0,0.1,0,0.1,0.1C5.9,9.7,6,9.9,6,10z M10.2,9.7
			c0.5,0.1,1.6-0.5,1.7-0.9C11.4,9.2,10.8,9.5,10.2,9.7z M4,8.8c0.4,0.5,1,0.8,1.6,0.8C5,9.5,4.4,9.3,4,8.8z M7.2,4.5
			c0.1,0,0.2-0.1,0.3-0.2c0-0.1,0.1-0.3,0.1-0.4c0-0.2,0.1-0.3,0.1-0.5C7.5,3.8,7.3,4.2,7.2,4.5z M8.6,4.6C8.5,4.2,8.3,3.8,8.1,3.5
			c0,0.2,0.2,0.7,0.3,0.9C8.5,4.5,8.5,4.6,8.6,4.6z M7.6,4.5c0,0,0.1,0,0.1,0c0.1,0,0.1,0,0.1-0.1c0-0.1,0-0.2,0-0.3
			c0-0.2,0-0.4,0-0.6C7.7,3.9,7.7,4.2,7.6,4.5z M7,7.1c-0.1,0-0.3,0-0.3,0.1c0,0,0,0,0,0C6.6,7.4,6.5,7.5,6.4,7.6
			c0.2,0.1,0.4-0.1,0.5-0.3c-0.1,0-0.1,0-0.2,0C6.8,7.2,7,7.3,7,7.1z M8.3,3.1C8.2,3,8.2,3,8.1,3C7.9,3,7.8,3,7.7,3
			c0,0-0.1,0-0.1,0.1c0,0,0,0.1,0,0.1c0,0,0.1,0,0.1,0c0.1,0,0.2,0,0.4,0C8.1,3.1,8.2,3.1,8.3,3.1z M11.6,9.6
			c-0.5,0.3-1,0.5-1.6,0.6C10.7,10.2,11.2,10,11.6,9.6z M9.4,7.6C9.3,7.5,9.3,7.4,9.2,7.4c0-0.1-0.1-0.2-0.1-0.2c0,0,0,0-0.1,0
			c-0.1,0-0.1,0-0.2,0c0,0.1,0.1,0.1,0.2,0.2c0,0-0.1,0-0.1,0C9.1,7.6,9.2,7.6,9.4,7.6z M8,3.5C8,3.5,8,3.5,8,3.5C8,3.6,8,3.6,8,3.5
			c0,0.3,0,0.5,0,0.8c0,0.2,0,0.2,0.2,0.2c0,0,0,0,0,0C8.2,4.2,8.1,3.9,8,3.5z M4.2,9.7c0.4,0.4,0.9,0.5,1.5,0.6
			c-0.3-0.1-0.5-0.2-0.8-0.3C4.7,9.9,4.4,9.8,4.2,9.7z M9.9,7.5C9.8,7.4,9.7,7.3,9.6,7.1c0,0,0,0-0.1,0c-0.1,0-0.1,0-0.2,0
			c0,0,0,0,0,0c0,0,0.1,0.1,0.1,0.1c0,0,0.1,0,0.1,0c0,0,0,0,0,0c0,0-0.1,0-0.1,0C9.5,7.4,9.7,7.6,9.9,7.5z M6.1,7.1
			c-0.1,0-0.2,0-0.3,0.1C5.7,7.3,5.5,7.4,5.3,7.5c0.3,0,0.5,0,0.6-0.2c0,0-0.1,0-0.1,0C5.9,7.2,6,7.2,6.1,7.1z M11.8,11.3
			c-0.2-0.1-0.7-0.1-0.9,0c0.1,0.1,0.2,0.1,0.3,0.1c0.1,0,0.2,0,0.4,0C11.6,11.4,11.7,11.4,11.8,11.3z M10.5,7.5
			c-0.2,0-0.3-0.2-0.5-0.3C10,7.1,9.9,7.1,9.7,7.1c0,0,0.1,0.1,0.1,0.1c0,0,0.1,0,0.2,0c-0.1,0-0.1,0-0.1,0
			C10.1,7.4,10.2,7.5,10.5,7.5z M4.9,11.3c-0.2-0.1-0.7-0.1-0.8,0c0.1,0.1,0.1,0.1,0.3,0.1c0.1,0,0.2,0,0.3,0
			C4.8,11.4,4.8,11.3,4.9,11.3z M7.8,7.3c-0.1,0-0.2,0-0.2,0c0,0.1-0.1,0.2-0.1,0.3C7.8,7.6,7.8,7.6,7.8,7.3
			C7.8,7.3,7.8,7.3,7.8,7.3z M8,7.3c0,0.4,0,0.4,0.3,0.3c0-0.1-0.1-0.2-0.1-0.3C8.2,7.3,8.1,7.3,8,7.3z M7,7.6
			c0.2,0,0.4-0.1,0.4-0.3c0,0-0.1,0-0.1,0c-0.1,0-0.1,0-0.1,0.1C7.1,7.4,7,7.5,7,7.6z M8.5,7.3c0.1,0.3,0.2,0.4,0.4,0.3
			c0-0.1-0.1-0.2-0.1-0.3c0,0,0,0-0.1,0C8.6,7.2,8.6,7.3,8.5,7.3z M11,7.3C11,7.3,10.9,7.3,11,7.3c-0.2,0-0.4-0.1-0.5-0.2
			c-0.1-0.1-0.2-0.1-0.3,0C10.4,7.3,10.7,7.4,11,7.3z M6.4,7.3c-0.1,0-0.3-0.1-0.3,0.1c0,0-0.1,0.1-0.1,0.1c0,0-0.1,0.1-0.1,0.1
			C6.1,7.6,6.3,7.5,6.4,7.3z M5.6,7.1c-0.1,0-0.2,0-0.3,0.1C5.2,7.2,5,7.2,4.9,7.3c0,0-0.1,0-0.1,0C5.1,7.4,5.4,7.3,5.6,7.1z
			 M6.6,6.3c-0.1,0-0.3,0-0.4,0c0,0,0,0-0.1,0c0,0,0,0,0,0c0.3,0,0.6,0,0.9,0c0,0,0,0,0.1,0c0,0,0,0-0.1,0C6.8,6.3,6.7,6.3,6.6,6.3z
			 M8.4,6.3C8.4,6.3,8.4,6.3,8.4,6.3c-0.3,0-0.6,0-0.9,0c0,0,0,0,0,0c0,0,0,0,0,0C7.8,6.4,8.1,6.4,8.4,6.3C8.4,6.4,8.4,6.3,8.4,6.3z
			 M9.3,6.3C9.3,6.3,9.3,6.3,9.3,6.3c-0.1,0-0.3,0-0.4,0c0,0,0,0-0.1,0c0,0,0,0,0.1,0c0.3,0,0.6,0,0.8,0c0,0,0,0,0.1,0
			c0,0,0,0-0.1,0C9.5,6.3,9.4,6.3,9.3,6.3z M10.6,7.9C10.6,7.9,10.6,7.9,10.6,7.9c0,0.3,0,0.7,0,1c0,0,0.1,0,0.1-0.1
			c0-0.2,0-0.4,0-0.7C10.6,8,10.6,7.9,10.6,7.9z M5.2,8.9C5.2,8.9,5.2,8.9,5.2,8.9c0-0.4,0-0.7,0-1.1C5.2,8.2,5.1,8.9,5.2,8.9
			c0-0.1,0-0.1,0-0.1C5.2,8.8,5.2,8.9,5.2,8.9z M9.3,5.2c0.1,0.1,0.2,0.2,0.2,0.3c0.1,0.1,0.2,0.1,0.3,0.1C9.8,5.5,9.6,5.4,9.5,5.3
			C9.5,5.2,9.4,5.2,9.3,5.2z M7.2,4C7,4.2,6.9,4.4,6.7,4.6C6.9,4.6,7.1,4.4,7.2,4z M7.5,5.2c-0.1,0-0.1,0-0.2,0c0,0.1,0,0.1,0,0.2
			c0,0.1,0,0.1-0.1,0.2C7.4,5.6,7.4,5.5,7.5,5.2z M8.3,10.8C8.3,10.8,8.3,10.8,8.3,10.8C8.3,10.7,8.3,10.7,8.3,10.8
			c-0.3-0.1-0.5-0.1-0.7-0.1c-0.1,0-0.1,0-0.1,0.1C7.8,10.8,8,10.8,8.3,10.8z M5.9,5.6c0.3,0,0.4-0.2,0.6-0.4c-0.1,0-0.1,0-0.1,0.1
			c-0.1,0-0.1,0.1-0.1,0.1C6.1,5.5,6,5.5,5.9,5.6z M8.2,11.3c-0.2,0-0.5,0-0.7,0C7.7,11.4,8.1,11.4,8.2,11.3z M8.6,4
			c0.1,0.2,0.2,0.4,0.3,0.5c0,0,0.1,0,0.2,0.1C8.9,4.4,8.8,4.2,8.6,4z M11.3,10c-0.3,0.1-0.7,0.3-1,0.4C10.7,10.4,11.1,10.3,11.3,10
			z M8.4,5.3c0,0.2,0.1,0.3,0.3,0.3c0-0.1-0.1-0.2-0.1-0.3C8.5,5.2,8.4,5.2,8.4,5.3C8.4,5.2,8.4,5.3,8.4,5.3
			C8.4,5.3,8.4,5.3,8.4,5.3C8.5,5.3,8.5,5.3,8.4,5.3C8.5,5.3,8.4,5.3,8.4,5.3z M5.5,10.5c-0.3-0.1-0.7-0.3-1-0.4
			C4.7,10.3,5.1,10.4,5.5,10.5z M9.5,5.6C9.4,5.5,9.3,5.5,9.3,5.4c0-0.1-0.1-0.1-0.2-0.1C9.1,5.4,9.2,5.6,9.5,5.6z M9.8,6.6
			C9.8,6.6,9.7,6.6,9.8,6.6c-0.3,0-0.7,0-1,0c0,0,0,0-0.1,0C8.9,6.7,9.7,6.7,9.8,6.6z M6.6,6.6C6.6,6.6,6.6,6.6,6.6,6.6
			c-0.2,0-0.3,0-0.5,0c0,0,0,0-0.1,0c0,0,0,0,0.1,0c0.3,0,0.6,0,0.9,0c0,0,0,0,0.1,0c0,0,0,0-0.1,0C6.9,6.6,6.7,6.6,6.6,6.6z
			 M6.4,5.6c0.2,0,0.4-0.2,0.4-0.4c0,0-0.1,0-0.1,0C6.5,5.4,6.4,5.5,6.4,5.6z M8.4,6.7C8.4,6.6,8.4,6.6,8.4,6.7c-0.4,0-0.7,0-1,0
			c0,0,0,0-0.1,0c0,0,0,0,0.1,0C7.8,6.7,8.1,6.7,8.4,6.7C8.4,6.7,8.4,6.7,8.4,6.7z M7,5.3c0,0-0.1,0-0.1,0.1c0,0.1-0.1,0.2-0.1,0.2
			C6.9,5.6,7,5.5,7,5.3c0-0.1-0.1-0.1-0.1,0c0,0,0,0,0,0C6.9,5.3,7,5.3,7,5.3z M7.7,5.2c0,0.1,0,0.2,0,0.3c0.2,0,0.2,0,0.2-0.1
			c0-0.1,0-0.1,0-0.2C7.8,5.2,7.7,5.2,7.7,5.2z M6.8,4.3C6.6,4.4,6.4,4.5,6.1,4.5C6.4,4.7,6.7,4.5,6.8,4.3z M8.9,5.2
			c0,0-0.1,0-0.1,0c0.1,0.2,0.1,0.4,0.3,0.4C9,5.5,8.9,5.4,8.9,5.2z M8.2,5.6c-0.1-0.1,0-0.3-0.2-0.3c0,0,0.1,0,0.1,0c0,0,0,0,0,0
			c-0.1,0-0.1,0-0.2,0C8,5.5,8.1,5.6,8.2,5.6z M9,4.3c0.2,0.3,0.5,0.4,0.7,0.3C9.4,4.5,9.2,4.4,9,4.3z M7.5,10.2
			c-0.1,0.1-0.1,0.1-0.1,0.2c0,0,0,0-0.1,0.1c0,0,0.1,0,0.1,0.1c0.1-0.1,0.1-0.1,0.2,0c0,0,0.1,0,0.1-0.1
			C7.5,10.4,7.4,10.3,7.5,10.2z M8.3,10.2C8.3,10.2,8.3,10.2,8.3,10.2c0,0.1-0.1,0.1-0.1,0.2c0,0,0,0-0.1,0.1c0,0,0.1,0,0.1,0.1
			c0.1-0.1,0.1-0.1,0.2,0c0.1-0.1,0.1-0.1,0-0.1C8.4,10.3,8.4,10.3,8.3,10.2z M9.3,10.5c0,0,0.1-0.1,0.1-0.1c-0.2,0-0.2-0.1-0.2-0.2
			c-0.1,0.1-0.1,0.2-0.2,0.3c0,0,0,0,0.1,0.1C9.2,10.4,9.2,10.4,9.3,10.5z M6.6,10.2c0,0.1-0.1,0.1-0.1,0.2c0,0,0,0-0.1,0.1
			c0,0,0,0,0.1,0.1c0,0,0,0,0.1-0.1c0,0,0,0,0,0c0.1,0.1,0.1,0.1,0.2,0C6.6,10.4,6.6,10.3,6.6,10.2z M12.9,8
			c-0.1,0.1-0.2,0.1-0.3,0.1c-0.1,0-0.1-0.1,0-0.2c-0.1,0-0.1,0.1-0.1,0.2c0,0.1,0.1,0.1,0.2,0.1C12.8,8.1,12.9,8.1,12.9,8z
			 M8.1,2.7C8.1,2.7,8.1,2.7,8.1,2.7C8.1,2.7,8.1,2.6,8.1,2.7C8,2.6,7.8,2.6,7.7,2.6c0,0,0,0,0,0c0,0,0,0,0,0C7.9,2.7,8,2.7,8.1,2.7
			z M6.2,7.2c0.2,0,0.3,0,0.3-0.1C6.4,7.1,6.3,7,6.2,7.2z M8.7,7.2c0-0.1-0.1-0.2-0.3-0.1C8.5,7.2,8.5,7.2,8.7,7.2z M8,7.1
			c0,0.1,0,0.1,0.2,0.1c0,0,0-0.1,0-0.1C8.2,7.1,8.1,7.1,8,7.1z M7.6,7.1c0,0.1,0,0.1,0.2,0.1c0.1,0,0.1-0.1,0.1-0.1
			C7.7,7.1,7.7,7.1,7.6,7.1z M7.4,7.1c-0.3,0-0.3,0-0.2,0.1C7.4,7.3,7.4,7.2,7.4,7.1z M9.3,10.6c0,0.1,0.3,0.1,0.4,0
			C9.6,10.6,9.5,10.6,9.3,10.6z M10.3,7.9C10.3,7.9,10.3,7.9,10.3,7.9C10.4,7.9,10.4,7.9,10.3,7.9C10.3,7.9,10.3,7.9,10.3,7.9
			c-0.1,0,0,0.1,0,0.2c0,0,0.1,0,0.1,0c0,0,0,0,0,0c0,0-0.1,0-0.1,0C10.3,8,10.3,8,10.3,7.9C10.3,8,10.3,8,10.3,7.9z M6.5,10.6
			c-0.1,0-0.3,0-0.4,0C6.3,10.7,6.4,10.7,6.5,10.6z M7.2,5C7.2,5,7.2,5,7.2,5C7.2,5.1,7.2,5.1,7.2,5c0.1,0.1,0.1,0.1,0.2,0.1
			c0,0,0,0,0,0c0,0,0,0,0,0C7.4,5,7.3,5,7.2,5z M8.9,5c0,0-0.1,0-0.1,0.1C8.8,5.1,8.8,5.1,8.9,5c0,0.1,0.1,0.1,0.1,0.1
			C8.9,5,8.9,5,8.9,5z M6.9,10.7C6.9,10.7,6.8,10.7,6.9,10.7C6.9,10.7,6.9,10.8,6.9,10.7c0.1,0.1,0.2,0.1,0.3,0
			C7,10.7,6.9,10.7,6.9,10.7z M8.3,5C8.3,5.1,8.4,5.1,8.3,5c0.1,0.1,0.2,0.1,0.2,0.1c0,0,0,0,0,0c0,0,0,0,0,0C8.5,5,8.4,5,8.3,5z
			 M7.1,5.1C7.1,5,7.1,5,7.1,5.1C7,5,6.9,5,6.9,5c0,0,0,0-0.1,0c0,0,0,0,0.1,0C6.9,5.1,7,5.1,7.1,5.1C7,5.1,7.1,5.1,7.1,5.1z
			 M8.7,10.7c0,0.1,0.2,0.1,0.2,0.1c0,0,0,0,0-0.1C8.9,10.7,8.8,10.7,8.7,10.7z M9.1,5.1C9.1,5.1,9.1,5.1,9.1,5.1c0.1,0,0.1,0,0.2,0
			c0,0,0,0,0,0c0,0,0,0,0,0C9.3,5,9.2,5,9.1,5.1C9.2,5,9.1,5.1,9.1,5.1z M6.6,5.1c0,0,0.1,0,0.1-0.1C6.6,5.1,6.6,5,6.6,5.1
			c0-0.1-0.1-0.1-0.1-0.1C6.5,5.1,6.5,5.1,6.6,5.1z M7.7,5.1C7.7,5.1,7.7,5.1,7.7,5.1C7.7,5.1,7.8,5.1,7.7,5.1c0.1,0,0.1,0,0.1,0
			C7.8,5,7.8,5,7.7,5.1C7.7,5,7.7,5,7.7,5.1C7.6,5,7.6,5.1,7.7,5.1C7.6,5.1,7.6,5.1,7.7,5.1C7.7,5.1,7.7,5.1,7.7,5.1z M8,5
			C8,5,8,5,8,5C8,5.1,8,5.1,8,5c0.1,0.1,0.1,0.1,0.2,0.1c0,0,0-0.1,0-0.1C8.1,5,8,5,8,5z M7.2,4.9c0.1,0.1,0.2,0.1,0.2,0
			C7.4,4.9,7.3,4.9,7.2,4.9z M8,4.9C8,4.9,8,4.9,8,4.9c0.1,0,0.1,0.1,0.2,0.1c0,0,0,0,0,0c0,0,0,0,0,0C8.1,4.8,8,4.9,8,4.9z M9,4.9
			c-0.1,0-0.2,0-0.3,0C8.8,4.9,8.9,4.9,9,4.9z M11.2,11.5c0.1,0.1,0.1,0.1,0.2,0C11.4,11.5,11.3,11.5,11.2,11.5z M8.6,4.9
			C8.6,4.9,8.6,4.9,8.6,4.9c-0.1,0-0.2,0-0.2,0c0,0,0,0,0,0C8.4,4.9,8.5,4.9,8.6,4.9z M9.1,4.9C9.1,4.9,9.1,4.9,9.1,4.9
			c0.1,0,0.1,0,0.2,0c0,0,0,0,0,0C9.3,4.8,9.2,4.8,9.1,4.9z M6.8,4.9C6.8,4.9,6.8,4.9,6.8,4.9c0.1,0,0.2,0.1,0.2,0c0,0,0,0,0,0
			C7,4.9,6.9,4.9,6.8,4.9z M7.8,4.9C7.8,4.9,7.8,4.9,7.8,4.9c-0.1,0-0.1,0-0.2,0c0,0,0,0,0,0C7.7,4.9,7.8,4.9,7.8,4.9z M5.4,7.9
			C5.4,7.9,5.4,7.9,5.4,7.9c0.1,0,0.1,0,0.2,0.1c0,0,0-0.1,0-0.1C5.5,7.9,5.5,7.9,5.4,7.9z M4.6,11.5c-0.1,0-0.1,0-0.2,0
			C4.5,11.6,4.5,11.6,4.6,11.5z"/>
		<path d="M4.2,4.5c0.1,0,0.2,0,0.1,0.1c0.1,0,0.1,0.2,0.2,0.2C4.8,5,4.7,5.5,4.4,5.6c-0.1,0-0.1,0.1-0.1,0.1c0,0,0,0,0,0
			c0,0.1,0,0.1-0.1,0.2c0,0.1,0,0.3,0,0.4c-0.1,0-0.1,0-0.2,0c0-0.1,0-0.3,0-0.4c0,0,0,0,0,0c-0.1,0-0.1,0-0.1-0.1
			c0-0.1,0-0.1-0.1-0.2C3.5,5.4,3.5,5,3.8,4.8c0.1-0.1,0.1-0.1,0.1-0.2c0,0,0.1,0,0.1,0c0,0-0.1,0-0.1-0.1c0.1,0,0.1,0,0.2,0
			c0-0.1,0-0.2,0-0.3c-0.1,0-0.1,0-0.2,0.1c0,0,0,0,0,0.1c0,0.5-0.4,0.9-0.8,0.9C2.5,5.4,2,5.1,1.8,4.6C1.7,4.4,1.7,4.1,1.9,3.8
			c0,0,0-0.1,0-0.1c0-0.4,0.4-0.7,0.7-0.7c0.1,0,0.2,0,0.3-0.1C3,2.9,3.1,2.8,3.2,2.7c0.1,0,0.1-0.1,0.1-0.1c0-0.5,0.5-0.8,0.9-0.6
			c0.1,0,0.2,0.1,0.3,0.2c0,0,0.1,0,0.1,0c0.3-0.1,0.6,0,0.8,0.3c0.1,0.1,0.1,0.1,0.2,0.1c0.1,0,0.2,0,0.4,0c0.1,0,0.1,0,0.1,0.1
			c0,0.1-0.1,0.1-0.1,0.1c-0.1,0-0.2,0-0.3,0c-0.1,0-0.1,0-0.1,0.1c0,0.1,0,0.2,0.1,0.2c0.1,0,0.2,0,0.2,0c0.3,0,0.6,0,0.9,0
			c0.1,0,0.1,0,0.1,0.1c0,0.1-0.1,0.1-0.1,0.1c-0.4,0-0.9,0-1.3,0c-0.1,0-0.1,0-0.2,0.1C5.3,3.5,5.1,3.6,4.9,3.6c-0.2,0-0.4,0-0.6,0
			c0,0.1,0,0.1,0,0.2c0,0,0.1,0,0.1,0c0.1,0,0.2,0,0.2,0.1c0,0,0,0.1,0,0.2c0,0,0,0,0.1,0c0.1,0,0.2,0,0.3,0C5,4,5,4,5,4
			c0.1,0,0.1,0,0.1,0.1c0,0.1-0.1,0.1-0.1,0.1c-0.2,0-0.3,0-0.5,0c-0.1,0-0.2,0-0.3,0c0,0-0.1,0-0.1,0.1C4.2,4.3,4.2,4.4,4.2,4.5z
			 M3.1,3.5c0.1-0.1,0.2-0.2,0.3-0.2c0.2-0.1,0.5,0,0.5,0.2c0,0.1-0.1,0.3-0.2,0.3c-0.1,0-0.1,0-0.2-0.1c0-0.1,0-0.1,0.1-0.1
			c0,0,0,0,0,0c0-0.1-0.1-0.1-0.2,0c-0.1,0.1-0.2,0.3,0,0.4C3.6,4,3.8,4,3.9,3.9C4.2,3.8,4.2,3.4,4,3.2C3.8,3,3.4,3,3.2,3.1
			C3,3.3,2.9,3.3,2.7,3.3c-0.3,0-0.5,0.2-0.5,0.5c0,0,0,0.1,0,0.1C2.1,4,2,4.1,2,4.2C1.9,4.7,2.3,5.1,2.8,5.1c0.4,0,0.8-0.3,0.8-0.7
			c0-0.1,0-0.1-0.1-0.1c-0.2,0-0.3,0-0.5,0c-0.1,0-0.2-0.1-0.2-0.2C2.8,4,2.8,3.9,3,3.9c0,0,0.1,0,0.1,0c0,0,0,0,0,0
			C3.1,3.9,3,3.8,3,3.8C2.7,3.7,2.5,3.9,2.5,4.2c0,0.2,0.2,0.4,0.5,0.4c0.1,0,0.2-0.1,0.3-0.1c0,0.1,0,0.1,0,0.2
			C3.2,4.8,2.8,4.9,2.6,4.8C2.3,4.7,2.1,4.4,2.2,4.1c0-0.1,0-0.1,0.1-0.2c0,0,0.1-0.1,0.1-0.1c0-0.2,0.1-0.3,0.2-0.3
			C2.8,3.5,2.9,3.5,3.1,3.5z M4.3,3C4.4,3,4.4,3,4.3,3c0.1,0,0.1-0.1,0.1-0.1c0.1-0.1,0.3-0.2,0.4-0.2c0.2,0,0.3,0.1,0.3,0.3
			c0,0.1,0,0.2-0.1,0.2c0,0-0.1,0-0.2,0c0,0,0-0.1,0-0.2c-0.1,0-0.2,0-0.2,0.1c0,0.1,0,0.2,0.1,0.2c0.2,0.1,0.4,0,0.5-0.1
			c0.1-0.1,0.1-0.3,0-0.5C5.2,2.5,5,2.4,4.7,2.5c-0.1,0-0.2,0.1-0.3,0.1c0-0.3-0.2-0.4-0.4-0.4c-0.2,0-0.4,0.1-0.4,0.2
			c0,0,0.1,0,0.1-0.1c0.2-0.1,0.4,0,0.5,0.1c0.1,0.1,0,0.2-0.1,0.3c0,0-0.1,0-0.1,0c0,0,0,0,0-0.1c0-0.1,0-0.1,0-0.1
			c-0.1,0-0.1,0-0.1,0.1c0,0.1,0,0.2,0.1,0.2c0.1,0.1,0.2,0.1,0.3,0c0.1,0,0.1-0.1,0.2-0.1C4.4,2.9,4.4,2.9,4.3,3z M4.2,5.3
			C4.3,5.3,4.3,5.3,4.2,5.3C4.3,5.3,4.3,5.4,4.2,5.3c0.2-0.1,0.1-0.4,0-0.4C4.2,5,4.2,5.2,4.2,5.3C4.2,5.4,4.2,5.4,4.2,5.3
			C4.2,5.3,4.2,5.3,4.2,5.3z M4,5.4C4,5.4,4.1,5.4,4,5.4c0-0.2,0-0.4,0-0.5c-0.1,0-0.2,0.2-0.2,0.4C3.9,5.3,3.9,5.3,4,5.4
			C4,5.4,4,5.4,4,5.4C4,5.3,4,5.3,4,5.4C4,5.3,4,5.4,4,5.4z M3.8,5.3c0-0.1,0-0.2,0.1-0.3C3.7,5,3.7,5.2,3.8,5.3z M4.5,5.3
			c0.1-0.1,0-0.2-0.1-0.3C4.4,5,4.5,5.1,4.5,5.3z"/>
		<path d="M11.5,4.6c0-0.1,0.1,0,0.1-0.1c0-0.1,0-0.2,0-0.2c0,0,0-0.1-0.1-0.1c-0.1,0-0.2,0-0.2,0c-0.2,0-0.4,0-0.6,0
			c-0.1,0-0.1,0-0.1-0.1C10.6,4,10.7,4,10.8,4c0.1,0,0.2,0,0.3,0c0,0,0.1,0,0.1,0c0-0.1-0.1-0.1,0-0.2c0.1-0.1,0.2,0,0.3-0.1
			c0,0,0-0.1,0-0.1c-0.2,0-0.4,0-0.6,0c-0.2,0-0.5,0-0.6-0.2c0,0-0.1,0-0.1,0c-0.1,0-0.3,0-0.4,0c-0.1,0-0.1,0-0.1-0.1
			c0-0.1,0.1-0.1,0.1-0.1c0.1,0,0.2,0,0.2,0c0.1,0,0.1-0.1,0.1-0.2c0-0.1,0-0.1-0.1-0.1c-0.1,0-0.2,0-0.4,0c-0.1,0-0.2,0-0.2-0.1
			c0-0.1,0.1-0.1,0.2-0.1c0.1,0,0.3,0,0.4,0c0.1,0,0.1,0,0.1-0.1c0.2-0.3,0.5-0.4,0.9-0.3c0.1,0,0.1,0,0.1,0C11.4,2,11.7,1.9,12,2
			c0.3,0.1,0.5,0.3,0.5,0.6c0,0.1,0,0.1,0.1,0.2c0.1,0.1,0.2,0.1,0.3,0.2C13,3,13,3.1,13.1,3.1c0.4,0,0.7,0.2,0.7,0.6
			c0,0.1,0.1,0.2,0.1,0.3c0.2,0.4,0.1,0.9-0.3,1.2c-0.5,0.4-1.2,0.3-1.5-0.2C12.1,4.7,12,4.6,12,4.4c0-0.1,0-0.1-0.1-0.1
			c0,0-0.1,0-0.1,0c0,0.1,0,0.1,0,0.2c0,0,0,0,0.1,0.1c0,0,0.1,0,0.1,0c0,0,0,0,0,0c0,0-0.1,0-0.1,0c0,0,0,0,0,0c0.1,0,0.1,0,0.2,0
			c0,0,0,0,0,0C12,4.7,12,4.8,12.1,4.8c0.2,0.2,0.2,0.6-0.1,0.8c0,0,0,0.1,0,0.1c0,0,0,0,0,0.1c0,0.1,0,0.1-0.1,0.2
			c0,0.1,0,0.3,0,0.4c-0.1,0-0.1,0-0.2,0c0-0.1,0-0.3,0-0.4c-0.1,0-0.1,0-0.1,0c0-0.1,0-0.1,0-0.2c0,0,0-0.1-0.1-0.1
			c-0.2-0.1-0.3-0.2-0.3-0.4c0-0.2,0.1-0.3,0.3-0.4c0,0,0,0,0.1-0.1C11.4,4.7,11.5,4.6,11.5,4.6z M12.7,3.9c0.1,0,0.2,0,0.2,0
			c0.1,0,0.2,0.1,0.1,0.2c0,0.1-0.1,0.2-0.2,0.2c-0.1,0-0.1,0-0.2,0c-0.2,0-0.3,0-0.5,0c-0.1,0-0.1,0-0.1,0.1c0,0.2,0.1,0.3,0.1,0.4
			c0.3,0.4,0.8,0.4,1.1,0.2c0.3-0.2,0.5-0.7,0.3-1c0-0.1-0.1-0.1-0.1-0.2c0-0.1,0-0.1-0.1-0.2c-0.1-0.2-0.3-0.3-0.6-0.2
			c-0.1,0-0.1,0-0.2,0C12.6,3,12.3,3,12.1,3.1c-0.2,0.1-0.3,0.2-0.3,0.4c0,0.2,0,0.3,0.2,0.4C12,4,12.2,4,12.3,3.9
			c0.1,0,0.1-0.1,0.1-0.2c0-0.1,0-0.1-0.1-0.2c-0.1,0-0.1,0-0.2,0c0,0,0,0,0,0c0,0,0.1,0.1,0.1,0.1c0,0,0,0.1-0.1,0.1
			c-0.1,0-0.1,0-0.2,0c-0.1-0.1-0.1-0.2,0-0.4c0.1-0.2,0.4-0.2,0.6-0.1c0.1,0.1,0.1,0.1,0.2,0.2c0.1,0,0.1,0,0.2,0
			c0.2,0,0.4,0.1,0.4,0.2c0,0.1,0.1,0.2,0.1,0.4c0.1,0.3-0.1,0.6-0.4,0.7c-0.2,0.1-0.5,0-0.6-0.2c0-0.1-0.1-0.1,0-0.2
			c0,0,0.1,0,0.1,0c0.2,0.1,0.5,0,0.6-0.1c0.1-0.1,0.1-0.3,0-0.4c-0.1-0.1-0.2-0.2-0.4-0.1C12.8,3.8,12.7,3.9,12.7,3.9z M11.4,2.6
			c0,0-0.1-0.1-0.1-0.1c-0.2-0.1-0.6-0.1-0.7,0.1c-0.1,0.1-0.2,0.4-0.1,0.5c0.1,0.2,0.3,0.2,0.5,0.2c0.1,0,0.2-0.1,0.2-0.2
			c0-0.1,0-0.1-0.1-0.2c0,0-0.1,0-0.2,0C11,3,11,3.1,10.9,3.2c-0.1,0-0.1,0-0.2,0c0,0-0.1-0.1-0.1-0.1c0-0.1,0.1-0.2,0.2-0.3
			c0.2-0.1,0.4,0,0.5,0.1c0,0.1,0.1,0.1,0.1,0.2c0,0,0,0,0,0c0-0.1,0-0.2,0-0.3c0,0,0.1,0.1,0.1,0.1c0.1,0.1,0.3,0.1,0.4,0
			c0,0,0.1-0.1,0.1-0.2c0,0-0.1-0.1-0.1-0.1c0,0-0.1,0-0.1,0c0,0,0,0.1,0,0.1c0,0,0,0.1,0,0.1c0,0-0.1,0-0.1,0
			c-0.1-0.1-0.1-0.2,0-0.3c0.1-0.1,0.3-0.1,0.5,0c0-0.1-0.2-0.2-0.4-0.2C11.5,2.2,11.4,2.4,11.4,2.6z M11.5,5.4
			C11.5,5.3,11.5,5.3,11.5,5.4C11.5,5.3,11.6,5.4,11.5,5.4c0.2-0.1,0.1-0.3,0.1-0.5C11.4,4.9,11.4,5.1,11.5,5.4z M11.7,4.9
			c0,0.2,0,0.3,0,0.5c0,0,0.1-0.1,0.1-0.1c0,0,0,0.1,0,0.1C11.9,5.2,11.9,4.9,11.7,4.9z M11.4,4.9c-0.1,0.1-0.2,0.3-0.1,0.3
			C11.3,5.1,11.4,5,11.4,4.9z M12,5.2c0.1-0.1,0.1-0.2-0.1-0.3C12,5,12,5.1,12,5.2z"/>
		<path d="M13.2,5.7c0-0.1,0-0.1,0-0.2c0.3,0,0.6,0,0.9,0c0,0,0,0.1,0,0.2c0.1,0,0.2,0,0.3,0C14.7,5.8,14.9,6,15,6.3
			c0.1,0.3,0,0.6-0.3,0.8c-0.1,0.1-0.3,0.2-0.5,0.2c-0.1,0-0.1,0-0.1,0.1c0,0.1,0,0.1-0.1,0.1c-0.2,0-0.4,0-0.6,0
			c-0.1,0-0.1,0-0.1-0.1c0-0.1,0-0.1-0.1-0.1c-0.4-0.1-0.6-0.2-0.7-0.6c-0.2-0.5,0.2-1,0.7-1C13.1,5.7,13.2,5.7,13.2,5.7z M13.6,6.6
			c0-0.2,0-0.3,0-0.5c0,0,0-0.1,0-0.1c0,0,0,0,0,0.1c0,0.1,0,0.3,0,0.4c0,0,0,0.1,0,0.1c0,0,0.1,0,0.1,0c0.1-0.1,0.1-0.1,0.1,0
			c0,0,0-0.1,0.1-0.1c0,0,0,0,0,0c0,0,0,0.1,0,0.1c0.1-0.2,0-0.5-0.1-0.6c0,0-0.1-0.1-0.2-0.1c-0.1,0-0.2,0-0.4,0
			c-0.1,0-0.2,0-0.2,0.1c-0.1,0.1-0.1,0.2-0.1,0.3c0,0.1,0,0.2,0,0.3c0,0,0,0,0,0c0,0,0-0.1,0-0.1c0,0.1,0.1,0.1,0.1,0.2
			c0,0,0-0.1,0-0.1C13.4,6.6,13.5,6.6,13.6,6.6z M13.2,5.9c-0.2,0-0.4,0.1-0.5,0.2c-0.1,0.2-0.2,0.4-0.1,0.6c0-0.3,0-0.4,0.3-0.3
			C13,6.2,13.1,6,13.2,5.9z M14.2,5.9c0.1,0.1,0.2,0.3,0.3,0.4c0,0,0.1,0,0.1,0c0.2,0,0.2,0,0.2,0.2c0,0,0,0,0,0.1
			C14.9,6.2,14.5,5.8,14.2,5.9z M14.3,6.3c0.1,0.4,0,0.7-0.4,0.9c0.2,0,0.4-0.1,0.5-0.3C14.5,6.7,14.4,6.5,14.3,6.3z M13.1,6.3
			c-0.1,0.2-0.1,0.4,0,0.6c0.1,0.2,0.2,0.3,0.4,0.3c-0.2-0.1-0.3-0.2-0.4-0.4C13,6.7,13.1,6.5,13.1,6.3z M14,7.4c-0.2,0-0.3,0-0.5,0
			C13.5,7.4,13.9,7.5,14,7.4z M13.5,5.7c0.1,0,0.2,0,0.3,0c0,0,0,0,0,0c0,0,0,0-0.1,0C13.7,5.7,13.6,5.6,13.5,5.7z"/>
		<path d="M2.5,7.5c-0.3,0-0.5,0-0.7,0c0,0-0.1,0-0.1-0.1c0,0,0-0.1,0-0.1c-0.1,0-0.1,0-0.2,0C1.1,7.2,0.8,6.9,0.8,6.6
			C0.7,6.2,1.1,5.7,1.6,5.7c0,0,0,0,0.1,0c0-0.1,0-0.1,0-0.2c0.3,0,0.6,0,0.9,0c0,0,0,0.1,0,0.2c0,0,0,0,0.1,0
			c0.4,0,0.6,0.2,0.7,0.5c0.1,0.3,0,0.6-0.2,0.9C3,7.2,2.8,7.3,2.6,7.3C2.5,7.3,2.5,7.4,2.5,7.5C2.5,7.5,2.5,7.5,2.5,7.5z M1.6,6.6
			c0,0,0-0.1,0-0.1c0,0,0,0,0,0c0,0.1,0,0.1,0.1,0.2c0,0,0-0.1,0-0.1c0,0,0.1,0,0.1,0.1c0,0,0.1,0,0.1,0c0,0,0-0.1,0-0.1
			c0-0.1,0-0.3,0-0.4c0,0,0,0,0-0.1c0,0,0,0,0,0.1c0,0.1,0,0.1,0,0.2c0,0.1,0,0.2,0,0.3c0.1,0,0.1,0,0.2,0c0.1-0.1,0.1,0,0.1,0
			c0,0,0.1-0.1,0.1-0.1c0,0.1,0,0.1,0,0.1c0,0,0,0,0,0c0-0.1,0-0.2,0-0.4c0-0.2-0.2-0.3-0.4-0.3c-0.1,0-0.2,0-0.3,0c0,0-0.1,0-0.1,0
			C1.6,6,1.5,6.3,1.6,6.6z M1.6,5.9C1.4,5.8,1.2,6,1.1,6.1C1,6.3,0.9,6.5,1,6.7c0,0,0-0.1,0-0.1c0,0,0-0.1,0-0.1
			c0-0.1,0.1-0.2,0.2-0.1c0,0,0.1,0,0.1,0C1.4,6.2,1.5,6,1.6,5.9z M2.9,6.3c0.2-0.1,0.3,0,0.3,0.2c0.1-0.4-0.3-0.8-0.6-0.7
			C2.7,6,2.8,6.2,2.9,6.3z M2.7,6.3c0.1,0.4,0,0.7-0.4,0.9c0.2,0,0.4-0.1,0.5-0.3C2.8,6.7,2.8,6.5,2.7,6.3z M1.9,7.2
			C1.5,7,1.4,6.7,1.5,6.3c-0.1,0.2-0.1,0.4,0,0.6C1.5,7.1,1.7,7.2,1.9,7.2z M2.3,7.4c-0.2,0-0.3,0-0.5,0C1.9,7.4,2.2,7.5,2.3,7.4z
			 M1.9,5.7c0.1,0,0.2,0,0.3,0c0,0,0,0,0,0c0,0,0,0-0.1,0C2,5.7,2,5.7,1.9,5.7z"/>
		<path d="M14.7,10.6c-0.2-0.1-0.4-0.1-0.6-0.2c-0.4-0.1-0.8,0-1.1,0.2c0,0,0,0,0,0c-0.2,0.1-0.4,0.1-0.6,0.1c-0.1,0-0.2,0-0.3-0.1
			c0,0,0,0-0.1-0.1c0,0,0.1-0.1,0.1-0.1c0.1,0,0.2,0,0.2,0c0.1,0,0.1,0,0.2,0c0.1,0,0.2,0,0.3-0.1c-0.1,0-0.3,0-0.4-0.1
			c-0.1,0-0.1,0-0.2,0c0,0-0.1-0.1-0.1-0.1c0,0,0-0.1,0.1-0.1c0.1,0,0.1,0,0.2,0c0.2,0,0.4,0.1,0.6,0.1c0,0,0.1,0,0.1,0
			c0.5-0.1,0.9-0.1,1.3,0.1C14.7,10.4,14.7,10.4,14.7,10.6z"/>
		<path d="M2.9,10.4c0.1,0.1,0.2,0.1,0.3,0.1c0.1,0,0.3,0,0.4-0.1c0,0,0.1,0,0.1,0c0,0,0,0,0,0.1c0,0,0,0.1,0,0.1
			c-0.3,0.1-0.5,0.2-0.8,0c-0.5-0.2-0.9-0.3-1.4-0.1c-0.1,0-0.2,0.1-0.3,0.1c0-0.2,0-0.2,0.1-0.3c0.4-0.2,0.9-0.2,1.3-0.1
			c0,0,0.1,0,0.1,0c0.2,0,0.5-0.1,0.7-0.1c0,0,0.1,0,0.1,0.1c0,0.1,0,0.1-0.1,0.1C3.3,10.4,3.1,10.4,2.9,10.4z"/>
		<path d="M13.9,9.1C13.8,9.1,13.8,9.1,13.9,9.1c-0.1,0-0.1,0.1-0.2,0.1c0,0-0.1-0.1-0.1-0.1c0,0,0,0-0.1,0c0,0,0,0,0,0
			c0-0.2,0-0.4,0-0.7c0,0,0,0,0-0.1c0,0,0,0,0,0c0-0.1,0-0.3,0-0.4c-0.1,0-0.1,0-0.2,0c0-0.1,0-0.2,0-0.3c0.2,0,0.4,0,0.5,0
			c0,0.1,0,0.2,0,0.3c-0.1,0-0.1,0-0.2,0c0,0.1,0,0.3,0,0.4c0,0.1,0,0.1,0.1,0.2C13.8,8.7,13.9,8.9,13.9,9.1z"/>
		<path d="M2,7.9c-0.1,0-0.2,0-0.2,0c0-0.1,0-0.2,0-0.3c0.2,0,0.4,0,0.6,0c0,0.1,0,0.2,0,0.3c-0.1,0-0.1,0-0.2,0c0,0.1,0,0.2,0,0.3
			c0,0,0,0.1,0,0.1c0,0,0,0,0,0.1c0,0.1,0,0.1,0.1,0.2c0,0.2,0,0.4,0,0.6c0,0-0.1,0-0.1,0c0,0-0.1,0.1-0.1,0.1c0,0-0.1-0.1-0.1-0.1
			c0,0,0,0-0.1,0c0,0,0,0,0,0c0-0.2,0-0.4,0-0.6c0,0,0-0.1,0-0.1c0,0,0,0,0,0C2,8.2,2,8,2,7.9z"/>
		<path d="M1.8,9.2c-0.2,0-0.4,0-0.7,0c0-0.3,0-0.5,0.2-0.7c0.1-0.1,0.2-0.1,0.3,0C1.7,8.6,1.8,9,1.8,9.2z"/>
		<path d="M14,9.2c0-0.3,0.1-0.5,0.2-0.7c0.1-0.2,0.2-0.2,0.3,0c0.1,0.2,0.2,0.5,0.2,0.7C14.4,9.2,14.2,9.2,14,9.2z"/>
		<path d="M13.7,9.8c-0.4,0-0.7,0-1,0c0,0-0.1,0-0.1,0c0,0-0.1,0-0.1-0.1c0,0,0-0.1,0.1-0.1c0,0,0,0,0.1,0c0.6,0,1.2,0,1.9,0
			c0,0,0.1,0,0.1,0c0,0,0.1,0.1,0.1,0.1c0,0,0,0.1-0.1,0.1c0,0-0.1,0-0.1,0C14.2,9.8,13.9,9.8,13.7,9.8z"/>
		<path d="M2.2,9.6c0.3,0,0.6,0,0.9,0c0,0,0,0,0.1,0c0,0,0.1,0,0.1,0.1c0,0,0,0.1-0.1,0.1c0,0-0.1,0-0.1,0c-0.6,0-1.2,0-1.8,0
			c0,0-0.1,0-0.1,0c0,0,0-0.1,0-0.1c0,0,0.1-0.1,0.1-0.1c0.2,0,0.4,0,0.6,0C1.9,9.7,2,9.7,2.2,9.6C2.2,9.7,2.2,9.7,2.2,9.6z"/>
		<path d="M2.1,9.5c-0.3,0-0.6,0-0.9,0c-0.1,0-0.1,0-0.1-0.1c0-0.1,0.1-0.1,0.1-0.1c0.6,0,1.2,0,1.8,0c0,0,0.1,0,0.1,0
			c0,0.1,0,0.1-0.1,0.1C2.7,9.5,2.4,9.5,2.1,9.5C2.1,9.5,2.1,9.5,2.1,9.5z"/>
		<path d="M13.7,9.5c-0.3,0-0.6,0-0.8,0c0,0-0.1,0-0.1,0c0,0-0.1,0-0.1-0.1c0,0,0-0.1,0-0.1c0,0,0.1,0,0.1,0c0.6,0,1.1,0,1.7,0
			c0,0,0,0,0,0c0.1,0,0.1,0,0.1,0.1c0,0.1,0,0.1-0.1,0.1c-0.1,0-0.2,0-0.3,0C14.1,9.5,13.9,9.5,13.7,9.5C13.7,9.5,13.7,9.5,13.7,9.5
			z"/>
		<path d="M13.2,10.1c-0.2,0-0.4,0-0.7-0.1c0,0-0.1,0-0.1-0.1c0-0.1,0.1-0.1,0.1-0.1c0.3,0,0.5,0,0.8,0.1c0,0,0.1,0,0.1,0
			c0,0,0,0.1-0.1,0.1C13.3,10.1,13.3,10.1,13.2,10.1C13.2,10.1,13.2,10.1,13.2,10.1z"/>
		<path d="M2.5,10.1c0,0-0.1,0-0.1,0c0,0-0.1-0.1-0.1-0.1c0,0,0.1-0.1,0.1-0.1c0.3,0,0.5,0,0.8-0.1c0,0,0,0,0.1,0c0,0,0.1,0,0.1,0.1
			c0,0,0,0.1-0.1,0.1c-0.1,0-0.2,0-0.3,0C2.9,10.1,2.7,10.1,2.5,10.1C2.5,10.1,2.5,10.1,2.5,10.1z"/>
		<path d="M12.8,9.2c0-0.2,0.1-0.3,0.2-0.3c0.1,0,0.2,0.1,0.3,0.3C13.1,9.2,12.9,9.2,12.8,9.2z"/>
		<path d="M2.6,9.2c0-0.2,0.1-0.3,0.3-0.3C2.9,8.9,3,9,3,9.2C2.9,9.2,2.7,9.2,2.6,9.2z"/>
		<path d="M1.8,5.5c0-0.1,0.1-0.1,0.2-0.1c0-0.1,0-0.2,0-0.3c0.1,0,0.1,0,0.2,0c0,0.1,0,0.1,0,0.2c0,0.1,0,0.1,0.1,0.1
			c0,0,0.1,0,0.1,0c0,0,0,0,0,0C2.2,5.5,2,5.5,1.8,5.5z"/>
		<path d="M13.6,5.1c0,0,0.1,0,0.1,0c0.1,0,0.1,0,0.1,0.1c0,0,0,0.1,0,0.1c0,0,0,0.1,0,0.1c0.1,0,0.1,0,0.2,0c0,0,0,0,0,0
			c0,0,0,0,0,0c-0.2,0-0.3,0-0.5,0c0-0.1,0-0.1,0.2-0.1C13.6,5.3,13.6,5.2,13.6,5.1z"/>
		<path d="M4.9,6.3C4.9,6.3,5,6.3,5,6.4c0,0.1-0.1,0.1-0.1,0.1c-0.1,0-0.1-0.1-0.1-0.1C4.7,6.3,4.8,6.3,4.9,6.3z"/>
		<path d="M11.1,5.8C11.1,5.9,11.1,6,11,6c-0.1,0-0.1,0-0.1-0.1c0-0.1,0-0.1,0.1-0.1C11.1,5.7,11.1,5.8,11.1,5.8z"/>
		<path d="M9.4,3.2c0,0.1,0,0.1-0.1,0.1c-0.1,0-0.1,0-0.1-0.1c0-0.1,0-0.1,0.1-0.1C9.4,3.1,9.4,3.2,9.4,3.2z"/>
		<path d="M10.2,2.2c-0.1,0-0.1,0-0.1-0.1c0-0.1,0.1-0.1,0.1-0.1c0.1,0,0.1,0,0.1,0.1C10.4,2.1,10.3,2.2,10.2,2.2z"/>
		<path d="M6.4,2.5c0,0-0.1-0.1-0.1-0.1c0-0.1,0-0.1,0.1-0.1c0.1,0,0.1,0,0.1,0.1C6.5,2.4,6.5,2.5,6.4,2.5z"/>
		<path d="M5.2,4.4c0,0,0.1,0.1,0.1,0.1c0,0,0,0.1-0.1,0.1c0,0-0.1,0-0.1-0.1C5.1,4.5,5.1,4.4,5.2,4.4C5.1,4.4,5.2,4.4,5.2,4.4z"/>
		<path d="M10.5,4.6c0.1,0,0.1-0.1,0.1-0.1c0,0,0.1,0,0.1,0.1c0,0-0.1,0.1-0.1,0.1C10.6,4.7,10.5,4.6,10.5,4.6z"/>
		<path d="M8.7,3.3c0-0.1-0.1-0.1-0.1-0.1c0,0,0-0.1,0.1-0.1c0,0,0.1,0,0.1,0.1C8.8,3.2,8.8,3.3,8.7,3.3z"/>
		<path class="st0" d="M8,7.9c0.1,0,0.2,0,0.4,0c0,0,0,0,0.1,0.1c0.1,0,0.1,0,0.2,0c0,0,0,0.1,0,0.1c0,0.3,0,0.6,0,0.9
			c0,0.2-0.1,0.4,0,0.6c0,0,0,0,0,0c0,0,0,0,0-0.1c0,0,0-0.1,0-0.1c0-0.1,0-0.1-0.1-0.1c0,0.1,0,0.2,0,0.2c-0.1,0-0.1,0-0.2,0
			c0-0.1,0-0.1,0-0.2c0,0-0.1,0-0.1,0c0,0.1,0,0.2,0,0.3c0,0,0,0,0,0C8,9.1,8,8.5,8,7.9z M8.4,8.5c0,0.1,0,0.1,0,0.2c0,0,0,0,0.1,0
			c0,0,0,0,0.1,0c0-0.1,0-0.1,0-0.2C8.5,8.5,8.5,8.5,8.4,8.5z M8.6,8.1c-0.1,0-0.2,0-0.1,0.2c0,0,0.1,0,0.1,0
			C8.6,8.2,8.6,8.1,8.6,8.1z M8.6,8.3c0,0-0.1,0-0.1,0c0,0,0,0.1,0,0.1c0,0,0.1,0,0.1,0C8.6,8.4,8.6,8.4,8.6,8.3z M8.6,8.8
			c0,0-0.1,0-0.1,0c0,0.1,0,0.1,0,0.2c0,0,0.1,0,0.1,0C8.6,8.9,8.6,8.8,8.6,8.8z"/>
		<path class="st0" d="M7.4,9.4c0,0-0.1,0-0.1,0c0,0.1,0,0.2,0,0.2c0,0,0,0,0,0c0,0,0,0,0-0.1c0-0.3,0-0.6-0.1-0.8
			c0-0.2,0-0.5,0-0.7c0,0,0-0.1,0-0.1c0,0,0,0.1,0.1,0.1c0,0,0,0,0-0.1c0,0,0.1,0,0.1,0.1c0,0,0-0.1,0-0.1c0.1,0,0.3,0,0.4,0
			c0,0,0,0.1,0,0.1c0,0.5,0,1,0,1.5c0,0,0,0,0,0.1c0,0,0,0,0,0c0,0,0,0,0,0c0-0.1,0-0.1,0-0.2c-0.2,0-0.1,0.2-0.1,0.2
			c-0.1,0-0.1,0-0.2,0C7.4,9.6,7.4,9.5,7.4,9.4z M7.4,8.1c0,0-0.1,0-0.1,0c0,0.1,0,0.1,0,0.2c0,0,0.1,0,0.1,0
			C7.4,8.2,7.4,8.1,7.4,8.1z M7.4,8.5c0,0-0.1,0-0.1,0c0,0.1,0,0.1,0,0.2c0,0,0.1,0,0.1,0C7.4,8.6,7.4,8.6,7.4,8.5z M7.4,9
			c0-0.1,0-0.1,0-0.2c0,0-0.1,0-0.1,0C7.2,9,7.2,9,7.4,9z M7.4,8.3c0,0-0.1,0-0.1,0c0,0.1,0,0.1,0,0.1c0,0,0.1,0,0.1,0
			C7.4,8.4,7.4,8.4,7.4,8.3z"/>
		<path class="st0" d="M8.5,6.1c-0.4,0-0.8,0-1.2,0c0,0,0,0.1,0,0.1c0,0.2,0,0.3,0,0.5c0,0,0,0,0,0.1c0,0,0,0,0-0.1
			c0-0.2,0-0.3,0-0.5c0,0,0-0.1,0-0.1c-0.4,0-0.8,0-1.3,0c0,0.2,0,0.4,0,0.7c-0.1,0-0.1,0-0.1-0.1c0-0.2,0-0.5,0-0.7
			C7.2,6,8.6,6,10,6c0,0.3,0,0.5,0,0.8c-0.1,0-0.1,0-0.1-0.1c0-0.2,0-0.3,0-0.5c0,0,0-0.1,0-0.1C9.5,6.1,9,6.1,8.5,6.1
			c0.1,0.2,0.1,0.3,0.1,0.5c0,0,0,0.1,0,0.1c0,0,0,0,0,0c0,0,0,0,0,0c0-0.1,0-0.1,0-0.2C8.5,6.4,8.5,6.2,8.5,6.1z"/>
		<path class="st0" d="M6.7,10.2c0.1-0.1,0.2-0.2,0.2-0.3c-0.2,0-0.4-0.1-0.6-0.1c0,0.2,0.1,0.3,0.2,0.4c-0.2,0-0.3-0.2-0.3-0.5
			c1.2,0.2,2.3,0.2,3.5,0c0,0.3-0.1,0.5-0.3,0.5c0.1-0.1,0.1-0.1,0.1-0.2c0-0.1,0-0.1,0.1-0.2c-0.2,0-0.4,0-0.6,0.1c0,0,0,0.1,0,0.1
			C9,10,9,10.1,9,10.1c0,0,0,0.1,0.1,0.1c-0.1,0-0.2-0.1-0.3-0.3c-0.1,0-0.1,0-0.2,0c0,0.2-0.1,0.3-0.2,0.3c0.1-0.1,0.2-0.2,0.1-0.3
			c-0.2,0-0.4,0-0.5,0c0,0.1,0.1,0.2,0.2,0.3C8.1,10.2,8,10.1,8,10c-0.1,0-0.1,0-0.2,0c0,0.2-0.1,0.3-0.3,0.3
			c0.1-0.1,0.2-0.2,0.2-0.3c-0.2,0-0.4,0-0.5,0c0,0.1,0.1,0.2,0.2,0.3c-0.1,0-0.2-0.1-0.2-0.3c0,0-0.1,0-0.2,0c0,0,0,0,0,0
			c0,0.1-0.1,0.2-0.2,0.2C6.8,10.2,6.7,10.2,6.7,10.2C6.7,10.2,6.7,10.2,6.7,10.2z"/>
		<path class="st0" d="M11,11.6C11,11.6,11,11.6,11,11.6c-0.2,0.1-0.3,0-0.5-0.1c-0.6-0.3-1.1-0.3-1.7-0.1c-0.2,0.1-0.3,0.1-0.4,0.2
			c-0.1,0-0.1,0.1-0.2,0c0,0-0.1,0-0.1,0c0.4-0.3,0.8-0.4,1.2-0.5C9.9,11,10.5,11.2,11,11.6z"/>
		<path class="st0" d="M4.8,11.6c0.9-0.7,2.2-0.6,2.9,0c-0.1,0.1-0.2,0.1-0.3,0c-0.5-0.4-1.1-0.4-1.7-0.2c-0.2,0-0.3,0.1-0.5,0.2
			C5.1,11.6,4.9,11.6,4.8,11.6z"/>
		<path class="st0" d="M3.9,11.8c-0.1,0-0.2,0-0.3,0c-0.6-0.3-1.2-0.3-1.8-0.1c-0.2,0.1-0.3,0.2-0.5,0.2c0-0.1,0-0.1,0-0.2
			c0.7-0.4,1.4-0.5,2.2-0.1C3.7,11.7,3.8,11.8,3.9,11.8z"/>
		<path class="st0" d="M12,11.8c0.2-0.2,0.4-0.3,0.6-0.3c0.7-0.2,1.3-0.1,1.8,0.3c0.1,0,0.1,0.1,0.1,0.2c-0.1,0-0.1-0.1-0.2-0.1
			c-0.5-0.3-1.1-0.4-1.6-0.2c-0.1,0-0.2,0.1-0.4,0.1C12.2,11.9,12.1,11.9,12,11.8z"/>
		<path class="st0" d="M10.2,6.9c-1.5,0-3.1,0-4.6,0c0,0,0,0,0,0c0,0,0.1,0,0.1,0c0.3,0,0.5,0,0.8,0c1.1,0,2.2,0,3.4,0
			C10,6.9,10.1,6.9,10.2,6.9C10.2,6.9,10.2,6.9,10.2,6.9C10.2,6.9,10.2,6.9,10.2,6.9z"/>
		<path class="st0" d="M5.7,7.9c0.1,0,0.2,0,0.3,0C6,8,6,8.1,6,8.3c0,0.1,0,0.1,0,0.2c0,0.1,0,0.1-0.1,0.1c-0.1,0-0.2,0-0.3,0
			c-0.1,0-0.1,0-0.1-0.1C5.5,8.3,5.6,8.1,5.7,7.9z"/>
		<path class="st0" d="M10.4,8.6c-0.2,0-0.4,0-0.6,0c0-0.2,0-0.4,0-0.7c0.1,0,0.2,0,0.3,0c0,0,0,0,0.1,0c0.1,0.2,0.2,0.3,0.2,0.5
			C10.4,8.5,10.4,8.5,10.4,8.6z"/>
		<path class="st0" d="M7.3,11.8c-0.1,0-0.2,0.1-0.3,0c-0.4-0.2-0.8-0.2-1.1,0c-0.1,0.1-0.2,0.1-0.3,0c0,0-0.1,0-0.1,0
			C5.9,11.3,6.9,11.3,7.3,11.8z"/>
		<path class="st0" d="M9.7,8.6c-0.2,0-0.3,0-0.4,0c0-0.2,0-0.4,0-0.7c0.1,0,0.3,0,0.4,0C9.7,8.1,9.7,8.4,9.7,8.6z"/>
		<path class="st0" d="M8.5,11.8c0.4-0.3,1.2-0.5,1.8,0c-0.1,0-0.2,0.1-0.3,0c-0.4-0.2-0.8-0.2-1.2,0C8.7,11.9,8.6,11.8,8.5,11.8z"
			/>
		<path class="st0" d="M6.1,8.6c0-0.2,0-0.4,0-0.7c0.1,0,0.3,0,0.4,0c0,0.2,0,0.4,0,0.7C6.4,8.6,6.3,8.6,6.1,8.6z"/>
		<path class="st0" d="M5.5,8.7c0.2,0,0.4,0,0.6,0C6,8.8,6,8.9,6,9c0,0,0,0-0.1,0c-0.1,0-0.1,0-0.2,0c0,0.1,0,0.1,0,0.2
			c-0.1,0-0.2,0-0.3-0.1c0,0,0,0,0-0.1C5.5,9,5.5,8.8,5.5,8.7z"/>
		<path class="st0" d="M3.5,7.9C3.5,7.9,3.5,8,3.5,7.9c-0.1,0-0.3-0.1-0.4-0.2c0,0,0,0,0,0c0.1,0.1,0.2,0.1,0.1,0.3
			c0,0.1-0.1,0.1-0.2,0.1C2.9,8.1,2.9,8.1,2.9,8c0,0,0,0,0.1,0c0,0,0,0,0.1,0c0.1,0,0.2,0,0.2,0c0,0,0-0.1,0-0.1
			c0-0.1-0.1-0.1-0.2,0C3,7.9,3,7.9,3.1,8C3,8,2.9,7.9,2.9,7.9c0,0,0-0.1,0.1-0.1c0.1,0,0.2,0,0.2,0C3.6,7.8,3.8,8,4.1,8.2
			c0.1,0.1,0.3,0.3,0.4,0.5c0,0,0,0,0,0C4.1,8.4,3.9,8.2,3.5,7.9C3.6,7.9,3.5,7.9,3.5,7.9z"/>
		<path class="st0" d="M9.8,9c0-0.1,0-0.2,0-0.3c0.2,0,0.4,0,0.6,0c0,0.1,0,0.3,0,0.4c0,0,0,0,0,0c-0.1,0-0.2,0-0.3,0.1
			c0-0.1,0-0.1,0-0.1C10,9.1,9.9,9.1,9.8,9z"/>
		<path class="st0" d="M6.1,8.7c0.1,0,0.3,0,0.4,0c0,0.3,0,0.6,0,0.9c-0.1,0-0.1,0-0.1-0.1c0-0.1,0-0.3,0-0.4c0-0.1,0-0.1-0.1-0.1
			c-0.1,0-0.2,0-0.3,0C6.1,8.9,6.1,8.8,6.1,8.7z"/>
		<path class="st0" d="M9.7,8.7c0,0.1,0,0.2,0,0.4c-0.1,0-0.2,0-0.4,0c0,0.2,0,0.3,0,0.5c0,0.1,0,0.1-0.1,0.1c0-0.3,0-0.6,0-0.9
			C9.4,8.7,9.5,8.7,9.7,8.7z"/>
		<path class="st0" d="M12.7,8c0,0,0-0.1,0.1-0.1c0,0-0.1,0-0.1-0.1c0,0,0,0,0,0c-0.1,0-0.2,0-0.2,0.1c-0.1,0-0.1,0.1-0.2,0.1
			c0,0,0,0-0.1,0c-0.2,0.1-0.3,0.2-0.4,0.3c-0.1,0.1-0.3,0.3-0.4,0.4c0,0,0,0,0,0c0.2-0.4,0.5-0.7,0.9-0.9c0.1,0,0.2-0.1,0.3-0.1
			c0.1,0,0.1,0,0.2,0c0,0,0.1,0.1,0.1,0.1C12.8,7.9,12.8,8,12.7,8z"/>
		<path class="st0" d="M11.8,9.1c-0.2,0.2-0.3,0.3-0.5,0.5c0.1-0.1,0.3-0.1,0.4-0.2c-0.4,0.4-0.9,0.5-1.5,0.6
			C10.8,9.8,11.4,9.5,11.8,9.1C11.8,9.1,11.8,9.1,11.8,9.1z"/>
		<path class="st0" d="M5.6,9.9C5.3,9.9,4.4,9.7,4,9.3c0.2,0.1,0.3,0.2,0.5,0.3c0,0,0,0,0,0C4.3,9.4,4.1,9.2,4,9.1c0,0,0,0,0,0
			C4.5,9.5,5,9.8,5.6,9.9z"/>
		<path class="st0" d="M8.8,8.6c0-0.2,0-0.4,0.1-0.5C8.9,8,9,8,9.1,8C9,8,9,8,9,7.9c0.1,0,0.1,0,0.1,0c0,0.1,0,0.2,0,0.3
			c0,0.1,0,0.2,0,0.3c0,0.1,0,0.1-0.1,0.1C9,8.6,8.9,8.6,8.8,8.6z"/>
		<path class="st0" d="M7,8.6c-0.1,0-0.2,0-0.3,0c0-0.2,0-0.4,0-0.6c0,0,0.1,0,0.1,0c0,0-0.1,0-0.1,0C6.8,8,6.9,8,6.9,8.1
			c0,0,0,0.1,0,0.1C7,8.2,7,8.3,7,8.4C7,8.5,7,8.5,7,8.6z"/>
		<path class="st0" d="M9.1,9.7c0-0.1,0-0.3,0-0.4c0,0,0-0.1-0.1-0.1c0,0,0-0.1,0-0.1c-0.1,0-0.1,0-0.2,0.1c0-0.1,0-0.3,0-0.4
			c0.1,0,0.2,0,0.3,0C9.1,8.8,9.1,9.6,9.1,9.7z"/>
		<path class="st0" d="M7,8.7C7,8.8,7,9,7,9.1c-0.1,0-0.1,0-0.2-0.1c0,0,0,0.1,0,0.1c0,0,0,0,0,0c0,0,0,0.1,0,0.1c0,0.1,0,0.2,0,0.4
			c0,0,0,0,0-0.1c0-0.3,0-0.6,0-0.9C6.8,8.7,6.9,8.7,7,8.7z"/>
		<path class="st0" d="M3.5,11c0.4-0.2,0.9-0.2,1.3-0.1c-0.3,0-0.7,0.1-1,0.2c0,0-0.1,0-0.1,0C3.7,11.1,3.6,11,3.5,11z"/>
		<path class="st0" d="M11,10.9c0.5-0.2,0.9-0.1,1.3,0.1c-0.1,0.1-0.3,0.1-0.4,0.1C11.6,11,11.3,10.9,11,10.9z"/>
		<path class="st0" d="M11.3,9c-0.1,0.1-0.3,0.2-0.4,0.2c-0.3,0.1-0.5,0.2-0.8,0.2c-0.1,0-0.1,0-0.1,0.1c0,0.2-0.1,0.3-0.2,0.5
			c0,0,0,0,0,0c0-0.1,0-0.1,0-0.2c0-0.1,0.1-0.3,0.1-0.4c0,0,0-0.1,0.1-0.1C10.4,9.3,10.8,9.2,11.3,9C11.2,9,11.3,9,11.3,9
			C11.3,9,11.3,9,11.3,9z"/>
		<path class="st0" d="M6,10c0-0.1-0.1-0.3-0.1-0.4c0-0.1,0-0.1-0.1-0.1C5.4,9.4,5,9.3,4.6,9.1c0,0-0.1-0.1-0.1-0.1
			C4.7,9.1,5,9.2,5.2,9.2c0.2,0.1,0.5,0.1,0.7,0.2c0,0,0.1,0,0.1,0.1C6,9.6,6,9.7,6,9.9C6.1,9.9,6.1,10,6,10C6,10,6,10,6,10z"/>
		<path class="st0" d="M10.2,9.7c0.6-0.2,1.2-0.4,1.7-0.9C11.7,9.2,10.7,9.7,10.2,9.7z"/>
		<path class="st0" d="M4,8.8C4.4,9.3,5,9.5,5.6,9.7C4.9,9.6,4.4,9.4,4,8.8z"/>
		<path class="st0" d="M7.2,4.5c0.2-0.4,0.3-0.7,0.5-1.1c0,0.2-0.1,0.3-0.1,0.5c0,0.1-0.1,0.3-0.1,0.4C7.4,4.5,7.3,4.6,7.2,4.5z"/>
		<path class="st0" d="M8.6,4.6c-0.1,0-0.2,0-0.2-0.2C8.3,4.2,8.2,3.6,8.1,3.5C8.3,3.8,8.5,4.2,8.6,4.6z"/>
		<path class="st0" d="M7.6,4.5c0.1-0.3,0.2-0.7,0.2-1c0,0.2,0,0.4,0,0.6c0,0.1,0,0.2,0,0.3c0,0.1,0,0.1-0.1,0.1
			C7.7,4.5,7.6,4.5,7.6,4.5z"/>
		<path class="st0" d="M7,7.1c0,0.2-0.1,0.1-0.2,0.1c0.1,0,0.1,0,0.2,0C6.8,7.5,6.7,7.6,6.4,7.6c0.1-0.1,0.2-0.2,0.2-0.3
			c0,0,0,0,0,0C6.7,7,6.9,7.1,7,7.1z"/>
		<path class="st0" d="M8.3,3.1c-0.1,0-0.2,0-0.3,0c-0.1,0-0.2,0-0.4,0c0,0-0.1,0-0.1,0c0,0,0-0.1,0-0.1C7.6,3,7.7,3,7.7,3
			c0.1,0,0.3,0,0.4,0C8.2,3,8.2,3,8.3,3.1z"/>
		<path class="st0" d="M11.6,9.6c-0.4,0.4-1,0.6-1.6,0.6C10.6,10.1,11.2,9.9,11.6,9.6z"/>
		<path class="st0" d="M9.4,7.6c-0.2,0-0.3,0-0.5-0.3c0,0,0.1,0,0.1,0c-0.1,0-0.2,0-0.2-0.2c0.1,0,0.1,0,0.2,0c0,0,0,0,0.1,0
			c0,0.1,0.1,0.2,0.1,0.2C9.3,7.4,9.3,7.5,9.4,7.6z"/>
		<path class="st0" d="M8,3.5c0.1,0.3,0.2,0.7,0.2,1c0,0,0,0,0,0C8,4.5,8,4.5,8,4.3C8,4.1,8,3.8,8,3.5C8,3.6,8,3.6,8,3.5
			C8,3.5,8,3.5,8,3.5z"/>
		<path class="st0" d="M4.2,9.7C4.4,9.8,4.7,9.9,4.9,10c0.3,0.1,0.5,0.2,0.8,0.3C5.2,10.2,4.6,10.1,4.2,9.7z"/>
		<path class="st0" d="M9.9,7.5C9.7,7.6,9.5,7.4,9.4,7.3c0.1,0,0.1,0,0.1,0c0,0,0,0,0,0c0,0-0.1,0-0.1,0c0,0-0.1-0.1-0.1-0.1
			c0,0,0,0,0,0c0.1,0,0.1,0,0.2,0c0,0,0,0,0.1,0C9.7,7.3,9.8,7.4,9.9,7.5z"/>
		<path class="st0" d="M6.1,7.1C6,7.2,5.9,7.2,5.8,7.2c0,0,0.1,0,0.1,0C5.8,7.4,5.6,7.5,5.3,7.5c0.2-0.1,0.3-0.2,0.5-0.3
			C5.9,7.1,6,7.1,6.1,7.1z"/>
		<path class="st0" d="M11.8,11.3c-0.1,0.1-0.1,0.1-0.2,0.1c-0.1,0-0.2,0-0.4,0c-0.1,0-0.2,0-0.3-0.1C11,11.2,11.5,11.2,11.8,11.3z"
			/>
		<path class="st0" d="M10.5,7.5c-0.3,0.1-0.4,0-0.6-0.2c0,0,0.1,0,0.1,0c-0.1,0-0.1,0-0.2,0c0,0-0.1-0.1-0.1-0.1
			c0.1-0.1,0.2,0,0.3,0.1C10.2,7.3,10.3,7.4,10.5,7.5z"/>
		<path class="st0" d="M4.9,11.3c-0.1,0.1-0.2,0.1-0.3,0.1c-0.1,0-0.2,0-0.3,0c-0.1,0-0.2,0-0.3-0.1C4.3,11.2,4.7,11.2,4.9,11.3z"/>
		<path class="st0" d="M7.8,7.3C7.8,7.3,7.8,7.3,7.8,7.3c0,0.4,0,0.3-0.3,0.3c0-0.1,0.1-0.2,0.1-0.3C7.7,7.3,7.7,7.3,7.8,7.3z"/>
		<path class="st0" d="M8,7.3c0.1,0,0.2,0,0.2,0c0,0.1,0.1,0.2,0.1,0.3C8.1,7.6,8.1,7.6,8,7.3z"/>
		<path class="st0" d="M7,7.6c0-0.1,0.1-0.2,0.1-0.3c0-0.1,0-0.1,0.1-0.1c0,0,0.1,0,0.1,0C7.3,7.5,7.2,7.6,7,7.6z"/>
		<path class="st0" d="M8.5,7.3c0.1,0,0.1,0,0.2,0c0,0,0,0,0.1,0c0.1,0.1,0.1,0.2,0.1,0.3C8.7,7.6,8.6,7.5,8.5,7.3z"/>
		<path class="st0" d="M11,7.3c-0.3,0.1-0.6,0-0.8-0.2c0.1,0,0.2,0,0.3,0C10.6,7.2,10.8,7.3,11,7.3C10.9,7.3,11,7.3,11,7.3z"/>
		<path class="st0" d="M6.4,7.3C6.3,7.5,6.1,7.6,5.9,7.5c0,0,0.1-0.1,0.1-0.1c0,0,0.1,0,0.1-0.1C6.2,7.2,6.3,7.2,6.4,7.3z"/>
		<path class="st0" d="M5.6,7.1C5.4,7.3,5.1,7.4,4.8,7.3c0,0,0.1,0,0.1,0c0.1,0,0.3-0.1,0.4-0.2C5.4,7.1,5.5,7.1,5.6,7.1z"/>
		<path class="st0" d="M6.6,6.3c0.1,0,0.3,0,0.4,0c0,0,0,0,0.1,0c0,0,0,0-0.1,0c-0.3,0-0.6,0-0.9,0c0,0,0,0,0,0c0,0,0,0,0.1,0
			C6.3,6.3,6.4,6.3,6.6,6.3z"/>
		<path class="st0" d="M8.4,6.3C8.4,6.3,8.4,6.4,8.4,6.3c-0.3,0-0.6,0-0.9,0c0,0,0,0,0,0c0,0,0,0,0,0C7.8,6.3,8.1,6.3,8.4,6.3
			C8.4,6.3,8.4,6.3,8.4,6.3z"/>
		<path class="st0" d="M9.3,6.3c0.1,0,0.3,0,0.4,0c0,0,0,0,0.1,0c0,0,0,0-0.1,0c-0.3,0-0.6,0-0.8,0c0,0,0,0-0.1,0c0,0,0,0,0.1,0
			C9,6.3,9.1,6.3,9.3,6.3C9.3,6.3,9.3,6.3,9.3,6.3z"/>
		<path class="st0" d="M10.6,7.9c0,0.1,0,0.2,0,0.3c0,0.2,0,0.4,0,0.7c0,0,0,0.1-0.1,0.1C10.6,8.5,10.6,8.2,10.6,7.9
			C10.6,7.9,10.6,7.9,10.6,7.9z"/>
		<path class="st0" d="M5.2,8.9c0,0,0-0.1,0-0.1C5.2,8.8,5.2,8.9,5.2,8.9c-0.1,0-0.1-0.7,0-1.1C5.2,8.2,5.2,8.6,5.2,8.9
			C5.2,8.9,5.2,8.9,5.2,8.9z"/>
		<path class="st0" d="M9.3,5.2c0.1,0,0.2,0,0.2,0.1c0.1,0.1,0.2,0.2,0.3,0.3c-0.1,0-0.2,0-0.3-0.1C9.5,5.4,9.4,5.3,9.3,5.2z"/>
		<path class="st0" d="M7.2,4C7.1,4.4,6.9,4.6,6.7,4.6C6.9,4.4,7,4.2,7.2,4z"/>
		<path class="st0" d="M7.5,5.2c0,0.3-0.1,0.4-0.3,0.3c0-0.1,0-0.1,0.1-0.2c0-0.1,0-0.1,0-0.2C7.3,5.2,7.4,5.2,7.5,5.2z"/>
		<path class="st0" d="M8.3,10.8c-0.3,0-0.5,0-0.8,0c0-0.1,0-0.1,0.1-0.1C7.8,10.7,8,10.7,8.3,10.8C8.3,10.7,8.3,10.7,8.3,10.8
			C8.3,10.8,8.3,10.8,8.3,10.8z"/>
		<path class="st0" d="M5.9,5.6C6,5.5,6.1,5.5,6.2,5.4c0.1,0,0.1-0.1,0.1-0.1c0,0,0.1,0,0.1-0.1C6.3,5.4,6.2,5.6,5.9,5.6z"/>
		<path class="st0" d="M8.2,11.3c-0.2,0.1-0.5,0.1-0.7,0C7.8,11.3,8,11.3,8.2,11.3z"/>
		<path class="st0" d="M8.6,4c0.2,0.2,0.4,0.4,0.5,0.6C9,4.6,9,4.6,8.9,4.5C8.8,4.4,8.7,4.2,8.6,4z"/>
		<path class="st0" d="M11.3,10c-0.3,0.3-0.6,0.4-1,0.4C10.7,10.3,11,10.2,11.3,10z"/>
		<path class="st0" d="M8.4,5.3C8.4,5.3,8.5,5.3,8.4,5.3C8.5,5.3,8.5,5.3,8.4,5.3C8.4,5.3,8.4,5.3,8.4,5.3C8.4,5.3,8.4,5.2,8.4,5.3
			c0-0.1,0.1-0.1,0.2-0.1c0,0.1,0.1,0.2,0.1,0.3C8.5,5.6,8.4,5.5,8.4,5.3z"/>
		<path class="st0" d="M5.5,10.5c-0.4-0.1-0.7-0.2-1-0.4C4.8,10.2,5.2,10.3,5.5,10.5z"/>
		<path class="st0" d="M9.5,5.6c-0.2,0-0.3-0.2-0.4-0.4c0.1,0,0.2,0,0.2,0.1C9.3,5.5,9.4,5.5,9.5,5.6z"/>
		<path class="st0" d="M9.8,6.6c-0.1,0-0.9,0.1-1,0c0,0,0,0,0.1,0C9.1,6.6,9.4,6.6,9.8,6.6C9.7,6.6,9.8,6.6,9.8,6.6z"/>
		<path class="st0" d="M6.6,6.6c0.1,0,0.3,0,0.4,0c0,0,0,0,0.1,0c0,0,0,0-0.1,0c-0.3,0-0.6,0-0.9,0c0,0,0,0-0.1,0c0,0,0,0,0.1,0
			C6.3,6.6,6.4,6.6,6.6,6.6C6.6,6.6,6.6,6.6,6.6,6.6z"/>
		<path class="st0" d="M6.4,5.6c0.1-0.1,0.2-0.3,0.3-0.4c0,0,0.1,0,0.1,0C6.7,5.4,6.6,5.6,6.4,5.6z"/>
		<path class="st0" d="M8.4,6.7C8.4,6.7,8.4,6.7,8.4,6.7c-0.4,0-0.7,0-1,0c0,0,0,0-0.1,0c0,0,0,0,0.1,0C7.8,6.6,8.1,6.6,8.4,6.7
			C8.4,6.6,8.4,6.6,8.4,6.7z"/>
		<path class="st0" d="M7,5.3c0,0-0.1,0-0.1,0c0,0,0,0,0,0C7,5.2,7,5.2,7,5.3c0,0.2-0.1,0.3-0.2,0.3c0-0.1,0.1-0.2,0.1-0.2
			C6.9,5.3,7,5.3,7,5.3z"/>
		<path class="st0" d="M7.7,5.2c0.1,0,0.1,0,0.2,0c0,0.1,0,0.1,0,0.2c0,0.2,0,0.2-0.2,0.1C7.6,5.5,7.6,5.3,7.7,5.2z"/>
		<path class="st0" d="M6.8,4.3C6.7,4.5,6.4,4.7,6.1,4.5C6.4,4.5,6.6,4.4,6.8,4.3z"/>
		<path class="st0" d="M8.9,5.2C8.9,5.4,9,5.5,9.1,5.6c-0.2,0-0.3-0.2-0.3-0.4C8.8,5.2,8.8,5.2,8.9,5.2z"/>
		<path class="st0" d="M8.2,5.6C8.1,5.6,8,5.5,8,5.2c0.1,0,0.1,0,0.2,0c0,0,0,0,0,0c0,0-0.1,0-0.1,0C8.3,5.3,8.2,5.5,8.2,5.6z"/>
		<path class="st0" d="M9,4.3c0.2,0.2,0.4,0.3,0.7,0.3C9.5,4.7,9.2,4.6,9,4.3z"/>
		<path class="st0" d="M7.5,10.2c0,0.1,0.1,0.2,0.2,0.3c0,0-0.1,0-0.1,0.1c-0.1-0.1-0.1-0.1-0.2,0c0,0-0.1,0-0.1-0.1
			c0,0,0,0,0.1-0.1C7.4,10.3,7.4,10.2,7.5,10.2z"/>
		<path class="st0" d="M8.3,10.2c0,0.1,0.1,0.1,0.1,0.2c0.1,0.1,0.1,0.1,0,0.1c-0.1-0.1-0.1-0.1-0.2,0c0,0-0.1,0-0.1-0.1
			c0,0,0,0,0.1-0.1C8.3,10.3,8.3,10.3,8.3,10.2C8.3,10.2,8.3,10.2,8.3,10.2z"/>
		<path class="st0" d="M9.3,10.5c-0.1-0.1-0.1-0.1-0.2,0c0,0,0,0-0.1-0.1c0.1-0.1,0.1-0.2,0.2-0.3c0,0.1,0,0.2,0.2,0.2
			C9.4,10.4,9.4,10.4,9.3,10.5z"/>
		<path class="st0" d="M6.6,10.2c0,0.1,0.1,0.2,0.2,0.2c0,0.1,0,0.1-0.2,0c0,0,0,0,0,0c0,0,0,0-0.1,0.1c0,0,0,0-0.1-0.1
			c0,0,0,0,0.1-0.1C6.5,10.3,6.5,10.2,6.6,10.2z"/>
		<path class="st0" d="M12.9,8c0,0.1-0.1,0.2-0.1,0.2c-0.1,0-0.2,0-0.2-0.1c0-0.1,0-0.1,0.1-0.2c-0.1,0.1,0,0.1,0,0.2
			C12.7,8.1,12.8,8.1,12.9,8z"/>
		<path class="st0" d="M8.1,2.7c-0.1,0-0.2,0-0.3,0c0,0,0,0,0,0c0,0,0,0,0,0C7.8,2.6,8,2.6,8.1,2.7C8.1,2.6,8.1,2.7,8.1,2.7
			C8.1,2.7,8.1,2.7,8.1,2.7z"/>
		<path class="st0" d="M6.2,7.2C6.3,7,6.4,7.1,6.5,7.1C6.5,7.2,6.4,7.2,6.2,7.2z"/>
		<path class="st0" d="M8.7,7.2c-0.2,0-0.2,0-0.3-0.1C8.6,7.1,8.7,7.1,8.7,7.2z"/>
		<path class="st0" d="M8,7.1c0.1,0,0.2,0,0.2,0c0,0,0,0.1,0,0.1C8.1,7.2,8,7.2,8,7.1z"/>
		<path class="st0" d="M7.6,7.1c0.1,0,0.2,0,0.2,0c0,0.1,0,0.1-0.1,0.1C7.6,7.2,7.6,7.2,7.6,7.1z"/>
		<path class="st0" d="M7.4,7.1c0,0.2-0.1,0.2-0.2,0.1C7.2,7.1,7.2,7.1,7.4,7.1z"/>
		<path class="st0" d="M9.3,10.6c0.2,0,0.3,0,0.4,0C9.6,10.7,9.4,10.7,9.3,10.6z"/>
		<path class="st0" d="M10.3,7.9C10.3,8,10.3,8,10.3,7.9c0.1,0.1,0,0.1,0,0.1c0.1,0,0.1,0,0.1,0c0,0,0,0,0,0c0,0-0.1,0-0.1,0
			C10.3,8.1,10.2,8,10.3,7.9C10.3,7.9,10.3,7.9,10.3,7.9C10.4,7.9,10.4,7.9,10.3,7.9C10.3,7.9,10.3,7.9,10.3,7.9z"/>
		<path class="st0" d="M6.5,10.6c0,0.1-0.2,0.1-0.4,0C6.2,10.6,6.3,10.6,6.5,10.6z"/>
		<path class="st0" d="M7.2,5c0.1,0,0.1,0,0.2,0c0,0,0,0,0,0c0,0,0,0,0,0C7.4,5.1,7.3,5.1,7.2,5C7.2,5.1,7.2,5.1,7.2,5
			C7.2,5,7.2,5,7.2,5z"/>
		<path class="st0" d="M8.9,5c0,0,0.1,0,0.1,0.1C8.9,5.1,8.9,5.1,8.9,5c0,0.1-0.1,0.1-0.1,0.1C8.8,5.1,8.8,5,8.9,5z"/>
		<path class="st0" d="M6.9,10.7c0.1,0,0.2,0,0.3,0C7.1,10.8,7,10.7,6.9,10.7C6.9,10.8,6.9,10.7,6.9,10.7
			C6.8,10.7,6.9,10.7,6.9,10.7z"/>
		<path class="st0" d="M8.3,5c0.1,0,0.1,0,0.2,0c0,0,0,0,0,0c0,0,0,0,0,0C8.5,5.1,8.4,5.1,8.3,5C8.4,5.1,8.3,5.1,8.3,5z"/>
		<path class="st0" d="M7.1,5.1C7.1,5.1,7,5.1,7.1,5.1C7,5.1,6.9,5.1,6.9,5.1c0,0,0,0-0.1,0c0,0,0,0,0.1,0C6.9,5,7,5,7.1,5.1
			C7.1,5,7.1,5,7.1,5.1z"/>
		<path class="st0" d="M8.7,10.7c0.1,0,0.2,0,0.3,0c0,0,0,0.1,0,0.1C8.9,10.8,8.7,10.8,8.7,10.7z"/>
		<path class="st0" d="M9.1,5.1C9.1,5.1,9.2,5,9.1,5.1C9.2,5,9.3,5,9.3,5c0,0,0,0,0,0c0,0,0,0,0,0C9.3,5.1,9.2,5.1,9.1,5.1
			C9.1,5.1,9.1,5.1,9.1,5.1z"/>
		<path class="st0" d="M6.6,5.1c0,0-0.1,0-0.1-0.1C6.5,5.1,6.5,5,6.6,5.1c0-0.1,0.1-0.1,0.1-0.1C6.6,5.1,6.6,5.1,6.6,5.1z"/>
		<path class="st0" d="M7.7,5.1C7.7,5.1,7.7,5.1,7.7,5.1C7.6,5.1,7.6,5.1,7.7,5.1C7.6,5.1,7.6,5,7.7,5.1C7.7,5,7.7,5,7.7,5.1
			C7.8,5,7.8,5,7.8,5.1C7.8,5.1,7.8,5.1,7.7,5.1C7.8,5.1,7.7,5.1,7.7,5.1C7.7,5.1,7.7,5.1,7.7,5.1z"/>
		<path class="st0" d="M8,5C8,5,8.1,5,8.1,5c0,0,0,0,0,0.1C8.1,5.1,8.1,5.1,8,5C8,5.1,8,5.1,8,5C8,5,8,5,8,5z"/>
		<path class="st0" d="M7.2,4.9c0.1,0,0.2,0,0.2,0C7.4,4.9,7.3,4.9,7.2,4.9z"/>
		<path class="st0" d="M8,4.9c0.1,0,0.1,0,0.2,0c0,0,0,0,0,0c0,0,0,0,0,0C8.1,4.9,8,4.9,8,4.9C8,4.9,8,4.9,8,4.9z"/>
		<path class="st0" d="M9,4.9c-0.1,0.1-0.2,0.1-0.3,0C8.8,4.9,8.9,4.9,9,4.9z"/>
		<path class="st0" d="M11.2,11.5c0.1,0,0.1,0,0.2,0C11.4,11.6,11.3,11.6,11.2,11.5z"/>
		<path class="st0" d="M8.6,4.9c-0.1,0-0.2,0-0.2,0c0,0,0,0,0,0C8.4,4.9,8.5,4.9,8.6,4.9C8.6,4.9,8.6,4.9,8.6,4.9z"/>
		<path class="st0" d="M9.1,4.9c0.1,0,0.1,0,0.2,0c0,0,0,0,0,0C9.3,4.9,9.2,4.9,9.1,4.9C9.1,4.9,9.1,4.9,9.1,4.9z"/>
		<path class="st0" d="M6.8,4.9c0.1,0,0.2,0,0.2,0c0,0,0,0,0,0C7,4.9,6.9,4.9,6.8,4.9C6.8,4.9,6.8,4.9,6.8,4.9z"/>
		<path class="st0" d="M7.8,4.9c-0.1,0-0.1,0-0.2,0c0,0,0,0,0,0C7.7,4.9,7.8,4.9,7.8,4.9C7.8,4.9,7.8,4.9,7.8,4.9z"/>
		<path class="st0" d="M5.4,7.9c0.1,0,0.1,0,0.2,0c0,0.1,0,0.1,0,0.1C5.6,7.9,5.5,7.9,5.4,7.9C5.4,7.9,5.4,7.9,5.4,7.9z"/>
		<path class="st0" d="M4.6,11.5c-0.1,0.1-0.1,0.1-0.2,0C4.5,11.5,4.5,11.5,4.6,11.5z"/>
		<path class="st0" d="M3.1,3.5c-0.1,0-0.3-0.1-0.5,0C2.4,3.6,2.4,3.7,2.4,3.9c0,0.1,0,0.1-0.1,0.1c0,0-0.1,0.1-0.1,0.2
			C2.1,4.4,2.3,4.7,2.6,4.8c0.3,0.1,0.6,0,0.7-0.2c0,0,0-0.1,0-0.2C3.2,4.5,3.1,4.5,3,4.5c-0.3,0-0.5-0.1-0.5-0.4
			c0-0.2,0.2-0.4,0.4-0.4c0.1,0,0.1,0.1,0.2,0.1c0,0,0,0,0,0c0,0-0.1,0-0.1,0C2.8,3.9,2.8,4,2.8,4.1c0,0.1,0.1,0.2,0.2,0.2
			c0.2,0,0.3,0,0.5,0c0.1,0,0.1,0,0.1,0.1c0,0.4-0.4,0.7-0.8,0.7C2.3,5.1,1.9,4.7,2,4.2C2,4.1,2.1,4,2.1,3.9c0,0,0-0.1,0-0.1
			c0-0.3,0.2-0.5,0.5-0.5c0.2,0,0.3,0,0.5-0.1C3.4,3,3.8,3,4,3.2c0.2,0.2,0.2,0.6-0.1,0.7C3.8,4,3.6,4,3.5,3.9
			c-0.1-0.1-0.1-0.3,0-0.4c0.1,0,0.1,0,0.2,0c0,0,0,0,0,0c-0.1,0-0.1,0.1-0.1,0.1c0,0.1,0.1,0.1,0.2,0.1c0.1,0,0.2-0.2,0.2-0.3
			C3.8,3.3,3.6,3.2,3.4,3.3C3.3,3.4,3.2,3.4,3.1,3.5z"/>
		<path class="st0" d="M4.3,3c0-0.1,0-0.1,0-0.2c-0.1,0-0.1,0.1-0.2,0.1C4.1,2.9,4,2.9,3.9,2.9c-0.1,0-0.1-0.1-0.1-0.2
			c0-0.1,0-0.1,0.1-0.1C4,2.6,4,2.6,4,2.7c0,0,0,0.1,0,0.1c0,0,0.1,0,0.1,0c0.1,0,0.2-0.2,0.1-0.3C4.1,2.3,3.9,2.3,3.7,2.4
			c0,0-0.1,0-0.1,0.1c0-0.1,0.2-0.2,0.4-0.2c0.2,0,0.4,0.2,0.4,0.4c0.1,0,0.2-0.1,0.3-0.1c0.2-0.1,0.5,0,0.6,0.3
			c0.1,0.2,0.1,0.4,0,0.5C5.2,3.4,5,3.4,4.8,3.3c-0.1,0-0.1-0.1-0.1-0.2C4.7,3,4.8,2.9,4.9,3c0,0.1,0,0.1,0,0.2c0,0,0.1,0,0.2,0
			c0.1,0,0.1-0.1,0.1-0.2c0-0.1-0.1-0.3-0.3-0.3c-0.2,0-0.3,0-0.4,0.2C4.4,2.9,4.4,3,4.3,3C4.4,3,4.4,3,4.3,3z"/>
		<path class="st0" d="M4.2,5.3C4.2,5.3,4.2,5.3,4.2,5.3C4.2,5.4,4.2,5.4,4.2,5.3c0-0.1,0-0.3,0-0.4C4.4,4.9,4.4,5.2,4.2,5.3
			C4.3,5.4,4.3,5.3,4.2,5.3C4.3,5.3,4.3,5.3,4.2,5.3z"/>
		<path class="st0" d="M4,5.4C4,5.4,4,5.3,4,5.4C4,5.3,4,5.3,4,5.4C4,5.4,4,5.4,4,5.4c-0.1,0-0.1-0.1-0.1-0.1c0-0.2,0-0.4,0.2-0.4
			C4.1,5,4.1,5.2,4,5.4C4.1,5.4,4,5.4,4,5.4z"/>
		<path class="st0" d="M3.8,5.3C3.7,5.2,3.7,5,3.9,4.9C3.8,5,3.8,5.1,3.8,5.3z"/>
		<path class="st0" d="M4.5,5.3c0-0.1,0-0.2-0.1-0.3C4.5,5,4.6,5.1,4.5,5.3z"/>
		<path class="st0" d="M12.7,3.9c0-0.1,0.1-0.1,0.2-0.2c0.1,0,0.3,0,0.4,0.1c0.1,0.1,0.1,0.3,0,0.4c-0.1,0.2-0.4,0.2-0.6,0.1
			c0,0-0.1,0-0.1,0c0,0.1,0,0.1,0,0.2c0.1,0.2,0.4,0.3,0.6,0.2c0.3-0.1,0.5-0.4,0.4-0.7c0-0.1-0.1-0.2-0.1-0.4
			c0-0.2-0.2-0.3-0.4-0.2c-0.1,0-0.1,0-0.2,0c-0.1-0.1-0.1-0.1-0.2-0.2c-0.2-0.2-0.5-0.1-0.6,0.1c-0.1,0.1-0.1,0.3,0,0.4
			c0,0,0.1,0,0.2,0c0,0,0.1-0.1,0.1-0.1c0,0,0-0.1-0.1-0.1c0,0,0,0,0,0c0-0.1,0.1-0.1,0.2,0c0.1,0,0.1,0.1,0.1,0.2
			c0,0.1,0,0.2-0.1,0.2C12.2,4,12,4,11.9,3.9c-0.1-0.1-0.2-0.3-0.2-0.4c0-0.2,0.2-0.3,0.3-0.4C12.3,3,12.6,3,12.8,3.2
			c0.1,0.1,0.1,0.1,0.2,0c0.2,0,0.4,0,0.6,0.2c0,0,0.1,0.1,0.1,0.2c0,0.1,0,0.2,0.1,0.2c0.2,0.3,0.1,0.8-0.3,1
			c-0.3,0.2-0.8,0.2-1.1-0.2c-0.1-0.1-0.1-0.3-0.1-0.4c0-0.1,0-0.1,0.1-0.1c0.2,0,0.3,0,0.5,0c0.1,0,0.1,0,0.2,0
			c0.1,0,0.2-0.1,0.2-0.2C13.1,4.1,13,4,12.9,4C12.9,3.9,12.8,3.9,12.7,3.9z"/>
		<path class="st0" d="M11.4,2.6c0-0.3,0.2-0.4,0.4-0.5c0.2,0,0.3,0.1,0.4,0.2c-0.2-0.1-0.4-0.1-0.5,0c-0.1,0.1-0.1,0.3,0,0.3
			c0,0,0.1,0,0.1,0c0,0,0-0.1,0-0.1c0,0,0-0.1,0-0.1c0,0,0.1,0,0.1,0c0,0,0.1,0.1,0.1,0.1c0,0.1,0,0.1-0.1,0.2
			c-0.1,0.1-0.3,0.1-0.4,0c0,0-0.1-0.1-0.1-0.1c0,0.1,0,0.2,0,0.3c0,0,0,0,0,0c0-0.1-0.1-0.1-0.1-0.2c-0.1-0.1-0.3-0.2-0.5-0.1
			c-0.1,0-0.2,0.2-0.2,0.3c0,0,0,0.1,0.1,0.1c0.1,0.1,0.1,0.1,0.2,0C11,3.1,11,3,10.9,3C11,3,11,3,11,3c0,0,0.1,0.1,0.1,0.2
			c0,0.1-0.1,0.2-0.2,0.2c-0.2,0.1-0.4,0-0.5-0.2c-0.1-0.2-0.1-0.4,0.1-0.5c0.2-0.2,0.5-0.2,0.7-0.1C11.3,2.6,11.3,2.6,11.4,2.6z"/>
		<path class="st0" d="M11.5,5.4c-0.1-0.3,0-0.5,0.1-0.5C11.6,5,11.6,5.2,11.5,5.4C11.6,5.4,11.5,5.3,11.5,5.4
			C11.5,5.3,11.5,5.3,11.5,5.4z"/>
		<path class="st0" d="M11.7,4.9c0.2,0.1,0.2,0.3,0.1,0.5c0,0,0-0.1,0-0.1c0,0,0,0.1-0.1,0.1C11.7,5.2,11.7,5,11.7,4.9z"/>
		<path class="st0" d="M11.4,4.9c0,0.1,0,0.2-0.1,0.3C11.2,5.2,11.2,5,11.4,4.9z"/>
		<path class="st0" d="M12,5.2c0-0.1,0-0.2-0.1-0.3C12.1,5,12.1,5.2,12,5.2z"/>
		<path class="st0" d="M13.6,6.6c-0.1,0-0.2,0-0.3-0.1c0,0.1,0,0.1,0,0.1c0-0.1,0-0.1-0.1-0.2c0,0.1,0,0.1,0,0.1c0,0,0,0,0,0
			c0-0.1,0-0.2,0-0.3c0-0.1,0.1-0.2,0.1-0.3c0-0.1,0.1-0.1,0.2-0.1c0.1,0,0.2,0,0.4,0c0.1,0,0.1,0,0.2,0.1c0.2,0.1,0.2,0.4,0.1,0.6
			c0-0.1,0-0.1,0-0.1c0,0,0,0,0,0c0,0,0,0.1-0.1,0.1c0-0.1,0-0.1-0.1,0c0,0-0.1,0-0.1,0c0,0,0-0.1,0-0.1c0-0.1,0-0.3,0-0.4
			c0,0,0,0,0-0.1c0,0,0,0,0,0.1C13.6,6.3,13.6,6.4,13.6,6.6z"/>
		<path class="st0" d="M13.2,5.9C13.1,6,13,6.2,12.9,6.3c-0.2,0-0.3,0-0.3,0.3c-0.1-0.2,0-0.4,0.1-0.6C12.8,5.9,13,5.8,13.2,5.9z"/>
		<path class="st0" d="M14.2,5.9c0.3,0,0.6,0.3,0.6,0.7c0,0,0-0.1,0-0.1c0-0.2-0.1-0.2-0.2-0.2c0,0-0.1,0-0.1,0
			C14.4,6.1,14.3,6,14.2,5.9z"/>
		<path class="st0" d="M14.3,6.3c0.1,0.2,0.1,0.4,0,0.6c-0.1,0.2-0.3,0.3-0.5,0.3C14.3,7,14.4,6.7,14.3,6.3z"/>
		<path class="st0" d="M13.1,6.3c0,0.2,0,0.4,0,0.5c0.1,0.2,0.2,0.3,0.4,0.4c-0.2,0-0.3-0.1-0.4-0.3C13,6.7,13,6.5,13.1,6.3z"/>
		<path class="st0" d="M14,7.4c-0.1,0.1-0.5,0.1-0.5,0C13.6,7.4,13.8,7.4,14,7.4z"/>
		<path class="st0" d="M13.5,5.7c0.1-0.1,0.2,0,0.3-0.1c0,0,0,0,0.1,0c0,0,0,0,0,0C13.7,5.7,13.6,5.7,13.5,5.7z"/>
		<path class="st0" d="M1.6,6.6C1.5,6.3,1.6,6,1.8,5.9c0,0,0.1,0,0.1,0c0.1,0,0.2,0,0.3,0c0.3,0,0.4,0.1,0.4,0.3c0,0.1,0,0.2,0,0.4
			c0,0,0,0,0,0c0,0,0-0.1,0-0.1c0,0.1-0.1,0.1-0.1,0.1c0,0,0-0.1-0.1,0c0,0-0.1,0-0.2,0c0-0.1,0-0.2,0-0.3c0-0.1,0-0.1,0-0.2
			c0,0,0,0,0-0.1c0,0,0,0,0,0.1c0,0.1,0,0.3,0,0.4c0,0,0,0.1,0,0.1c0,0-0.1,0-0.1,0c0,0-0.1,0-0.1-0.1c0,0,0,0.1,0,0.1
			c0-0.1,0-0.1-0.1-0.2c0,0,0,0,0,0C1.6,6.5,1.6,6.5,1.6,6.6z M2.2,6C2.2,5.9,2.2,5.9,2.2,6c-0.1,0-0.2,0-0.3,0c0,0,0,0,0,0
			C2,6,2.1,6,2.2,6z"/>
		<path class="st0" d="M1.6,5.9C1.5,6,1.4,6.2,1.3,6.3c0,0-0.1,0-0.1,0C1.1,6.3,1,6.3,1,6.5c0,0,0,0.1,0,0.1c0,0,0,0.1,0,0.1
			C0.9,6.5,1,6.3,1.1,6.1C1.2,6,1.4,5.8,1.6,5.9z"/>
		<path class="st0" d="M2.9,6.3C2.8,6.2,2.7,6,2.6,5.9c0.3-0.1,0.7,0.3,0.6,0.7C3.2,6.4,3.1,6.2,2.9,6.3z"/>
		<path class="st0" d="M2.7,6.3c0.1,0.2,0.1,0.4,0,0.7C2.6,7.1,2.4,7.2,2.3,7.2C2.7,7,2.8,6.7,2.7,6.3z"/>
		<path class="st0" d="M1.9,7.2c-0.2,0-0.4-0.1-0.4-0.3c-0.1-0.2-0.1-0.4,0-0.6C1.4,6.7,1.5,7,1.9,7.2z"/>
		<path class="st0" d="M2.3,7.4c-0.2,0.1-0.5,0-0.5,0C2,7.4,2.2,7.4,2.3,7.4z"/>
		<path class="st0" d="M1.9,5.7c0-0.1,0-0.1,0.2-0.1c0,0,0,0,0.1,0c0,0,0,0,0,0C2.1,5.7,2,5.7,1.9,5.7z"/>
		<path d="M8.4,8.5c0,0,0.1,0,0.1,0c0,0.1,0,0.1,0,0.2c0,0,0,0-0.1,0c0,0,0,0-0.1,0C8.4,8.6,8.4,8.6,8.4,8.5z"/>
		<path d="M8.6,8.1c0,0.1,0,0.1,0,0.2c0,0-0.1,0-0.1,0C8.4,8.1,8.4,8.1,8.6,8.1z"/>
		<path d="M8.6,8.3c0,0.1,0,0.1,0,0.2c0,0-0.1,0-0.1,0c0,0,0-0.1,0-0.1C8.5,8.3,8.5,8.3,8.6,8.3z"/>
		<path d="M8.6,8.8c0,0.1,0,0.1,0,0.2c0,0-0.1,0-0.1,0c0-0.1,0-0.1,0-0.2C8.5,8.8,8.5,8.8,8.6,8.8z"/>
		<path d="M7.4,8.1c0,0.1,0,0.1,0,0.2c0,0-0.1,0-0.1,0c0,0,0-0.1,0-0.2C7.3,8.1,7.3,8.1,7.4,8.1z"/>
		<path d="M7.4,8.5c0,0.1,0,0.1,0,0.2c0,0-0.1,0-0.1,0c0-0.1,0-0.1,0-0.2C7.3,8.5,7.3,8.5,7.4,8.5z"/>
		<path d="M7.4,9C7.2,9,7.2,9,7.2,8.8c0,0,0.1,0,0.1,0C7.4,8.8,7.4,8.9,7.4,9z"/>
		<path d="M7.4,8.3c0,0.1,0,0.1,0,0.1c0,0-0.1,0-0.1,0c0,0,0-0.1,0-0.1C7.3,8.3,7.3,8.3,7.4,8.3z"/>
		<path d="M2.2,6C2.1,6,2,6,1.9,6c0,0,0,0,0,0C2,5.9,2.1,5.9,2.2,6C2.2,5.9,2.2,5.9,2.2,6z"/>
	</g>
	<rect x="1.7" y="11.9" width="12.6" height="0.4"/>
</g>
</svg>
