<?xml version="1.0" encoding="utf-8"?>
<!-- Generator: Adobe Illustrator 22.1.0, SVG Export Plug-In . SVG Version: 6.00 Build 0)  -->
<svg version="1.1" id="Capa_1" xmlns="http://www.w3.org/2000/svg" xmlns:xlink="http://www.w3.org/1999/xlink" x="0px" y="0px"
	 viewBox="0 0 572 630" style="enable-background:new 0 0 572 630;" xml:space="preserve">
<style type="text/css">
	.st0{fill:#EFD46B;stroke:#0C3559;stroke-width:0.7094;stroke-miterlimit:10;}
	.st1{fill:#A60303;stroke:#FC7E12;stroke-width:0.7094;stroke-miterlimit:10;}
	.st2{fill:#FC7E12;}
	.st3{fill:#0C3559;stroke:#A60303;stroke-width:0.8127;stroke-miterlimit:10;}
	.st4{fill:#FC7E12;stroke:#A60303;stroke-width:0.7094;stroke-miterlimit:10;}
	.st5{fill:#0C3559;stroke:#0C3559;stroke-width:3;stroke-miterlimit:10;}
</style>
<g>
	<g>
		<path class="st0" d="M17.6,314.6C21.3,165.9,139,50.8,285.8,51.8c149.6,1,266.6,120.7,264.5,269.6c-2,151-123.9,266.1-271.8,262.8
			C128.4,580.7,17.4,459.9,17.6,314.6z"/>
		<path class="st1" d="M48.3,175.4c0-11.2,0-21.4,0-32.1c7.8,0,15.3,0,22.9,0C63.8,153.7,56.4,164.1,48.3,175.4z"/>
		<path class="st1" d="M66.5,122.4c-6.7,0-13,0-19.3,0c-0.2,0-0.7,0-0.7,0l0.5-19c0,0,12.6-0.2,19.5-0.2
			C66.5,109.6,66.5,115.7,66.5,122.4z"/>
		<path class="st1" d="M47.7,514.4c6.3,0,12.4,0,18.8,0c0,6.3,0,12.2,0,18.5c-6.2,0-12.3,0-18.8,0C47.7,527,47.7,521.1,47.7,514.4z"
			/>
		<path class="st1" d="M521.6,122c-6.4,0-12.3,0-18.6,0c0-6.3,0-12.2,0-18.4c6.2,0,12.1,0,18.6,0C521.6,109.5,521.6,115.6,521.6,122
			z"/>
		<path class="st1" d="M521.7,533c-6.2,0-12.1,0-18.6,0c0-5.9,0-11.8,0-18.3c5.9,0,12,0,18.6,0C521.7,520.5,521.7,526.6,521.7,533z"
			/>
		<path class="st1" d="M87.5,125.5c0-5.3,0-9.5,0-13.6c0-2.7,0-5.3,0-8.4c8.1,0,15.6,0,23.9,0C103.6,110.7,96.1,117.6,87.5,125.5z"
			/>
		<path class="st1" d="M73,141.7c0-5.1,0-8.8,0-13.1c3.8,0,7.3,0,11.6,0C80.8,132.9,77.3,136.8,73,141.7z"/>
		<path class="st1" d="M49.4,461.1c0,11.2,0,21.4,0,32.1c7.8,0,15.3,0,22.9,0C64.9,482.8,57.4,472.3,49.4,461.1z"/>
		<path class="st1" d="M88.6,511c0,5.3,0,9.5,0,13.6c0,2.7,0,5.3,0,8.4c8.1,0,15.6,0,23.9,0C104.7,525.7,97.1,518.8,88.6,511z"/>
		<path class="st1" d="M74.1,494.7c0,5.1,0,8.8,0,13.1c3.8,0,7.3,0,11.6,0C81.9,503.5,78.4,499.6,74.1,494.7z"/>
		<path class="st1" d="M520.2,461.1c0,11.2,0,21.4,0,32.1c-7.8,0-15.3,0-22.9,0C504.7,482.8,512.2,472.3,520.2,461.1z"/>
		<path class="st1" d="M481,511c0,5.3,0,9.5,0,13.6c0,2.7,0,5.3,0,8.4c-8.1,0-15.6,0-23.9,0C465,525.7,472.5,518.8,481,511z"/>
		<path class="st1" d="M495.6,494.7c0,5.1,0,8.8,0,13.1c-3.8,0-7.3,0-11.6,0C487.7,503.5,491.2,499.6,495.6,494.7z"/>
		<path class="st1" d="M520.2,175.5c0-11.2,0-21.4,0-32.1c-7.8,0-15.3,0-22.9,0C504.7,153.7,512.2,164.2,520.2,175.5z"/>
		<path class="st1" d="M481,125.6c0-5.3,0-9.5,0-13.6c0-2.7,0-5.3,0-8.4c-8.1,0-15.6,0-23.9,0C465,110.8,472.5,117.7,481,125.6z"/>
		<path class="st1" d="M495.6,141.8c0-5.1,0-8.8,0-13.1c-3.8,0-7.3,0-11.6,0C487.7,133,491.2,136.9,495.6,141.8z"/>
	</g>
	<g>
		<path class="st2" d="M540.1,298.9c0,12.7,0,25.4,0,38.1c-0.2,1.3-0.5,2.6-0.7,3.9c-2.2,12.9-3.5,26.1-6.6,38.8
			c-23.1,96.3-104.3,172.4-202,189.7c-11.3,2-22.7,3.1-34.1,4.6c-9.4,0-18.8,0-28.2,0c-1.3-0.3-2.6-0.6-4-0.7
			c-40-3.1-77.5-14.7-111.7-35.8C86.3,496.5,45.4,437.5,31.4,360.3c-1.6-8.6-2.4-17.3-3.5-26c0-10.3,0-20.6,0-30.9
			c0.3-1.3,0.7-2.6,0.8-3.9c2.3-31.7,9.9-62.2,23.9-90.7C91.1,130.1,153.5,82.1,239.8,65.5c9.2-1.8,18.6-2.4,27.8-3.6
			c11.2,0,22.4,0,33.6,0c1.5,0.3,2.9,0.6,4.4,0.8c12.1,1.8,24.4,2.7,36.3,5.4c99.6,22.7,176,102.8,194.5,204
			C538.1,280.9,538.9,290,540.1,298.9z M307.8,549c-0.6-5.3-1.2-10.4-1.8-15.7c9.5-1.5,18.5-2.8,27.4-4.4c4.4-0.8,6.8,0.6,7.9,5
			c1.9,7.3,4.1,14.5,6.2,21.8c0.9,3.3,2.8,5.1,6.3,3.7c14.9-5.8,29.8-11.7,44.7-17.6c2.9-1.2,3.8-3.3,2.3-6.2
			c-2-4.1-3.9-8.2-6.1-12.2c-5.9-11.1-5.9-11.1-17-5.5c-2.8,1.4-6.3,2.6-7.8,4.9c-1,1.5,1.4,5,1.7,7.6c0.1,1.2-1,3-2,3.5
			c-0.8,0.4-3.1-0.5-3.5-1.4c-1.8-4.1-3.2-8.4-4.8-12.7c10.7-4.7,20.8-9.3,31.2-13.9c5,8.7,9.9,16.9,14.5,25.2
			c1.8,3.3,3.6,4.2,6.7,1.9c13.4-9.9,26.7-19.8,40-29.7c0.8-0.6,1.3-1.6,2.3-2.7c-6.6-7.3-13.1-14.6-19.8-22
			c-3.7,3.1-7,5.7-10.2,8.5c-7.3,6.3-7.3,6.4-1.3,14.2c0.2,0.3,0.3,0.8,0.5,1.5c-1.6,1-3.2,2.1-5.2,3.3c-2.9-4.6-5.6-8.9-8.3-13
			c8.8-7.5,17-14.5,25.2-21.5c8.5,8.1,16.8,15.9,26.2,24.7c12.1-15.6,23.6-30.4,35.8-46.2c-9.1-5.3-17.1-9.9-25.1-14.3
			c-0.8-0.4-2.9,0.4-3.5,1.2c-3,3.8-5.6,7.9-8.5,11.8c-2.3,3.1-1.5,5.2,1.5,7.1c1.6,1,3.1,2.3,4.6,3.4c0,0.5,0,1.1,0.1,1.6
			c-1.8,0.6-4.2,2.1-5.3,1.5c-3.2-1.8-6-4.5-8.7-7.1c-0.6-0.5-0.6-2.4-0.1-3.2c5.7-8.5,11.5-16.9,17.5-25.6
			c10.3,5.7,20.1,11.2,29.8,16.6c0.8-0.8,1.3-1,1.5-1.4c7.1-16,14.3-32,21.4-48c1.1-2.4-0.1-3.8-2.3-4.5c-7.4-2.3-14.7-4.6-22.2-6.6
			c-1-0.3-3.1,0.7-3.6,1.6c-2.7,6-5.1,12.1-7.6,18.4c3.2,1.4,5.8,2.4,8.1,3.7c0.9,0.5,1.9,2.5,1.6,3c-0.6,1-2.3,2.3-3.3,2.1
			c-2.5-0.4-4.9-1.6-7.3-2.4c-4-1.3-5-3.8-3.5-7.7c2.6-6.9,5-13.9,7.3-21c1.9-5.7,1.9-5.9,8-4.5c8.1,1.9,16.2,3.8,24.3,5.7
			c2.1,0.5,4.1,0.6,4.5-2.2c2.5-16.9,5.1-33.8,7.4-50.7c0.1-0.9-1.5-3-2.3-3c-9.1-0.2-18.3-0.1-27.5-0.1c-0.2,2-0.5,3.8-0.6,5.6
			c-0.2,2.3-0.3,4.5-0.4,6.8c-0.4,8-0.3,7.9,7.3,10.1c1.1,0.3,2.7,2.3,2.5,2.7c-0.7,1.3-2.1,3.2-3.3,3.2c-4.2,0-8.3-0.7-12.9-1.2
			c1.1-11.7,2.1-22.7,3.2-34.3c11.7,0,22.8,0,34.4,0c-0.1-19-2.6-37.2-6.4-55.3c-0.2-0.9-2.2-2.2-3.1-2c-7.7,1.5-15.4,3.2-23,5.1
			c-1.1,0.3-2.5,2.4-2.3,3.5c0.7,6.3,1.7,12.5,2.7,19.1c2.8-0.2,5-0.6,7.2-0.4c1.5,0.1,2.9,1.1,4.4,1.6c-1.1,1.6-1.9,3.8-3.4,4.6
			c-1.7,0.9-4.1,0.4-6.2,0.7c-4,0.5-6-1-6.6-5.3c-1.1-7.6-2.6-15.2-4.4-22.7c-0.9-3.6,0.3-5,3.4-5.9c7.8-2.3,15.6-4.8,23.5-6.9
			c3.8-1,5.5-2.7,4-6.7c-5.9-15.1-11.7-30.1-17.5-45.2c-1-2.6-2.6-2.9-5-1.8c-3.8,1.8-7.7,3.5-11.5,5.3c-13,6.3-13,6.3-6.1,19.3
			c3.7,6.9,3.7,7,11.3,4.7c2.4-0.7,4.4-0.2,4.1,2.3c-0.5,5.4-6,4.5-9.3,6.4c-1.9,1.1-4.7,2.2-6.2-1c-4.4-9.3-8.7-18.6-13.2-28.2
			c10.1-5.7,20.1-11.4,30.1-17c-9.9-17.3-27.8-41-36.4-47.7c-5.7,6.2-11.6,12.5-17.5,18.8c-2.1,2.2-2.7,4.1,0.1,6.4
			c2.3,1.9,4.1,4.4,6.1,6.7c5.3,6.1,5.3,6,12.2,2.1c1-0.6,2.8,0,4.2,0.1c-0.3,1.5,0,3.5-0.9,4.5c-1.8,2-4.3,3.3-6.4,5
			c-2.3,1.9-4.2,1.7-6.1-0.7c-6.2-7.6-12.4-15.2-18.9-23c1.1-1.2,2.1-2.3,3.1-3.3c5.1-5.3,10.3-10.6,15.4-16c5-5.3,5.1-5.5-0.5-10.5
			c-8.2-7.1-16.6-14.1-25.1-20.8c-4.6-3.6-9.6-6.7-14.8-10.3c-5.5,8.7-10.6,16.8-16,25.3c6.2,4.6,12.1,8.9,18.2,13.4
			c2-2.4,3.6-4.7,5.6-6.5c0.9-0.8,2.7-0.7,4.2-0.9c0.3,1.6,1.3,3.6,0.6,4.6c-2.3,3.6-5.2,6.9-7.9,10.3c-6.6-4.8-12.6-9.4-18.8-13.6
			c-9.1-6.2-9.2-6.1-3.6-16c3.7-6.6,7.4-13.1,11.8-20.9c-17.9-7.9-35.2-15.5-53.5-23.5c-3.1,10.2-5.9,19.1-8.4,28
			c-0.2,0.7,1.1,2.4,2,2.8c4,1.7,8.2,3.2,12.3,4.6c6.1,2.2,6.1,2.1,8.9-4c2.2-4.9,2.9-5,7.1-0.9c-1.8,4.1-3.7,8.4-5.7,13
			c-11-3.6-21.6-7.1-32.5-10.7c3-11.5,5.8-22.4,8.8-33.9c-18.9-5.2-37.8-7.6-57.5-8.2c-0.5,10.1-0.9,19.6-1.4,29.6
			c8,0.7,15.1,1.3,22.3,1.9c0.6-3,1-5.4,1.5-7.7c0.7-2.9,4.7-3.6,4.9-2.6c0.7,4,0.1,8.3-0.3,12.4c-0.2,2.1-0.9,3.9-3.7,3.4
			c-0.3-0.1-0.6-0.1-0.9-0.1c-3.9-0.4-7.8-0.8-11.7-1.1c-5.7-0.5-11.3-0.9-17.5-1.4c0-3.5,0.1-6.6,0-9.6c-0.4-7.1-1-14.2-1.3-21.3
			c-0.2-3-1.7-4.1-4.4-3.8c-16.4,1.8-32.7,3.7-49.1,5.5c-2.8,0.3-3.8,2.1-3.1,4.8c1.4,5.9,2.5,11.9,4,17.7c2.2,7.9,2.3,7.9,10.2,6.5
			c1.3-0.2,2.7-0.5,4-0.7c3-0.5,6.9-0.1,8.7-1.9c1.6-1.6,0.7-5.6,1.3-8.4c0.2-1.2,1.5-2.3,2.2-3.4c1,1,2.7,1.9,3,3.1
			c0.7,2.9,0.7,6,1.2,9c0.4,2.6-0.5,3.8-3.2,4.2c-8.2,1.3-16.4,2.6-24.6,4.4c-4.5,1-6.4-0.8-7.4-4.8c-1.7-6.9-3.5-13.8-5.4-20.6
			c-1.8-6.2-3.4-7.3-9.5-5.1c-9.5,3.4-19,7-28.4,10.8c-5,2-9.8,4.7-14.7,7.1c-2,1-3.2,2.2-1.9,4.6c3.9,7,7.7,14.1,11.8,20.9
			c0.5,0.8,2.7,1.5,3.6,1.1c5.7-2.3,11.3-5,17.2-7.6c-1.1-3-2.2-5.5-2.8-8.1c-0.2-1.2,0.7-2.6,1.1-4c1.5,0.5,3.8,0.5,4.3,1.5
			c1.9,3.7,3.2,7.7,4.9,11.9c-10.5,5-20.5,9.8-30.7,14.7c-6-10-11.7-19.6-17.4-29c-8.4,2.4-39.2,25.1-46.7,34.2
			c6.8,7.2,13.5,14.4,20.5,21.9c5.9-5.2,11.4-10,16.9-15c-1.7-2.4-3.5-4.4-4.6-6.6c-0.6-1.1,0.1-2.9,0.1-4.3c1.5,0.3,3.5,0,4.3,0.9
			c2.8,3.1,5.2,6.5,7.9,10c-8.7,7.5-17,14.7-25.7,22.1c-4.2-4-8.4-7.8-12.4-11.9c-4-4.1-7.7-8.4-11.4-12.5
			c-9.8,7.8-31.1,33.7-35.6,43.3c-0.5,1.1,0.1,3.7,1.1,4.3c6.4,4.3,12.9,8.4,19.6,12.3c0.9,0.6,3.4,0.1,4.1-0.8
			c4-5.1,7.6-10.4,11.4-15.7c-2.4-2.2-4.5-4-6.3-6c-0.7-0.8-0.9-2.8-0.4-3.4c0.6-0.7,2.6-1.1,3.5-0.6c2.7,1.6,5.1,3.7,7.7,5.6
			c2.1,1.6,2.1,3.3,0.6,5.4c-5.1,7.2-10,14.4-14.9,21.7c-1.6,2.3-3.1,2.8-5.6,1.3c-7.3-4.3-14.8-8.2-22-12.6
			c-3.5-2.2-5.6-1.4-7.1,2.1c-6.1,13.7-12.2,27.3-18.2,41c-1.1,2.5-1.9,5.3-2.9,8.1c9,2.6,17.4,5.1,25.8,7.3
			c1.3,0.3,3.9-0.4,4.3-1.3c2.5-6.3,4.6-12.7,6.9-19.2c-3.6-1.5-6.8-2.8-9.9-4.1c-0.2-0.6-0.3-1.1-0.5-1.7c1.6-0.9,3.7-2.9,4.8-2.5
			c3.7,1.4,7.9,3.1,10.4,6c1.2,1.4-0.9,5.7-1.7,8.7c-0.6,2.3-1.6,4.6-2.4,6.8c-1.8,5.1-3.6,10.1-5.4,15.4c-2.5-0.6-4.4-1-6.3-1.4
			c-7.8-1.9-15.6-3.9-23.4-5.7c-2.3-0.5-5-1.1-5.5,2.6c-2.4,16.8-4.8,33.5-7,50.3c-0.1,1,1.3,3.1,2,3.2c9.1,0.7,18.3,1.1,27.1,1.6
			c0.5-1,0.7-1.3,0.8-1.5c0.4-3.8,0.8-7.5,1.1-11.3c0.2-2.9,1.2-6.3-0.1-8.4c-1-1.8-4.8-1.7-7.2-2.9c-1.1-0.5-1.8-2-2.7-3
			c1.1-0.8,2.2-2.4,3.3-2.3c4.3,0.1,8.6,0.7,13,1.1c-1.2,11.8-2.4,23-3.6,34.7c-11.7,0-23,0-35.3,0c2.3,19.3,4.5,38,6.8,57.7
			c10.1-2.3,18.9-4.2,27.7-6.3c0.8-0.2,1.8-2.1,1.7-3c-0.9-6.5-2-13-3.1-19.8c-2.7,0.4-4.7,0.8-6.8,0.9c-1.9,0.1-4.5,1.2-4.6-2.4
			c-0.1-2.9,1-4.2,3.9-4.1c2.3,0.1,4.6,0.1,6.8-0.5c3.7-0.9,4.7,0.7,5.3,4c1.4,8.5,3,17,4.8,25.4c0.6,3.1-0.7,4-3.2,4.7
			c-8,2.2-16.1,4.3-24,6.8c-5.6,1.7-5.9,2.2-3.9,7.7c5,13.3,10.3,26.5,15.6,39.7c1.1,2.8,2.7,5.3,4.2,8.4c5.1-2.7,9.8-5,14.4-7.6
			c12.1-6.6,12.1-6.6,6.3-19.2c-3.4-7.4-3.4-7.4-11.2-5.2c-0.6,0.2-1.6,0.6-1.7,0.4c-1-1.3-2.7-3-2.5-4.1c0.5-2.5,11.9-6,13.9-4.5
			c0.7,0.5,1.1,1.4,1.4,2.2c3.2,6.7,6.3,13.4,9.4,20.1c3.1,6.5,3.2,6.6-3.2,10.4c-7.6,4.6-15.3,9.1-22.8,13.6c0.1,0.9,0,1.5,0.2,1.8
			c10.4,14.1,20.7,28.3,31.3,42.2c0.6,0.8,3.3,1,4.1,0.3c6.3-5,12.4-10.1,18.4-15.5c0.7-0.7,1-3.1,0.4-3.8
			c-4.1-5.3-8.5-10.5-12.8-15.6c-3.4,2.3-6.2,4.3-9,6.2c-3.8-2.7-3.6-4.9-0.2-7.2c3.1-2.1,6-4.4,9-6.6c7.6,8.9,14.8,17.3,22.5,26.3
			c-4.2,4-8.4,7.8-12.3,11.8c-4,4.1-7.8,8.4-11.5,12.4c5.6,8,33.2,30.2,45.1,36.4c5.1-8.5,10.2-16.9,15.4-25.6
			c-6.5-4.5-12.4-8.7-18.3-12.8c-2.1,2.3-3.8,4.5-5.9,6.2c-0.9,0.7-2.7,0.4-4.1,0.6c0.1-1.3-0.3-2.9,0.3-3.9
			c1.4-2.3,3.3-4.3,4.9-6.6c2-2.8,4-3.2,6.8-1c4.7,3.6,9.6,6.9,14.4,10.3c9.6,6.8,9.6,6.7,3.5,17.1c-3.7,6.2-7.1,12.5-10.9,19.1
			c17,10.6,34.8,17.7,53.8,23.9c2.6-9.3,5.1-18,7.4-26.8c0.2-0.8-1.2-2.7-2.2-3.1c-4.1-1.6-8.3-2.8-12.5-4c-6.5-1.9-6.8-2.7-8.8,4.5
			c-0.3,1.1-2.1,1.9-3.1,2.8c-0.8-1.6-2.4-3.2-2.1-4.6c0.4-2.6,1.9-5,2.9-7.6c1.2-3.1,3-3.5,6-2.4c7.8,2.9,15.6,5.9,23.6,8.2
			c4.1,1.2,4.4,2.9,3.3,6.5c-2.2,7.7-3.9,15.6-6.1,23.2c-1.2,4.2,0.2,5.8,4.1,6.5c9.2,1.6,18.4,3.7,27.7,5.1
			c7.9,1.2,15.8,1.6,24.4,2.5c0.3-9.7,0.7-18.4,0.8-27.2c0-1.1-1.3-3.1-2.2-3.2c-6.5-0.9-13.1-1.4-19.8-2c-0.8,3.5-1.2,6.5-2.2,9.4
			c-0.3,0.9-2.1,2-3,1.8c-0.9-0.1-2.3-1.8-2.3-2.7c0.1-3.5,0.5-6.9,1.3-10.3c0.2-1,2.1-2.5,3.1-2.4c10.2,0.5,20.4,1.2,30.9,1.8
			c0,11.8,0,22.7,0,34.7c8.6-0.5,16.9-0.7,25.1-1.6c9.8-1.1,19.4-2.8,29.2-4.3c3.2-0.5,4.8-2,3.7-5.6c-1.3-4.3-2.1-8.8-3.3-13.2
			c-1-3.7-2.2-7.4-3.3-11c-7.8,1.4-14.7,2.6-21.6,3.8C313.1,548.4,313.1,548.4,307.8,549z"/>
		<path class="st2" d="M85.1,450.5c4.8,6.4,9.3,12.4,13.9,18.6c2.6-1.7,4.4-3.4,6.6-4.1c1.5-0.5,3.4,0.3,5.1,0.5
			c-0.3,1.6,0,3.7-0.9,4.7c-2.8,3.1-6.1,5.8-10,9.3c-7.8-10.8-15.3-21.1-23.3-32.1c10.2-6.4,19.5-12.4,28.7-18.2
			c-6.6-13.8-12.9-27.3-19.6-40.7c-0.5-1.1-3-2.1-4.2-1.8c-6.9,2.1-13.7,4.7-20.6,7c-2.4,0.8-2.9,2.3-2,4.6
			c1.7,4.4,3.4,8.7,4.9,13.2c1.2,3.8,3.3,4.7,6.8,3c0.9-0.5,1.9-1.2,2.9-1.2c1.4,0,3.8,0.3,4,1c0.4,1.4,0.2,4-0.7,4.6
			c-3.7,2.5-7.7,4.5-12.8,7.2c-4.4-11.7-8.5-22.5-12.4-33.4c-1.1-2.9,1.2-4.1,3.5-4.8c7-2.3,14.1-4.6,21.2-6.8c4.2-1.3,5.8-4,5-8.3
			c-2.5-13.7-5-27.3-7.5-41.5c-9,0.6-18.4,1.3-28.6,2c0.9,8,1.6,15.3,2.5,23.2c2.8-0.3,5.1-0.4,7.4-0.8c2.5-0.4,4.3-0.2,5.1,2.9
			c0.8,3.2-1.3,3.5-3.4,4c-15.6,3.5-12.7,3.1-14.7-9.9c-1.3-8.3-2.1-16.8-3.1-25.7c2.1-0.3,3.7-0.5,5.2-0.6
			c8.3-0.5,16.6-1.2,24.9-1.5c4.4-0.1,5.6-2.2,5.7-6.1c0.2-8.3,0.6-16.6,1.1-24.9c0.3-4.5,1-9,1.3-13.6c0.1-1.3-0.6-3.6-1.3-3.7
			c-8.5-2-17-3.7-26.2-5.7c-1.1,7.1-2.1,13.3-3,19.6c-0.4,3.2,1.3,4.8,4.5,4.8c1.1,0,2.4-0.3,3.1,0.3c1.1,0.9,2.3,2.3,2.4,3.5
			c0.1,0.8-1.7,2.4-2.8,2.5c-4.3,0.3-8.7,0.1-14.3,0.1c1.9-13.3,3.8-26,5.7-39.2c10.3,2.3,19.8,4.2,29.1,6.5
			c3.3,0.8,4.9,0.1,6.1-3.1c4.4-12.7,9-25.3,13.8-37.9c0.9-2.5,0.2-3.8-1.7-4.8c-7.5-3.8-15.1-7.4-23.3-11.4
			c-2.8,6.8-5.4,12.9-7.7,19.1c-0.3,0.8,0.5,2.6,1.4,3.2c1.6,1.1,3.7,1.5,5.2,2.7c1.1,0.8,2.4,3.1,2.1,3.5c-1,1.3-3,3.2-4.3,2.9
			c-3.7-0.7-7.3-2-10.6-3.8c-1-0.6-1.4-3.8-0.8-5.4c4-10.3,8.3-20.4,12.8-31.2c5.1,2.5,9.4,4.6,13.6,6.8c4.9,2.5,9.7,4.9,14.5,7.5
			c2.1,1.1,3.4,1.2,4.9-1c7.8-11.5,15.9-22.8,23.7-34.4c0.7-1,0.2-3.9-0.8-4.8c-5.9-5.6-12.1-10.9-19.1-17
			c-4.6,5.9-8.9,11.2-12.9,16.8c-0.5,0.6,0.9,3,1.9,4.1c1.8,2.1,6.5,3,3.9,6.8c-2.8,4.2-5.9,0.5-8.6-0.9c-2.5-1.4-4.7-3.2-8-5.6
			c8.1-10.4,15.9-20.5,24-30.9c9.2,8.2,18,15.9,26.1,23.2c12.4-10.6,24.2-20.5,36.5-31c-5-7.3-10.3-15-15.9-23.2
			c-6.4,4.6-12.4,8.8-18.7,13.3c1.7,2.4,3.1,4.5,4.7,6.5c1.9,2.4,1.2,4.5-0.9,5.7c-1,0.6-3.5-0.1-4.4-1c-3-3-5.5-6.4-9.1-10.6
			c10.6-7.8,20.9-15.3,31.5-23.1c6.4,9.9,12.3,19,18.4,28.4c3.1-1.3,5.9-2.4,8.6-3.7c10.4-4.8,20.8-9.8,31.2-14.5
			c2.9-1.3,3.9-2.8,2.6-5.9c-2.4-6.2-4.4-12.6-6.8-18.8c-0.5-1.2-2.4-2.9-3.2-2.7c-6.6,1.9-13.1,4.2-19.2,6.2
			c-0.7,5.3,7.7,10.6-2.3,14.2c-2.5-4.7-5-9.4-7.9-14.7c4.7-2.1,8.9-4.2,13.2-6c6.2-2.5,12.5-4.7,18.6-7.2c3.7-1.5,5.7-0.3,6.8,3.3
			c2.5,8.4,5.1,16.8,7.7,25.2c0.3,0.8,0.6,1.7,0.9,2.4c15.6-2.9,31-5.7,47.4-8.8c-0.7-8.2-1.3-16.7-2.2-25.2
			c-0.1-0.9-2.3-2.4-3.5-2.3c-6.2,0.3-12.3,1-19.2,1.7c0.3,3,0.8,5.8,0.7,8.6c0,1.3-1.2,3.7-1.8,3.6c-1.7-0.1-4.4-0.8-4.8-1.9
			c-1.3-3.8-2-7.9-2.6-11.9c-0.1-0.7,1.2-2.2,2-2.3c12.2-1.7,24.5-3.3,37.6-4.9c0,8.7-0.2,16.4,0,24.1c0.3,12.3-0.4,10.1,10.6,11.4
			c12.3,1.4,24.7,2,37.9,3c1.6-8.2,3.4-16.8,4.8-25.3c0.1-0.8-1.3-2.5-2.2-2.7c-5.6-1.1-11.3-2.1-17-2.8c-3.5-0.4-3.3,2.6-4,4.9
			c-0.7,2.2,0.9,6.3-3.7,5.9c-4-0.4-3.6-3.9-3.6-6.7c0.1-10.7,0.6-11.1,11.1-9.6c9.4,1.4,18.8,2.9,28.8,4.5
			c-1.8,8.4-3.6,16.2-5.1,24c-2.1,10.4-4.1,9.3,7.3,13c10.5,3.5,20.8,7.3,31.1,11.2c3.1,1.2,4.9,0.9,6.4-2.3
			c3.3-7.1,6.9-14,10.8-21.8c-7.2-3.2-13.9-6.2-20.4-9.1c-3.9,3.3-2.4,13.2-12,7.9c1.5-4.3,2.9-8.8,4.6-13.1c0.4-0.9,2.6-2,3.5-1.6
			c11.3,4.5,22.6,9.2,34.3,14.2c-3.2,5.9-5.9,10.7-8.5,15.6c-2.7,4.9-5.3,9.8-8.1,14.8c13.2,9.1,26.2,18.1,39.7,27.4
			c6.1-6.9,12.4-13.9,19-21.3c-6.2-5.1-12.1-9.9-18.1-14.9c-2.2,2.5-4,4.8-6.2,6.6c-1.1,0.8-3.6,1.3-4.4,0.6
			c-0.9-0.8-1.5-3.4-0.9-4.4c2.3-3.9,5.1-7.5,8.1-11.8c10.5,8.2,20.6,16.2,31.2,24.5c-8.2,8.8-16,17.2-24.1,25.9
			c1.2,1.3,2.3,2.5,3.3,3.7c8.3,9.6,16.7,19.1,24.7,28.9c2.5,3,4.3,3.6,7.4,1.3c5.4-3.9,10.9-7.6,16.4-11.4c2.6-1.8,3.2-3.7,1-6.3
			c-3.8-4.5-7.4-9.1-11.2-14c-3.2,2.4-5.8,4.3-8.7,6.4c-1.8-1.6-3.6-3.3-5.8-5.3c3.9-3.2,7.1-6.3,10.7-8.6c1.2-0.8,4.5-0.6,5.3,0.4
			c7.4,9.4,14.4,19,21.6,28.7c-10.2,6.4-19.7,12.3-29.6,18.5c2,4,4,7.6,5.8,11.4c4.2,9,8.5,18.1,12.4,27.2c1.4,3.3,2.9,4.6,6.4,3.4
			c7.5-2.7,15.1-5.2,23.5-8.1c-2.9-6.8-5.4-12.9-8.3-18.9c-0.4-0.8-2.6-1.4-3.7-1.1c-2.3,0.5-4.5,1.7-6.7,2.5
			c-4.3-4.6-4.1-5.8,1.3-8.6c3.2-1.7,6.5-3.2,10.2-5.1c1.3,2.9,2.7,5.5,3.8,8.2c3.1,8,6,16.1,9.2,24.2c1.3,3.4,0.1,5-3.1,6
			c-7.8,2.4-15.5,5.1-23.3,7.5c-3.5,1.1-4.7,2.7-3.8,6.6c2.9,13.9,5.4,27.8,8.2,42.4c7.8-0.6,16.1-1.1,24.3-1.8c3-0.2,4.1-2.1,3.8-5
			c-0.5-4.4-0.9-8.7-1.4-13.1c-0.4-3.9-2.3-5.5-6.4-4.9c-2.5,0.4-5.8,1.6-6.5-2.5c-0.2-1.1,0.9-3.3,1.8-3.6c3.4-1.2,7-1.8,10.6-2.5
			c2.3-0.5,3.8,0.2,4.1,2.8c1.5,11.7,3.1,23.4,4.7,35.9c-2.4,0-4.1-0.1-5.8,0c-8.8,0.4-17.5,0.9-26.3,1.2c-3,0.1-4.1,1-4.2,4.2
			c-0.6,13.1-1.6,26.3-2.3,39.4c-0.1,1.3,0.8,3.6,1.7,3.8c8.4,2.4,16.9,4.4,26.2,6.7c1.2-8.4,2.2-15.9,3.4-24.1
			c-2.8-0.2-5-0.5-7.2-0.5c-3.1-0.1-3.7-1.8-3.6-4.5c0.1-2.7,1.6-3.4,3.9-3.2c4.2,0.4,8.4,1,13.4,1.6c-1.6,10.6-2.9,20.8-4.6,30.8
			c-1.5,8.3-0.5,7.5-8.8,6c-7.7-1.4-15.4-3.2-23.2-4.4c-1.2-0.2-3.6,0.9-4,2c-5,13.9-9.8,27.9-14.9,42.6c7.5,3.5,15.3,7.1,23.1,10.5
			c0.8,0.3,2.8-0.3,3.2-1.1c2.6-5.3,5.1-10.6,7.2-16.1c0.4-1-0.9-3.2-2-3.9c-2.2-1.4-4.9-2.1-7.3-3.1c1.1-4.5,3.2-6.1,7.3-4.8
			c13.9,4.5,11.2,3.7,7.1,14.1c-3.4,8.7-7.3,17.2-11.2,26.2c-8.7-4.4-16.5-8.5-24.5-12.3c-8.2-3.9-6.2-3.8-11,3.1
			c-6.4,9.3-13.1,18.5-19.7,27.7c-1.1,1.6-2.4,3.1-3.6,4.7c7.3,6.3,14.4,12.4,22,19c4.1-5.4,8.1-10.6,12.1-15.9
			c1.5-2.1,1.1-4-1.2-5.3c-1-0.6-2.3-1.1-3-2c-0.9-1.1-1.3-2.6-1.9-3.9c1.9-0.7,3.8-1.5,5.7-2.2c0.1,0,0.3,0.1,0.4,0.2
			c10.8,5,11.5,7.6,4.5,16.9c-4.3,5.7-8.7,11.3-13.2,16.8c-3.5,4.4-4.4,4.4-8.7,0.6c-6.2-5.5-12.3-11.2-18.4-16.9
			c-0.8-0.7-1.6-1.3-2.2-1.8c-12.3,10.4-24.4,20.6-37,31.3c5.3,7.7,10.7,15.4,16.4,23.7c6.5-4.8,12.6-9.3,19.1-14.1
			c-2.6-2.9-4.9-5.4-7.5-8.2c1.8-1.7,3.6-3.2,5.6-5.1c2.7,3.2,5.5,6.3,8.2,9.5c1.8,2.2,1.7,4.4-0.8,6.2
			c-9.1,6.7-18.2,13.5-27.8,20.6c-6.4-10-12.4-19.6-18.7-29.4c-2.2,1.1-4.3,2.2-6.5,3.2c-10.9,5.2-21.8,10.4-32.9,15.4
			c-2.7,1.2-3.9,2.7-2.9,5.5c2.2,6.6,4.5,13.1,6.8,19.7c0.9,2.6,2.5,3.5,5.2,2.4c4.8-2,9.6-3.8,14.4-5.5c2.4-0.9,2.9-2.2,1.9-4.5
			c-0.7-1.7-1.5-3.4-1.7-5.1c-0.1-1.2,0.6-3.1,1.5-3.5c0.9-0.5,3.2,0,3.7,0.8c2.5,4,4.7,8.3,7.5,13.3c-12.9,4.9-24.8,9.4-37.3,14.2
			c-3.5-11.6-6.8-22.2-9.9-32.6c-15.8,2.8-31.1,5.5-46.8,8.3c0,3.9,0,8.3,0,12.8c0,2,0.2,3.9,0.4,5.9c0.8,10,0.8,10,11.1,9.1
			c4.2-0.3,8.4-0.7,12.7-1c-0.3-4.2-0.6-7.9-0.9-11.5c6-1.8,6.4-1.8,7.5,3.7c2.7,13.6,2.8,10.9-8.6,12.8c-8.9,1.5-17.9,2.2-27.9,3.4
			c-0.3-9.7-0.7-18.5-0.9-27.4c-0.2-8.4,0.8-7.1-7.1-7.7c-11.9-0.9-23.8-2-35.7-3.2c-4.2-0.5-6.6,0.3-7.2,4.9
			c-0.8,5.5-2.2,11-3.2,16.5c-0.9,5.6,0,6.8,5.4,7.8c5.3,0.9,10.7,1.6,16.5,2.4c0.3-2.8,0.4-5,0.7-7.2c0.4-2.7,1.9-4.6,4.8-4.3
			c3.2,0.3,2.4,2.9,2.4,4.9c0.1,3.4,0,6.9,0,11.4c-8.2-0.6-15.7-1-23.2-1.7c-3.5-0.3-6.9-1.2-10.3-1.7c-4.1-0.5-5.7-2.5-4.7-6.7
			c1.8-7.5,3.3-15.1,5-22.6c0.4-1.8,0.8-3.5,1.2-5.6c-1.9-0.7-3.5-1.4-5.2-2c-12-4.3-24-8.4-35.8-12.9c-2.9-1.1-4.4-0.7-5.8,1.9
			c-3.2,6.2-6.4,12.3-9.7,18.4c-1.5,2.8-0.7,4.5,2,5.8c4.1,2,8.1,4.1,12.2,6.1c5.5,2.6,5.7,2.6,7.7-3.1c1.4-4,3.2-6.1,8.4-3.2
			c-1.7,5.2-3.4,10.5-5.4,16.6c-11.3-4.9-22-9.5-32.5-14.4c-0.9-0.4-1.4-3.5-0.8-4.8c3.3-7.3,7-14.4,10.6-21.6c1-2,1.9-4,2.8-5.7
			c-13.3-9.3-26.2-18.4-39.9-27.9c-5.3,6.2-11,12.9-16.6,19.8c-0.6,0.8-0.3,3.4,0.5,4.1c5,4.4,10.2,8.5,15.5,12.9
			c1.9-2.6,3.4-5.1,5.4-7.1c0.9-0.9,3.5-1.3,4.4-0.6c1,0.6,1.7,3.3,1.1,4.3c-2.2,4.1-4.9,7.9-7.9,12.5c-10.6-8.5-20.6-16.6-31.1-25
			c6.6-7,12.8-13.4,18.8-20c5.9-6.4,5-4.9,0.1-10.7c-8.8-10.4-17.5-20.7-26.6-31.4C101.4,439.6,93.7,444.8,85.1,450.5z M284.3,113.1
			C176,113,81.7,198.7,79.7,314.7c-1.9,112.8,88.7,205.6,200.1,207.5c114.8,2,207.4-88.1,208.7-201.3
			C489.8,205.7,400,114.3,284.3,113.1z"/>
	</g>
	<g>
		<g>
			<path class="st1" d="M208.8,220.4c5.4-7,10.7-13.9,16.4-21.3c-7.5,0-15.2,0-24.1,0c6.2-6.7,12.5-11.4,20.3-14
				c-4.4-7.8-4.8-10-2.6-16.9c5.5,9.2,14.1,12.8,24,13.9c6.1,0.6,12.2,0.9,18.3,1.4c5.7,0.5,10.9,2.2,14.8,7c0.6-3.2-0.3-5.3-4-6.6
				c-5-1.7-10.3-2.8-15.5-3.8c-5.4-1.1-10.9-1.4-16.2-2.7c-9.5-2.3-15.4-9.6-15.3-18c0.2-7.4,7.1-15.5,14.3-16.9
				c3.8-0.7,6.7,1.1,7.1,4.5c0.5,3.2-1.6,5.6-5.3,6.2c-5.2,0.8-6,2.1-4.1,7.4c1.1-1,2-1.9,3.1-2.7c2.8-2.1,5.9-3.6,9.1-1.5
				c1.4,0.9,2.4,3.3,2.3,5c-0.1,1.1-2.2,2.2-3.6,3.1c-1,0.7-3.3,1.1-3.2,1.4c0.1,1.6,0.4,4,1.5,4.7c2,1.3,4.6,2.1,7.1,2.2
				c6.5,0.5,13,0.5,19.5,0.7c7.8,0.2,14.8,2.3,20.4,7.9c3.2-2.7,6.3-5.3,9.4-7.9c0.2,0.2,0.4,0.4,0.6,0.7c-0.4,2.3-0.8,4.6-1.3,7.4
				c1.9-0.7,3.3-1.1,5.3-1.8c-0.6,1.6-1,2.7-1.5,4.1c1.3-0.2,2.3-0.4,3.3-0.7c0.1,0.2,0.3,0.5,0.2,0.7c-2.1,6.5-1.8,6.9,5.1,6.9
				c9.4,0,18.9,0.1,28.3,0.1c1.4,0,3,0.2,4.1-0.5c1.2-0.7,2.9-2.5,2.7-3.5c-0.3-1.7-1.7-3.6-3.1-4.6c-1-0.7-3.7-0.5-4.4,0.4
				c-2.7,3.2,1.5,2.8,2.8,4.2c-2.5,2.5-5.1,2.6-8,0.9c-2.8-1.7-3.7-4.3-3-7.2c1.5-5.7,6.1-7,11.5-7.1c-0.6-4.1-3-6.5-6.1-8.4
				c-5.4-3.4-11.5-4.2-17.6-4.2c-6.7,0-13.5,0.7-20.2,1.1c-1.4,0.1-2.7,0.3-4.1,0.1c9.4-3.4,19-5.4,29-4c4.7,0.7,9.6,1.8,13.7,4.1
				c3.3,1.8,6.2,5.3,7.9,8.7c1.4,2.8,2.5,5,5.4,6.1c1.2-6.5-3.1-14.4-10.1-18.4c-9.6-5.5-19.9-5.7-30.4-3.6
				c-10.1,2.1-20,4.9-30.2,6.8c-5.1,0.9-10.4,1.1-15.5,0.4c-10.8-1.3-14.9-12-8.2-20.4c4.2-5.2,9.7-8.2,16.6-7.9
				c4,0.2,6.7,2.2,8.1,5.9c1.5,3.8,1.3,7.6-1.5,10.8c-2.7,3-6.3,4.1-10.1,3c-1.7-0.5-3.7-2.6-4.1-4.3c-0.4-1.9,1-4.1,2.2-6
				c0.1,4.6,1.9,7.3,5,6.3c1.6-0.5,3.7-2.5,3.8-3.9c0.1-1.7-1.4-4.2-2.9-5.1c-3.2-1.8-6.8-1.1-9.7,1.2c-2.9,2.3-4.7,5.4-4,9.3
				c0.8,4.2,4.3,5.5,7.7,5.5c5.8,0.1,11.7-0.1,17.4-1.1c10.2-1.7,20.2-4.4,30.3-6c9.2-1.5,18.4-0.3,26.6,4.5
				c9.5,5.6,14.3,13.8,13.1,25.1c-0.2,1.8,0.1,3.8,0.5,5.6c1,5.1-0.1,9.6-3.2,13.7c-2.2,2.9-5.2,4.2-9,4.2c-13-0.1-26-0.2-39,0.1
				c-12.6,0.3-19.5,9.2-17,21.2c1.2,5.7,4.6,9.6,10.2,10.6c6.8,1.2,13.9,1.7,20.8,2.2c5.3,0.4,10.7,0.3,16,0.3c3,0,3.6,1.2,2.9,3.8
				c-0.3,1.1-0.7,2.2-1.3,3.2c-3.2,5.3-8.2,8.1-13.9,10.4c0.5-4,0.9-7.6,1.3-11.2c-0.4-0.1-0.8-0.2-1.1-0.4
				c-5.2,6.2-11.9,9.5-19.9,10.5c1.7-3.5,3.3-6.7,4.9-10c-0.2-0.2-0.5-0.4-0.7-0.6c-7.7,5.8-16.4,8.7-26.4,9.2
				c1.9-2.1,3.7-3.6,4.9-5.5c2.4-3.5,2.2-7.7-0.3-9.4c-3.3-2.3-6.2-0.4-8.5,1.8c-1.9,1.8-3.7,3.9-5.1,6.1
				c-7.8,12.7-19.2,18.4-34.5,18.6c6-4.8,11.3-9.6,13.5-17.7c-8.7,3.6-16.4,8.9-26.6,7.2c6-4.8,8.9-10.8,10.6-17.5
				c-6.2,0-12.2,0-18.2,0c6.7-7,13.3-13.9,19.9-20.8c-10.7-1.3-20.3,0.2-28.8,6.6C209.4,221.1,209.1,220.7,208.8,220.4z M288.2,206
				c-4.9-1.8-9.7-3.4-14.4-5.4c-5.1-2.1-10-2.4-15.9-0.3c5.8,2.5,11.2,4.2,15.5,10c-12-2.5-21.3-0.3-28.1,10.2
				c10.4-3.2,19.4,1.4,28.9,2.3c-3.8,1.5-7.8,2.4-11.5,3.7c-4,1.4-6.6,4.3-7.8,8.7c5.6-4.8,12-4.3,18.6-3.6c2.6,0.3,5.3,0.2,8-0.2
				c2.4-0.3,4.1-1.9,3.4-4.5C283.1,219.2,283.7,212,288.2,206z M301.5,192.6c-0.1-2.8-2.9-5.3-6-5.2c-2.7,0-4.8,2.6-4.5,5.5
				c0.3,3.1,1.8,4.9,5.2,4.9C299.4,197.7,301.6,195.6,301.5,192.6z"/>
			<path class="st1" d="M144.5,354.3c-2,0.2-3.5,0.6-4.8,0.3c-3.8-0.8-7.6-1.9-11.4-2.9c-2.8-0.7-3.6-2.5-3.1-5.2
				c0.5-2.7,0.9-5.5,0.9-8.3c-6,5.8-5.8,13.3-5.4,21.2c-3.4-1.7-5.3-4.5-5.9-7.8c-0.6-3.2-0.3-6.5-0.6-9.7c-0.3-4.1,2.7-5.8,6.5-7.8
				c-1.4-0.2-1.7-0.3-2-0.3c-2.3,0.2-5.9-0.4-6.7,0.9c-1.8,2.7-2.5,6.3-3.1,9.7c-0.4,2.2,0.1,4.5,0.3,7c-6.4-7.4-6.1-19.5,0.5-25.8
				c0.9-0.8,2.7-1,4.1-0.9c1.6,0.1,3.1,1,5,0.7c-3-1.8-5.8-3.8-8.9-5.4c-0.8-0.4-2.8,0.2-3.4,1c-2.2,2.7-4,5.8-6.7,9.8
				c-0.1-3.1-0.9-5.5-0.2-7.3c1.3-3.8,3-7.6,5.2-10.9c2.5-3.8,6.8-3.4,10-0.1c2.4,2.5,5.5,4.4,8.4,6.6c0.4-0.3,0.9-0.5,1.3-0.8
				c0.3-4.2,0.8-8.5,0.8-12.7c0-13.2,3.3-25.4,9.3-37c3-5.7,6.6-6.6,11.5-2.3c2.6,2.3,5,5.1,7,8c6.8,10,15.7,14.6,27.8,11.8
				c1.8-0.4,3.8-0.5,5.7-0.6c9.3-0.3,16.4,5.1,18.1,13.6c1.8,9.1-2.6,17.5-11.3,20.5c-9.1,3.2-17.8,2.4-25.7-3.6
				c-1-0.8-2-1.6-3.1-2.3c-3.9-2.8-8.3-5.2-11.7-8.6c-3.4-3.3-5.9-7.6-9.2-12.1c-4.2,8.1-6,16.6-6.2,25.4c0.5,0.3,1,0.7,1.5,1
				c1.8-2.1,3.4-4.4,5.3-6.4c2.2-2.3,8.1-3,10.3-1c3.8,3.4,7.2,5.9,4.6,11c-4.7-4.5-7.1-4.7-12.5-0.8c-7.1,5.2-10.5,13-13.3,20.9
				c-0.4,1.2,0.6,3.6,1.7,4.5C137.9,350.1,141,351.9,144.5,354.3z M192.9,308.4c-4.4,4.3-8.8,5-13.4,4.2c-4.4-0.7-8.6-2.1-12.9-3.2
				c7.4,5.4,15.3,8.7,24.5,5.8c6.2-2,9.7-8.1,8.7-14.4c-0.9-5.9-5.9-9.9-12.5-10c-2.4,0-4.8,0.4-7.2,0.4c-3.9,0-7.9,0.3-11.8-0.2
				c-6.2-0.7-10.8-4.4-14.9-8.9c2.7,7.2,7.7,11.5,15.4,12.3c3.3,0.3,6.6,0,9.9,0.1c2.9,0.1,6-0.3,8.7,0.7c2,0.8,4.3,3,5,5
				c0.9,2.9-1.9,4.6-4.3,5.3c-2.6,0.8-5.4,1-8.5,1.6C183.5,310,187.7,309.4,192.9,308.4z"/>
			<path class="st1" d="M346.5,228.3c13.3,5.6,24.9,0.5,36.6-4.8c8.3-3.8,16.7-7,25.9-7.5c22.8-1.2,41.1,15.1,43.3,38.4
				c0.8,8.3,0.1,16.3-4,23.7c-8.4,15.5-32.9,18.2-43.2,4.5c-5.9-7.8-6.4-16.5-2.1-25.2c3.5-7.1,12.2-10.5,19.5-8
				c4.1,1.4,5.8,3.7,5.8,7.9c-1.2-0.4-2.4-0.8-3.6-1.1c-4.2-1.1-7.9,0.7-9.7,4.7c-2.7,6-0.4,14.3,4.4,16.6
				c5.5,2.5,12.8-0.7,15.8-7.1c9.6-20-3.7-42-25.7-41.4c-10.4,0.3-20.8,2.7-31.3,4.9c6.7,4.9,9.9,11.2,10.7,18.9
				c1,10.4-3.8,19-13.3,23.6c-10.2,5-22.2,3.6-29.3-3.3c-5.6-5.5-5.8-13.3-0.6-20c4.6-6,14.1-8.2,18.7-4c-1.5,0.5-2.9,0.9-4.3,1.5
				c-4.4,1.9-6.6,5.6-6.1,10.4c0.4,4.1,3.3,7.4,7.6,8.6c10.3,2.8,19.9-7.8,17.4-19.2c-1.7-8-7.5-13.3-15.7-14.6
				c-3.4-0.5-6.9-0.7-10.1-1.7c-2.7-0.9-4.9-2.9-7.4-4.4C346.2,229.3,346.3,228.8,346.5,228.3z"/>
			<path class="st1" d="M236.5,438.5c5.6-0.7,8.7-4,10.8-7.9c1.9-3.4,3.9-3.6,7.1-1.8c6.3,3.5,8.1,6.8,6.9,13
				c-2.2-0.7-4.6-2.1-6.7-1.8c-2.3,0.3-4.6,1.9-6.7,3.4c-3.6,2.6-7.6,4.8-9.5,9.4c-2.3,5.5-1.5,9.3,4.5,12.3
				c-1.9,0.6-3.2,1.2-4.5,1.3c-3.1,0.1-6.1,0-9.2-0.3c-4.1-0.4-5.7-3.8-3.6-7.4c1-1.8,2.1-3.5,3.1-5.3c0.1-0.2,0-0.5-0.1-1.1
				c-3.1,1.2-6.5,1.9-9,3.8c-1.2,0.9-0.9,3.9-0.9,6c0,1.1,1,2.3,1.6,3.4c-7.6,0.8-14.4-7.8-12.1-15.5c-1.1-0.7-2.2-1.5-3.8-2.5
				c-0.8,2.9-1.6,5.4-2.3,7.9c-5.7-3.2-7.9-10.9-4.7-16.4c1-1.7,2-3.7,4.8-2.6c0.5,0.2,2.2-1.2,2.3-2c0.6-3.1,2.6-4.1,5.5-4.2
				c2.9-0.1,5,0.8,6.5,3.6c1.4,2.4,3.7,4.4,5.5,6.5c0.4-0.4,0.9-0.7,1.3-1.1c-0.8-1-1.6-2-2.3-3c-5.3-7.1-10.3-14.3-12.2-23.1
				c-1.4-6.4-1.2-6,5-7.7c8.5-2.3,16.8-5,25.1-8c6.7-2.4,13.5-3.8,20.6-3.2c5.3,0.5,8.4,2.8,9.2,6.6c1,4.9-1.2,9.1-5.2,12.1
				c-7.5,5.6-16.3,6.1-25.1,6.7c-4.8,0.3-5.3,0.8-4.7,5.6C234.4,429.6,235.6,434,236.5,438.5z M247.9,402.4
				c-0.1,0.5-0.2,0.9-0.4,1.4c3.2,1.6,6.3,3.1,9.5,4.7c0,0.3,0.1,0.6,0.1,1c-3.6,0-7.3-0.2-10.9,0c-5,0.4-10.2,0.7-15.1,1.7
				c-3.9,0.8-5.5,3-6.2,6.2c4.1-3.9,9.2-4.7,14.3-4.9c5.2-0.2,10.4,0.1,15.7,0c4.1-0.1,7.4-1.9,9.4-5.6c2.6-4.9-0.3-9.5-5.1-9.5
				c0.6,1.2,1.8,2.8,1.8,4.3c0,0.9-2,2.1-3.3,2.4c-1.2,0.3-2.7-0.4-4.1-0.6C251.7,403.1,249.8,402.7,247.9,402.4z M216.7,443.6
				c0.2-0.2,0.4-0.4,0.6-0.6c-1.8-1.9-3.5-3.7-5.6-5.9c-0.7,1.5-1.2,2.6-1.8,3.9C212.3,441.9,214.5,442.7,216.7,443.6z"/>
			<path class="st1" d="M432.2,344.5c0.4,3.9,0.4,7.1,1,10.3c0.5,2.7,1.1,6,4.6,6.1c3.5,0.2,5.4-2.8,5.7-5.6
				c0.7-5.4,0.9-10.9,0.5-16.3c-0.7-8.1-2.2-16.2-0.3-24.3c1.7-7.5,5-14.3,9.8-20.4c-0.7,3.8-1.9,7.6-1.9,11.4
				c0.1,7.6-0.1,15.4,1.6,22.7c4.3,19.1,2.3,37.7-2.6,56.2c-3.5,13-8.3,25.4-14.8,37.1c-0.6,1.1-1.4,2.4-2.4,2.7
				c-5.8,1.8-11.6,3.4-17.8,5.2c-5.3-17.4-4.4-34.8,3.3-52c0.1,0.9,0.2,1.8,0.4,2.6c0.7,2.7,1.2,5.5,2.5,7.9
				c0.7,1.3,2.9,2.9,4.1,2.7c1.5-0.2,3.3-2,3.9-3.5c0.7-1.7,0.7-4,0.5-5.9c-0.7-6.4-1.9-12.8-2.6-19.3
				C427.2,356.2,428.3,350.3,432.2,344.5z"/>
			<path class="st1" d="M391,303.5c-1.8,0.7-3.7,1.6-5.6,2.4c1.4,2,2.5,4.5,4.3,5.9c4.1,3.1,8.7,5.8,13.1,8.6
				c11.1,7.1,15.3,17.6,12.4,31c-0.9-1.8-1.6-3.7-2.7-5.1c-0.8-1-2.2-1.9-3.4-1.8c-0.7,0-1.9,1.7-2,2.8c-0.3,3.4-0.6,6.9-0.2,10.2
				c1.1,10.6,1.6,21.2-3.7,31c-2.2,4.1-5.2,7.7-7.9,11.5c-0.4-0.2-0.8-0.3-1.1-0.5c0-2.5,0-5,0-7.5c-0.3-0.1-0.7-0.2-1-0.3
				c-1.2,1.9-2.4,3.7-3.5,5.6c-3,4.9-5.7,10-9,14.6c-3.8,5.2-8.8,8.2-15.5,10.4c1.4-2.4,2.8-4.5,4-6.8c0.4-0.8,0.1-1.9,0.2-2.9
				c-1.1,0-2.4-0.5-3.2,0c-4.2,2.6-8.6,5.1-12.2,8.4c-6.4,5.8-13.7,7.9-22.3,7.3c0.5-1.3,0.9-2.4,1.8-4.4c-3.2,0.3-5.8,0.2-8.2,0.9
				c-7.9,2-15.7,4.1-24.5,2.6c4.5-3.4,8.2-6.3,14.4-6.4c23.2-0.5,45-6.4,63.3-21.2c20.4-16.5,26.5-38.8,22.1-63.8
				c-2.5-14.2-13.4-22-26.1-27.2c-13.8-5.7-28.4-6.7-43.1-6.6c-2.1,0-4.3,0-6.5-0.4c11.6-6.7,24.2-9.9,37.9-9.8
				c-0.8,0.6-1.8,1.1-2.4,1.9c-0.8,1.2-1.3,2.5-1.9,3.8c1.4,0.4,2.8,1.1,4.1,1c2-0.1,4-0.8,6-1.2C376.1,295.8,385.3,298.4,391,303.5
				z"/>
			<path class="st1" d="M313.6,379.1c-1.7-2.8-2.6-6.3-4.9-7.7c-4.7-3-10.1-5.2-15.9-4.1c-5,1-6.4,4.7-4.1,9.1
				c0.3,0.6,0.6,1.3,0.4,2.8c-2.6-1.1-5.9-1.6-7.6-3.5c-1.7-1.9-1.7-5.2-2.4-7.6c1.8-1.4,3.2-2.5,4.7-3.6c-0.2-0.2-0.3-0.4-0.5-0.7
				c-4.4,0.6-8.8,1.3-13.6,2c2.9,4.1,5.3,8.2,4,13.4c-7-2.7-13.8-5.3-20.6-8.1c-0.8-0.3-1.6-1.6-1.8-2.6c-1.5-6.1-2.9-12.3-4.4-19
				c1.2,0.1,2.6,0.2,4,0.4c11.8,1.6,23.6,3.7,35.7,2.5c2.4-0.2,4-0.8,4.8-3.4c1.7-5.7,5.8-8,11.9-6.7c1.2,0.3,2.5,0.8,3.7,0.9
				c2.6,0.2,6.5-1,7.6,0.3c3.5,3.9,6.3,8.6,8.5,13.4c0.8,1.8-0.8,4.7-1.5,7c-0.6,2.1-2.1,4.2-2.2,6.3
				C319.4,374.4,316.8,378.3,313.6,379.1z M314.1,353.3c-0.3-0.6-0.5-1.2-0.8-1.8c-5.3-2.1-6.1,4.5-9.8,5.4c0.2,0.5,0.5,0.9,0.7,1.4
				C307.6,356.7,310.8,355,314.1,353.3z M305.1,348.8c-5.6-2.3-7.7-0.8-7.4,5.2C300.2,352.3,302.3,350.7,305.1,348.8z M317.3,364.1
				c0-0.5,0.1-1.1,0.1-1.6c-2.7,0-5.4,0-8.1,0c0,0.4,0,0.8,0,1.1C312,363.8,314.7,363.9,317.3,364.1z"/>
			<path class="st1" d="M164.5,191.1c3.3-6.7,6-13.3,9.8-19.3c5.7-8.9,13.9-14.5,24.8-15c6.7-0.3,12.4,2.1,15.5,8.4
				c3.1,6.4,1.6,12.5-2.8,17.8c-4.6,5.6-10.6,8.3-18,6.6c-5.3-1.3-8.4-6.5-7.1-11.4c1.4-5.4,7.5-9.4,12.6-8.1
				c1.3,0.3,2.4,1.7,3.6,2.5c-0.2,0.4-0.3,0.8-0.5,1.1c-1.1,0-2.1-0.1-3.2,0c-2.5,0.3-4.6,1.4-4.5,4.2c0.1,2.7,2,3.9,4.6,4.2
				c4.9,0.5,8.5-2.3,9.1-7.1c0.7-5.5-2.4-9.9-7.6-10.4c-5.6-0.5-10.8,1.2-14.6,5.3c-2.9,3.1-5.3,6.8-7.2,10.7
				c-2.8,5.7-5,11.7-7.2,17.7c-6.6,17.5-16.7,23.6-36.5,21c3.7-0.8,6.5-0.9,9-2c4.7-2,9.6-4,13.7-7c4.1-3,4.7-8.4,2.6-12.4
				c-2.5-4.9-7.6-5.4-11.4-1.2c0.2,0.2,0.3,0.4,0.5,0.5c1.9,0.9,4.2,1.5,5.5,2.9c0.7,0.7,0,4-1,4.6c-1.8,1.1-4.6,2-6.6,1.5
				c-6.1-1.7-7.4-10.1-2.6-15c3.9-4,11.1-4.9,16.3-2C162.5,189.8,163.5,190.5,164.5,191.1z"/>
			<path class="st1" d="M328.1,451.9c1.5,3.9,0.1,6.2-2.7,7.9c-5.2,3.1-13.5,0.8-16.5-4.5c-2.4-4.2-1.3-9,2.7-12.2
				c7.3-5.8,22.9-5.9,30.3-0.3c8.7,6.6,7.7,19.3-1.9,26c-5.3,3.6-11.4,4.3-17.5,4.2c-10.3-0.2-19.8-3-28.5-8.5
				c-4.2-2.6-8.4-5.5-13.1-7c-4.1-1.3-8.8-1.9-13-1.2c-6.5,1-8.1,6.9-3.1,11.1c3,2.5,7,3.9,10.7,5.2c2,0.7,4.5,0.3,7,1.3
				c-2,0.6-3.9,1.4-5.9,1.6c-6.6,0.7-12.7-0.5-17.6-5.4c-6.2-6.2-4.7-15.6,3.2-19.4c7.4-3.5,14.9-3.2,22.1,0.4
				c5.7,2.8,11,6.4,16.6,9.5c8.9,4.9,18.4,5.7,28.1,3.5c4.5-1,8.2-3.5,9.6-8.3c1.3-4.5-0.3-8.3-4.5-10.2c-4.9-2.2-10.1-2.7-15.2-0.5
				c-2.7,1.2-5.2,2.7-5,6c0.1,3.2,2.7,4.5,5.4,5.1c3.1,0.8,6.1,0.7,7.8-2.8C327.4,453.1,327.6,452.8,328.1,451.9z"/>
			<path class="st1" d="M262.1,262.2c0.7-0.4,1.5-1.1,2.3-1.1c3.3,0.3,5.7-0.4,7-4.1c0.3-0.9,3.3-1.5,5-1.3c3.8,0.3,7.1,1,11.2-0.6
				c8.2-3.3,16.4,1.4,18.7,9.9c-5.9-3.3-11.7-4.3-17.8-2.3c3,1,6.2,1.2,8.4,2.8c2.9,2.1,3.5,6.8,3,13.2c-1.1-1.7-1.8-2.8-2.6-4
				c-3.5-5-6.9-5.1-11-0.9c-2.2,2.2-5.3,3.6-7.5,5.7c-5.8,5.5-8.7,5.9-2.5,14.1c-4-0.8-8-1.5-11.9-2.6c-1.3-0.4-3-2.2-3-3.3
				c0.1-1.4,1.7-2.7,2.8-4c0.4-0.5,1.1-0.7,1.8-1.1c-4.9-0.1-6.9,0.9-8.5,5c-1.3,3.5-3,3.9-6.3,2.6c-4.9-2-10-3.5-15.2-5.3
				c5.6-4.7,10.3-9.2,15.7-12.8c1.9-1.3,5.3-0.7,7.9-0.4c4.2,0.6,4.4,0.6,3.9-3.7C263.1,266.3,262.6,264.3,262.1,262.2z"/>
			<path class="st1" d="M130.9,239.3c2.9,4,1.6,6.7-0.7,9.2c-2.9,3.1-7,3.6-10.4,1.5c-6.5-3.9-7.6-13.1-2.4-19
				c5.7-6.4,15.8-8.1,22.2-3.8c6.8,4.6,9.1,14.5,4.8,22.2c-1.7,3.1-4.1,5.8-6.6,8.3c-2.4,2.4-5.1,4.7-8,6.5
				c-11.3,7.2-17.9,16.8-16.6,31c-3.2-5.1-3.6-10.6-2.3-16.2c1.9-8.4,7.4-14.3,13.7-19.7c3.7-3.3,7.6-6.4,10.9-10.1
				c3.5-3.9,3-9.8-0.6-13.6c-2.2-2.4-5.2-3.6-7.9-2c-2.1,1.3-4,3.7-5,6.1c-1,2.5,0.1,5.2,3.1,5.9c3,0.7,4.4-1.3,5.1-3.9
				C130.4,241.3,130.5,240.7,130.9,239.3z"/>
			<path class="st1" d="M352.8,437.5c2.4,2.1,3.8,4.1,1.3,6.3c-2.5,2.2-5.3,1.1-6.6-1.1c-1.2-2.2-2-5.3-1.5-7.7
				c0.7-3.4,3.9-4.8,7.3-5.1c3.7-0.3,7.2,0.7,8.6,4.3c1.3,3.3,1.6,7,2.5,11.1c1.8-2.9,3.6-5.7,5.2-8.6c3.1-5.4,5.9-11,9.3-16.2
				c2.8-4.2,7.1-6.4,12-7.6c8.1-1.9,14.9,3,15.7,11.3c0.9,9.2-9.5,17.8-18,14.9c-3.1-1.1-5.4-3.1-5.4-6.6c0-2.8,1.4-4.8,4.4-5.3
				c2.2,4.8,4,5.8,7.6,4.5c3.2-1.2,4.8-4.4,3.9-7.7c-1-3.4-4.8-5.8-8.5-4.4c-2.8,1-5.7,3-7.6,5.4c-3.5,4.4-5.8,9.6-9.4,13.9
				c-4.9,5.9-10.5,11.4-15.9,16.9c-1.4,1.4-3.3,2.2-5.8,3.8c2.1-4.3,4.1-7.5,5.3-11c0.9-2.7,1.3-5.7,1.1-8.5
				C358.3,437.2,356.2,436.1,352.8,437.5z"/>
			<path class="st1" d="M234.2,347.9c-6.8,6.9-15,8.6-23.4,4.2c-5.4-2.8-10.4-6.5-15.1-10.3c-8-6.5-16.6-10.8-27.2-9.6
				c-3.7,0.4-7,1.6-8.8,5.1c-2.3,4.3,0.1,8.5,4.9,8.5c4.8,0.1,9-1.2,10.9-6.8c2.3,3.6,0.9,6.2-1.2,8.5c-5,5.3-14.3,5.3-19.6,0
				c-4.7-4.7-4.1-12.4,1.3-17.7c3.9-3.8,8.7-5.2,13.9-5.3c9.5-0.2,18.1,2.6,25.8,7.9c5.3,3.6,10.4,7.4,15.7,10.9
				C218.3,347.9,225.6,350.8,234.2,347.9z"/>
			<path class="st1" d="M331.5,223.2c0.6,1.6,1.3,3.5,2.4,6.5c2-1.4,3.9-2.7,5.9-4.1c0,0,0.4,0.4,0.6,0.9c2.4,5.9,1.8,7.1-4.4,7.2
				c-8.4,0.2-16.8,0-25.2-0.2c-2.6-0.1-5.3-0.7-7.9-1.3c-7-1.8-10.4-5.3-10.6-10.8c-0.3-6.8,3.8-13.1,10.1-15.1
				c2.5-0.8,5.3-1.1,7.9-1.2c12.5,0,25,0.1,37.5,0.2c0.5,0,0.9,0.2,1.9,0.3c-3,3-6.2,3.2-9.6,3c-7.1-0.5-14.2-1-21.4-1.2
				c-4.8-0.1-9.2,0.5-11.1,6.4c-0.8,2.6-3.9,4.4-6.6,7.3c0.4-3.5,0.6-5.7,0.8-8.1c-3.4,0.6-5.5,3.8-5,7.3c0.4,3.3,2.8,4.2,5.5,3.7
				c2.4-0.5,4.8-1.6,7.1-2.6c5.9-2.6,11.6-5.9,17.6-8c4.9-1.7,8-0.4,11.3,3c-6-1.8-11.1-1.1-15.7,2.3c-4.3,3.2-8.4,6.6-12.8,10
				c5.5,0,10.9,0.5,16.1-0.2C327.9,228.4,329.4,225.3,331.5,223.2z"/>
			<path class="st1" d="M140.7,366.1c-12.9,13.3-15.6,29.8-14.2,48.5c-3.8-6-5.6-11.9-6.1-18c-0.5-6.2-0.1-12.4-0.1-18.8
				c-16-6.2-19-9.1-19.3-20.1c4.9,7,11.2,10.1,18.6,10.1C126.7,367.8,133.7,366.7,140.7,366.1z"/>
			<path class="st1" d="M422.7,342.8c-1.7-11.4-3.7-22.7-9.5-32.8c-5.7-10.1-14-17.6-23.7-23.7c15.3,2.9,25.7,12.3,33.7,25.8
				c5.4-7.4,11.5-13.6,19.4-17.9C431.6,308.6,426.8,325.5,422.7,342.8z"/>
			<path class="st1" d="M364.1,180.8c-3.3-7.1-0.9-13.1,6-16.3c9.9-4.6,22.2,1.5,26,13.1c4.2,12.7-0.8,28.1-12.2,37.7
				c-4.7,4-10,6.9-16.9,8.5c3.5-2.8,6.5-4.9,9.2-7.3c8.6-7.9,14.7-17.3,14.8-29.5c0.1-8.7-4.8-15-12.7-16.8
				c-6.8-1.6-11.4,1.1-13.5,7.8C364.7,178.8,364.5,179.5,364.1,180.8z"/>
			<path class="st1" d="M192.7,202.2c-18.7,16.6-22.4,38.7-23.8,61.8c-0.4,0-0.7-0.1-1.1-0.1c-0.5-4.5-1-9-1.5-14.2
				c-2.3,1.1-4.5,2.2-7.6,3.7c1.9-13.5,8.2-24.2,16.9-33.8c-0.1-0.4-0.3-0.7-0.4-1.1c-4.3,1.1-8.6,2.1-12.7,3.1
				C164.5,213.2,181.7,201.7,192.7,202.2z"/>
			<path class="st1" d="M423.1,261c-1.8,2.8-2.8,5.3,0.1,7.1c2.9,1.8,5.2-0.2,6.8-2.3c3-3.8,3-8.4,2-12.8
				c-2.4-10.1-9.3-16.4-19.2-17.8c-7.8-1.1-15.9-0.2-24.6-0.2c1.2-0.7,1.7-1.1,2.3-1.3c9.4-2.3,18.8-3,28.3-0.2
				c14.6,4.3,22,21.8,14.6,35.1c-1.5,2.7-4.4,5-7.2,6.4c-3.7,1.8-7.6-0.9-8.9-5.3C416.2,265.4,418.2,262.1,423.1,261z"/>
			<path class="st1" d="M330.6,381c2.6-2,4.7-3.2,6.2-4.8c3.1-3.5,6.6-6.9,8.6-11c4.7-9.4,0.3-18.3-9.9-21.5c-2-0.6-4.1-1-6.6-1.6
				c7.3-2.6,15.5-0.7,20.5,4.8c5.4,5.9,7.4,12.9,4.1,20.4C349.3,376.6,340.9,379.4,330.6,381z"/>
			<path class="st1" d="M465.2,344.4c-4.8-8.6-6.9-17.1-5.7-26.3c0.6-5,1.4-10.1,2.5-15.1c2.5-11.2,1.9-22.2-1.1-33.2
				c-0.6-2.1-1-4.1-1.3-6.3c7.2,11.2,11,23.3,8.4,36.7c-1,5.1-2.3,10.2-3.2,15.3c-0.8,4.8-1.7,9.6-1.7,14.4
				C463.2,334.5,464.4,339.1,465.2,344.4z"/>
			<path class="st1" d="M180.2,430.7c-4.3-9.5-7.1-19.2-2-29.4c2-4.1,5.4-6.8,9.7-8.1c8-2.5,15.4-0.3,22.5,3.3
				C184.6,395.2,179.7,400.8,180.2,430.7z"/>
			<path class="st1" d="M114.5,258.7c-11.7,18.3-13.2,35.4,2.4,51.7c-7.3-0.9-14.5-9.1-16.8-19.2
				C97.3,278.7,102.7,266.2,114.5,258.7z"/>
			<path class="st1" d="M340.4,272c-4.2-0.4-8.2-1.1-12.2-1.1c-3.8,0-8.1,0.3-9.6,4.7c-1.5,4.3,1.7,6.7,5.1,8.9
				c-5.1,1.7-10.3-0.2-12.5-4.4c-2-3.8-0.8-8.3,3.1-11.5C321.9,262.3,334.9,264,340.4,272z"/>
			<path class="st1" d="M429.4,209.8c-8.1-3.4-16.4-4.6-25.5-3.3c5.1-8.5,5.4-17,2.6-25.8c6,2,8.2,7.1,8,19
				C420.3,201.7,426.2,203.8,429.4,209.8z"/>
			<path class="st1" d="M365.4,253.8c-1.3,1.8-3.1,3.5-3.6,5.5c-0.3,1.2,1.2,3.4,2.4,4.2c2.4,1.6,4.9,0.7,7-1.1
				c3.3-2.8,4.2-7.5,2.3-11.9c-2.4-5.5-7-8.5-12.5-10.3c-4-1.3-8-2.8-12-4.2c0.1-0.3,0.2-0.6,0.3-0.9c5.4,1.3,10.8,2.3,16,4
				c10.6,3.5,15.1,13.1,10.7,22.2c-3.1,6.5-10.9,8.6-16,4.3c-2.9-2.4-3.6-6.6-1.7-9.6C360.1,253.4,362.8,252.7,365.4,253.8z"/>
			<path class="st1" d="M302.9,449.6c-18.1-8.5-35-10.1-49.9,5.6c2-7.9,13.5-15.4,25.1-16.5C289.6,437.5,299,441.5,302.9,449.6z"/>
			<path class="st1" d="M228.3,477.2c-6.1,2.8-12.1,5.6-18.4,8.6c-0.6-6.8-1.1-12.5-1.6-18.2c6.1,2.6,12.8,5.6,19.6,8.5
				C228,476.4,228.1,476.8,228.3,477.2z"/>
			<path class="st1" d="M168.1,355.8c1.2,3.6,1.5,6.6-1.6,9.5c-1.4,1.4-1.5,4-2.4,5.9c-0.5,0.9-1.7,1.9-2.5,1.9c-4,0-8-3.4-8.7-7.3
				c-0.1-0.8,0-2,0.5-2.4C157.8,360.1,162.2,356.4,168.1,355.8z"/>
			<path class="st1" d="M382.9,337.2c-1.9-7.1-0.9-13.1,4.3-18.3c4.3,2.5,6.9,6.5,8.3,11.2c0.3,1.2-0.7,3.2-1.7,4.2
				C390.7,337.2,387,338.1,382.9,337.2z"/>
			<path class="st1" d="M169.3,465.8c6.4-2.1,11.9-4,18.5-6.2c-0.7,6.2-1.3,12-1.9,17.8c-0.6,0.2-1.1,0.4-1.7,0.6
				C179.4,474.1,174.5,470,169.3,465.8z"/>
			<path class="st1" d="M205.2,466.1c-4.2,6-9.5,9.9-15.8,12.2c0.5-6.6,0.9-13,1.4-19.6C195.2,460.9,200,463.3,205.2,466.1z"/>
			<path class="st1" d="M388.4,353.4c1-4.7,1.5-8.9,3-12.7c0.9-2.3,3.5-3.9,5.4-5.8c0.5,0.1,0.9,0.2,1.4,0.3
				c0.4,3.1,0.9,6.3,1.3,9.4c0.1,1.4,0.1,2.8-0.2,4.2c-0.5,2.3-0.7,6.1-1.9,6.5C394,356.5,390.3,355.6,388.4,353.4z"/>
			<path class="st1" d="M391,381.3c-2.5-2.1-4.5-3.3-5.9-5c-2.7-3.3-2.2-4.1,1-7c2.2-2,4.4-4.4,5.4-7.1c1.4-3.8,3.4-3.7,7.3-2.4
				C396.3,366.7,393.8,373.5,391,381.3z"/>
			<path class="st1" d="M389.7,382.9c-3.3,6.3-6.7,10.8-11.6,14c-2.7,1.8-4.9,0.4-6.3-1.4c-1.3-1.6-1.6-4-1.9-6.1
				c-0.1-0.4,1.6-1.3,2.6-1.7c4.1-1.6,8.3-3.1,12.4-4.5C386.2,382.9,387.5,383.1,389.7,382.9z"/>
			<path class="st1" d="M297.1,140.8c0.5,0.4,1,1.2,1.4,1.1c1.5-0.2,3.1-0.7,4.6-1c-0.8-1.4-1.2-3.5-2.3-4.1
				c-2.8-1.3-5.5-0.5-7.4,2.1c-2,2.8-1.8,6.3,0.6,8.7c0.8,0.8,1.7,1.4,3,2.3c-3.7,0.4-6-1-7.7-3.6c-2.6-3.9-1.3-9.1,3-12
				c4.5-3.1,10.9-2.6,13.5,1.1c1.8,2.5,2.2,5.5,0.2,7.8c-1.2,1.4-3.7,2.3-5.5,2.1c-1.6-0.2-2.9-2.2-4.4-3.5
				C296.3,141.5,296.7,141.2,297.1,140.8z"/>
			<path class="st1" d="M157.2,444.3c5.1,0.3,9.9,0.6,15.2,0.9c-0.1,5.8-3.4,10.5-7.1,15.5C160.5,456,157.7,450.8,157.2,444.3z"/>
			<path class="st1" d="M338.9,413.5c-6.6,1.1-13.1,2.3-19.8,3.4c-0.2-5.5,2.6-9.9,6.9-11.3c0.7-0.2,1.7-0.1,2.5,0.1
				c2.5,0.9,5.1,1.7,7.4,3c1.4,0.7,2.5,2.1,3.8,3.2C339.5,412.4,339.2,412.9,338.9,413.5z"/>
			<path class="st1" d="M226.5,219.1c-3.1,6.2-6.5,11.8-12.6,15.1c-2.8,1.5-4.3,0.2-5.7-1.8c-1.4-2-1.5-3.8,0.8-5.5
				C214.1,223,219.7,220.1,226.5,219.1z"/>
			<path class="st1" d="M213.2,251.8c-8,5.4-17.2,4.3-21.7-3.3c2.7-1.4,5.3-3,8.1-4c1.3-0.5,3.4-0.2,4.6,0.6
				C207.3,247.1,210.2,249.5,213.2,251.8z"/>
			<path class="st1" d="M184.9,216.7c2.3,0,4.3,0.1,6.4,0c2-0.1,4-0.5,6.1-0.7c0.5,2.1,0.9,4.1,1.6,6c0.7,1.9,1.7,3.6,2.5,5.5
				C190.9,229.5,184,225,184.9,216.7z"/>
			<path class="st1" d="M372,368.5c3-3.9,5.4-7,7.9-10.1c2.7-3.5,6.5-4,9.1-1c0.5,0.6,0.9,1.6,0.8,2.3c-0.6,5.2-8.2,11.1-13.4,10.4
				C374.7,369.9,373.2,369,372,368.5z"/>
			<path class="st1" d="M413.6,244.9c-15.3,5.6-18,17.4-17.2,31.2c-4.3-5.6-4.6-16.6-0.9-23.2C398.8,247,405.6,243.8,413.6,244.9z"
				/>
			<path class="st1" d="M380.1,372.4c1.3,3,2.3,5.3,3.4,7.9c-4.3,2.9-9.2,4.4-14.4,4.6c-3.4,0.2-5.4-1.8-5.1-5.3
				C369.4,377.1,374.6,374.8,380.1,372.4z"/>
			<path class="st1" d="M344.7,398.3c3.3,1.3,6.7,2.4,9.8,4.1c1.5,0.8,2.5,2.8,4.1,4.8c-5.7,1.8-10.5,3.3-15.1,4.8
				C340.2,407.5,340.8,402.3,344.7,398.3z"/>
			<path class="st1" d="M274.1,400.7c-2.5-3.1-4.5-5.6-6.5-8.1c-1.9-2.4-1.1-9.6,1.5-10.4c1.8-0.5,4.3,0.6,6.3,1.4
				c0.7,0.3,1.4,1.6,1.5,2.6c0.4,3.1,1.1,6.3,0.7,9.3C277.3,397.5,275.3,399.1,274.1,400.7z"/>
			<path class="st1" d="M171.6,254.8c4.9,4.5,9.2,8.4,13.8,12.6c-2.8,2.9-6.6,4.7-10.9,5.3c-0.8,0.1-2.7-1.5-2.8-2.4
				C171.4,265.7,171.6,261,171.6,254.8z"/>
			<path class="st1" d="M373.4,327.1c-1-4.1-2.2-8-3-12c-0.2-1.3,0.7-2.8,1.3-4.7c3.9,1.9,7.5,3.4,10.9,5.3c0.7,0.4,1.3,1.8,1.2,2.7
				C383.1,322.9,377.8,327,373.4,327.1z"/>
			<path class="st1" d="M185.4,352c-0.3,4.9-0.1,8.4-4.3,10.5c-1.9,1-2.8,3.7-4.2,5.6c-3.5-1.7-6.5-8.2-5.2-12
				c0.2-0.6,0.9-1.4,1.5-1.5C177,353.7,180.9,353,185.4,352z"/>
			<path class="st1" d="M239.5,380.8c0.9,2.7,2.3,5.1,2.3,7.6c0.1,4.2-5.7,8.6-10,8.1c-2.7-0.4-4.1-1.7-3.2-4.7
				C230.2,386.4,233.5,382.8,239.5,380.8z"/>
			<path class="st1" d="M372.7,355c2.9-5,5.3-9.8,8.4-13.9c1-1.3,4.2-0.9,6.3-1.3C389.4,348.7,381.6,357,372.7,355z"/>
			<path class="st1" d="M203.4,355.5c-1.5,1.4-3,2.8-4.5,4.1c-2.4,2.1-4.9,4.2-7.5,6.4c-4.3-2.2-5.9-8.2-2.9-12.3
				c0.4-0.6,1.4-1.2,2.1-1.1c4,0.3,8,0.7,12,1.2C202.8,354.4,203.1,355,203.4,355.5z"/>
			<path class="st1" d="M371.7,401.4c-2,0.9-4.7,1.9-7.3,3.2c-2.6,1.3-4.1,0.8-4.8-1.9c-0.4-1.6-1-3.2-1.2-4.8
				c-0.7-6.4,1.5-8.4,7.1-7.5C367.6,394.1,369.5,397.5,371.7,401.4z"/>
			<path class="st1" d="M183.8,272.8c10.5-10.1,11.5-8.9,19.2-3.4C200.1,276.5,190.8,278.2,183.8,272.8z"/>
			<path class="st1" d="M187.2,456.2c-6.5,2.4-12,4.4-18,6.5c2.8-6.4,5.2-11.9,7.7-17.6C179.9,448.4,183.1,451.9,187.2,456.2z"/>
			<path class="st1" d="M153.6,385.4c-3.1-0.7-6.2-1.1-9.1-2.1c-2.4-0.9-3.5-3.2-2.1-5.6c2.1-3.6,4.6-6.9,7.1-10.6
				c2.2,2.9,3.6,5.2,2.9,8.8C152,378.4,153.1,381.4,153.6,385.4z"/>
			<path class="st1" d="M316.6,501.2c-4.8,0.5-9.5,1.1-14.3,1.4c-0.8,0.1-2-1-2.4-1.8c-0.3-0.8-0.1-2.2,0.4-2.9
				c1-1.4,2.5-2.5,3.6-3.9c2.9-3.5,4.8-3.8,8.1-0.7c2,1.9,3.5,4.5,5.3,6.7C317,500.4,316.8,500.8,316.6,501.2z"/>
			<path class="st1" d="M148.7,258.4c4.4-15.4,4.4-15.4,1-33.5c5.7,3.4,7.6,8.7,7.9,14.5C158,246.8,155.6,253.3,148.7,258.4z"/>
			<path class="st1" d="M292.5,485.2c-3.2,4.3-6.1,8.2-9.2,12.5c-2.9-3.2-5.3-5.8-7.9-8.6C276,484.7,283,482.7,292.5,485.2z"/>
			<path class="st1" d="M265.3,502.7c-6-1-11.4-1.8-16.8-2.9c-0.4-0.1-0.9-3.2-0.3-3.6c2.5-1.9,5.3-3.4,8.1-4.9
				c0.5-0.3,1.5-0.1,2,0.3C261.6,494.3,264.1,497.6,265.3,502.7z"/>
			<path class="st1" d="M235.2,334c4.6-5.7,5.2-10.5,0.9-15.2c1.7-2.6,3.6-2.4,5.8-1.3c4,2.2,6.2,6.4,5.2,10.1
				C245.6,333.3,240.6,332.7,235.2,334z"/>
			<path class="st1" d="M289.7,393.8c1.2,2.8,2.3,5.3,3.3,7.4c-2.9,3-5.7,6-8.8,9.3c-2.9-1.2-3.9-4.2-3.6-7.6
				C280.9,398.3,284.9,394.5,289.7,393.8z"/>
			<path class="st1" d="M431.9,429.4c-3.4,4.5-6.8,9-10.3,13.4c-1.2,1.5-4.2,0.9-5.1-0.8c-1.7-3.3,0.3-9,3.8-10.3
				c3.5-1.3,7.2-2.3,10.8-3.4C431.4,428.7,431.7,429,431.9,429.4z"/>
			<path class="st1" d="M177.3,237.8c4.1-0.6,8.3-1.3,12.8-2c1.7,1.9,3.9,4.2,6.1,6.6C189,248.1,178.7,245.4,177.3,237.8z"/>
			<path class="st1" d="M198.3,258.6c-4.9,6.6-13.7,6.5-18.9-0.5c1.8-0.9,3.6-1.7,5.3-2.8c1.7-1.1,3.3-2.4,4.7-3.5
				C192.3,254,195.2,256.2,198.3,258.6z"/>
			<path class="st1" d="M199.8,201.7c5.6,0,11.1,0,16.6,0c-2.7,7-5.8,10-9.2,9.4C202.2,210.1,199.7,207.1,199.8,201.7z"/>
			<path class="st1" d="M378.8,328.6c3.1,8.9-1.6,17-10,17c0.3-1,0.7-1.8,0.9-2.7c0.5-3,1.3-6.1,1.4-9.1c0-2.7,0.1-4.4,3.5-4.2
				C375.8,329.6,377.2,328.9,378.8,328.6z"/>
			<path class="st1" d="M259.6,484.7c-4.1,3.1-8.2,6.1-12.7,9.4c-1.3-2.3-2.4-4.1-3.3-6c-1.3-2.8,1.9-7.3,5-6.8
				c3.6,0.6,7.1,1.5,10.7,2.3C259.4,484,259.5,484.4,259.6,484.7z"/>
			<path class="st1" d="M213.1,286c2.4,0.4,4.5,0.9,6.6,1.1c2.2,0.1,2.5,1.3,2.1,3c-0.8,4.3-6.6,8.7-11,8.3
				c-2.4-0.2-3.7-3.4-2.1-5.9C210.1,290.3,211.7,288.2,213.1,286z"/>
			<path class="st1" d="M205.9,471.5c1.1,5,1.3,10.1-1.2,15.5c-4.5-1.9-8.7-3.7-13.2-5.6C196.5,478,201.2,474.8,205.9,471.5z"/>
			<path class="st1" d="M187.1,248.8c-4.4,5.6-9.3,7.3-13.4,4.6c-1-0.6-1.8-2.4-1.7-3.5c0.4-3.4,1.4-6.7,2.4-11.5
				C177.3,244.5,180.9,248.2,187.1,248.8z"/>
			<path class="st1" d="M241.8,368.2c-2.4,4.9-0.7,12.2-10,12.6c0-4.1-0.3-8.3,0-12.4c0.2-3,2-4.3,5-2.5
				C238.3,366.7,239.8,367.3,241.8,368.2z"/>
			<path class="st1" d="M243.3,480.1c-4.1,4.7-7.9,8.6-14.1,9.8c-0.5-2.1-1.1-3.8-1.5-5.7c-0.8-3.5,3-7.6,6.6-6.8
				C237.2,478.1,239.9,479.1,243.3,480.1z"/>
			<path class="st1" d="M225,483.1c0.2,4.3,0.4,8.3,0.7,13.2c-6.5-2.7-12-5-18.3-7.6C213.5,486.7,218.7,485.1,225,483.1z"/>
			<path class="st1" d="M368.1,317.4c4.4,6.6,1.4,15.3-5.9,17.6C359.1,328.1,361.6,320.2,368.1,317.4z"/>
			<path class="st1" d="M219.3,358.9c0,4.4-3.8,3-5.7,4.3c-2.1,1.3-4,2.9-6.7,4.9c-0.9-2.3-2.2-4.4-2.5-6.6
				c-0.9-5.7,0.8-7.1,6.2-5.7c2.4,0.6,4.8,1.5,7.2,2.3C218.3,358.3,218.8,358.7,219.3,358.9z"/>
			<path class="st1" d="M196.8,321.2c5.5-2.5,10.5-4.8,15.6-7.1c1.2,5.1-1.2,10-5.5,12.5C204.2,328.2,203.9,328,196.8,321.2z"/>
			<path class="st1" d="M270,415.1c1.6-5.7,2.4-10.9,7.8-14.5c0.1,1.6,0.2,2.8,0.2,4c0.1,3.4,1.4,6,4.3,8c1.1,0.7,1.6,2.1,2.4,3.3
				c-0.3,0.3-0.6,0.6-0.8,0.9C279.5,416.3,275,415.7,270,415.1z"/>
			<path class="st1" d="M192.2,231.4c3.5,0,6.8-0.1,10.1,0.1c0.8,0,1.8,0.7,2.4,1.4c1.8,2.1,3.4,4.4,5,6.6
				C204,243.6,194.2,239.5,192.2,231.4z"/>
			<path class="st1" d="M206.8,290.5c-5.2-3.3-9.6-6.2-14.2-9.2c1.5-2.7,4.2-3.5,7.4-2.7c3.2,0.8,6.4,1.8,10.6,3
				C209.5,284.5,208.1,287.6,206.8,290.5z"/>
			<path class="st1" d="M218.7,311.2c0.2-3.7,0.5-7.5,0.8-12.4c2-0.3,5.2-0.8,8.3-0.9c0.5,0,1.5,2.1,1.6,3.2
				C229.6,306.6,224.1,311.2,218.7,311.2z"/>
			<path class="st1" d="M339,481.9c-0.2-5.4,2.2-7.4,13.3-9.9c-1.1,4.5-2,8.7-3.1,13C345.4,483.8,342.3,482.9,339,481.9z"/>
			<path class="st1" d="M176.6,373.6c4.1,5,7.5,9.2,11,13.4c-0.2,0.5-0.4,1-0.6,1.4c-2.7,0.5-5.9,2.1-8.1,1.2
				c-3.3-1.4-4.1-5.2-3.7-8.9C175.4,378.6,176,376.6,176.6,373.6z"/>
			<path class="st1" d="M318.1,494.2c-2.4-1.8-3.7-3-5.2-3.8c-1.5-0.9-3.2-1.4-5-2.1c-0.1-2.9,1.1-4.3,4.1-4.5
				c3.6-0.3,7.3-0.7,12.4-1.3C322.1,486.8,320.2,490.2,318.1,494.2z"/>
			<path class="st1" d="M325.6,401.3c-4.2-0.6-6.1-3.4-6.9-11.4c3-0.6,6-1.4,9.1-1.8c2-0.2,3.1,2.8,2,4.9
				C328.4,395.6,327.1,398.3,325.6,401.3z"/>
			<path class="st1" d="M228.5,493.5c4.6-2,8.2-3.5,12.4-5.3c1,3.4,2.1,7,3.4,11.5c-5.4-0.9-9.7-1.4-13.9-2.5
				C229.4,496.9,229,494.6,228.5,493.5z"/>
			<path class="st1" d="M180.8,219.6c2.4,3.4,4.1,6.4,6.4,8.9c1.9,2,1.8,3.7-0.4,4.4c-2.9,0.9-6.1,0.9-9.2,1.1
				c-0.5,0-1.6-1.8-1.4-2.4C177.6,227.4,179.3,223.3,180.8,219.6z"/>
			<path class="st1" d="M301.9,417.9c-1.2-6.1,0.8-10,4.7-12c2.7,2.7,5.3,5.1,7.7,7.6c0.5,0.5,1.2,1.5,1,2c-0.2,0.6-1.2,1.2-1.9,1.3
				C309.7,417.4,305.9,417.6,301.9,417.9z"/>
			<path class="st1" d="M347.1,304c2.8,1.4,6.9-0.3,8.1,4c1.1,3.8-1.5,9.1-5.8,11.8C348.8,314.5,343.4,310.3,347.1,304z"/>
			<path class="st1" d="M203.3,367.8c-2.8,2.7-5.6,5.4-8.3,7.9c-4.2-4.7-2-11.9,6.3-14.5c1,2.5,2,5.1,3.1,7.6
				C204,368.5,203.7,368.1,203.3,367.8z"/>
			<path class="st1" d="M354.9,398.7c-3.5-0.3-6.7-1.2-8.2-4.8c-1.4-3.4-0.7-6.4,2.1-9c2.9,1.5,5.7,3,8.5,4.5
				C356.5,392.4,355.7,395.5,354.9,398.7z"/>
			<path class="st1" d="M166.3,429.6c-3.6,3.3-7,6.4-10.3,9.4c0-5.1,0-10.6,0-16.1c0.4-0.2,0.7-0.4,1.1-0.6
				C160.1,424.7,163.1,427.1,166.3,429.6z"/>
			<path class="st1" d="M281,503.7c-3.9-0.3-6.7-0.6-9.4-0.6c-2.4-0.1-3.5-1.6-3.6-3.6c-0.1-1.4,0.4-3.2,1.3-4.1
				c4.2-4.4,5.9-4.1,8.9,1.3C279.2,498.5,279.8,500.7,281,503.7z"/>
			<path class="st1" d="M228.7,379c3.6,6.5-3.9,9.4-2.8,14.4c-0.9,0.1-1.3,0.3-1.6,0.1c-1.9-1-5-1.7-5.4-3.1
				c-0.9-3.1,0.8-6.2,3.6-8.1C224.4,381,226.5,380.2,228.7,379z"/>
			<path class="st1" d="M322.6,404c-1.2,1.3-2.4,2.9-3.9,4.2c-1.1,1-3.1,2.4-3.7,2.1c-1.6-1.1-3.4-2.8-4-4.6c-1-3.3,1.3-6.4,5.6-8.7
				C318.6,399.4,320.6,401.7,322.6,404z"/>
			<path class="st1" d="M217.5,374.6c-0.4,4.7-0.6,8.9-1.1,13.1c-0.2,1.8-1.2,3.3-3.4,2.3c-1.9-0.8-4.9-0.2-4.8-3.7
				C208.3,381.5,212,376.3,217.5,374.6z"/>
			<path class="st1" d="M316,319.8c-2.3-1.6-4.6-2.7-6-4.5c-1.3-1.6-2.5-4.4-1.9-6.1c0.5-1.5,3.5-2.6,5.5-2.9
				c1.2-0.2,3.2,1.3,3.9,2.6C319.6,312.7,318.1,316.3,316,319.8z"/>
			<path class="st1" d="M213.3,256.1c0.2,0.5,0.4,0.6,0.4,0.7c-0.5,2.7-0.1,7-1.7,7.9c-4,2.2-8.7,1.7-13-0.9
				c1.5-3.5,3.3-5.7,7.3-5.8C208.6,257.9,210.9,256.8,213.3,256.1z"/>
			<path class="st1" d="M243.1,384.4c-2.2-5.2-1.6-10.1,1.2-15.3c2.6,1.5,5.2,2.7,7.3,4.3c2.4,1.8,0.9,4-0.7,5.4
				C248.6,380.8,246,382.3,243.1,384.4z"/>
			<path class="st1" d="M304.8,441c-11.4-5.6-11.4-5.6-32.9-5.9C279.9,427.9,300.8,431.3,304.8,441z"/>
			<path class="st1" d="M254.6,375.2c4.9,1.8,8.6,3.2,12.6,4.6c-2.5,5.6-8.3,5.4-12.6,9.1C254.6,383.8,254.6,380,254.6,375.2z"/>
			<path class="st1" d="M196.6,387.1c-3.7,0.4-6.7,1-8.4-2.8c-2.1-4.7-1.5-10.1,1.6-13.3c1.9,3.1,4.2,6.2,5.8,9.6
				C196.5,382.4,196.3,384.7,196.6,387.1z"/>
			<path class="st1" d="M329,317.9c3.4,0.7,6.2,5,6,9.9c-0.2,4.8-1.7,6.2-8.3,7.2C327.5,329.2,328.3,323.5,329,317.9z"/>
			<path class="st1" d="M228.5,240c-10.8,8.8-14.3,9.6-20.3,4.7C214.1,239.5,220.9,238.3,228.5,240z"/>
			<path class="st1" d="M236.3,304.8c2.6,6.8-1.2,13.6-8.1,14.6C227.3,310.8,227.9,306.8,236.3,304.8z"/>
			<path class="st1" d="M306.8,336.2c-4.4,0.8-7.4,1.3-10.4,1.8c-2.8-4.8-2.7-9.1,1.7-13.9C300.9,328,303.6,331.7,306.8,336.2z"/>
			<path class="st1" d="M309,318.2c6.5,3,7,12.1,0.9,17.2C303.4,330,307,324.1,309,318.2z"/>
			<path class="st1" d="M226.1,323.7c-0.4,2.1-0.4,4.4-1.2,6.4c-1,2.7-3,3.9-6.1,2.8c-3.3-1.2-6.7-2-11.3-3.4
				c2.3-1.2,3.8-2.7,5.2-2.6c4.6,0.4,8.9,0,12.2-4C225.3,323.1,225.7,323.4,226.1,323.7z"/>
			<path class="st1" d="M297.9,497.1c-2.8-3.6-7-5.4-4-9.7c0.8-1.1,2.3-2.3,3.5-2.5c2.5-0.4,5.2-0.1,8.9-0.1
				C303.4,489.1,300.8,492.9,297.9,497.1z"/>
			<path class="st1" d="M205.9,371.4c0,5.8,0,11.1,0,16.2c-6.2,0.4-7.4-0.6-7.2-5.7C198.9,377.3,201,373.8,205.9,371.4z"/>
			<path class="st1" d="M352,330.8c-2.8-5.9-2.6-6.6,1.5-10.9c1.2-1.3,2.2-2.7,3.5-4.4c2.7,2.2,3.5,5.2,2.7,8.3
				C358.7,327.6,355.6,329.6,352,330.8z"/>
			<path class="st1" d="M145.9,423.1c-1.7,1.4-3.9,3.2-7.1,5.7c-1.4-7.1-2.6-13-3.8-19c0.5-0.2,1.1-0.5,1.6-0.7
				C139.6,413.5,142.5,417.9,145.9,423.1z"/>
			<path class="st1" d="M340.8,398c-0.5,1.5-0.7,2.7-1.3,3.6c-0.9,1.4-2.6,3.9-3.1,3.8c-2.5-0.9-5.3-2.1-6.7-4.1
				c-0.8-1.2,0.6-4.1,1.3-6.2c0.2-0.4,1.8-0.8,2.6-0.5C335.9,395.5,338.2,396.7,340.8,398z"/>
			<path class="st1" d="M190.3,280.3c-2.1,0.6-3.6,1.2-5.3,1.4c-2.3,0.3-4.6,0.1-6.9,0.2c-5.6,0.2-5.9-0.2-5.6-5.6
				C179.4,272.4,184.5,276.1,190.3,280.3z"/>
			<path class="st1" d="M307.6,401.4c-1.5-3.3-3.1-6.9-5.1-11.3c4.5,0,8-0.1,11.5,0.1c0.8,0,2,1.3,2,2c0.1,1-0.4,2.4-1.2,3.1
				C312.8,397.3,310.5,399,307.6,401.4z"/>
			<path class="st1" d="M154.9,409.1c-4.8-1.9-7.3-4.8-7.1-8.6c0-0.8,0.2-1.9,0.7-2.4c1.8-1.6,9.1-0.1,10.1,2.2
				c0.3,0.7,0.2,1.9-0.2,2.7C157.4,405.1,156.1,407,154.9,409.1z"/>
			<path class="st1" d="M349,491.8c-3.9,0.9-7.9,1.9-11.8,2.7c-0.8,0.2-1.8-0.6-2.6-0.9c0.9-2.5,1.7-5.1,2.9-7.5
				c0.4-0.7,2.3-1.3,3-1c3.2,1.5,6.1,3.5,9.2,5.3C349.5,490.9,349.3,491.3,349,491.8z"/>
			<path class="st1" d="M361.9,359.2c2.9-0.9,5.2-2,7.7-2.2c2.1-0.1,4.3,1,6.5,1.5c-1.8,4.7-8.4,8.3-12.4,7
				C359.7,364.3,362.5,361.3,361.9,359.2z"/>
			<path class="st1" d="M304.7,310.3c2.2,5.2,1.5,10.1-1.4,15.2c-2.2-1.9-5.5-2.1-5.4-5.9C298.1,315.1,298.8,311.2,304.7,310.3z"/>
			<path class="st1" d="M135.5,397.4c1.3-5.3,2.4-10.1,3.7-15.3c3.3,1.5,3.5,3.8,3.5,6.2c0,1.7,0.2,3.6,0.9,5.1
				c1.6,3.3,0.6,5.2-3.1,5.1C139.1,398.4,137.8,397.9,135.5,397.4z"/>
			<path class="st1" d="M259.6,489.1c3.3-7.3,8.9-4,15.1-4.1c-3.1,3.7-5.6,6.7-8.4,10C263.8,492.8,261.7,491,259.6,489.1z"/>
			<path class="st1" d="M184.3,213.4c4.4-4,8-7.2,11.8-10.7c1.3,3.5,2.3,6.1,3.4,8.9C195.1,214.1,190.6,214.8,184.3,213.4z"/>
			<path class="st1" d="M165.6,425.3c-2.7-2.1-4.6-3.6-6.4-5.2c-0.6-0.5-1.2-1.7-1-2.2c1.8-4.7,3.1-9.7,7.4-13.1
				C165.6,411.5,165.6,417.9,165.6,425.3z"/>
			<path class="st1" d="M299.4,474.3c-4.1-2.1-8.1-4.3-12.2-6.4c-3.7-1.8-7.4-3.9-11.4-5c-3.9-1.1-4.9,0.2-5.2,4.1
				c-3-2.2-2.9-5.4,0.5-6.3c2.6-0.7,6-0.5,8.4,0.6c7.1,3.4,13.8,7.5,20.7,11.3C299.9,473.2,299.6,473.7,299.4,474.3z"/>
			<path class="st1" d="M213.9,323.9c0.5-1.6,1.1-3.1,1.5-4.6c0.3-1.6,0.4-3.2,0.6-4.7c2.9-0.5,5.9-1,8.8-1.5
				C226.5,319.4,221.1,325,213.9,323.9z"/>
			<path class="st1" d="M155,374.6c2.8,0.4,5.4,0.8,7.9,1.2c0.2,0,0.6-0.1,0.7,0c3,3.2-0.9,6-0.7,9.1c0,0.2-2.3,1.1-3.2,0.8
				C156,384.4,154.2,379.9,155,374.6z"/>
			<path class="st1" d="M169.7,365.1c1.9,2.2,3.7,4.3,5.5,6.3c-1,2.9-2.1,6-3.3,9.2c-3.3-0.8-4.7-3.4-5.2-6.5
				C166,370.7,166.6,367.4,169.7,365.1z"/>
			<path class="st1" d="M413.9,441.7c-3.4,0.5-6,0.9-8.6,1.3c-2.2-6.7,3.4-9.9,5.5-14.5c0.4,0,0.9,0,1.3,0
				C412.7,432.8,413.3,437,413.9,441.7z"/>
			<path class="st1" d="M343.8,312.7c5.3,5.7,2.8,13.2-4.9,15.5C337.4,325.4,340.7,314.6,343.8,312.7z"/>
			<path class="st1" d="M327.1,316.2c-2.8-2-4.9-2.8-5.8-4.4c-1-1.8-0.9-4.3-1.3-6.4c2.9-0.4,5.7-0.9,8.6-1.1c0.3,0,1.3,1.7,1.1,2.4
				C329.1,309.5,328.2,312.4,327.1,316.2z"/>
			<path class="st1" d="M277.1,305.4c1.5,0.9,3.4,1.5,4.7,2.9c2.3,2.3,1.8,4.4-0.9,6.1c-3,1.8-6.1,3.6-10,4.8
				C272.8,314.9,274.7,310.7,277.1,305.4z"/>
			<path class="st1" d="M332.1,387.5c4.7-1.4,9.4-2.8,14-4.2c-1.1,3.4-2.3,6.8-3.6,10.6C338.7,394.7,334.2,392.3,332.1,387.5z"/>
			<path class="st1" d="M262.7,324c-1.4-2-2.7-3.8-3.9-5.4c2.1-2.9,4.2-5.9,6.7-9.2c2.1,0.8,3.3,3,3.1,5.8
				C268.4,319.2,266.7,322.5,262.7,324z"/>
			<path class="st1" d="M202.2,276.5c3-3.2,4.1-7.8,9.6-7.9c3.1-0.1,3.3,2.1,4,3.6c0.3,0.6-0.8,2.5-1.7,3.1
				C210.6,277.6,206.7,278.1,202.2,276.5z"/>
			<path class="st1" d="M368.7,334.8c0.6,5.2-1.8,9.9-6.2,11.7c-1,0.4-3.1,0.3-3.5-0.3c-0.7-1.1-1.2-3.1-0.6-4.2
				C360.1,338.4,360.3,338.5,368.7,334.8z"/>
			<path class="st1" d="M370.3,309.8c-2.9,3.2-5.2,5.7-7.6,8.4c-3.7-3.6-6.5-6.6-4.4-11.8C361.8,307.4,365.3,308.4,370.3,309.8z"/>
			<path class="st1" d="M417.9,447.5c-2.4,2.1-4.6,4.6-7.3,6.3c-1,0.7-3.7,0.4-4.4-0.5c-1-1.2-1.2-3.4-1.1-5.2
				c0-0.8,1.4-2.3,2.3-2.3c3.4-0.2,6.8,0.1,10.2,0.2C417.6,446.5,417.8,447,417.9,447.5z"/>
			<path class="st1" d="M362.2,386.8c-3-0.9-6.1-1.5-8.8-2.9c-1.2-0.6-2.4-3.8-2-4.2c1.6-1.5,2.3-4.7,6.2-3c4.6,2,3.3,6.3,5.3,9.2
				C362.6,386.2,362.4,386.5,362.2,386.8z"/>
			<path class="st1" d="M298.1,417.6c-2.9,0-5,0-7.2,0c-2.8,0-3.8-1.4-3.4-4.1c0.5-3.3,1.8-6.2,4.3-7.7c2.1,3,4.1,5.7,5.9,8.6
				C298.1,415.2,297.9,416.4,298.1,417.6z"/>
			<path class="st1" d="M357.1,372.6c1.6-1.6,3.7-4.7,4.7-4.4c3.5,1.1,8.7-1.5,10.2,4.1C366.6,376.7,361.5,377,357.1,372.6z"/>
			<path class="st1" d="M291.2,493.5c2.1,3.1,4,5.8,6.5,9.4c-4.9,0-8.8,0.3-12.6-0.1c-2.3-0.3-2-2.3-0.6-3.7
				C286.4,497.3,288.6,495.7,291.2,493.5z"/>
			<path class="st1" d="M376.6,471.6c-2.1-0.5-3.5-1-5-1.2c-1.3-0.2-2.7,0-4,0c-1.6-5.2-1.2-4.4,11.6-9.7
				C378.2,464.4,377.4,467.9,376.6,471.6z"/>
			<path class="st1" d="M188.4,367.7c-1.7,3.5-3.1,6.5-4.5,9.6c-4.6-2.1-5.6-10-1.6-13.2c1.5-1.2,2.6-1.3,3.8,0.4
				C186.8,365.7,187.7,366.8,188.4,367.7z"/>
			<path class="st1" d="M366.8,483.4c-2.5-2.2-2.5-7-0.3-9.5c1.7-1.9,6.1-0.9,10.8,3C373.7,479.1,370.3,481.2,366.8,483.4z"/>
			<path class="st1" d="M251.4,304.9c1.3-0.9,3.3-3.1,4.4-2.7c2.1,0.7,4.4,2.6,5.2,4.6c1.4,3.4-0.1,6.4-3.5,8.2
				C255.7,311.8,253.7,308.6,251.4,304.9z"/>
			<path class="st1" d="M207.4,314c1-5,1.7-8.7,2.5-12.5c0.3-0.1,1-0.4,1.5-0.3c1.7,0.3,4.8,0.5,4.9,1.1c0.3,2.1,0.2,4.9-1,6.3
				C213.5,310.8,210.6,311.9,207.4,314z"/>
			<path class="st1" d="M302.5,397.5c1,1.8,2,3.5,2.9,5.1c-2.3,2.9-4.5,5.6-6.9,8.5c-2.4-1.3-3.1-3.8-2.8-6.5
				C296.1,400.8,298.7,398.8,302.5,397.5z"/>
			<path class="st1" d="M354.6,223.3c0.5-3.2,1.2-6.4,1.5-9.7c0.3-3.2,0.1-6.5,0.1-10.3C363.6,210,362.6,219.5,354.6,223.3z"/>
			<path class="st1" d="M336.8,478.2c-1.5,4.2-2.8,8.1-4.5,12.9c-2.3-3-6.7-2.5-5.9-7C327.2,480.6,329.8,479,336.8,478.2z"/>
			<path class="st1" d="M227.3,333.5c0.4-2.7,0.7-5.2,1.2-7.6c0.2-1.3,0.3-3.1,1.2-3.7c1.2-0.9,3.9-1.6,4.4-1
				c1.1,1.3,1.7,3.4,1.6,5.1C235.5,330.1,231.7,333.2,227.3,333.5z"/>
			<path class="st1" d="M219.7,380.8c-1.2-6.7,2.9-11.9,8.7-11.6c1.4,6.3,1.1,6.9-4.4,9.4C222.6,379.1,221.3,379.9,219.7,380.8z"/>
			<path class="st1" d="M287.3,326.6c1.3,1.7,2.2,2.8,2.9,3.9c4.1,6.6,3,8.8-4.6,9.2C281.5,334.9,286.3,331.5,287.3,326.6z"/>
			<path class="st1" d="M355.1,478c-0.4-8.3-0.1-8.7,9-10.7c-0.9,3.9-1.2,7.5-2.6,10.6C361.1,478.7,357.4,478,355.1,478z"/>
			<path class="st1" d="M240.3,313.1c-0.4-3.7-1-7-1-10.3c0-1.7,1.2-3.4,2.1-5.7c3.8,2.8,4.8,6.2,4.5,9.9
				C245.7,310.5,243.4,312.4,240.3,313.1z"/>
			<path class="st1" d="M208.6,377.5c-1.7-6.4,1.8-11.8,8.8-13.4c0,2.2,0.1,4.3-0.1,6.4c-0.1,0.7-0.8,1.5-1.4,1.9
				c-1.3,0.8-2.8,1.3-4,2.1C210.8,375.3,209.9,376.4,208.6,377.5z"/>
			<path class="st1" d="M286.7,308.9c-2.4-2.1-4.5-3.9-7.1-6.2c0.6-1.7,1.3-4,2.1-6.3C288.9,297.9,291,303.6,286.7,308.9z"/>
			<path class="st1" d="M158.2,388.8c5.3,0,6.2,0.6,10.6,7.8c-2.7,0.7-5.4,2.3-7.6,1.8C158.1,397.5,157.1,392.9,158.2,388.8z"/>
			<path class="st1" d="M336.2,333.1c3.6-2.3,7.3-4.7,11.7-7.5c0,3.2,0.1,6.2-0.1,9.1c0,0.5-1.5,1.3-2.2,1.3c-3-0.3-5.9-0.9-8.9-1.4
				C336.6,334,336.4,333.6,336.2,333.1z"/>
			<path class="st1" d="M373.5,348c-1.4,4.5-4.4,6.6-8.3,7.6c-1.1,0.3-3.3-0.3-3.7-1.1c-0.8-1.7-1.2-3.5,1.2-5.1
				C366.2,347,369.5,347.5,373.5,348z"/>
			<path class="st1" d="M173.1,441.6c-5,0-9.1,0-13.8,0c3.2-3.4,5.9-6.4,9-9.7C169.8,435,171.2,437.7,173.1,441.6z"/>
			<path class="st1" d="M262.9,332.4c2.4,6.2,1.3,8-4.4,7.7c-2.8-0.1-5.6-0.3-8.4-0.5c-0.6,0-1.3-0.1-2.2-0.9
				C252.9,336.6,257.8,334.6,262.9,332.4z"/>
			<path class="st1" d="M405.6,457.7c-3.5,2.5-6.5,4.8-9.6,6.9c-0.7,0.5-1.9,0.6-2.7,0.3c-0.4-0.2-0.4-1.5-0.6-2.3
				c0-0.1,0.1-0.2,0.1-0.4C393.8,455.3,396.9,454.2,405.6,457.7z"/>
			<path class="st1" d="M277.4,331.6c1.5,2.8,3,5.4,4.7,8.5c-5.5,0-10,0-15.5,0C270.4,337.2,273.4,334.8,277.4,331.6z"/>
			<path class="st1" d="M314.9,336.1c0.9-4.4,1.8-8.4,2.6-12.3c4.1,1.7,6.9,5.8,5.7,9.6C321.7,338.1,317.3,334.8,314.9,336.1z"/>
			<path class="st1" d="M166.5,381.4c6.2,0.9,6.4,6.8,9.3,11.4c-1.8,0-4,0.6-5.5-0.1C166.5,390.6,165.2,386.3,166.5,381.4z"/>
			<path class="st1" d="M144.8,401c0.3,1.2,0.5,2.6,0.9,3.9c0.4,1.2,1,2.3,1.6,3.6c-2.9,1.9-5.8,1.7-8.4-0.3c-2.3-1.8-3-4.3-1.6-7.2
				C139.6,401,142,401,144.8,401z"/>
			<path class="st1" d="M145.2,386.9c3.3,0.3,6.3,0.6,9.5,0.9c0,2.4,0,4.6,0,6.8C147.9,396.1,144.5,393.5,145.2,386.9z"/>
			<path class="st1" d="M325.5,489.1c2.3,2.4,4.3,4.5,6.7,7c-3.6,1.2-6.6,2.3-9.8,3.2c-0.7,0.2-2.2-0.2-2.5-0.8
				c-0.4-0.8-0.4-2.3,0.1-3C321.6,493.4,323.4,491.5,325.5,489.1z"/>
			<path class="st1" d="M363.1,485.3c-2.6,1.3-5.1,2.8-7.7,3.9c-1,0.4-2.6,0.3-3.4-0.2c-0.6-0.4-0.7-2.2-0.3-3c1-2,2.6-5.3,3.8-5.3
				c2.7,0.1,5.3,2,7.9,3.1C363.3,484.3,363.2,484.8,363.1,485.3z"/>
			<path class="st1" d="M244.2,315.4c2-2.6,3.5-4.7,5.1-6.8c5.2,3.1,5.7,8.3,1.4,12.1C248.4,318.9,246.2,317.1,244.2,315.4z"/>
			<path class="st1" d="M279.9,395.5c-0.3-3.2-0.5-6.4-0.8-10.3c3.8,0.8,6.9,1.3,9.9,2.1c0.6,0.1,1.2,1.3,1.2,1.9
				c0,0.7-0.7,1.5-1.3,1.9C286.2,392.5,283.5,393.7,279.9,395.5z"/>
			<path class="st1" d="M150.2,421.5c-3.2-2.8-5.9-5.2-9.1-8c3.6-1.1,5.9-1.9,8.3-2.5c2.6-0.6,4.2,1,3.5,3.5
				c-0.4,1.3-0.9,2.6-1.3,3.9C151.3,419.1,150.9,419.8,150.2,421.5z"/>
			<path class="st1" d="M391.9,467.7c-3.7,2.5-6.8,4.6-10,6.6c-0.6,0.4-1.7,0.3-2.3-0.1c-0.4-0.2-0.7-1.4-0.5-1.9
				c0.5-1.9,1-4,2.1-5.6c0.6-0.9,2.5-1.7,3.6-1.5C386.9,465.4,388.9,466.5,391.9,467.7z"/>
			<path class="st1" d="M296.1,315.5c-0.9,4.1-1.8,8.2-2.9,12.8c-2.9-2.1-5.9-3-5.6-6.8c0.4-4.9,5.2-4,7.2-6.7
				C295.3,315,295.7,315.2,296.1,315.5z"/>
			<path class="st1" d="M241,290.4c3.7,1.5,6.9,2.3,9.4,4c1.1,0.8,1.3,3.5,1.2,5.3c-0.1,1.4-1.3,2.7-1.7,3.5
				c-2.6-2.7-5.2-5.1-7.4-7.9C241.6,294.4,241.6,292.7,241,290.4z"/>
			<path class="st1" d="M140.1,433.8c10.1,3.1,11.1,4.7,11.7,17.9C147.7,445.4,144.1,439.9,140.1,433.8z"/>
			<path class="st1" d="M236.8,290.2c3.9,4.7,2.1,10.2-3.8,12.8C230.3,297.2,230.8,295.2,236.8,290.2z"/>
			<path class="st1" d="M326.6,281.8c-3.2-0.2-5-2-4.6-4.4c0.3-1.6,2.4-3.5,4.1-4.1c4.2-1.5,12.4,0.4,16.7,3.2
				c-4.3-0.4-8.5-1-12.6-1C326,275.6,325,277.5,326.6,281.8z"/>
			<path class="st1" d="M223.6,295.1c0.5-2.5,0.8-5,1.6-7.4c0.3-1.1,1.8-2.8,2.4-2.7c1.9,0.4,3.7,1.4,5.3,2.5c0.3,0.2-0.3,2.5-1,3.1
				c-2.4,2-5.1,3.7-7.7,5.6C224,295.8,223.8,295.4,223.6,295.1z"/>
			<path class="st1" d="M293.9,398.5c-0.4-3.2-0.8-6.5-1.2-10.4c3.4,1.1,7-0.6,8.2,3.8c1.5,5.3-3.5,4.7-5.5,6.8
				C294.8,398.6,294.4,398.5,293.9,398.5z"/>
			<path class="st1" d="M340.5,311.9c-2.6-1.8-5-3.3-7.3-5.1c-0.6-0.4-1-1.5-0.8-2.2c0.1-0.5,1.1-1.2,1.8-1.2c1.5-0.1,3-0.1,4.5,0.2
				c1.7,0.3,3.3,0.8,4.9,1.2c-0.7,2.1-1.3,4.2-2.1,6.2C341.3,311.5,340.6,311.8,340.5,311.9z"/>
			<path class="st1" d="M218.8,369.7c0.9-3,1-7.5,3-8.5c2.1-1.1,5.9,1.2,8.9,1.9c0.1,0.5,0.1,1,0.2,1.5c-3.6,1.7-7.3,3.5-10.9,5.2
				C219.6,369.8,219.2,369.7,218.8,369.7z"/>
			<path class="st1" d="M224.8,282c-2.9,2.1-8.1,2.5-10.6,0.8c-1.7-1.2-1.9-2.5-0.1-3.9C218.5,275.6,219.6,275.8,224.8,282z"/>
			<path class="st1" d="M390.9,453c-0.3,3.1-0.6,6.2-0.9,9.9c-2.7-0.4-5.3-0.8-8-1.2c-0.2-6.1,5.3-6.3,7.9-9.2
				C390.3,452.7,390.6,452.9,390.9,453z"/>
			<path class="st1" d="M401.3,442.5c0,3.3,0,6.7,0,10.3c-2.4,0-4.6,0-7.1,0C393.3,447.1,398.6,445.7,401.3,442.5z"/>
			<path class="st1" d="M355,341.5c-1.7-2-4.6-4.8-4.4-5.1c1.9-2.4,4.5-4.3,7.6-7.1C359.3,334.5,358.4,337.9,355,341.5z"/>
			<path class="st1" d="M360.8,201.7c5.8-0.5,11.3-1,16.5-1.4C373.9,207,366.4,207.9,360.8,201.7z"/>
			<path class="st1" d="M243.1,390.4c2.3-3,4.6-6.1,7.5-9.9c0.9,4.1,1.5,6.8,2.3,10.1c-2.9,0.4-5.9,0.9-8.8,1.3
				C243.7,391.4,243.4,390.9,243.1,390.4z"/>
			<path class="st1" d="M207.8,215c-1.3,3.4-2.4,6.4-3.6,9.4c-0.3,0.1-0.7,0.1-1,0.2c-1.1-3-2.3-5.9-3-8.9c-0.1-0.5,1.9-2,3.1-2.1
				C204.5,213.5,205.9,214.4,207.8,215z"/>
			<path class="st1" d="M332.7,309c5.3,2.9,6.5,6.6,4.2,11.6C330,314.8,330,314.8,332.7,309z"/>
			<path class="st1" d="M268.4,300.5c5.1,3.1,5.9,6.5,3,10.6c-2-1.7-4-3.4-6.4-5.4C266.1,304.2,267.2,302.4,268.4,300.5z"/>
			<path class="st1" d="M256,320.4c4.4,3.6,4.2,5-0.5,7.2c-1.7,0.8-3.3,1.5-5.1,2.3C249.4,324.7,253,322.9,256,320.4z"/>
			<path class="st1" d="M262.8,303.5c-0.9-4.3-7.9-1.7-8-8.4c3.7,0.8,7,1.3,9.9,2.5c0.5,0.2-0.2,3.5-0.3,5.3
				C263.9,303.2,263.3,303.3,262.8,303.5z"/>
			<path class="st1" d="M321.2,314.8c4.3,2.8,5.7,5.9,4.4,11.1c-2.5-1.9-5.1-3.2-6.4-5.4C318.5,319.5,320.4,316.9,321.2,314.8z"/>
			<path class="st1" d="M280.8,332c-0.9-1.6-2.5-3.2-2.7-4.9c-0.5-4.1,3.4-4.2,6.7-6.3c-0.9,4.2-1.6,7.4-2.3,10.7
				C281.9,331.6,281.3,331.8,280.8,332z"/>
			<path class="st1" d="M205.2,152.4c7.7-2.7,14,1.6,13.8,8.1c-1.6-1.3-3.6-3.3-6-4.8C210.6,154.3,207.9,153.5,205.2,152.4z"/>
			<path class="st1" d="M347.5,218.6c2.2-3.6-1.3-9.3,5.3-10.4C354.6,213.5,353.2,216.5,347.5,218.6z"/>
			<path class="st1" d="M276.2,303c-3-2.2-5.4-3.9-8.7-6.3c4,0,7.1,0,11,0C277.8,298.8,277,300.9,276.2,303z"/>
			<path class="st1" d="M374.7,189.7c-0.5,6.6-5.5,10-12.2,8.4C366.4,195.4,370.5,192.6,374.7,189.7z"/>
			<path class="st1" d="M149.1,433.7c-2.8-1-5-1.7-6.4-2.1c2.3-2.4,4.6-4.8,7.2-7.5C149.7,427,149.4,430,149.1,433.7z"/>
			<path class="st1" d="M181.7,184.3c0.3,6.9-2.7,12.4-7.6,17C176.6,195.7,179.2,190,181.7,184.3z"/>
			<path class="st1" d="M267.8,335.3c-2.4-4.7-2.4-4.8,6.2-8.1C274,330.5,272.4,332.7,267.8,335.3z"/>
			<path class="st1" d="M306.1,292.8c3.2-0.6,6.3-1.2,10.3-2c-1.2,2.2-2.1,3.7-3.3,5.7c-2.4-0.9-4.7-1.8-7-2.6
				C306.1,293.5,306.1,293.2,306.1,292.8z"/>
			<path class="st1" d="M301.6,294.1c-1.4,6.1-2.2,6.8-6.1,5.5C296.4,294.7,297,294.2,301.6,294.1z"/>
			<path class="st1" d="M302.2,302.9c1.3-6.7,1.8-6.9,8.2-3.8C307.3,300.5,304.7,301.7,302.2,302.9z"/>
			<path class="st1" d="M340.5,288.2c7-0.9,14.2-0.7,22.3-0.2c-8.1,0.6-15.1,1-22.2,1.5C340.6,289.1,340.5,288.7,340.5,288.2z"/>
			<path class="st1" d="M325.9,292.8c-3.1,1.2-5.7,2.2-8.8,3.3C320.2,289.6,321.1,289.3,325.9,292.8z"/>
			<path class="st1" d="M299.5,304.2c-3.1,1.7-5.2,2.8-8.1,4.4c0.4-2.6,0.7-4.3,1-6.5C294.8,302.7,296.6,303.3,299.5,304.2z"/>
			<path class="st1" d="M364.1,184.6c0.5,1.7,1.7,3.5,1.4,5c-0.3,1.7-1.9,3.1-3,4.6c-0.4-0.2-0.7-0.5-1.1-0.7c0.5-2.9,1-5.7,1.6-8.6
				C363.4,184.9,363.7,184.7,364.1,184.6z"/>
			<path class="st1" d="M327.1,289c3.7-0.3,6.5-0.5,9.6-0.8C334.3,292,331.5,292.3,327.1,289z"/>
			<path class="st1" d="M263.8,391.3c-2-0.4-3.9-0.8-6.9-1.4c2.8-1.5,4.6-2.5,6.9-3.8C263.8,387.9,263.8,389.3,263.8,391.3z"/>
			<path class="st1" d="M294.5,294.7c-1.2,2.1-1.9,3.4-2.9,5.1c-1.3-1.6-2.2-2.7-3.5-4.3C290.4,295.2,292,295,294.5,294.7z"/>
		</g>
		<path class="st3" d="M302.1,192.5c0.1,3.4-2.5,5.8-6.2,5.9c-3.8,0.1-5.6-2.1-5.9-5.6c-0.3-3.4,2.2-6.3,5.2-6.3
			C298.8,186.4,302,189.3,302.1,192.5z"/>
		<path class="st4" d="M297.5,192.1c0,1-0.7,1.7-1.8,1.7c-1.1,0-1.6-0.6-1.7-1.6c-0.1-1,0.6-1.8,1.5-1.8
			C296.5,190.4,297.5,191.2,297.5,192.1z"/>
	</g>
	<g>
		<path class="st5" d="M132.6,90c-0.1-0.1-0.2-0.3-0.3-0.6c-0.1-0.3-0.2-0.5-0.3-0.8c-0.1-0.3-0.2-0.6-0.2-0.8
			c-0.1-0.3-0.1-0.5-0.2-0.7L124,56.7c0-0.1,0-0.2,0.1-0.4c0-0.1,0.1-0.2,0.2-0.3c0.1-0.1,0.2-0.2,0.4-0.3l0.3-0.2
			c0.3-0.2,0.5-0.3,0.8-0.3c0.3,0,0.5,0,0.7,0.1c0.2,0.1,0.4,0.2,0.6,0.4c0.2,0.2,0.3,0.4,0.5,0.6c0.1,0.2,0.2,0.4,0.3,0.7
			c0.1,0.2,0.2,0.5,0.3,0.7c0.1,0.2,0.2,0.5,0.2,0.7c0.1,0.2,0.1,0.4,0.1,0.5l4.3,16.1l1.7-1.3c1.8-1.7,3.6-3.4,5.4-5.2
			c1.8-1.8,3.6-3.5,5.4-5.2c0.2-0.3,0.2-0.6,0.2-1.1s-0.1-1-0.3-1.7c-0.2-0.7-0.4-1.5-0.7-2.4c-0.3-0.9-0.5-1.9-0.8-3l-0.4-1.6
			c-0.2-0.7-0.5-1.5-0.7-2.2c-0.3-0.8-0.5-1.5-0.6-2.1c-0.1-0.7-0.2-1.3-0.1-1.8c0.1-0.5,0.4-0.9,0.8-1.2c0.7-0.4,1.3-0.5,1.9-0.3
			c0.6,0.2,1.1,0.6,1.5,1.2c0.2,0.4,0.5,1.2,0.8,2.3c0.3,1.1,0.6,2.5,0.9,4.1c0.1,0.6,0.3,1.2,0.4,1.9c0.1,0.6,0.3,1.3,0.4,1.8
			c0.1,0.6,0.3,1.1,0.4,1.6s0.3,0.8,0.4,1.1c0.1,0.2,0.3,0.4,0.5,0.6s0.4,0.4,0.5,0.7c0.3,0.6,0.5,1.2,0.4,1.7s-0.3,1.2-0.6,1.9
			c0,0.1,0.1,0.3,0.2,0.5c0.1,0.2,0.2,0.5,0.2,0.8l0.3,1.1c0.2,0.8,0.5,1.6,0.8,2.4c0.3,0.8,0.6,1.5,0.9,2.3
			c0.3,0.8,0.6,1.5,0.9,2.3s0.6,1.5,0.8,2.3c0.1,0.3,0.1,0.6,0.1,0.9c0,0.3-0.1,0.6-0.3,0.8c-0.1,0.3-0.3,0.5-0.5,0.7
			c-0.2,0.2-0.4,0.4-0.6,0.5c-0.3,0.2-0.6,0.3-0.9,0.2c-0.3,0-0.5-0.1-0.8-0.2c-0.2-0.1-0.4-0.3-0.6-0.5c-0.2-0.2-0.3-0.3-0.4-0.5
			c-0.1-0.2-0.2-0.4-0.4-0.8c-0.2-0.4-0.4-0.8-0.6-1.4c-0.2-0.5-0.4-1.1-0.7-1.7c-0.2-0.6-0.5-1.2-0.7-1.9c-0.5-1.5-1.1-3.1-1.7-4.8
			l-0.1,0.1c-0.3,0.2-0.7,0.5-1,0.8c-0.3,0.3-0.7,0.7-1.2,1.1c-0.2,0.2-0.5,0.5-0.9,1c-0.4,0.4-0.9,0.9-1.4,1.4
			c-0.5,0.5-1.1,1.1-1.7,1.7c-0.6,0.6-1.2,1.2-1.8,1.9l-4.4,4.6c0.1,0.6,0.2,1.3,0.3,2c0.1,0.7,0.3,1.4,0.5,2.1
			c0.2,0.7,0.4,1.4,0.6,2.1c0.2,0.7,0.4,1.3,0.6,1.9c0,0.2,0.1,0.4,0,0.6c0,0.2-0.1,0.5-0.1,0.7c-0.1,0.2-0.2,0.5-0.3,0.6
			c-0.1,0.2-0.3,0.3-0.4,0.4c-0.3,0.2-0.6,0.3-0.8,0.2c-0.3,0-0.5-0.1-0.7-0.2c-0.2-0.1-0.5-0.3-0.6-0.5S132.8,90.2,132.6,90z"/>
		<path class="st5" d="M186.5,63.2c-0.3,0.1-0.6,0.2-0.8,0.2c-0.3,0-0.5-0.1-0.7-0.2c-0.2-0.1-0.4-0.3-0.6-0.5
			c-0.2-0.2-0.3-0.4-0.4-0.7c-0.1-0.2-0.2-0.5-0.2-0.9s-0.1-0.9-0.1-1.4c0-0.5,0-1.1,0-1.7c0-0.6,0-1.1,0-1.7s0-1,0-1.5
			s-0.1-0.8-0.1-1c-0.1-0.3-0.1-0.6-0.2-1c-0.1-0.4-0.1-0.8-0.2-1.2c-0.1-0.5-0.1-0.9-0.2-1.4s-0.2-1-0.3-1.5
			c-0.2,0.1-0.4,0.3-0.7,0.4c-0.3,0.2-0.6,0.3-0.9,0.5c-0.4,0.2-0.9,0.5-1.3,0.8c-0.4,0.3-0.8,0.6-1.2,0.9c-0.4,0.3-0.9,0.6-1.3,0.9
			c-0.4,0.3-0.9,0.7-1.4,1c-0.8,0.5-1.5,1.1-2.2,1.7c-0.7,0.6-1.6,1-2.5,1.4c-0.3,0.1-0.6,0.2-0.9,0.1s-0.6,0-0.9,0
			c-0.1,0.6-0.2,1.1-0.2,1.8c0,0.6,0,1.2,0,1.8c0,0.6,0.1,1.2,0.1,1.8c0.1,0.6,0.1,1.1,0.2,1.6c0,0.3,0.1,0.6,0.2,1
			c0.1,0.4,0.2,0.8,0.4,1.3c0.1,0.4,0.3,0.8,0.4,1.2c0.1,0.4,0.2,0.7,0.3,0.9c0,0.2,0,0.5,0,0.7c0,0.3-0.1,0.5-0.2,0.7
			c-0.1,0.2-0.3,0.5-0.4,0.7c-0.2,0.2-0.4,0.3-0.6,0.4c-0.4,0.2-0.8,0.2-1.1,0.1c-0.3-0.1-0.7-0.3-0.9-0.6c-0.3-0.3-0.5-0.6-0.8-1
			c-0.2-0.4-0.4-0.7-0.5-1.1c-0.4-0.8-0.6-1.8-0.8-2.8c-0.2-1-0.3-2-0.3-3.1c0-1.1,0-2.2,0-3.3c0.1-1.1,0.2-2.3,0.3-3.5
			c0.1-1,0.3-2.3,0.5-3.6c0.2-1.4,0.5-2.9,0.8-4.4c0.3-1.5,0.8-3,1.3-4.6c0.5-1.5,1.1-3,1.8-4.3c0.7-1.3,1.5-2.5,2.3-3.5
			c0.9-1,1.9-1.7,3-2.2c1.1-0.5,2.2-0.7,3.1-0.6c0.9,0.1,1.8,0.4,2.5,0.9c0.8,0.5,1.4,1.2,2,2.1c0.6,0.9,1.1,1.8,1.5,2.9
			c0.4,0.9,0.7,1.9,1,2.9c0.3,1,0.6,2.1,0.8,3.1c0.2,1,0.4,2,0.6,3s0.3,1.8,0.5,2.6l0.5,3.1c0,0.1,0,0.3,0.1,0.6
			c0,0.3,0.1,0.6,0.1,1c0,0.4,0.1,0.8,0.1,1.3c0,0.5,0.1,0.9,0.1,1.4c0,0.5,0,0.9,0,1.3c0,0.4,0,0.7,0,1l0,0
			c0.1,0.4,0.1,0.8,0.2,1.2c0,0.4,0,0.8,0,1.2c-0.1,0.4-0.2,0.7-0.4,1C187.4,62.7,187,63,186.5,63.2z M176.6,36.8
			c-0.6,0.3-1.2,0.7-1.7,1.2c-0.5,0.5-1,1.1-1.4,1.8c-0.4,0.7-0.8,1.4-1.1,2.2c-0.3,0.8-0.6,1.6-0.9,2.4s-0.5,1.6-0.7,2.4
			c-0.2,0.8-0.4,1.5-0.5,2.1c0,0.1,0,0.2-0.1,0.4s-0.1,0.4-0.1,0.5c0,0.2,0,0.4,0,0.6s0,0.4,0,0.6l2.1-0.9c0.8-0.3,1.6-0.8,2.6-1.3
			c0.9-0.5,1.9-1.1,2.8-1.6c0.9-0.6,1.7-1.1,2.5-1.6c0.7-0.5,1.3-0.9,1.7-1.1c0-0.2-0.1-0.5-0.2-0.8c-0.1-0.3-0.2-0.7-0.3-1.1
			s-0.3-0.8-0.4-1.2c-0.2-0.4-0.3-0.9-0.5-1.3c-0.2-0.4-0.3-0.8-0.6-1.2c-0.2-0.5-0.5-0.9-0.8-1.2c-0.3-0.4-0.7-0.6-1.1-0.8
			C177.6,36.5,177.1,36.5,176.6,36.8z"/>
		<path class="st5" d="M202.6,56.1c0-0.3,0-0.5,0.1-0.8c0-0.3,0.1-0.6,0.1-0.9c0.1-0.3,0.1-0.7,0.1-1.1c0-0.4,0-1,0-1.6l-0.1-3.7
			c0-0.9,0-1.8-0.1-2.7c0-0.9,0-2,0-3.2c0-0.9,0-1.9,0.1-3c0.1-1.1,0.1-2.1,0.2-3.3c0.1-1.1,0.2-2.3,0.2-3.5
			c0.1-1.2,0.1-2.4,0.1-3.6c0,0,0-0.1,0-0.2c0-0.1-0.1-0.2-0.2-0.2c-0.1,0-0.2,0-0.3,0c-0.4,0.1-0.7,0.1-0.9,0.1
			c-0.3,0-0.5-0.1-0.7-0.3c-0.2-0.1-0.3-0.3-0.5-0.5c-0.1-0.2-0.2-0.4-0.3-0.7c-0.2-0.6-0.2-1.2-0.2-1.6c0-0.4,0.2-0.8,0.3-1
			c0.2-0.3,0.4-0.5,0.7-0.7c0.3-0.2,0.5-0.3,0.8-0.5c0.3-0.1,0.5-0.3,0.7-0.4c0.2-0.1,0.3-0.3,0.3-0.5c0.1-0.3,0.1-0.7,0.1-1.1
			c0-0.4,0.1-0.7,0.2-1.1c0.1-0.3,0.3-0.6,0.5-0.9c0.2-0.3,0.6-0.5,1-0.6c0.3-0.1,0.6-0.1,0.9,0c0.3,0.1,0.6,0.3,0.8,0.5
			c0.3,0.2,0.5,0.4,0.7,0.7c0.2,0.3,0.4,0.5,0.6,0.7c1.5-0.4,2.8-0.6,4-0.8c1.1-0.2,2-0.3,2.6-0.3c1.1-0.1,2.3-0.1,3.5,0
			c1.2,0.1,2.3,0.4,3.4,0.8c1.1,0.4,2,1,2.8,1.7c0.8,0.7,1.3,1.7,1.6,2.8c0.2,0.6,0.3,1.2,0.3,1.9l0.1,0.8c0,0.6,0,1.3-0.3,1.9
			c-0.2,0.6-0.5,1.2-0.9,1.8c-1,1.5-2.1,2.9-3.4,4.1s-2.7,2.3-4.3,3.3c-1.5,1-3.1,1.9-4.7,2.8c-1.6,0.8-3.3,1.7-4.9,2.5l-0.6,0.3
			c-0.3,0.1-0.5,0.3-0.5,0.5c0,1.1,0,2,0,2.8c0,0.8,0.1,1.6,0.1,2.3c0,0.7,0.1,1.5,0.1,2.2s0.1,1.5,0.1,2.4c0,0.3,0,0.7-0.1,1.1
			c-0.1,0.4-0.2,0.8-0.4,1.2c-0.2,0.4-0.4,0.8-0.7,1.1s-0.6,0.5-1,0.6c-0.3,0.1-0.5,0.1-0.7,0c-0.2-0.1-0.4-0.2-0.6-0.4
			c-0.2-0.2-0.3-0.4-0.5-0.7c-0.1-0.2-0.2-0.5-0.3-0.7c0-0.1,0-0.2-0.1-0.3C202.6,56.2,202.6,56.2,202.6,56.1z M206.9,37.7
			c0,0.1,0,0.2,0,0.4c0,0.2,0,0.3,0,0.5c0,0.2,0,0.3,0,0.5c0,0.1,0,0.2,0,0.3c0,0.1,0,0.1,0.1,0.2c0,0,0.1,0.1,0.2,0
			c0,0,0.2-0.1,0.4-0.2c0.2-0.1,0.5-0.2,0.8-0.4c0.3-0.1,0.6-0.3,1-0.5c0.4-0.2,0.7-0.3,1-0.5c0.9-0.5,1.8-1,2.8-1.6
			c1-0.6,2-1.2,2.9-1.9c1-0.7,1.9-1.4,2.7-2.1c0.8-0.7,1.6-1.4,2.2-2.1c0.7-0.8,1.1-1.5,1.5-2.1c0.3-0.7,0.4-1.3,0.3-1.9
			c-0.1-0.4-0.2-0.7-0.4-0.9c-0.2-0.3-0.3-0.5-0.5-0.7c-0.6-0.6-1.3-1-2.1-1.2c-0.8-0.2-1.6-0.3-2.4-0.3s-1.7,0.1-2.5,0.3
			c-0.9,0.2-1.7,0.4-2.5,0.6c-0.2,0.1-0.5,0.2-1,0.3c-0.4,0.1-0.9,0.3-1.4,0.5c-0.5,0.2-0.9,0.4-1.3,0.5c-0.4,0.2-0.7,0.3-0.8,0.5
			c-0.1,0.1-0.1,0.2-0.1,0.3c0,0.1,0,0.2,0,0.3c0,0.3-0.1,0.8-0.2,1.3c-0.1,0.6-0.1,1.2-0.2,1.9c-0.1,0.7-0.1,1.4-0.2,2.2
			s-0.1,1.5-0.2,2.3c-0.1,0.7-0.1,1.4-0.1,2.1C207,36.8,206.9,37.3,206.9,37.7z"/>
		<path class="st5" d="M238,47.6c0-0.3,0.1-0.5,0.2-0.8c0.1-0.3,0.2-0.5,0.3-0.9c0.1-0.3,0.2-0.7,0.3-1.1c0.1-0.4,0.2-1,0.2-1.6
			l0.4-3.7c0.1-0.9,0.2-1.8,0.3-2.7c0.1-0.9,0.2-2,0.4-3.1c0.1-0.9,0.3-1.9,0.5-3c0.2-1,0.4-2.1,0.7-3.2c0.2-1.1,0.5-2.2,0.7-3.4
			c0.2-1.2,0.4-2.4,0.6-3.6c0,0,0-0.1,0-0.2c0-0.1-0.1-0.2-0.1-0.2c-0.1,0-0.2,0-0.3,0c-0.4,0-0.7,0-0.9,0c-0.3-0.1-0.5-0.2-0.6-0.4
			c-0.2-0.2-0.3-0.4-0.4-0.6c-0.1-0.2-0.2-0.5-0.2-0.7c-0.1-0.7-0.1-1.2,0-1.6c0.1-0.4,0.3-0.7,0.5-1c0.2-0.2,0.5-0.4,0.7-0.6
			c0.3-0.1,0.6-0.2,0.8-0.3c0.3-0.1,0.5-0.2,0.7-0.3c0.2-0.1,0.3-0.2,0.4-0.4c0.1-0.3,0.2-0.7,0.3-1c0.1-0.4,0.2-0.7,0.4-1
			c0.2-0.3,0.4-0.6,0.6-0.8c0.3-0.2,0.6-0.4,1.1-0.4c0.3,0,0.6,0,0.9,0.2c0.3,0.1,0.5,0.3,0.7,0.6c0.2,0.2,0.4,0.5,0.6,0.8
			c0.2,0.3,0.3,0.6,0.5,0.8c1.5-0.2,2.9-0.2,4-0.3c1.1,0,2,0,2.6,0c1.1,0.1,2.3,0.2,3.5,0.5c1.2,0.3,2.3,0.7,3.2,1.2
			s1.8,1.2,2.5,2.1c0.7,0.8,1.1,1.8,1.3,3c0.1,0.6,0.1,1.2,0,1.9l-0.1,0.8c0,0.6-0.2,1.3-0.5,1.8c-0.3,0.6-0.7,1.1-1.1,1.6
			c-1.2,1.4-2.5,2.6-4,3.6c-1.5,1-3,1.9-4.7,2.7c-1.6,0.8-3.3,1.5-5.1,2.1c-1.7,0.6-3.5,1.2-5.1,1.8l-0.6,0.2
			c-0.3,0.1-0.5,0.2-0.6,0.5c-0.2,1.1-0.3,2-0.4,2.8c-0.1,0.8-0.1,1.6-0.2,2.3c-0.1,0.7-0.1,1.5-0.2,2.2c-0.1,0.7-0.1,1.5-0.3,2.4
			c0,0.3-0.1,0.6-0.3,1.1c-0.1,0.4-0.3,0.8-0.5,1.2c-0.2,0.4-0.5,0.7-0.8,1c-0.3,0.3-0.7,0.5-1.1,0.5c-0.3,0-0.5,0-0.7-0.1
			c-0.2-0.1-0.4-0.3-0.6-0.5s-0.3-0.5-0.4-0.7c-0.1-0.3-0.2-0.5-0.2-0.7c0-0.1,0-0.2,0-0.3C237.9,47.7,237.9,47.7,238,47.6z
			 M244.7,29.9c0,0.1,0,0.2-0.1,0.4c0,0.2-0.1,0.3-0.1,0.5s0,0.3-0.1,0.5c0,0.1,0,0.2,0,0.3c0,0.1,0,0.1,0.1,0.2
			c0,0,0.1,0.1,0.2,0.1c0,0,0.2,0,0.4-0.1c0.2-0.1,0.5-0.2,0.8-0.3s0.7-0.2,1.1-0.3s0.7-0.2,1.1-0.4c0.9-0.3,1.9-0.7,3-1.2
			c1.1-0.5,2.1-1,3.2-1.5c1-0.5,2-1.1,3-1.7c0.9-0.6,1.8-1.2,2.5-1.8c0.7-0.7,1.3-1.3,1.8-1.9c0.4-0.6,0.6-1.2,0.5-1.9
			c0-0.4-0.1-0.7-0.3-1c-0.1-0.3-0.3-0.5-0.4-0.8c-0.5-0.7-1.2-1.2-1.9-1.5c-0.7-0.3-1.5-0.5-2.3-0.7c-0.8-0.1-1.7-0.1-2.5-0.1
			c-0.9,0.1-1.7,0.1-2.6,0.2c-0.2,0-0.6,0.1-1,0.2s-0.9,0.2-1.4,0.3c-0.5,0.1-0.9,0.2-1.4,0.3c-0.4,0.1-0.7,0.2-0.8,0.3
			c-0.1,0.1-0.1,0.1-0.2,0.2c0,0.1-0.1,0.2-0.1,0.3c-0.1,0.3-0.2,0.7-0.3,1.3c-0.1,0.6-0.3,1.2-0.4,1.9c-0.2,0.7-0.3,1.4-0.5,2.2
			c-0.2,0.8-0.3,1.5-0.5,2.2c-0.1,0.7-0.3,1.4-0.4,2C244.8,29,244.7,29.5,244.7,29.9z"/>
		<path class="st5" d="M276,48.3c0-0.4,0.1-0.7,0.3-1.1c0.2-0.4,0.5-0.7,0.8-1.1c0.3-0.4,0.7-0.8,1.1-1.2s0.9-0.9,1.4-1.4
			c0.9-0.9,1.8-1.8,2.8-2.8c1-1,1.9-1.9,2.8-3c0.4-0.4,0.7-0.8,0.9-1.1c0.2-0.3,0.4-0.5,0.5-0.7c0.1-0.2,0.2-0.3,0.2-0.5
			c0-0.1,0.1-0.3,0.1-0.4c-0.6-0.8-1.2-1.7-1.6-2.7c-0.5-1-0.9-1.9-1.3-3c-0.4-1-0.7-2.1-1-3.1c-0.3-1.1-0.6-2.1-0.8-3.1
			c-0.2-0.9-0.5-1.8-0.7-2.8c-0.2-0.9-0.5-1.7-0.9-2.4c-0.3-0.5-0.5-1-0.7-1.6c-0.2-0.6-0.3-1.2-0.3-1.8c0-0.3,0-0.6,0.1-1
			c0.1-0.4,0.2-0.7,0.4-1.1c0.2-0.3,0.4-0.6,0.7-0.8c0.3-0.2,0.6-0.3,1-0.3c0.4,0,0.8,0.2,1.2,0.5c0.4,0.3,0.7,0.7,1,1.2
			c0.3,0.5,0.5,1,0.7,1.5c0.2,0.5,0.4,1,0.5,1.5c0.1,0.6,0.3,1.5,0.5,2.4c0.2,1,0.4,2,0.6,3c0.2,1,0.4,2,0.6,2.9
			c0.2,0.9,0.4,1.6,0.5,2.2c0.2,0.7,0.4,1.3,0.6,1.9c0.2,0.6,0.4,1.1,0.6,1.5c0.2,0.4,0.4,0.8,0.6,1s0.4,0.4,0.6,0.4
			c0.1,0,0.4-0.2,0.7-0.6c1.3-1.6,2.6-3.3,3.9-5.2c1.4-1.8,2.7-3.7,4-5.5c0.5-0.7,0.9-1.3,1.3-1.8c0.4-0.6,0.7-1.1,1-1.6
			c0.3-0.5,0.6-1,0.8-1.5c0.2-0.5,0.5-1,0.7-1.5l0.6-2.4c0.1-0.2,0.2-0.5,0.3-0.7c0.1-0.2,0.3-0.5,0.5-0.7c0.2-0.2,0.4-0.4,0.7-0.5
			c0.3-0.1,0.5-0.2,0.8-0.2c0.4,0,0.7,0.1,1,0.3c0.3,0.2,0.5,0.4,0.7,0.6c0.2,0.3,0.3,0.6,0.4,0.9c0.1,0.3,0.1,0.7,0.1,1
			c0,0.4-0.1,0.9-0.3,1.4c-0.2,0.5-0.4,1.1-0.6,1.6c-0.3,0.6-0.6,1.1-0.9,1.6c-0.3,0.5-0.6,1-0.9,1.4c-2.2,3-4.4,6.1-6.7,9.2
			c-2.3,3.1-4.6,6.1-6.9,8.9c-2.1,2.5-4.1,4.9-6.1,7c-2,2.2-3.8,4-5.4,5.7c-0.4,0.3-0.7,0.7-1.2,0.9c-0.4,0.3-0.9,0.4-1.4,0.4
			c-0.3,0-0.5-0.1-0.6-0.2c-0.2-0.1-0.3-0.3-0.4-0.4c-0.1-0.2-0.2-0.4-0.2-0.6C276,48.7,276,48.5,276,48.3z"/>
		<path class="st5" d="M353.6,25.8c0.2-0.4,0.4-0.7,0.6-1.1c0.2-0.4,0.5-0.7,0.8-1s0.7-0.5,1.1-0.7c0.4-0.1,0.9-0.2,1.4,0
			c0.5,0.1,0.9,0.4,1.3,0.8c0.3,0.4,0.6,0.8,0.9,1.1c0.3,0.3,0.5,0.9,0.7,1.8c0.2,0.8,0.3,1.9,0.3,3.1c0.1,1.2,0.2,2.6,0.2,4.1
			c0.1,1.5,0.2,3.1,0.3,4.7s0.3,3.4,0.5,5.1s0.5,3.5,1,5.2c0.1,0.3,0.2,0.6,0.2,0.9c0.1,0.4,0.2,0.7,0.3,1c0.1,0.3,0.2,0.6,0.3,0.8
			c0.1,0.2,0.2,0.4,0.3,0.4c0,0,0.1-0.1,0.2-0.3c0.1-0.2,0.2-0.4,0.4-0.7c0.2-0.3,0.3-0.6,0.5-0.9c0.2-0.3,0.3-0.5,0.4-0.7
			c0.4-0.6,1-1.3,1.5-2.1s1.2-1.7,1.9-2.9c0.7-1.1,1.5-2.5,2.5-4c0.9-1.6,2-3.4,3.2-5.6c0.3-0.5,0.6-1.1,1-1.8
			c0.4-0.7,0.7-1.4,1.1-2.1c0.3-0.7,0.7-1.4,1-2.1c0.3-0.7,0.5-1.3,0.7-1.8c0-0.1,0.1-0.2,0.1-0.5c0.1-0.2,0.2-0.5,0.3-0.7
			c0.1-0.3,0.2-0.5,0.4-0.8c0.1-0.3,0.3-0.5,0.4-0.8c0.2-0.2,0.3-0.4,0.5-0.5c0.2-0.1,0.4-0.2,0.6-0.1c0.2,0.1,0.4,0.1,0.7,0.3
			c0.3,0.1,0.5,0.3,0.7,0.5c0.2,0.4,0.3,1,0.4,1.6c0.1,0.6,0,1.3-0.2,2.2c-0.1,0.6-0.4,1.2-0.7,2c-0.3,0.8-0.7,1.6-1.1,2.4
			c-0.4,0.9-0.9,1.7-1.3,2.6c-0.5,0.9-0.9,1.8-1.4,2.6s-0.9,1.6-1.3,2.2c-0.4,0.7-0.7,1.2-1,1.7c-0.5,0.8-1,1.6-1.5,2.4
			s-1.1,1.7-1.7,2.6c-0.6,0.9-1.2,1.8-1.9,2.8c-0.7,1-1.4,2-2.3,3.2c-0.4,0.5-0.8,1-1.2,1.5c-0.4,0.5-0.9,0.9-1.4,1.3
			c-0.5,0.4-1,0.6-1.5,0.8c-0.5,0.2-1.1,0.2-1.6,0c-0.3-0.1-0.7-0.2-1-0.4c-0.3-0.2-0.6-0.5-0.8-0.8c-0.8-1.7-1.5-3.5-2-5.5
			c-0.5-2-0.8-4-1.1-6.1c-0.2-2.1-0.4-4.2-0.4-6.3c-0.1-2.1-0.1-4.1-0.1-6v-0.5c0-0.2,0-0.4,0-0.7c0-0.2,0-0.4,0-0.6
			c0-0.2,0-0.3-0.1-0.5c0-0.1-0.1-0.2-0.2-0.2s-0.2,0.1-0.5,0.4c-0.2,0.3-0.4,0.6-0.7,1c-0.2,0.4-0.5,0.7-0.7,1.1
			c-0.2,0.3-0.3,0.6-0.4,0.7c-0.2,0.4-0.5,0.9-0.9,1.5s-0.8,1.4-1.3,2.2c-0.5,0.8-1,1.7-1.6,2.6c-0.6,0.9-1.1,1.8-1.6,2.6
			c-0.5,0.9-1,1.6-1.5,2.4c-0.5,0.7-0.8,1.3-1.1,1.7c-0.2,0.3-0.5,0.8-0.9,1.3c-0.3,0.5-0.7,1.1-1,1.6c-0.3,0.6-0.7,1.1-1,1.5
			c-0.3,0.5-0.5,0.8-0.6,0.9c-0.3,0.5-0.7,0.9-1.1,1c-0.4,0.2-0.8,0.2-1.1,0.2c-0.2-0.1-0.4-0.2-0.6-0.4c-0.2-0.2-0.3-0.4-0.4-0.7
			c-0.1-0.3-0.2-0.5-0.2-0.8c0-0.3,0-0.5,0-0.7c0-0.1,0.1-0.3,0.3-0.5c0.1-0.2,0.4-0.6,0.7-1.2l1.2-2.1L353.6,25.8z"/>
		<path class="st5" d="M381,60.9c0.2-0.5,0.5-1,0.9-1.4c1.3-1.7,2.6-3.3,4-4.8c1.4-1.5,2.7-3.1,4-4.7c1.3-1.6,2.3-2.9,3.2-4
			c0.9-1.1,1.6-2,2.2-2.8c0.6-0.8,1.2-1.4,1.7-2c0.5-0.5,1-1.1,1.5-1.6c0.3-0.3,0.7-0.6,1-0.9c0.4-0.3,0.7-0.6,1.1-0.8
			c0.4-0.2,0.7-0.4,1.1-0.5c0.3-0.1,0.7-0.1,0.9,0c0.6,0.2,1,0.5,1.2,0.8c0.2,0.3,0.3,0.6,0.3,0.7l-0.2,0.9c0.2,0.1,0.5,0.1,0.9,0.2
			c0.4,0.1,0.7,0.2,1.1,0.2c0.4,0.1,0.7,0.1,1,0.2c0.3,0.1,0.6,0.1,0.7,0.1c1,0.1,2,0.3,2.8,0.4c0.8,0.1,1.6,0.3,2.4,0.5
			c0.7,0.2,1.5,0.4,2.1,0.6s1.3,0.5,2,0.7c0.6,0.3,1.1,0.5,1.5,0.8c0.4,0.2,0.7,0.5,0.8,0.7c0.2,0.2,0.3,0.4,0.3,0.6
			c0,0.2,0,0.4-0.1,0.6c-0.1,0.2-0.2,0.3-0.4,0.5c-0.2,0.1-0.4,0.3-0.7,0.3s-0.6,0.1-1,0.1c-0.4,0-0.8-0.1-1.4-0.3
			c-0.1,0-0.4-0.1-0.9-0.2c-0.5-0.1-1-0.2-1.6-0.4c-0.6-0.1-1.1-0.3-1.6-0.4s-0.9-0.2-1.1-0.2l0,0c-0.1,0-0.3-0.1-0.7-0.1
			c-0.3,0-0.8-0.1-1.3-0.2c-0.5-0.1-1-0.1-1.6-0.2s-1.2-0.1-1.7-0.2s-1.1-0.1-1.6-0.2s-0.9-0.1-1.2-0.1c-1,0-1.8,0.1-2.5,0.5
			c-0.7,0.3-1.3,0.8-1.9,1.4c-0.1,0.1-0.3,0.3-0.5,0.5s-0.5,0.5-0.8,0.9c-0.3,0.3-0.6,0.7-0.9,1c-0.3,0.4-0.6,0.7-1,1
			c-0.3,0.3-0.6,0.6-0.8,0.9c-0.2,0.3-0.4,0.5-0.5,0.6c-0.1,0.1-0.2,0.2-0.2,0.3c-0.1,0.1-0.1,0.2-0.1,0.2c0,0.1,0,0.1,0,0.2
			c0.2,0.1,0.7,0.2,1.4,0.3c0.7,0.1,1.6,0.2,2.6,0.3c1,0.1,2.1,0.2,3.2,0.3c1.1,0.1,2.2,0.2,3.3,0.3c1,0.1,2,0.2,2.8,0.3
			c0.8,0.1,1.4,0.2,1.7,0.4c0.5,0.2,0.8,0.4,0.9,0.6c0.1,0.2,0.1,0.4,0,0.6c-0.2,0.5-0.6,0.9-1.1,1.1c-0.5,0.2-1.1,0.4-1.7,0.4
			c-0.2,0-0.6,0-1.1,0c-0.5,0-1.1-0.1-1.7-0.1c-0.6-0.1-1.2-0.1-1.7-0.1c-0.5,0-0.9-0.1-1.2-0.1c-1.6,0-2.9-0.1-3.9-0.1
			c-1,0-1.8,0-2.4,0c-0.6,0-1.1,0-1.4,0c-0.3,0-0.6,0-0.9-0.1c-0.3,0-0.6-0.1-0.9-0.1c-0.3-0.1-0.8-0.1-1.3-0.2
			c-0.2,0.2-0.6,0.6-1,1.1c-0.4,0.5-0.8,1.1-1.2,1.6c-0.4,0.6-0.8,1.1-1.1,1.6c-0.3,0.5-0.5,0.8-0.6,1.1c-0.1,0.2-0.1,0.4-0.1,0.6
			s0.1,0.3,0.1,0.3s0.2,0.1,0.3,0.2c0.1,0,0.2,0.1,0.2,0.1c0.7,0.3,1.5,0.5,2.5,0.7c1,0.2,2,0.3,3.1,0.4c1,0.1,1.9,0,2.7,0
			c0.8-0.1,1.6-0.2,2.3-0.2s1.4-0.1,2-0.1s1.3,0.2,1.9,0.4c0.1,0.1,0.3,0.1,0.5,0.2c0.2,0.1,0.3,0.2,0.5,0.4
			c0.1,0.1,0.2,0.3,0.3,0.5c0.1,0.2,0,0.3-0.1,0.5c-0.2,0.4-0.6,0.7-1.1,0.9c-0.5,0.2-1.1,0.4-1.8,0.6s-1.4,0.2-2.2,0.3
			c-0.8,0.1-1.6,0.1-2.4,0.1c-0.8,0-1.6,0-2.3,0c-0.8,0-1.4-0.1-2-0.1c-1.5-0.1-2.8-0.3-4.1-0.6c-1.3-0.3-2.4-0.6-3.4-1
			c-1.1-0.4-1.8-1-2.2-1.6C380.6,62.6,380.6,61.8,381,60.9z"/>
		<path class="st5" d="M417.4,68c1-1,2.1-2,3.3-3s2.5-2,3.8-3c1.3-1,2.6-2.1,3.9-3.1s2.6-2.2,3.7-3.3c0.3-0.3,0.6-0.5,0.8-0.8
			c0.2-0.2,0.5-0.5,0.7-0.8c0.4-0.2,0.7-0.4,1.1-0.4s0.7,0.1,1,0.3c0.3,0.2,0.5,0.4,0.7,0.6c0.2,0.2,0.3,0.5,0.4,0.8s0.1,0.7,0,1
			c-0.1,0.4-0.2,0.8-0.5,1.2c-0.3,0.5-0.7,0.9-1.2,1.4c-1.3,1-2.6,1.9-3.8,2.8c-1.3,0.9-2.5,1.8-3.7,2.7c-1.2,0.9-2.4,1.8-3.5,2.7
			c-1.1,0.9-2.2,1.8-3.1,2.8c-0.1,0.1-0.3,0.2-0.5,0.5c-0.3,0.3-0.6,0.6-0.9,0.9c-0.3,0.4-0.7,0.8-1,1.2c-0.4,0.4-0.7,0.9-0.9,1.3
			c-0.2,0.3-0.3,0.6-0.5,0.9s-0.2,0.6-0.2,0.8c0,0.3,0,0.5,0.1,0.7c0.1,0.2,0.2,0.4,0.5,0.5c0.5,0.3,1.2,0.4,2.3,0.3
			c1-0.1,2.2-0.3,3.5-0.7c1.4-0.4,2.8-0.9,4.4-1.5c1.6-0.6,3.2-1.4,4.8-2.2s3.2-1.7,4.8-2.7c1.6-1,3-2,4.3-3.1
			c0.3-0.2,0.5-0.2,0.7-0.2c0.2,0,0.4,0.1,0.7,0.3c0.5,0.3,0.8,0.7,1,1.2s0.1,1-0.2,1.5c-0.1,0.1-0.2,0.2-0.2,0.3
			c-0.1,0.1-0.2,0.2-0.3,0.3l-0.8,0.6c-0.6,0.5-1.1,0.9-1.6,1.3c-0.5,0.4-0.9,0.8-1.3,1.2c-0.6,0.5-1,1-1.5,1.5
			c-0.4,0.5-0.8,0.9-1.2,1.4c-0.3,0.4-0.7,0.9-1,1.3c-0.3,0.4-0.6,0.9-0.9,1.3c-0.1,0.2-0.3,0.5-0.4,0.8c-0.2,0.4-0.4,0.8-0.6,1.2
			c-0.2,0.5-0.4,0.9-0.5,1.4c-0.2,0.5-0.3,1-0.3,1.4s-0.1,0.8,0,1.2c0.1,0.3,0.2,0.6,0.5,0.8c0.4,0.2,0.9,0.3,1.6,0.3
			c0.6-0.1,1.4-0.2,2.2-0.5c0.8-0.3,1.7-0.7,2.6-1.2c0.9-0.5,1.9-1,2.8-1.7c1-0.6,1.9-1.3,2.9-2c1-0.7,1.9-1.4,2.8-2.2
			c0.9-0.7,1.7-1.4,2.5-2.2c0.8-0.7,1.5-1.4,2.1-2c0.6-0.6,1.1-1.2,1.6-1.8c0.5-0.6,1-1.2,1.5-1.7c0.5-0.6,1-1.2,1.5-1.7
			c0.5-0.6,1.1-1.1,1.7-1.7c0.2-0.2,0.5-0.4,0.7-0.6s0.6-0.3,0.9-0.4c0.3-0.1,0.6-0.1,0.9-0.1c0.3,0,0.6,0.1,0.8,0.2
			c0.6,0.4,0.9,0.7,0.9,1.2c0,0.4-0.2,1-0.6,1.8c-0.3,0.5-0.8,1.1-1.3,1.8c-0.5,0.7-1.1,1.3-1.7,2s-1.3,1.4-2,2.1
			c-0.7,0.7-1.3,1.4-1.9,2c-1.3,1.2-2.7,2.5-4.2,3.7c-1.5,1.2-3.1,2.3-4.8,3.4c-1.6,1-3.3,2-4.9,2.8c-1.6,0.8-3.1,1.5-4.5,1.9
			c-0.5,0.2-1,0.3-1.6,0.4c-0.6,0.1-1.2,0.2-1.8,0.2s-1.2,0-1.8-0.1c-0.6-0.1-1.1-0.3-1.5-0.5c-0.9-0.5-1.5-1.3-1.7-2.1
			c-0.3-0.9-0.3-1.9-0.2-3c0.2-1.1,0.5-2.3,0.9-3.5c0.5-1.2,1-2.5,1.7-3.7c-1.4,0.6-2.6,1.2-3.7,1.6c-1.1,0.5-2.2,0.9-3.2,1.2
			c-0.8,0.2-1.6,0.5-2.6,0.7c-0.9,0.3-1.9,0.4-2.9,0.6c-1,0.1-1.9,0.1-2.8,0.1c-0.9-0.1-1.7-0.3-2.3-0.7c-0.8-0.5-1.3-1-1.7-1.6
			c-0.3-0.6-0.5-1.2-0.6-1.8s0.1-1.3,0.3-2c0.2-0.7,0.6-1.4,1-2.2c0.5-0.8,1.1-1.7,1.8-2.5C415.9,69.6,416.7,68.8,417.4,68z"/>
	</g>
	<g>
		<path class="st5" d="M113.7,578.5c0.2-0.3,0.5-0.6,0.8-0.8c0.4-0.2,0.8-0.4,1.3-0.6c0.5-0.2,1-0.3,1.6-0.5
			c0.6-0.1,1.2-0.3,1.9-0.5c1.2-0.3,2.5-0.6,3.9-0.9c1.3-0.3,2.7-0.7,4-1.1c0.6-0.2,1-0.3,1.3-0.5c0.3-0.1,0.6-0.2,0.8-0.3
			c0.2-0.1,0.3-0.2,0.4-0.3c0.1-0.1,0.2-0.2,0.3-0.3c-0.1-1-0.1-2.1,0-3.1s0.2-2.1,0.4-3.2c0.2-1.1,0.5-2.1,0.8-3.2
			c0.3-1.1,0.6-2.1,0.9-3.1c0.3-0.9,0.5-1.8,0.8-2.7s0.5-1.8,0.5-2.5c0-0.6,0.1-1.2,0.2-1.7c0.1-0.6,0.3-1.1,0.7-1.7
			c0.1-0.2,0.4-0.5,0.6-0.8s0.5-0.5,0.9-0.7c0.3-0.2,0.7-0.3,1-0.4c0.4-0.1,0.7,0,1.1,0.2c0.4,0.2,0.6,0.6,0.8,1
			c0.2,0.5,0.2,1,0.3,1.5c0,0.5,0,1.1-0.1,1.7s-0.2,1.1-0.4,1.5c-0.2,0.6-0.5,1.4-0.8,2.3c-0.3,0.9-0.7,1.9-1,2.9s-0.7,1.9-1,2.8
			c-0.3,0.9-0.5,1.6-0.7,2.1c-0.2,0.7-0.3,1.3-0.5,2c-0.1,0.6-0.2,1.2-0.2,1.7c0,0.5,0,0.9,0,1.2c0.1,0.3,0.2,0.5,0.3,0.6
			c0.1,0.1,0.4,0,0.9-0.2c1.9-0.7,3.9-1.6,6-2.5c2.1-0.9,4.2-1.8,6.2-2.7c0.8-0.3,1.4-0.6,2-0.9s1.2-0.6,1.7-0.9
			c0.5-0.3,1-0.6,1.5-0.9c0.5-0.3,0.9-0.6,1.4-0.9l1.7-1.7c0.2-0.2,0.4-0.3,0.6-0.5s0.5-0.2,0.8-0.3c0.3-0.1,0.5-0.1,0.8-0.1
			c0.3,0,0.5,0.1,0.8,0.3c0.3,0.2,0.6,0.5,0.7,0.7c0.2,0.3,0.2,0.6,0.3,0.9c0,0.3,0,0.6-0.1,1c-0.1,0.3-0.2,0.7-0.4,1
			c-0.2,0.3-0.5,0.7-0.9,1.1c-0.4,0.4-0.9,0.7-1.4,1.1c-0.5,0.3-1,0.7-1.6,0.9c-0.6,0.3-1.1,0.5-1.6,0.8c-3.4,1.5-6.9,3-10.5,4.5
			c-3.5,1.5-7,2.9-10.5,4.1c-3.1,1.1-6,2.1-8.8,2.9s-5.3,1.5-7.5,2.1c-0.5,0.1-1,0.2-1.5,0.2s-1-0.1-1.4-0.3
			c-0.2-0.1-0.4-0.3-0.5-0.5c-0.1-0.2-0.1-0.4-0.1-0.6c0-0.2,0-0.4,0.1-0.7S113.6,578.7,113.7,578.5z"/>
		<path class="st5" d="M151.3,594c0.2-0.5,0.5-1,0.9-1.4c1.3-1.7,2.7-3.2,4.1-4.7c1.4-1.5,2.8-3,4.1-4.6c1.3-1.5,2.4-2.8,3.3-3.9
			c0.9-1.1,1.6-2,2.3-2.7c0.6-0.8,1.2-1.4,1.7-1.9c0.5-0.5,1-1,1.6-1.5c0.3-0.3,0.7-0.6,1.1-0.9c0.4-0.3,0.8-0.6,1.1-0.8
			c0.4-0.2,0.7-0.4,1.1-0.5s0.7-0.1,0.9,0c0.6,0.3,0.9,0.5,1.2,0.9c0.2,0.3,0.3,0.6,0.3,0.7l-0.2,0.9c0.2,0.1,0.5,0.2,0.9,0.2
			s0.7,0.2,1.1,0.3c0.4,0.1,0.7,0.2,1,0.2s0.6,0.1,0.7,0.1c1,0.2,1.9,0.3,2.8,0.5c0.8,0.2,1.6,0.3,2.4,0.5c0.7,0.2,1.4,0.4,2.1,0.6
			c0.7,0.2,1.3,0.5,1.9,0.8c0.6,0.3,1.1,0.5,1.5,0.8s0.6,0.5,0.8,0.7s0.3,0.4,0.3,0.6c0,0.2,0,0.4-0.1,0.6c-0.1,0.2-0.2,0.3-0.4,0.5
			c-0.2,0.1-0.4,0.3-0.7,0.3c-0.3,0.1-0.6,0.1-1,0.1c-0.4,0-0.8-0.1-1.3-0.3c-0.1,0-0.4-0.1-0.9-0.2c-0.5-0.1-1-0.3-1.6-0.4
			c-0.6-0.1-1.1-0.3-1.6-0.4c-0.5-0.1-0.9-0.2-1-0.2l0,0c-0.1,0-0.3-0.1-0.7-0.1s-0.8-0.1-1.3-0.2c-0.5-0.1-1-0.2-1.6-0.2
			c-0.6-0.1-1.2-0.2-1.7-0.2c-0.6-0.1-1.1-0.2-1.6-0.2c-0.5-0.1-0.9-0.1-1.2-0.1c-1,0-1.8,0.1-2.5,0.4c-0.7,0.3-1.4,0.8-1.9,1.3
			c-0.1,0.1-0.3,0.3-0.5,0.5s-0.5,0.5-0.8,0.8c-0.3,0.3-0.6,0.7-1,1c-0.3,0.4-0.7,0.7-1,1c-0.3,0.3-0.6,0.6-0.8,0.9
			c-0.2,0.3-0.4,0.5-0.5,0.6c-0.1,0.1-0.2,0.2-0.2,0.3s-0.1,0.2-0.1,0.2c0,0.1,0,0.1,0,0.2c0.2,0.1,0.7,0.2,1.4,0.3
			c0.7,0.1,1.6,0.2,2.6,0.3c1,0.1,2.1,0.2,3.2,0.4c1.1,0.1,2.2,0.3,3.3,0.4c1,0.1,1.9,0.3,2.7,0.4c0.8,0.1,1.4,0.3,1.7,0.4
			c0.5,0.2,0.8,0.4,0.9,0.7c0.1,0.2,0.1,0.4,0,0.6c-0.2,0.5-0.6,0.8-1.1,1.1c-0.5,0.2-1.1,0.3-1.7,0.4c-0.2,0-0.6,0-1.1,0
			c-0.5,0-1.1-0.1-1.7-0.2c-0.6-0.1-1.1-0.1-1.7-0.2c-0.5-0.1-0.9-0.1-1.2-0.1c-1.6-0.1-2.9-0.1-3.9-0.2s-1.8-0.1-2.4-0.1
			c-0.6,0-1.1,0-1.4-0.1c-0.3,0-0.6,0-0.9-0.1c-0.3,0-0.6-0.1-0.9-0.1c-0.3-0.1-0.8-0.1-1.3-0.2c-0.3,0.2-0.6,0.6-1,1.1
			c-0.4,0.5-0.9,1-1.3,1.6s-0.8,1.1-1.2,1.6s-0.6,0.8-0.7,1c-0.1,0.2-0.2,0.4-0.1,0.6c0,0.1,0.1,0.3,0.1,0.3
			c0.1,0.1,0.2,0.1,0.3,0.2c0.1,0,0.2,0.1,0.2,0.1c0.7,0.3,1.5,0.6,2.5,0.8c1,0.2,2,0.4,3.1,0.5c1,0.1,1.9,0.1,2.7,0
			c0.8-0.1,1.6-0.1,2.3-0.2c0.7-0.1,1.4-0.1,2,0c0.6,0,1.3,0.2,1.9,0.5c0.1,0.1,0.3,0.1,0.5,0.3c0.2,0.1,0.3,0.2,0.5,0.4
			c0.1,0.1,0.2,0.3,0.3,0.5c0,0.2,0,0.3-0.1,0.5c-0.2,0.4-0.6,0.7-1.1,0.9c-0.5,0.2-1.1,0.4-1.8,0.5s-1.4,0.2-2.2,0.2
			s-1.6,0.1-2.4,0c-0.8,0-1.6,0-2.3-0.1c-0.8,0-1.4-0.1-2-0.1c-1.5-0.1-2.8-0.4-4.1-0.7s-2.4-0.7-3.3-1.1c-1-0.5-1.8-1-2.1-1.7
			C150.9,595.7,150.9,594.9,151.3,594z"/>
		<path class="st5" d="M205.2,616.1c-0.3-0.1-0.6-0.2-0.7-0.4c-0.2-0.2-0.3-0.4-0.4-0.6c-0.1-0.2-0.1-0.5-0.2-0.8
			c0-0.3,0-0.5,0.1-0.8c0.1-0.2,0.2-0.5,0.4-0.8c0.2-0.3,0.5-0.7,0.8-1.2s0.7-0.9,1-1.3c0.4-0.5,0.7-0.9,1.1-1.3
			c0.3-0.4,0.6-0.8,0.9-1.2c0.3-0.4,0.5-0.6,0.6-0.9c0.1-0.2,0.3-0.5,0.5-0.9s0.4-0.7,0.6-1.1c0.2-0.4,0.5-0.8,0.7-1.2
			s0.5-0.9,0.8-1.3c-0.2,0-0.5,0-0.8-0.1c-0.3-0.1-0.6-0.1-1-0.2c-0.5-0.1-1-0.2-1.5-0.2c-0.5,0-1-0.1-1.5-0.1c-0.5,0-1-0.1-1.6-0.1
			c-0.6,0-1.1-0.1-1.8-0.1c-0.9-0.1-1.8-0.1-2.8-0.1s-1.9-0.2-2.8-0.5c-0.3-0.1-0.5-0.2-0.7-0.5c-0.2-0.2-0.4-0.4-0.7-0.6
			c-0.4,0.4-0.8,0.8-1.3,1.2s-0.8,0.9-1.2,1.4c-0.4,0.5-0.7,1-1.1,1.5s-0.6,1-0.9,1.4c-0.1,0.2-0.3,0.6-0.5,0.9
			c-0.2,0.4-0.3,0.8-0.5,1.2s-0.3,0.8-0.5,1.2c-0.2,0.4-0.3,0.7-0.4,0.9c-0.1,0.2-0.3,0.4-0.4,0.6c-0.2,0.2-0.4,0.3-0.6,0.4
			c-0.2,0.1-0.5,0.2-0.8,0.2c-0.3,0-0.5,0-0.7,0c-0.4-0.1-0.7-0.3-0.9-0.6c-0.2-0.3-0.3-0.7-0.3-1.1c0-0.4,0-0.8,0-1.2
			c0.1-0.4,0.2-0.8,0.3-1.2c0.3-0.9,0.6-1.8,1.1-2.6c0.5-0.9,1.1-1.8,1.7-2.6c0.7-0.9,1.4-1.7,2.2-2.6s1.6-1.7,2.5-2.5
			c0.7-0.7,1.6-1.6,2.7-2.5c1-0.9,2.2-1.9,3.4-2.9c1.2-1,2.5-1.9,3.9-2.7c1.4-0.9,2.7-1.6,4.1-2.2c1.4-0.6,2.7-1,4-1.2
			c1.3-0.2,2.5-0.2,3.7,0.2c1.2,0.4,2.1,0.9,2.8,1.5c0.7,0.7,1.1,1.4,1.4,2.3c0.3,0.9,0.3,1.8,0.2,2.9s-0.3,2.1-0.6,3.2
			c-0.3,1-0.6,1.9-1.1,2.9c-0.4,1-0.9,1.9-1.3,2.9c-0.5,0.9-0.9,1.8-1.4,2.7c-0.5,0.8-0.9,1.6-1.3,2.3l-1.6,2.7
			c-0.1,0.1-0.2,0.2-0.3,0.5c-0.2,0.2-0.3,0.5-0.6,0.8c-0.2,0.3-0.5,0.7-0.8,1.1c-0.3,0.4-0.6,0.8-0.8,1.1c-0.3,0.4-0.5,0.7-0.8,1
			c-0.2,0.3-0.4,0.6-0.6,0.7l0,0c-0.2,0.3-0.4,0.7-0.7,1s-0.5,0.7-0.8,0.9c-0.3,0.3-0.6,0.4-1,0.5
			C206.2,616.2,205.7,616.2,205.2,616.1z M214.3,589.4c-0.6-0.2-1.3-0.2-2.1-0.2c-0.7,0.1-1.5,0.2-2.2,0.5c-0.7,0.2-1.5,0.6-2.3,1
			c-0.8,0.4-1.5,0.8-2.2,1.3c-0.7,0.4-1.4,0.9-2,1.4c-0.6,0.5-1.2,0.9-1.8,1.3c-0.1,0.1-0.2,0.2-0.3,0.3c-0.1,0.1-0.3,0.2-0.4,0.4
			c-0.1,0.1-0.3,0.3-0.4,0.4s-0.3,0.3-0.4,0.4l2.2,0.7c0.8,0.2,1.7,0.5,2.8,0.6s2.1,0.4,3.2,0.5s2,0.3,2.9,0.3
			c0.9,0.1,1.6,0.1,2,0.2c0.1-0.2,0.2-0.4,0.4-0.7s0.3-0.6,0.5-1c0.2-0.4,0.3-0.8,0.5-1.2c0.2-0.4,0.3-0.9,0.4-1.3
			c0.1-0.4,0.2-0.8,0.3-1.3c0.1-0.5,0.2-1,0.1-1.4s-0.1-0.9-0.3-1.3C215.2,589.8,214.9,589.5,214.3,589.4z"/>
		<path class="st5" d="M228.8,618.2c1.3-3.3,2.7-6.5,4.1-9.7c1.4-3.2,2.8-6.4,4.1-9.7c0.2-0.4,0.3-0.8,0.5-1.2
			c0.2-0.4,0.3-0.8,0.5-1.2c0.1-0.4,0.3-0.8,0.4-1.2c0.1-0.4,0.2-0.8,0.3-1.3c0.1-0.3,0.1-0.7,0.1-0.9s0-0.6,0.1-1
			c0.1-0.3,0.1-0.7,0.3-1.1c0.4-0.9,0.8-1.5,1.2-1.9c0.5-0.4,1.1-0.5,2-0.4c0.3,0.1,0.7,0.1,1,0.2c0.3,0.1,0.6,0.2,0.9,0.4
			c0.3,0.2,0.7,0.3,1,0.4c0.4,0.1,0.7,0.2,1.1,0.3c0.3,0,0.6,0.1,0.9,0.1c0.3,0,0.6,0,1,0.1c0.4,0,0.8,0.1,1.3,0.1s1.1,0.1,1.9,0.2
			c0.4,0.1,0.9,0.1,1.5,0.3c0.6,0.1,1.1,0.3,1.7,0.5c0.6,0.2,1.2,0.4,1.8,0.7c0.6,0.3,1.1,0.6,1.6,1.1c0.5,0.4,0.9,0.9,1.3,1.5
			c0.3,0.6,0.6,1.2,0.7,1.9c0.1,0.4,0.1,0.7,0.1,1c0,0.3,0,0.6-0.1,0.8c-0.1,0.9-0.5,1.8-1.1,2.6c-0.7,0.9-1.5,1.7-2.5,2.5
			c-1,0.7-2.2,1.4-3.4,2c-0.5,0.2-1.1,0.5-1.7,0.7s-1.3,0.5-1.9,0.7c-0.6,0.2-1.2,0.4-1.7,0.6c-0.5,0.2-0.9,0.3-1.1,0.4
			c0.5,0.3,1,0.7,1.4,1c0.5,0.4,1,0.8,1.4,1.2c0.5,0.5,1,1,1.4,1.6c0.5,0.6,1,1.4,1.4,2.3c0.5,0.9,1,1.9,1.5,3.1
			c0.5,1.2,1,2.6,1.4,4.1c0.1,0.4,0.2,0.8,0.1,1.2c0,0.3-0.2,0.6-0.3,0.9c-0.2,0.3-0.4,0.5-0.6,0.8c-0.3,0.2-0.5,0.4-0.9,0.5
			c-0.3,0.1-0.7,0.1-1,0.1c-0.5-0.1-0.9-0.3-1.2-0.8c-0.3-0.4-0.5-1-0.8-1.7c-0.2-0.7-0.4-1.4-0.7-2.3c-0.2-0.8-0.5-1.7-0.9-2.6
			c-0.4-0.9-0.9-1.8-1.4-2.7s-1.1-1.6-1.8-2.3c-0.6-0.7-1.3-1.2-2.1-1.7c-0.7-0.4-1.5-0.7-2.2-0.8l-0.3,0c-0.5-0.1-0.9-0.1-1.3-0.1
			c-0.4,0-0.7,0-1.1,0.1c-0.4-0.2-0.7-0.5-0.9-1c-0.2-0.4-0.2-0.8-0.1-1.3l0-0.3l-2.8,6.8c-0.1,0.2-0.2,0.5-0.4,0.9
			c-0.2,0.4-0.3,0.8-0.5,1.2c-0.2,0.4-0.4,0.9-0.6,1.4c-0.2,0.5-0.4,0.9-0.6,1.4c-0.2,0.4-0.4,0.8-0.5,1.2c-0.1,0.3-0.3,0.6-0.3,0.8
			c-0.3,0.3-0.6,0.6-0.9,0.8s-0.7,0.2-1.1,0.2c-0.7-0.1-1.1-0.4-1.3-0.8s-0.3-0.9-0.2-1.4c0-0.2,0.1-0.4,0.1-0.6
			C228.6,618.6,228.7,618.4,228.8,618.2z M243.4,594.7c-0.1,0.3-0.3,0.7-0.6,1.2c-0.3,0.5-0.5,1.1-0.9,1.8c-0.3,0.7-0.6,1.4-1,2.2
			c-0.4,0.8-0.7,1.6-1.1,2.4c-0.4,0.8-0.7,1.6-1,2.3s-0.6,1.4-0.9,2c0.4-0.3,0.9-0.6,1.5-0.8c0.6-0.2,1.3-0.4,2.1-0.6
			c0.6-0.1,1.4-0.3,2.3-0.6c0.9-0.3,1.9-0.6,2.9-0.9c1-0.4,2-0.7,3-1.2c1-0.4,1.9-0.9,2.8-1.4c0.8-0.5,1.5-1,2.1-1.5
			s0.9-1.1,0.9-1.6c0.1-0.5,0-1-0.4-1.4c-0.3-0.4-0.8-0.7-1.3-0.9s-1.2-0.5-1.9-0.6c-0.7-0.2-1.3-0.3-1.9-0.4
			c-1.1-0.2-2.1-0.3-3.2-0.3C245.6,594.4,244.5,594.5,243.4,594.7z"/>
		<path class="st5" d="M306.7,620.1c0.9-0.1,1.6-0.2,2.1-0.3c1.3-0.1,3.4-0.2,6.3-0.2c3,0,5.2,0,6.8,0.1s2.5,0.2,2.9,0.4
			c0.4,0.2,0.7,0.5,1,0.9c0.3,0.4,0.4,0.8,0.5,1.2c0,0.4-0.2,0.8-0.7,1.2c-0.5,0.4-1,0.7-1.5,0.7c-0.6,0.1-1.5,0-2.7-0.2
			c-2.1-0.3-4.5-0.4-7.4-0.4c-2.8,0-5.5,0.1-7.9,0.4c-1.1,0.1-2.2,0.4-3.3,0.8c-0.6,0.3-1.2,0.5-1.8,0.5c-0.4,0-0.7,0-1-0.2
			s-0.5-0.5-0.5-0.9c-0.1-1.4,0.8-3.1,2.7-5.3c1.9-2.2,4.8-4.4,8.4-6.8c4.5-2.9,7.4-5.2,8.8-7c1.4-1.8,2-3.5,1.8-5.1
			c-0.1-1.4-0.8-2.6-2.1-3.6c-1.2-1-2.7-1.3-4.4-1.2c-1.6,0.1-3,0.5-4.2,1.2s-2.5,1.7-3.6,3.2c-0.5,0.6-0.9,0.9-1.3,1
			c-0.5,0.1-1-0.1-1.5-0.4c-0.5-0.3-0.7-0.8-0.8-1.2c-0.1-1.5,0.9-3.1,3.2-4.7c2.3-1.6,5-2.6,8.3-2.9c2.8-0.3,5.2,0.4,7.2,1.9
			c2,1.5,3.2,3.6,3.4,6.3c0.3,2.7-0.5,5.2-2.4,7.6c-1.8,2.4-5.4,5.3-10.7,8.5C310.2,617,308.3,618.5,306.7,620.1z"/>
		<path class="st5" d="M366.1,591.9c0.8,3.2,0.7,6.8-0.3,10.8c-1,4-2.7,7.4-5,10.3c-2.3,2.9-4.9,4.7-7.6,5.3
			c-2.8,0.7-5.3,0.3-7.5-1.2s-3.7-3.9-4.5-7.2c-0.8-3.2-0.6-6.7,0.5-10.6c1.1-3.9,2.9-7.3,5.3-10.2c2.4-2.9,5-4.7,7.6-5.3
			c2.8-0.7,5.2-0.3,7.3,1.2C364,586.4,365.4,588.7,366.1,591.9z M345.6,609.4c0.4,1.9,1.3,3.3,2.6,4.2c1.3,1,2.7,1.2,4.2,0.9
			c2.1-0.5,3.9-2,5.6-4.4c1.7-2.4,2.9-5.3,3.6-8.7c0.7-3.4,0.7-6.4,0.1-9.1c-0.5-1.9-1.2-3.2-2.3-4c-1.1-0.8-2.4-1-3.9-0.7
			c-2.1,0.5-4.1,2-5.9,4.3s-3.1,5.2-3.9,8.5C345,603.7,344.9,606.7,345.6,609.4z"/>
		<path class="st5" d="M388.3,602.4c0.8-0.4,1.5-0.7,2-0.9c1.2-0.5,3.2-1.1,6-1.9c2.8-0.8,5-1.4,6.6-1.8c1.5-0.3,2.5-0.5,2.9-0.4
			c0.4,0.1,0.8,0.3,1.2,0.5c0.4,0.3,0.6,0.6,0.8,1.1c0.1,0.3,0,0.8-0.4,1.4c-0.4,0.6-0.8,1-1.3,1.1c-0.5,0.2-1.4,0.4-2.6,0.6
			c-2.1,0.3-4.5,0.8-7.2,1.6c-2.7,0.8-5.2,1.6-7.5,2.5c-1,0.4-2,1-2.9,1.7c-0.5,0.4-1.1,0.8-1.6,1c-0.3,0.1-0.7,0.2-1,0
			c-0.3-0.1-0.6-0.3-0.7-0.7c-0.5-1.3-0.1-3.2,1.1-5.9c1.3-2.6,3.3-5.6,6.2-8.9c3.5-4,5.7-7.1,6.5-9.2c0.8-2.1,0.9-3.9,0.4-5.4
			c-0.5-1.4-1.5-2.3-3-2.9c-1.4-0.6-3-0.6-4.5,0.1c-1.5,0.6-2.7,1.3-3.7,2.3c-1,1-1.9,2.3-2.5,4.1c-0.3,0.7-0.6,1.2-1,1.3
			c-0.5,0.2-1,0.2-1.6,0c-0.5-0.2-0.9-0.5-1.1-1c-0.6-1.4,0-3.2,1.8-5.4s4.1-3.9,7.2-5.1c2.6-1,5.1-1.1,7.5-0.2
			c2.4,0.9,4.1,2.6,5,5.1c1,2.5,0.9,5.1-0.2,8s-3.7,6.5-8,11.1C390.8,598.4,389.3,600.4,388.3,602.4z"/>
		<path class="st5" d="M433.8,567.6c2.1-1.3,3.5-2.1,4-2.4c0.5-0.3,0.9-0.4,1.2-0.3c0.3,0,0.6,0.3,0.9,0.9c0.4,0.7,0.5,1.3,0.3,1.9
			c-0.2,0.6-0.6,1.1-1.3,1.5c-1.8,1-3.3,1.9-4.3,2.5c0.8,4.1,1.5,7.1,2.2,9c0.6,1.5,0.9,2.6,0.9,3.2s-0.4,1.1-1.2,1.6
			c-0.6,0.3-1.1,0.4-1.6,0.2c-0.5-0.2-0.9-0.6-1.3-1.2c-0.7-1.3-1.6-4.9-2.6-10.6c-6.2,3.7-9.9,5.9-11.1,6.5c-0.6,0.4-1.3,0.4-2,0.2
			c-0.7-0.2-1.2-0.6-1.6-1.2c-0.4-0.7-0.6-2.7-0.5-6.1c0.1-3.4,0.5-6.7,1.2-9.8c0.8-3.2,1.7-5.1,2.8-5.7c1.1-0.6,1.8-0.6,2.2,0.1
			c0.3,0.5,0.2,1.1-0.2,1.9c-1.1,2.2-1.7,5.1-2,8.9c-0.3,3.8-0.3,6.2,0,7.4c1.1-0.6,4.6-2.7,10.4-6.2c-0.8-4.8-1.2-8.5-1.5-11.1
			c-0.2-2.6-0.3-4.4-0.2-5.4c0.1-0.9,0.5-1.6,1.2-1.9c0.7-0.4,1.2-0.2,1.7,0.5c0.2,0.4,0.4,1.5,0.5,3.1c0.1,1.6,0.3,3.5,0.7,5.6
			L433.8,567.6z"/>
	</g>
</g>
</svg>
