<?xml version="1.0" encoding="utf-8"?>
<!-- Generator: Adobe Illustrator 22.1.0, SVG Export Plug-In . SVG Version: 6.00 Build 0)  -->
<svg version="1.1" id="Capa_1" xmlns="http://www.w3.org/2000/svg" xmlns:xlink="http://www.w3.org/1999/xlink" x="0px" y="0px"
	 viewBox="0 0 300 300" style="enable-background:new 0 0 300 300;" xml:space="preserve">
<style type="text/css">
	.st0{display:none;}
	.st1{display:inline;}
	.st2{fill:#FFFFFF;}
</style>
<g class="st0">
	<path class="st1" d="M83.6,51.4c3.3,1.1,4.6,3.7,4,6.3c-0.7,2.8-2.6,4.1-6.5,4.1c-9,0-18.1,0-27.1,0c-0.8,0-1.6,0-2.4,0
		c-2.3,0.1-3.8,1.3-3.9,3.6c-0.1,2,1.5,3.5,3.9,3.7c0.9,0.1,1.8,0,2.7,0c16.7,0,33.4,0,50.2,0c1,0,2,0,3,0.1
		c2.8,0.4,4.9,2.6,4.9,5.3c0.1,2.7-2.2,5.2-5,5.5c-0.8,0.1-1.6,0.1-2.4,0.1c-30.7,0-61.5,0-92.2,0c-1.1,0-2.2-0.1-3.2,0.1
		c-1.9,0.2-3.3,1.2-3.2,3.3c0.1,1.9,1.1,3.2,3.1,3.5c0.4,0.1,0.9,0.1,1.4,0.1c13.3,0,26.6,0.1,39.8,0c4.2,0,7.2,2.3,7.1,5.8
		c-0.1,3.1-2.3,5.1-5.8,5.1c-8.6,0.1-17.2,0-25.8,0c-1.2,0-2.3-0.1-3.5,0.4c-1.6,0.6-2.7,1.6-2.6,3.4c0,1.9,1.2,3,2.9,3.5
		c0.9,0.2,2,0.2,3,0.2c19.2,0,38.3,0,57.5,0.1c1.1,0,3.1-0.8,3.1,1c0,1.3-2,0.7-3.1,0.7c-20.9,0-41.8,0-62.6,0
		c-1.5,0-3.1,0.1-4.5-0.8c-2.2-1.5-2.9-3.7-2.3-6.2c0.7-2.7,2.8-3.8,5.3-3.9c3-0.2,6-0.1,8.9-0.1c7.7,0,15.4,0,23.1,0
		c2.8,0,4.6-1.3,4.7-3.4c0.1-2.2-1.7-3.6-4.8-3.6c-12.9,0-25.9,0-38.8,0c-1.5,0-2.9,0-4.3-0.5c-2.5-0.9-3.8-3.1-3.5-5.7
		c0.3-2.6,1.9-4.3,4.6-4.6c1.2-0.1,2.3-0.1,3.5-0.1c29.2,0,58.4,0,87.6,0c4.3,0,6.3-1.3,6.2-3.9c-0.1-2.4-2.1-3.5-6.3-3.5
		c-15.3,0-30.6,0-45.8,0c-1.1,0-2.2,0-3.2-0.1c-3.1-0.4-5.3-2.9-5.2-5.6c0.1-2.7,2.6-5.1,5.7-5.2c3.3-0.1,6.5,0,9.8,0
		c6.7,0,13.4,0,20.1,0c1.5,0,2.9-0.1,3.9-1.5c1.7-2.3,0.4-5.2-2.7-5.5c-5.2-0.5-10.5-0.5-15.7-0.4c-0.8,0-1.6,0.1-2.4,0
		c-0.8-0.1-2.2,0.3-2.2-0.9c0.1-1.1,1.4-0.8,2.3-0.8c4.9,0,9.8,0,14.6,0C80.4,50.9,82.6,51,83.6,51.4z"/>
	<path class="st1" d="M257.9,171.7c9.9,0,19.9,0,29.8,0c1.8,0,3.6,0.1,5,1.5c3.1,3.2,1.7,8.1-2.6,9.1c-1.1,0.3-2.3,0.3-3.5,0.3
		c-15.8,0-31.6,0-47.4,0c-1.8,0-3.5,0-4.5,1.8c-1.4,2.6,0.4,5.2,3.7,5.2c8,0.1,15.9,0,23.9,0c2.9,0,5.8,0,8.7,0
		c3.9,0.1,6.3,2.2,6.3,5.6c0,3.4-2.2,5.3-6.4,5.3c-7.3,0-14.6,0-22,0c-0.9,0-2.5,0.5-2.5-0.8c0-1.4,1.7-0.9,2.7-0.9
		c6.9-0.1,13.7,0,20.6,0c0.9,0,1.8,0,2.7-0.1c1.8-0.3,2.9-1.5,3.1-3.3c0.2-1.8-0.8-2.9-2.4-3.6c-1.2-0.5-2.5-0.4-3.7-0.4
		c-10.5,0-20.9,0-31.4,0c-2.4,0-4.2-0.9-5.1-3.2c-0.9-2.3-0.3-4.3,1.3-6c1.3-1.4,3.1-1.4,4.8-1.4c13.9,0,27.8,0,41.8,0
		c1.6,0,3.2-0.2,4.8-0.4c2.1-0.3,3.2-1.6,3-3.8c-0.2-2.1-1.5-2.9-3.4-3.1c-0.8-0.1-1.6-0.1-2.4-0.1c-19.8,0-39.6,0-59.4,0
		c-3.7,0-6.1-2-6.3-5.3c-0.1-3.1,2.3-5.7,5.9-5.7c13.1-0.1,26.2,0,39.3,0c0.8,0,2-0.2,2,0.8c0,1.2-1.4,0.9-2.2,0.9
		c-11.1,0-22.2,0-33.3,0c-1,0-2,0-3,0.1c-2.2,0.3-3.5,1.7-3.5,3.8c0.1,2.1,1.6,3.1,3.6,3.4c1.2,0.1,2.3,0.1,3.5,0.1
		C238.9,171.7,248.4,171.7,257.9,171.7z"/>
	<path class="st1" d="M150.6,22.2c31.6,0.5,58.7,10.5,81.7,30.6c22.1,19.3,35.3,43.7,40.4,72.6c1,6,1.6,12,1.4,18.1
		c0,0.8,0.4,2.2-0.8,2.2c-1.1,0-0.9-1.4-0.9-2.2c-0.1-13.2-2.5-26.1-6.9-38.5c-4.6-13-11.2-24.8-19.9-35.5
		c-18.4-22.7-41.9-37.1-70.5-42.9c-22.7-4.6-45.1-2.6-66.9,5.4c-0.9,0.3-2.4,1.5-2.8,0.3c-0.6-1.5,1.4-1.5,2.4-1.9
		c11.9-4.6,24.2-7.3,36.9-7.8C147,22.4,149.3,22.2,150.6,22.2z"/>
	<path class="st1" d="M28.2,143.7c0.2-2.8,0.5-7,0.8-11.1c0.1-0.8,0-2.2,1.1-2.1c1.2,0.1,0.8,1.4,0.7,2.3
		c-3.1,34.4,6.1,65,28.5,91.3c18.9,22.2,43,35.7,71.8,40.8c1.7,0.3,3.4,0.5,5.1,0.8c0.5,0.1,0.9,0.4,0.8,0.9c-0.1,0.5-0.6,0.7-1,0.7
		c-1.7-0.2-3.4-0.3-5.1-0.6c-28.1-5-51.9-18-71-39.2c-17.4-19.3-27.5-42-30.6-67.8C28.7,154.8,28.3,149.9,28.2,143.7z"/>
	<path class="st1" d="M168,272.8c-8,0-15.9,0-23.9,0c-3.8,0-5.9-2.1-5.9-5.6c0-3.4,2.3-5.3,6.4-5.4c9.9,0,19.9,0,29.8,0
		c0.8,0,1.6,0,2.4,0c2.3-0.1,3.6-1.3,3.6-3.5c0.1-2.3-1.5-3.3-3.5-3.4c-3.3-0.2-6.7-0.1-10-0.1c-2.9,0-5.8,0-8.7,0
		c-0.7,0-1.7,0-1.7-0.9c-0.1-1.1,1-0.8,1.6-0.8c6.2,0,12.5,0,18.7,0c3.3,0,5.3,2.1,5.4,5.2c0.1,3.2-1.7,5.2-5.2,5.3
		c-8.8,0.1-17.5,0-26.3,0c-1.2,0-2.4-0.1-3.5,0.1c-2.1,0.3-3.6,1.4-3.6,3.7c0,2.2,1.5,3.1,3.5,3.5c0.9,0.1,1.8,0.1,2.7,0.1
		c13.7,0,27.5,0,41.2,0c1.1,0,3-0.6,3,0.8c0,1.4-1.9,0.9-2.9,0.9C183.5,272.8,175.8,272.8,168,272.8C168,272.8,168,272.8,168,272.8z
		"/>
	<path class="st1" d="M190.6,36c0.5-1,1.4-0.5,2.1-0.2c4.3,1.5,8.5,3.5,12.6,5.6c16.4,8.5,29.9,20.4,40.8,35.3
		c5.9,8,10.6,16.8,14.3,26.1c0.3,0.8,0.5,1.5,0.7,2.3c0.1,0.4,0.1,0.9-0.4,1.1c-0.5,0.2-0.9-0.2-1.1-0.6c-0.5-1-0.9-2-1.3-3
		c-9.8-23.9-25.6-42.7-47.8-56.1c-5.6-3.4-11.3-6.4-17.5-8.5C191.3,37.2,190.5,36.6,190.6,36z"/>
	<path class="st1" d="M152.1,28.1c10.5,0,20.8,1.8,31,4.5c0.8,0.2,2.2,0.3,1.8,1.5c-0.4,1.2-1.6,0.4-2.4,0.2
		c-10.4-2.9-21-4.5-31.8-4.3c-20.3,0.3-39.5,5.2-57.1,15.5c-0.8,0.5-1.8,1.6-2.5,0.3c-0.6-1.1,0.8-1.4,1.5-1.8
		c15.8-9.1,32.9-14.3,51.1-15.4c1.4-0.1,2.9-0.3,4.3-0.4C149.4,28,150.8,28.1,152.1,28.1z"/>
	<path class="st1" d="M34.2,148.4c0.4-1.2-0.6-3.5,0.8-3.4c1.7,0,0.9,2.3,1,3.6c0.6,14.5,3.5,28.5,9.2,41.8c4.7,11,10.9,21,18.7,30
		c0.6,0.7,2.1,1.8,1,2.6c-1,0.8-1.8-0.7-2.5-1.5c-13.6-15.8-22.3-34-26.2-54.5C35.1,160.9,34.6,154.7,34.2,148.4z"/>
	<path class="st1" d="M183.4,262.7c0.3-0.9,1.2-1,2-1.2c7.3-2.1,14.3-4.9,21.1-8.4c13.4-6.8,25-16.1,35.2-27.1
		c0.7-0.7,1.3-2.7,2.6-1.6c1,0.9-0.6,1.8-1.2,2.6c-8.4,9.8-18.4,17.8-29.5,24.3c-8.5,5-17.5,9-27,11.6c-0.7,0.2-1.4,0.3-2.1,0.4
		C183.8,263.5,183.4,263.3,183.4,262.7z"/>
	<path class="st1" d="M119.6,258c-2.8-0.9-6.1-1.9-9.3-3.1c-10.2-3.8-19.7-9-28.5-15.4c-0.4-0.3-0.7-0.5-1.1-0.8
		c-0.6-0.6-1.9-1.1-1.2-2.1c0.8-1,1.6,0.2,2.3,0.7c11.5,8.7,24.3,14.9,38.1,19c0.7,0.2,1.6,0.2,1.7,1.1
		C121.6,258.2,120.7,258.1,119.6,258z"/>
	<path class="st1" d="M30.9,55.6c4.5,0,7.7,3.3,7.7,7.7c0,4.2-3.6,7.6-7.9,7.6c-4.2,0-7.4-3.3-7.4-7.7
		C23.2,58.8,26.4,55.6,30.9,55.6z M25,63.3c0,3,2.6,5.7,5.6,5.8c3.1,0.1,6.1-2.9,6.1-6c0-3.1-2.7-5.8-5.9-5.8
		C27.4,57.4,25,59.8,25,63.3z"/>
	<path class="st1" d="M187.4,255.5c0.4-1.1,1.5-1.2,2.4-1.5c9.5-3.5,18.5-8,26.9-13.8c1.3-0.9,2.6-1.9,3.9-2.8
		c0.7-0.5,1.6-1.8,2.4-0.7c0.7,1-0.7,1.7-1.5,2.2c-3.2,2.3-6.5,4.6-9.8,6.7c-7,4.2-14.3,7.7-22,10.3
		C188.2,256.4,187.5,256.2,187.4,255.5z"/>
	<path class="st1" d="M268.6,144.6c-0.3,4.6-0.6,9-1,13.4c-0.1,0.6-0.1,1.7-1.1,1.5c-0.9-0.2-0.7-1.1-0.6-1.8
		c0.8-8.7,0.8-17.4-0.1-26.2c-0.1-0.7-0.5-1.9,0.5-2.1c1.3-0.2,1.2,1.1,1.2,1.9C267.9,135.8,268.2,140.3,268.6,144.6z"/>
	<path class="st1" d="M249.5,216.8c0.1-2.1,1.8-3.7,3.9-3.6c2,0.1,3.7,1.9,3.7,3.9c0,2-1.8,3.6-3.9,3.6
		C251,220.6,249.5,218.9,249.5,216.8z"/>
	<path class="st1" d="M286,155.1c0,3-1.8,4.9-4.8,4.9c-3,0-5-1.8-5.1-4.7c-0.1-2.8,2.2-5.2,5-5.2C283.9,150.1,285.9,152.2,286,155.1
		z M284.2,155.1c-0.1-2-1.3-3.1-3.1-3.1c-2.1,0-3.2,1.3-3.2,3.3c0,1.9,1.3,3,3.2,2.9C283.1,158.1,284,156.9,284.2,155.1z"/>
	<path class="st1" d="M48.5,126.7c0,2.8-2.2,4.9-5,4.9c-2.6,0-4.9-2.3-5-5c0-2.8,2.1-5,4.9-5C46.4,121.6,48.5,123.7,48.5,126.7z
		 M46.7,126.9c0-2.2-1.2-3.4-3.1-3.5c-1.9,0-3,1.3-3.1,3.1c-0.1,1.9,1,3.4,3.1,3.3C45.4,129.8,46.5,128.7,46.7,126.9z"/>
	<path class="st1" d="M163.9,280.1c0.3-1.7,1-3.1,3.1-3c1.9,0.1,3.3,1.2,3.3,3.2c0,2-1.2,3.2-3.2,3.2
		C165,283.5,164.1,282,163.9,280.1z"/>
</g>
<g>
	<path class="st2" d="M274.3,161.6h-250v85.3c0,12.8,10.4,23.2,23.2,23.2h203.3c13,0,23.5-10.5,23.5-23.5V161.6z"/>
	<g>
		<path d="M274.1,204.4c-12.4-8.7-25.6-10.9-39.7-7.1c-6.8,1.8-12.7,5.5-18,10.4c1.1,0.5,2,1.1,3,1.3c0.5,0.1,1.3-0.2,1.8-0.5
			c5.5-4.3,11.4-7.5,18.4-8.6c11.5-1.9,22.2,0.4,32,6.8c0.6,0.4,1.6,0.4,2.6,0.6c0,3.9,0,8.2,0,12.5c-3.4,0-6.7,0-10.2,0
			c0-2,0-3.8,0-6.1c-1.3,0-2.5,0-3.6,0c-12.1,0-24.2,0.1-36.3,0c-2.5,0-5.1-0.5-7.5-1.3c-5.8-2-11.6-2.3-17.3-0.2
			c-3.5,1.3-7,1.7-10.7,1.6c-6.6-0.1-13.2-0.1-19.8,0c-3.5,0-7-0.3-10.3-1.6c-5.8-2.2-11.6-2.1-17.3,0.1c-2.9,1.1-5.9,1.5-9.1,1.5
			c-7.1-0.1-14.1-0.1-21.2,0c-3.7,0-7.3-0.4-10.8-1.7c-5.6-2-11.2-1.7-16.8,0.3c-2.3,0.8-4.9,1.3-7.3,1.3c-12.2,0.1-24.4,0-36.7,0
			c-0.6,0-1.3,0-2.1,0c0,2,0,3.9,0,6c-4.3,0-8.3,0-12.5,0c0-4.2,0-8.5,0-13.1c0.7,0.3,1.3,0.6,1.9,1c10.3-7.3,21.8-9.7,34.2-7.7
			c6.1,1,11.5,3.4,16.3,7.3c2,1.6,3.7,2.5,6.1,0.4c-8.1-7.3-17.5-11.4-28.4-11.9c-11-0.6-20.9,2.4-30.2,9c0-2-0.2-3.5,0.1-4.9
			c0.1-0.6,0.9-1.3,1.5-1.7c5.8-3.1,12-4.8,18.5-5.7c1.2-0.2,2.5-0.3,3.7-0.6c-8.5-3-16.2-0.6-23.5,3.8c-0.8-3.3-0.6-3.8,2.2-5.1
			c7.8-3.7,15.9-4.4,24.2-1.7c2.5,0.9,4.9,2.2,7.5,2.9c1.8,0.5,4,0.8,5.6,0.2c6.6-2.4,13.3-4.4,20.3-4.4c-2.5-2.8-5.1-5.4-7.2-8.3
			c-4.5-6.1-6.4-13.2-7.5-20.5c-0.2-1.6-0.5-3.1-1-4.6c-1.3-4.2-3.8-7.2-8.4-8c-2.8-0.5-5.1-1.7-6.4-4.4c-2.4-5.1,0.8-10.5,6.6-11.1
			c4.5-0.5,8.4,1.2,12.1,3.4c7,4.2,12.4,9.8,16.1,17.1c0.1,0.2,0.3,0.4,0.3,0.6c0.4,4.3,3.9,5.1,7.4,6.1c0.1-0.6,0.1-1.1,0.1-1.7
			c0-6.5,0-13,0-19.5c0-1.3-0.4-1.8-1.7-2c-9.7-1.5-16.7-6.5-20-16.1c-0.3-0.9-0.5-1.9-0.5-2.9c0-0.4,0.4-1,0.8-1.2
			c0.2-0.1,0.9,0.2,1.1,0.5c5,6.6,11.9,6.8,19,5.2c4-0.9,7.8-2.4,11.7-3.7c0.5-0.2,1.1-1,1.1-1.6c0.1-4.2,0-8.4-0.1-12.6
			c0-0.5-0.5-1.3-1-1.6c-5.5-3.5-8.1-8.7-9.2-14.9c-0.1-0.5,0.1-1.2,0.5-2c3.1,4.8,7.1,7.1,12.7,5.7c3.3-0.8,7-3.5,8.6-6.2
			c-10.3-1.8-15-8.5-16.4-18.3c-0.4-2.6-0.2-2.9,0.9-3.8c0.2,0.4,0.5,0.7,0.7,1.1c4.3,10.5,13.8,9.8,20.5,6.1
			c6.5-3.6,11-9.3,14.9-15.5c0.3-0.4,0.3-1.2,0.1-1.8c-0.8-2.2-0.2-4.1,1.5-5.5c1.1-0.9,1.3-1.9,1.3-3.2c-0.1-3.4,0.3-3.8,3.9-4.2
			c0-2.9,0-5.8,0-8.7c0-4,0-7.9,0-11.9c0-0.7-0.2-1.4-0.5-2c-1.4-2.2-1.3-4.2,0.4-5.5c1.3-1.1,3.6-1,4.9,0.2
			c1.5,1.3,1.5,3.4,0.2,5.4c-0.1,0.1-0.2,0.3-0.4,0.8c1.5-0.5,2.8-1,4.1-1.4c2.7-1,5.1-1.1,7.2,1.6c1.6,2.1,4.1,1.8,6.3,1.1
			c1.9-0.5,3.6-1.3,5.5-1.8c2.9-0.7,4.4,0.1,5.2,2.5c-3.8,0.2-5,3.1-6,5.9c-1,3-0.2,5.8,1.8,8.2c0.6,0.7,1.4,1.4,2.2,1.7
			c1.4,0.5,1.4,1.3,0.7,2.7c-4-2.3-7.8-0.5-11.7,0.6c-0.2,0.1-0.5,0.1-0.7,0.1c-3.4,0.6-4.8-0.1-6-3.3c-0.6-1.5-1.6-2.3-3.2-2.1
			c-1.4,0.2-2.9,0.5-4.3,0.8c-0.4,0.1-0.7,0.7-0.8,1.1c-0.1,0.9-0.1,1.7-0.1,2.6c0,0.9,0.3,1.3,1.3,1.4c2,0.3,2.7,1.1,2.5,3.2
			c-0.2,1.8,0.1,3.1,1.7,4.3c1.6,1.1,1.8,3,1.2,4.8c-0.4,1.1-0.2,1.9,0.4,2.7c4.4,6.7,9.4,12.7,17,16c2.1,0.9,4.5,1.3,6.8,1.4
			c4.8,0.1,8.2-2.3,10.4-6.5c0.5-1,0.9-2,1.4-3c1.4,0,1.3,1,1.3,1.8c-0.1,8.2-4.8,18.2-15.8,19.9c-0.2,0-0.3,0.2-0.6,0.3
			c2.6,3.3,5.7,5.5,9.8,6.2c4.5,0.7,8-0.8,10.4-4.8c0.2-0.3,0.7-0.5,1-0.8c0.2,0.4,0.6,0.9,0.6,1.3c-0.8,6.3-3.5,11.5-8.9,15
			c-0.9,0.6-1.3,1.1-1.3,2.2c0,3.9,0,7.8,0,11.7c0,0.9-0.1,1.9,1.1,2.3c5.4,1.9,10.8,3.8,16.6,4.3c5.7,0.4,10.6-1.1,14.2-5.9
			c0.2-0.3,0.9-0.6,1.1-0.5c0.4,0.2,0.8,0.8,0.8,1.2c-0.1,1-0.3,2-0.6,2.9c-2.8,8.4-8.7,13.5-17.3,15.5c-0.4,0.1-0.8,0.2-1.2,0.3
			c-3.3,0.7-3.3,0.7-3.3,4.2c0,6.4,0,12.7,0,19.3c1.9-0.6,3.7-1.2,5.5-1.9c0.4-0.1,0.7-0.7,0.9-1.2c4.1-11.2,11.8-19,22.8-23.5
			c2.5-1,5.2-1.2,7.9-0.4c3.3,1,5.5,3.7,5.6,7.1c0.1,3.3-1.9,6.2-5.1,7.5c-0.6,0.2-1.2,0.4-1.8,0.6c-4.3,0.8-7,3.5-8,7.6
			c-0.9,3.4-1.4,7-2.1,10.5c-2,9.2-6.5,16.8-13.8,22.8c-0.1,0.1-0.2,0.2-0.1,0.2c4,0.7,8.2,1.3,12.2,2.1c1.8,0.4,3.6,1,5.3,1.8
			c2.5,1.1,5.1,1.4,7.7,1c0.6-0.1,1.1-0.3,1.6-0.5c10.1-5,20.4-6,30.9-1.3c3.2,1.4,3.3,1.5,2.5,5.4c-7.6-4.3-15.4-7-24.2-3.9
			c4.4,0.8,8.7,1.4,12.8,2.6c3.5,1,6.8,2.6,10.3,3.9c1.1,0.4,1.5,1.1,1.3,2.3C274.1,201.4,274.1,202.6,274.1,204.4z M151.6,138.2
			c0,11,0,21.8,0,32.6c0.2,0,0.5,0,0.7,0.1c0.1-1.5,0.2-3,0.4-4.6c0.6,0.1,1.5,0.2,1.5,0.4c0.4,1.4,0.5,2.8,0.7,4.1
			c1.2,0,2.4,0,3.7,0c0-1.6,0-3.1,0-4.6c1.6-0.6,2.1-0.1,2,1.4c-0.1,0.6-0.1,1.3,0.1,1.9c0.1,0.4,0.4,0.7,0.7,1
			c0.3-0.3,0.8-0.6,0.8-0.9c-0.3-4,0.6-7.9,0.9-11.9c0.4-5.4,0.1-10.9,0.1-16.3c0-0.7,0-1.5,0-2c-1.5,0.2-2.7,0.3-3.7,0.4
			c-0.6-0.6-0.9-1.4-1.4-1.4C156,138.1,153.8,138.2,151.6,138.2z M139.7,166c0,1.7,0,3.1,0,4.7c1.4,0,2.5,0,3.6,0
			c1.2-1.3-1.2-4.3,2.5-4.4c0.1,1.3,0.1,2.4,0.2,3.6c0,0.3,0.4,0.5,0.6,0.8c0.2-0.3,0.4-0.5,0.5-0.8c0.1-0.3,0-0.7,0-1
			c0-9.5,0-18.9-0.1-28.4c0-0.7-0.1-1.4-0.1-2.2c-2.6,0-5.1,0-7.5,0c-0.1,0.6-0.2,1.1-0.3,2c-0.8-0.4-1.3-0.7-1.9-1.1
			c-0.1,0.1-0.3,0.4-0.7,1c-0.3-0.7-0.6-1.1-1-1.9c-0.1,1.2-0.2,1.9-0.2,2.7c0,4.3-0.2,8.6,0,13c0.2,5.2,0.6,10.3,0.9,15.5
			c0,0.4,0.6,0.8,0.9,1.2c0.2-0.1,0.4-0.2,0.6-0.3c0-1.4,0-2.9,0-4.3C138.4,166,138.9,166,139.7,166z M160.7,104.2
			c0,2.7,0,5.3,0,7.8c0,1.3,0,2.6,0.1,3.9c0,0.3,0.5,0.6,0.8,0.9c0.3-0.3,0.7-0.6,0.8-0.9c0.1-0.8,0.1-1.6,0.1-2.4c0-3,0-6,0-9.2
			c7.8,0,15.4,0,23.1,0c0,0.7,0.1,1.4,0.1,2c0,3,0,6,0,8.9c0,1.2,0.5,1.6,1.6,1.1c0-4.7,0-9.3,0-14c-25.5,0-50.9,0-76.3,0
			c0,4.5,0,8.8,0,13.1c0,1.2,0.6,1.4,1.7,1c0-4,0-8,0-12.1c7.9,0,15.5,0,23.3,0c0,0.7,0,1.3,0,1.8c0,3.2,0,6.3,0.1,9.5
			c0,0.4,0.6,0.8,0.9,1.2c0.2-0.4,0.7-0.8,0.7-1.2c0.1-3,0-6.1,0-9.1c0-0.7,0-1.5,0-2.3C145.5,104.2,153,104.2,160.7,104.2z
			 M126.3,179.9c0.1,0.2,0.3,0.4,0.4,0.6c0.7-0.3,1.6-0.5,2-1c1.1-1.4,1.9-3,2.8-4.6c-0.1-0.1-0.2-0.2-0.4-0.3
			c1,0.1,1.9,0.1,2.8,0.2c0.2,4,1.6,5.8,4.4,5.8c-1.2-1.7-3.3-2.9-2.8-5.3c3.4,0,6.7,0,10,0c0.4,2.6-1.6,3.8-3.2,5.5
			c3.2-0.2,4.2-1.4,5-5.5c1.1,0,2.2,0,3.2,0c0.5,3.6,2,5.4,4.7,5.3c-1-1.7-3.3-2.7-3-5.3c3.3,0,6.6,0,10,0c1.1,2.5-1.5,3.5-2.6,5.3
			c3-0.1,4.2-1.8,4.5-5.9c0.9-0.1,1.9-0.2,2.8-0.3c1.3,4.5,2.3,5.8,4.8,5.7c-0.5-0.6-1-1.1-1.3-1.7c-0.6-0.9-1.1-1.8-1.5-2.7
			c-0.1-0.3,0.3-1.2,0.6-1.3c3.3-0.5,6.6-0.9,10.3-1.4c-0.5,1.4-0.8,2.7-1.4,3.8c-0.6,1.1-1.6,1.9-2.6,3.1c3.5-0.1,6-4.4,5.7-9.1
			c-21.4,3.6-42.8,3.6-64.3-0.1c0,5.4,2.3,9.5,5.4,9.1c-2-2-3.6-4-3.5-6.9c3.5,0.5,6.9,0.9,10.3,1.4
			C129.6,177,128,178.5,126.3,179.9z M206.5,205.5c-9.4-6.9-19.9-10.2-31.5-9.2c-8.2,0.7-15.4,3.8-22.1,9c1,0.3,1.8,0.4,2.3,0.8
			c1.2,0.9,2.2,0.4,3.3-0.3c2.6-1.5,5.2-3,7.9-4c10.9-3.9,21.4-2.3,31.6,2.4c2.5,1.2,4.9,2.9,7.8,1.4
			C206.2,205.5,206.4,205.5,206.5,205.5z M91.9,205c2.6,1.3,4.9,1,7.5-0.3c2.6-1.4,5.5-2.4,8.3-3.2c11-3.1,21.7-2.7,31.3,4.1
			c2.2,1.5,3.8,1.1,5.8,0.1C132.1,193.3,109,192.8,91.9,205z M75.3,209.8c-1.9-1.2-3.5-2.4-5.2-3.2c-13.9-6.7-27.2-5.3-40.2,2.5
			c-1.5,0.9-1.3,2.1-0.9,3.3c2.9-1.5,5.6-3.1,8.5-4.2c11-4.3,21.9-4.5,32.5,1.2C71.7,210.4,73.1,210.6,75.3,209.8z M225,210
			c2.1,0.5,3.6,0.3,5.2-0.6c2-1.2,4.3-2.1,6.6-2.7c10.6-2.9,20.6-1.1,30,4.1c1,0.6,2.1,1.1,3.2,1.7c0.2-1.4,0.3-2.5-1-3.3
			c-10.6-6.6-21.8-8.7-33.8-5C231.6,205.3,228.2,207.1,225,210z M191.6,119.9c0.1-0.2,0.1-0.3,0.2-0.5c-0.5-0.2-0.9-0.5-1.4-0.6
			c-1.6-0.1-3.1-0.3-4.7-0.3c-20.7,0-41.5,0-62.2,0c-4.8,0-9.7,0.1-14.5,0.2c-0.6,0-1.3,0.3-1.9,0.5c0,0.2,0.1,0.4,0.1,0.6
			C135.3,119.9,163.5,119.9,191.6,119.9z M108.5,137.3c-1.5,3.5-2.9,6.9-4.3,10.3c-0.7,1.8-0.2,2.6,1.8,2.6c2.1,0,4.2,0,6.3,0
			c2.5,0,2.5,0,2.5-2.4c0-1.3,0-2.6,0-3.9c0-2.1,0-4.2,0-6.3C112.5,137.5,110.6,137.4,108.5,137.3z M194.5,150.1
			c-0.1-0.9-0.1-1.7-0.4-2.4c-1.4-3.2-2.8-6.4-4.3-9.6c-0.2-0.4-0.6-0.8-1-0.8c-1.7,0-3.3,0.2-4.9,0.3c0,4.2,0,8.3,0,12.4
			C187.5,150.1,190.8,150.1,194.5,150.1z M137.8,208.9c-6.8-8.2-26.1-7.9-32.4,0.4c0.6,0.1,1.2,0.2,1.7,0.4c1.7,0.7,3.2,0.3,4.7-0.7
			c7-4.3,14.1-4.1,21,0.1C134.7,210.3,136.2,209.8,137.8,208.9z M181.7,150.1c0-4.3,0-8.3,0-12.5c-2.8,0.1-5.5,0.3-8.2,0.4
			c0,4.1,0,8.1,0,12.1C176.3,150.1,179,150.1,181.7,150.1z M160.6,208.6c1.7,0.3,3,1.7,4.8,0.6c7.3-4.4,14.6-4.4,21.8,0.1
			c2.2,1.4,4,0.8,6.1,0.1C182.8,199.2,167.7,202.4,160.6,208.6z M116.8,150c2.8,0,5.4,0,8.1,0c0-4.1,0-8.1,0-12.2
			c-2.8,0-5.5,0-8.1,0C116.8,142,116.8,146,116.8,150z M104.3,152.1c0,2.7,0,5.2,0,7.7c0,0.4,0.4,1,0.6,1c1.5,0.4,3.1,0.7,4.8,1
			c0.1-1.1,0.2-2,0.3-3c1.3,0,2.5,0.1,3.6,0c0.4,0,1.1-0.5,1.1-0.8c0.1-1.9,0.1-3.9,0.1-5.9C111.1,152.1,107.8,152.1,104.3,152.1z
			 M68.7,138.1c0.2-0.1,0.4-0.3,0.5-0.4c5.4,4.6,10.7,9.3,16.1,13.9c0.1-0.1,0.2-0.2,0.4-0.3c-2.4-2.9-4.7-5.9-7.3-8.6
			c-4.1-4.1-8.9-7.5-14.7-8.7c-1.4-0.3-3.1,0-4.6,0.5c-0.8,0.3-1.7,1.6-1.7,2.3c0.1,1.3,1.2,2.1,2.7,2.4c-0.6-0.8-1.1-1.5-1.6-2.3
			c2-0.8,3.5-0.6,4,0.5c0.3,0.6,0.2,1.7-0.2,2.2c-1,1.4-2.4,1.2-3.8,0.6c-0.5-0.2-0.9-0.6-1.3-0.9c-0.3-0.2-0.5-0.4-1-0.8
			c0.4,2.1,1.4,3.4,3.3,3.7c1.5,0.2,3,0,3.8-1.6c1.3-2.6-0.9-3.8-2.4-5.3c0.1-0.1,0.2-0.3,0.3-0.4c2.4,1.4,4.8,2.8,7.3,4.3
			C68.7,138.6,68.7,138.4,68.7,138.1z M183.9,158.6c1.6,0.1,3,0.2,4.6,0.4c0.1,0.9,0.2,1.8,0.2,2.8c1.6-0.4,3.2-0.7,4.7-1.1
			c0.3-0.1,0.8-0.5,0.8-0.7c0.1-2.5,0-5.1,0-7.7c-3.6,0-6.9,0-10.3,0C183.9,154.3,183.9,156.3,183.9,158.6z M116.8,152.1
			c0,2.2,0,4.3,0,6.4c1.6,0.1,3.2,0.4,4.8,0.3c1.3,0,1.8,0.5,1.8,1.7c0,2.4,0,4.8,0,7.2c0,1,0.2,1.7,1.5,1.2c0-5.6,0-11.1,0-16.8
			C122.1,152.1,119.5,152.1,116.8,152.1z M181.8,152.2c-2.8,0-5.5,0-8.1,0c0,5.7,0,11.3,0,16.8c1.4,0.3,1.5-0.4,1.5-1.3
			c0-2.8,0-5.7,0-8.8c2.4,0,4.5,0,6.6,0C181.8,156.5,181.8,154.4,181.8,152.2z M237.4,139.3c1.5,0,2.4-1.1,2.5-2.3
			c0.1-0.8-0.7-1.9-1.5-2.4c-0.8-0.5-2-0.8-3-0.7c-1.9,0.3-3.8,0.7-5.5,1.5c-7.3,3.5-12.7,9-16.9,15.8c-0.1,0.2-0.1,0.4-0.2,0.8
			c2.8-2.7,5.3-5.2,8-7.6c2.7-2.4,5.3-4.9,8.2-6.2c0.7,0.3,1.1,0.6,1.2,0.5c1-0.6,2-1.2,2.9-1.9c1.2-0.9,2.5-1.5,4.4-1.1
			c-0.5,0.3-0.8,0.4-0.9,0.5c0.7,0.4,1.3,0.7,2,1.1C238.3,138,237.9,138.6,237.4,139.3z M221.6,159.5c-0.2-0.2-0.3-0.3-0.5-0.5
			c-8.4,7.5-17.8,13.1-28.7,16c10-1.4,19.7-3.5,27.3-10.7c-2.4,1.3-4.7,2.5-7.4,4C215.7,165.1,218.7,162.3,221.6,159.5z
			 M107.4,175.2c-11.6-2.6-21.7-8.2-30.4-16.3c-0.1,0.2-0.2,0.3-0.4,0.5c3.1,2.9,6.2,5.9,9.3,8.8c0,0.1-0.1,0.1-0.1,0.2
			c-2.7-1.6-5.4-3.1-8.4-4.8C83.7,170.9,100.4,175.2,107.4,175.2z M165.8,150.2c1.6,0,3,0,4.4,0c1.1,0,1.4-0.5,1.4-1.5
			c0-1.9,0-3.8,0-5.8c0-1.6,0-3.2,0-4.9c-1,0.1-1.8,0.2-2.7,0.2c0.5,0.2,0.8,0.2,1.6,0.5c-1.3,0.6-2.2,1.1-3.1,1.5
			C165.1,143.2,165.6,146.5,165.8,150.2z M132.7,150.1c0-1.2,0-2.3,0-3.4c0-1.9,0.3-3.9-1.6-5.3c-0.2-0.2,0-0.8,0-1.1
			c-1-0.4-1.9-0.8-3.2-1.4c0.8-0.3,1.1-0.4,1.8-0.6c-1.1-0.1-1.9-0.2-2.6-0.2c0,4.1,0,8,0,12C128.9,150.1,130.7,150.1,132.7,150.1z
			 M170.3,169.8c1.3-1.1,1.7-15.4,0.9-17.7c-1.8,0-3.6,0-5.3,0c0,2.6,0,5,0,7.6c1.3-0.3,2.3-0.6,3.4-0.9c0,0.7-0.1,1.6,0,1.6
			c1.5,0.4,1,1.5,1,2.4C170.4,165,170.3,167.2,170.3,169.8z M132.6,152.2c-1.9,0-3.8,0-5.7,0c0,5.6,0,11,0,16.4c0,0.3,0.5,0.7,0.8,1
			c0.4-2.5,0.3-4.8,0.4-7c0-0.8,0.5-1.6,0.7-2.3c0.2,0,0.3,0.1,0.5,0.1c-0.1-0.5-0.3-0.9-0.5-1.8c1.4,0.5,2.5,0.8,3.8,1.3
			C132.6,157.2,132.6,154.8,132.6,152.2z M68.3,194.9c1.5,0.6,2.7,1.2,4,1.6c0.7,0.2,1.5,0.3,2.2,0.1c5.9-1.9,11.8-3.6,18.1-3.1
			C84.4,190.5,76.4,191.4,68.3,194.9z M205.9,193.4c5.9-0.4,11.6,0.7,17.1,2.8c2.8,1.1,5.1,0.2,7.5-1.4
			C222.4,191.7,214.3,190.4,205.9,193.4z M211.6,158.1c-0.1-0.2-0.2-0.4-0.3-0.5c-0.3,0.1-0.5,0.2-0.8,0.3c-7.8,3.1-15.7,6-24,7.5
			c-0.4,0.1-0.8,0.7-1,1.2c-0.8,2.4-1.5,4.9-2.1,7.4c-0.3,1-0.2,2.1-0.3,3.1c0.2,0,0.5,0.1,0.7,0.1c1-2.9,2-5.8,2.9-8.7
			c0.3-1.1,0.8-1.4,1.8-1.7c5-1.4,10.1-2.8,15.1-4.5C206.3,161.2,208.9,159.5,211.6,158.1z M114.4,176.7c0.3-0.1,0.5-0.1,0.8-0.2
			c-0.1-0.8-0.2-1.7-0.3-2.5c-0.6-2.5-1.2-5-1.9-7.4c-0.2-0.5-0.9-1.1-1.5-1.2c-4.2-1.1-8.4-2-12.5-3.3c-4.1-1.3-8.1-2.9-12.5-4.6
			c1.1,0.8,1.8,1.3,2.5,1.8c6.4,4,13.5,6,20.8,7.4c1.2,0.2,1.7,0.6,2,1.9C112.5,171.3,113.6,174,114.4,176.7z M191.2,170
			c9.5,1,28.6-8.9,31.3-16.2C213.7,162.3,202.7,166.3,191.2,170z M76.5,154.9c7.9,9.5,18.1,14.5,30.4,15.2
			C96,166.6,85.4,162.5,76.5,154.9z M135.6,75.6c2.4,0.3,4.1-0.9,5-3.5c0.9-2.7,1.8-5.3,2.5-8c0.8-2.9,1.3-5.9,2-9.3
			C141.8,62.1,138.7,68.9,135.6,75.6z M162.9,75.7c-3.2-6.8-6.4-13.8-9.3-20.1c0.2,3.4,3,13.8,4.8,17.3
			C159.4,74.9,160.9,76,162.9,75.7z M143.3,75.6c0.7-0.1,1.4-0.2,2-0.2c1.6,0.2,2-0.6,2-2c0-2,0.2-4.1,0.2-6.1c0-3.6,0-7.1,0-10.3
			C146.3,62.9,144.8,69.2,143.3,75.6z M132.3,122.5c-2.3,0-4.8-0.8-5.4,2.6c0,0.1-0.1,0.2-0.2,0.3c-1.5,2-3,4.1-4.4,6.1
			c4.6,1,7.2-1.7,8.5-5.8c-1-0.2-2-0.3-3.1-0.5C129.6,124.8,131.9,125.6,132.3,122.5z M155.6,49.9c-0.2-2.3-1.1-3.3-3.3-3.4
			c-2.3-0.1-4.7,0-7,0.2c-0.7,0.1-1.5,0.6-2.1,1.2c-0.4,0.3-0.4,1-0.6,1.5c0.5,0.2,0.9,0.4,1.4,0.4c2.2,0.1,4.4,0,6.7,0
			C152.4,49.9,154,49.9,155.6,49.9z M218,169c-8.7,5.9-18.8,8.8-28.7,12C200,179.9,210.1,177.1,218,169z M176.8,131.4
			c-1-1.3-2.1-2.5-2.9-3.8c-0.9-1.4-1.5-2.9-2.3-4.3c-0.2-0.3-0.6-0.7-1-0.7c-1.2-0.1-2.5,0-3.7,0c0.5,2.8,2.5,2.5,4.3,2.8
			c-0.9,0.2-1.8,0.4-2.7,0.6C171.2,131.1,172.8,132.2,176.8,131.4z M150.7,57.3C150.8,57.3,150.7,57.2,150.7,57.3
			c-0.1,0-0.1,0.1-0.1,0.2c0.2,4.7,0.4,9.4,0.6,14.1c0.2,3.8,0.2,3.8,3.9,4.1c0.1,0,0.2-0.1,0.1-0.1
			C153.8,69.4,152.3,63.4,150.7,57.3z M81.2,170c7.5,7.2,17.3,9.7,27.5,11c-4.7-1.7-9.5-3.1-14.1-4.9C89.9,174.2,85.5,172,81.2,170z
			 M185.8,130.8c-2-2.6-4.1-5.2-6.1-7.8c-0.2-0.3-0.7-0.5-1-0.5c-1.1-0.1-2.3,0-3.4,0c-0.1,0.2-0.1,0.3-0.2,0.5
			c0.7,0.7,1.2,1.6,2,1.9c0.8,0.3,1.8,0,2.7,0c0,0.1,0,0.2,0,0.2c-0.9,0.2-1.7,0.5-2.7,0.8C179.5,128.8,181.6,131.9,185.8,130.8z
			 M116,122c-2.1,0.5-4.2,0.3-5.4,1.3c-2.8,2.4-5.4,4.8-9.2,6c5,0.9,8.8-0.5,11.6-4.1c-0.8-0.1-1.5-0.3-2.2-0.4
			C112.8,124.8,114.6,124.7,116,122z M220.3,200.4c-4.1-2.2-13.7-2.6-16.2-0.8c1.7,1.2,3.5,1.5,5.6,1.3c2.2-0.2,4.4,0.1,6.6,0.5
			C217.9,201.8,219.1,201.7,220.3,200.4z M197.2,129.3c-3.6-0.9-6.2-2.8-8.5-5.4c-1.5-1.7-3-2-5.6-1c0.8,0.7,1.4,1.5,2.2,1.8
			c0.8,0.3,1.7,0.2,3,0.3c-1.1,0.3-1.7,0.4-2.5,0.7C189,128.8,192.4,130.7,197.2,129.3z M94.4,199.3c-4.1-1.4-12.2-1-15.6,0.9
			c1.4,1.1,2.7,1.9,4.7,1.2c1.7-0.6,3.7-0.8,5.5-0.6C91.1,201.1,92.6,200.4,94.4,199.3z M147.6,125.6c-1.5,0-2.9,0-4.3,0
			c-0.5,2-1,4.1-1.4,6.2c6,0.1,5.1,0.4,5.7-4.6C147.5,126.7,147.5,126.2,147.6,125.6z M151.7,125.6c0.8,6.6,0.6,6.7,5.8,6
			c-0.5-2-1-4-1.5-6C154.6,125.6,153.2,125.6,151.7,125.6z M132.1,131.8c4.4,0.5,6.5-1.2,7.1-6.1c-0.9-0.1-1.8,0-2.6-0.2
			c-1.1-0.3-1.5,0.1-1.9,1.1C133.9,128.3,133,130,132.1,131.8z M160,125.7c1.1,5,3.2,6.7,7,6c-0.9-1.9-1.7-3.9-2.6-5.8
			c-0.1-0.3-0.7-0.6-1-0.6C162.3,125.4,161.2,125.6,160,125.7z M206.2,126.5c-0.6-0.1-1.1-0.2-1.7-0.2c-2.9-0.4-5.6-1.3-7.8-3.2
			c-1.4-1.2-3.2-1.5-5.1-0.6C195.8,126.5,200.6,128,206.2,126.5z M122.1,125.7c-2.5-0.5-4.8-1-6.4,1.8c-0.3,0.6-1.1,1-1.7,1.5
			c-0.6,0.5-1.1,1-1.8,1.6C116.6,131.6,119.8,129.4,122.1,125.7z M107.5,122.2c-2.4-0.3-4.3-0.1-6.2,1.1c-2.2,1.4-4.9,2-7.4,2.9
			c-0.6,0.2-1.2,0.3-1.7,0.4C98,127.9,102.9,126.1,107.5,122.2z M124.5,108c-2.7,0-5.5,0-8.2,0c-0.3,0-0.6,0.4-0.9,0.7
			c0.3,0.2,0.6,0.6,0.9,0.6c5.4,0,10.7,0,16.1,0c0.3,0,0.7-0.4,1-0.6c-0.4-0.2-0.8-0.6-1.1-0.6C129.7,108,127.1,108,124.5,108z
			 M158.4,108.5c-0.1-0.1-0.2-0.3-0.2-0.4c-5.7,0-11.3,0-17,0c-0.3,0-0.5,0.4-0.8,0.6c0.3,0.2,0.6,0.6,0.8,0.6c5.4,0,10.7,0,16.1,0
			C157.7,109.3,158.1,108.8,158.4,108.5z M174.1,108C174.1,108,174.1,108,174.1,108c-2.7,0-5.4,0-8,0.1c-0.4,0-0.7,0.4-1.1,0.6
			c0.4,0.3,0.7,0.7,1.1,0.7c5.2,0,10.4,0,15.5-0.1c0.4,0,0.8-0.5,1.2-0.7c-0.4-0.2-0.8-0.6-1.2-0.6C179.1,107.9,176.6,108,174.1,108
			z M198.8,136.6c-0.2,0-0.4,0-0.6,0.1c0,6.1,0,12.1,0,18.2c0.6-0.3,1.1-0.8,1.1-1.4c0.1-4.1,0.1-8.2,0-12.3
			C199.2,139.7,198.9,138.1,198.8,136.6z M99.8,156.2c0,0,0.1,0,0.1,0c0-6.5,0-13,0-19.4c-1.3,5.9-1.6,18.8-0.7,18.7
			c0.1-0.4,0.2-0.9,0.3-1.7C99.7,154.8,99.8,155.5,99.8,156.2z M175.2,88.3c1.5,1.7,2.9,3.4,4.5,4.9c2,2,4.2,2.6,6,2
			c-2.1-1.7-4.6-3.2-6.4-5.3C178.1,88.4,177,87.9,175.2,88.3z M136.6,65.7c-3.3,3.7-6.5,7.2-9.6,10.6
			C130.4,76.9,134.9,72.1,136.6,65.7z M141,88.2c-1.1,0-2.2,0-3.2,0c-0.3,1.2-0.6,2.3-0.9,3.3c-0.3,1-0.6,2-1,3.1
			C139.4,94.8,140.3,93.6,141,88.2z M156.7,191c0.1-0.2,0.1-0.5,0.2-0.7c-0.7-0.3-1.3-0.7-2-0.8c-3.8-0.1-7.7,0-11.5,0
			c-1.1,0-1.6,0.3-1.6,1.5C146.9,191,151.8,191,156.7,191z M112.4,95.5c5.6,0.1,7.9-3.6,10.2-7.4c-1,0.1-1.9,0.5-2.6,1
			c-1,0.7-1.7,1.7-2.7,2.5C115.8,92.9,114.2,94.1,112.4,95.5z M155.3,199.2c-4.4,0-8.4,0-12.8,0
			C145.7,201.7,151.9,201.6,155.3,199.2z M161.6,65.3c1.5,4.1,3.2,7.6,6.4,10.1c0.9,0.7,2.2,0.9,3.7,1.4
			C168.2,72.8,165,69.2,161.6,65.3z M212.7,176.6c-6.1,2.8-12.2,5.5-18.3,8.3C201.3,184,207.5,181.3,212.7,176.6z M158.1,89.6
			c0.6,4,1.5,5.5,4.7,5c-0.6-2.1-1.3-4.2-1.9-6.2c-1.1,0-2.1,0-3.2,0c0,0.2,0,0.4,0,0.5c0.8,0.1,1.5,0.2,2.3,0.3c0,0.1,0,0.1,0,0.2
			C159.3,89.5,158.8,89.5,158.1,89.6z M104.5,185c-5.9-2.6-12.4-5.5-18.6-8.2C91,181.8,97.9,184,104.5,185z M178.1,95.7
			c-1.2-1.8-2.7-3.4-3.5-5.2c-0.9-2.1-2.2-2.3-4.1-2.3C172,91.9,173.7,95.1,178.1,95.7z M183.6,114.3c-0.3-0.1-0.4-0.3-0.6-0.3
			c-5.8,0-11.6,0-17.5,0c-0.3,0-0.6,0.4-1.2,0.7C167,115.6,182.7,115.2,183.6,114.3z M124.7,113.9
			C124.7,113.9,124.7,113.9,124.7,113.9c-2.9,0-5.7,0-8.6,0c-0.4,0-0.7,0.3-1.1,0.5c0.4,0.2,0.8,0.6,1.2,0.6c5.5,0,10.9,0,16.4,0
			c0.4,0,0.8-0.4,1.2-0.6c-0.4-0.2-0.8-0.5-1.3-0.5C129.9,113.9,127.3,113.9,124.7,113.9z M120.6,95.6c3.7-0.7,6.5-3.6,7-7.4
			c-0.9,0.1-1.8,0.1-2.3,0.2C123.7,91,122.1,93.3,120.6,95.6z M159.2,114.5c-0.6-0.3-0.7-0.4-0.8-0.4c-5.8,0-11.6-0.1-17.5-0.1
			c-0.3,0-0.6,0.3-0.9,0.5c0.3,0.2,0.7,0.6,1,0.6c5.6,0,11.2,0,16.8,0C158.1,115.1,158.4,114.8,159.2,114.5z M132.7,89.1
			c-0.8,0.3-1.9,0.4-2.3,1c-0.9,1.4-1.5,3-2.2,4.5c3.1,0.5,4.9-1.6,5.5-6.5c-1.1,0.1-2.1,0.1-3.2,0.2c0,0.2,0,0.4-0.1,0.6
			C131.3,88.9,132,89,132.7,89.1z M144.7,88.2c-0.3,2.1-0.6,4.1-0.8,6.1c3.1,0.2,3.2,0,3.5-2.7c0.1-1.1,0.2-2.2,0.3-3.4
			C146.8,88.2,145.8,88.2,144.7,88.2z M129.2,70.5c-4.3,2.7-8.3,5-13.5,5.1C121,77.7,126.3,75.6,129.2,70.5z M167.2,88.4
			c-0.8,0-1.7,0-2.6,0c1.2,3.1,1.6,6.6,5.9,6.5C169.5,92.8,168.4,90.7,167.2,88.4z M155.2,95c-1.1-2.1,0.5-5.2-3.1-5.9
			c0.8-0.1,1.5-0.2,2.2-0.3c0-0.2-0.1-0.5-0.1-0.7c-1,0-2.1,0.1-3.1,0.1C151.3,93.9,151.9,94.4,155.2,95z M169.5,70.7
			c2.8,5.1,9,7.2,13,4.8C177.6,75.6,173.6,73.5,169.5,70.7z M140.9,179.1c-1.1,1.6-1.8,2.7-2.6,3.7c-0.3,0.4-0.8,0.8-1.1,1.2
			c0.5,0.4,1,0.9,1.4,1.3c1.9-2.1,1.9-2.1,4,0.1c0.6-0.4,1.1-0.9,1.7-1.3C142.1,182.8,140.7,181.7,140.9,179.1z M157.3,179.8
			c-0.1,0.2-0.2,0.7-0.5,1c-0.4,0.7-0.9,1.3-1.4,1.9c-0.4,0.5-0.8,0.9-1.1,1.3c0.5,0.4,1,0.8,1.4,1.2c1.9-2.2,2-2.2,3.7-0.2
			c1.8-1,1.8-1.2,0.2-2.4C158.8,182,158.2,180.9,157.3,179.8z M175.6,184.8c0.5-0.6,1-1.1,1.8-2c-2.8-0.1-2.9-2.2-3.5-3.6
			c-1.2,1.6-2.3,3.1-3.5,4.8c0.3,0.2,0.8,0.6,1.2,0.9C173.7,182.7,173.7,182.7,175.6,184.8z M124.5,179c-0.8,1.2-1.5,2.2-2.2,3.2
			c-0.3,0.4-0.7,0.8-1.1,1.2c0.4,0.4,0.9,0.8,1.4,1.2c0.4-0.5,0.7-0.8,1-1.1c0.3-0.3,0.6-0.5,0.9-0.8c2.7,2.3,2.7,2.3,3.4,0.3
			C125.6,182.7,125,180.8,124.5,179z M240.8,138.8c-2,1.8-3.6,2.3-4.9,1.4c-1.2-0.9-1.4-2-0.4-3.5c-1.8,0.9-2,2-1.4,3.4
			c0.7,1.5,2.3,2.3,4.1,2C239.9,141.9,240.8,140.7,240.8,138.8z M152.5,42c0.1-0.1,0.2-0.3,0.4-0.4c-0.3-0.4-0.6-1.1-0.9-1.1
			c-1.9,0-3.8,0-5.7,0.2c-0.3,0-0.5,0.5-0.7,0.8c0.3,0.2,0.6,0.6,0.9,0.6C148.5,42,150.5,42,152.5,42z M118.6,124.6
			c3.6,0.8,5,0.3,5.5-2.2C122.1,122.7,119.6,121.5,118.6,124.6z M163.8,124.7c-0.1-2.4-1.2-2.8-4.8-1.9
			C159.8,125.2,159.8,125.2,163.8,124.7z M151.3,122.6c0.3,2.5,0.7,2.7,4.5,2.1c0-0.6,0-1.3,0-2.1
			C154.2,122.6,152.8,122.6,151.3,122.6z M143.4,122.6c-0.1,2.3,0,2.3,3,2.3c1.9,0,1.3-1.2,1.4-2.3
			C146.3,122.6,144.9,122.6,143.4,122.6z M140.3,122.5c-4.8-0.2-4.8-0.2-4.6,2C139,125.6,139.6,125.4,140.3,122.5z M175.7,187.7
			c0.9,1.8,5,1.5,7.6,0C181.1,187.7,178.5,187.7,175.7,187.7z M193.2,138.2c0.4-0.2,0.9-0.3,1.3-0.5c0-0.1,0-0.3,0-0.4
			c-0.9,0-1.9-0.1-3.1-0.2c0.8,1.8,1.4,3.3,2.1,4.9c0.6-0.1,1.2-0.3,1.7-0.4c0-0.1-0.1-0.2-0.1-0.3c-0.6-0.1-1.2-0.3-2.3-0.6
			c0.9-0.5,1.4-0.7,2-1C194.3,139.1,193.7,138.7,193.2,138.2z M122.5,187.8c-2.4,0-4.8,0-7,0C119.2,189.4,121.6,189.5,122.5,187.8z
			 M136.7,84.6c-0.1,0.2-0.2,0.3-0.3,0.5c0.3,0.3,0.6,0.8,1,0.9c0.9,0.1,1.9,0.1,2.8,0c0.3,0,0.6-0.4,0.9-0.6
			c-0.3-0.2-0.6-0.7-0.9-0.7C139,84.5,137.9,84.6,136.7,84.6z M166.8,84.1c-0.8,0.4-1.5,0.8-2.2,1.1c0.8,0.2,1.6,0.6,2.3,0.6
			c0.7,0,1.5-0.4,2.2-0.7C168.4,84.9,167.7,84.5,166.8,84.1z M130,188.7c-0.1,0.2-0.3,0.4-0.4,0.6c0.4,0.3,0.8,0.8,1.2,0.7
			c1.2-0.1,2.8,0.8,3.9-1.1C132.9,188.9,131.4,188.8,130,188.7z M157.4,84.5c0.1,0.5,0.1,1,0.1,1c1.3,0.1,2.7,0.2,4,0.3
			c0.1,0,0.3-0.5,0.2-0.7c-0.1-0.2-0.4-0.5-0.7-0.5C159.9,84.5,158.7,84.5,157.4,84.5z M134,85c-0.2-0.1-0.3-0.3-0.5-0.4
			c-1,0-2.1,0-3.1,0c-0.3,0-0.6,0.3-0.9,0.5c0.3,0.3,0.6,0.7,0.9,0.7c0.9,0.1,1.8,0.2,2.6,0.1C133.3,85.9,133.6,85.3,134,85z
			 M163.6,189.1c0.8,1.1,3.1,1.5,4.4,0.9c0.3-0.1,0.4-0.7,0.7-1.4C166.8,188.8,165.3,189,163.6,189.1z M171.8,85.4
			c0.1,0.2,0.3,0.3,0.4,0.5c1,0,2.1,0.1,3.1,0c0.3,0,0.6-0.5,0.9-0.8c-0.3-0.2-0.6-0.6-0.9-0.6c-0.8-0.1-1.6-0.1-2.4,0
			C172.5,84.6,172.1,85.1,171.8,85.4z M124.4,86.3c0.8-0.4,1.4-0.8,2.1-1.1c-0.7-0.2-1.5-0.6-2.2-0.6c-0.7,0-1.3,0.5-2,0.7
			C122.9,85.6,123.6,85.9,124.4,86.3z M145.8,85.9C145.8,85.9,145.8,85.9,145.8,85.9c0.3,0,0.6,0.1,0.9,0c0.4-0.2,0.8-0.5,1.2-0.8
			c-0.4-0.2-0.8-0.6-1.2-0.6c-0.7-0.1-1.4,0-2.1,0.1c-0.2,0-0.7,0.4-0.6,0.6c0.1,0.3,0.4,0.7,0.6,0.8C145,86,145.4,85.9,145.8,85.9z
			 M150.9,84.5c-0.1,0.1-0.3,0.3-0.4,0.4c0.3,0.3,0.6,1,0.9,1c1,0,2-0.2,3-0.3c-0.2-0.3-0.4-1-0.7-1
			C152.8,84.4,151.9,84.5,150.9,84.5z M136.7,81.5c1.3,1.2,3.5,1.1,4.5,0C139.6,81.5,138.2,81.5,136.7,81.5z M150.7,81.4
			c0,0.3,0,0.5,0,0.8c1.1,0.1,2.2,0.1,3.2,0.1c0.2,0,0.4-0.3,0.6-0.5c-0.2-0.2-0.4-0.6-0.7-0.6C152.8,81.2,151.7,81.3,150.7,81.4z
			 M169.3,81.5c-1.7,0-3.2,0-5.1,0C165.8,82.7,168.2,82.6,169.3,81.5z M210.5,204c2,2,2.7,2.1,4.2,0.5
			C213.2,204.3,211.9,204.2,210.5,204z M161.7,82.1c0-0.2,0-0.4,0-0.5c-1.4,0-2.9,0-4.3,0c0,0.2,0,0.4,0,0.5
			C158.8,82.1,160.3,82.1,161.7,82.1z M172,81.4c0,0.2,0,0.4,0,0.6c1.4,0,2.7,0,4.1,0c0-0.2,0-0.4,0-0.6
			C174.7,80.9,173.4,81.2,172,81.4z M129.4,81.5c0,0.2,0,0.4,0,0.6c1.5,0.3,2.9,0.5,4.4,0c0-0.2,0-0.4,0-0.6
			C132.3,81.5,130.9,81.5,129.4,81.5z M147.8,82.1c0-0.2,0-0.3,0-0.5c-1.3,0-2.5,0-3.8,0c0,0.2,0,0.4,0,0.6
			C145.3,82.5,146.5,82.7,147.8,82.1z M103.3,137.3c0,0.2,0,0.5,0,0.7c1,0.2,2.5-0.5,2.8,1.4c0.1-0.7,0.3-1.4,0.4-2.3
			C105.3,137.1,104.3,137.2,103.3,137.3z M88.4,204c-1.4,0.2-2.3,0.3-3.6,0.4C86.4,205.8,86.7,205.8,88.4,204z"/>
		<path d="M80.4,74.9c1,0.6,3.1-0.5,2.5,1.8c2,0.6,1.9,3,3.7,4.2c5.2,3.4,4.3,11.5-1.4,14.1c-1.2,0.5-1.7,1.1-1.5,2.3
			c0,0.3,0,0.6,0,0.9c0,2.5,0,2.5-2.5,3c0,2.5,0,4.9,0,7.6c-1.3,0-2.4,0-3.8,0c0-2.6,0-5.1,0-7.5c-0.3-0.2-0.4-0.3-0.5-0.3
			c-2.4-0.1-2.5-0.2-2.4-2.6c0.1-1.6-0.3-2.7-1.7-3.8c-4.7-3.3-4.5-10,0.2-14.1c1.6-1.4,1.6-1.4,2-3.4c0.6,0,1.3-0.1,2.3-0.1
			c-0.8-0.3-1.2-0.6-2.1-1c1.2-0.4,1.9-0.6,2.8-0.9c0-1.6,0-3.2,0-5c-1.3,0.4-2.7,0.8-3.9,1.3c-0.3,0.1-0.5,0.7-0.5,1.1
			c-0.7,9.4-6.5,15.7-15.6,17c-9.2,1.3-18.1-3.7-21.1-12.1C35,72.1,35.5,67,38.6,62.4c0.3-0.5,0.6-1.1,0.6-1.8
			c0.9-6.8,6.6-12.1,13.5-12.2c2.2,0,3.6-0.7,5-2.3c1.4-1.5,3.3-2.6,5.1-3.6c1.2-0.6,1.7-1.2,1.8-2.6c0.8-8.6,9.3-14,17.2-10.7
			c2.1,0.9,3.7,2.7,5.4,4.2c0.6,0.6,1,0.8,1.9,0.6c6.2-1.4,11.4,0.2,15.6,5.1c0.9,1.1,2,1.6,3.5,1.6c2.3-0.1,4.6-0.1,6.8-0.1
			c1.2,0,2.4,0.3,2.4,1.7c0,1.4-1.1,1.9-2.4,1.9c-1.9,0-3.9,0-5.8,0c-2,0-2.5,0.5-2.5,2.5c0,1.7,0.9,2.9,2.6,2.9
			c1.4,0.1,2.8,0,4.2,0c5.8,0,11.6-0.1,17.4-0.1c1.2,0,2.5,0.1,2.6,1.7c0.1,1.6-1.2,1.9-2.5,1.9c-8.1,0-16.1,0-24.2,0
			c-1.2,0-2,0.3-2.9,1.2c-2.8,2.9-6.3,3.7-10.3,3.2c-3.3-0.3-6.7-0.4-10.3-0.6c0,1.2,0,2,0,3c0.8-0.1,1.5-0.2,2.2-0.3
			c1.4-0.2,2.9-0.1,3.3,1.4c0.2,0.9-0.5,2-0.8,3.2c0.2,0.1,0.8,0.3,1.5,0.3c1.7,0,3.4,0,5.1-0.1c0.5,0,0.9-0.1,1.4,0
			c1.2,0.1,2.2,0.6,2.2,1.8c-0.1,1.2-1.1,1.9-2.3,1.9c-3,0-6.1-0.1-9.1-0.1c-1.7,0-3.4,0.2-5,0.4c-0.9,0.1-1.4,0.7-1.3,1.7
			C80.5,72,80.4,73.5,80.4,74.9z M60.3,56.8c2-1.6,3.5-3.2,5.4-4.2c3.8-2,8.7,0.1,9.6,4c0.6,2.4-0.9,4.9-3.3,5.3
			c-1.4,0.3-2.7-0.1-3.2-1.5c-0.5-1.5,0.6-2.2,1.9-2.6c0.1,0,0.1-0.2,0.2-0.4c-0.8-1.2-1.9-1.2-3-0.6c-2.7,1.4-3,4.9-0.7,6.9
			c2,1.8,5.7,2.1,8.3,0.7c4.5-2.4,5.2-9.2,1.4-13.1c-3.9-3.9-10.1-5-14.6-1.6c-2.8,2.1-5.3,2.7-8.8,2.5c-5.5-0.4-9.4,3.6-9.8,9.2
			c0,0.5-0.4,1-0.7,1.5c-1,2.2-2.5,4.2-2.8,6.5c-1.2,8.8,5.4,15.9,14.5,16.2c7.8,0.3,14.2-5.2,14.7-12.5c0.1-1.4-0.3-2-1.8-1.9
			c-3.1,0.1-6.2,0.2-9.3,0.2c-2.6,0-4.2-1.3-4.2-3.4c0-2.2,1.7-3.5,4.4-3.4c0.7,0,1.3,0,2,0c0.1-0.2,0.2-0.3,0.3-0.5
			c-1-0.7-1.8-1.7-2.9-2.1c-4.2-1.5-8.6,2.3-8.2,6.7c0.4,4.3,4.4,7.3,9.3,6.7c1.8-0.2,3.5-1,5.8-1.6c-0.2,1.1-0.1,2.1-0.6,2.9
			c-2.6,4.3-8.4,6-13.1,3.9c-5.3-2.3-8.1-7.2-6.7-12.4c0.3-1,0.8-2.1,1.6-2.8c0.8-0.7,1.1-1.3,1.2-2.3c0.1-2.8,1.5-4.8,4.1-6
			C54.4,55.6,57.6,56.1,60.3,56.8z M83.7,47c0.1,0.1,0.3,0.1,0.4,0.2c0.6-0.7,1.1-1.4,1.7-2.1c2-2.5,4.7-3.6,7.9-3.3
			c3,0.3,5.2,2.4,5.2,5c0,1.6-0.8,2.9-2.2,3.4c-0.9,0.3-2.3,0.2-2.9-0.3c-0.6-0.7-0.5-2-0.8-3.4c-1.5-0.6-3.3,0.5-3.3,2.7
			c0,1.9,0.9,3.2,2.6,4c2.8,1.3,7,0.5,9.1-1.7c2.1-2.4,2.5-6.1,0.8-9c-2.3-3.9-7-6-11.4-4.8c-1.9,0.5-3.7,1.5-5.6,2.2
			c-0.6-4.9-3.5-7.7-7.9-7.7c-3.5,0-6.5,1.9-6.8,4.5c0.5-0.4,1-0.7,1.5-1c3.1-1.9,7.6-0.8,9,2.1c1,2.2,0.1,4.6-2.1,5.1
			c-0.5,0.1-1.2-0.1-1.8-0.4c-0.2-0.1-0.3-0.8-0.2-1.1c0.8-1.1,0.4-1.8-0.7-2.1c-1.2-0.3-1.9,0.5-2.1,1.5c-0.4,1.7,0.1,3,1.6,3.9
			c1.8,1.1,3.7,1,5.5,0.1c1-0.5,1.9-1.2,3-1.9C84.1,44.4,83.9,45.7,83.7,47z M81.8,89.3c0.1,0,0.2,0,0.4-0.1
			c0.2,0.6,0.4,1.2,0.6,1.9c2.3-3.3,1.1-9.2-1.9-9.8c0,3.2,0,6.3,0,9.5c0.1,0,0.3,0,0.4,0C81.5,90.3,81.6,89.8,81.8,89.3z M77.9,91
			c0.2,0,0.4-0.1,0.5-0.1c0-3.2,0-6.4,0-9.6C76.1,81.9,75,85,75.7,89c0.1,0.6,0.3,1.2,0.5,1.8c0.1,0,0.2,0,0.3-0.1
			c0-0.4,0.1-0.9,0.1-1.5C77.1,90,77.5,90.5,77.9,91z M73.3,88.7c0.4-2.1,0.9-4.2,1.3-6.3C72.2,83.9,71.6,87,73.3,88.7z M86.2,88.7
			c1.4-2.1,0.8-4.5-1.3-6.1C85.3,84.6,85.7,86.6,86.2,88.7z"/>
		<path d="M215.3,76.4c-0.6-2,1.7-0.7,2.7-1.7c0-1.3,0.1-3,0-4.6c0-0.4-0.6-1-1-1.1c-1.4-0.3-2.9-0.6-4.3-0.6c-3.4-0.1-6.8,0-10.2,0
			c-1.3,0-2.5-0.3-2.6-1.8c0-1.5,1.2-1.9,2.6-1.9c2,0.1,4.1,0.1,6.1,0.1c0.7,0,1.4-0.2,1.7-0.3c-0.3-1.3-1-2.6-0.7-3.4
			c1.1-2.6,3.5-0.7,5.5-1.2c0.1-0.7,0.2-1.5,0.3-2.4c-3.5,0-6.9-0.4-10.2,0.1c-4.5,0.6-8.3-0.1-11.5-3.6c-0.4-0.5-1.3-0.7-2-0.7
			c-2.3-0.1-4.7,0-7,0c-1.2,0-2.4-0.2-2.4-1.7c0-1.6,1.2-1.8,2.4-1.8c1.4,0,2.8,0.1,4.2-0.1c1.7-0.1,2.4-1.1,2.3-2.9
			c-0.1-1.5-0.7-2.6-2.4-2.5c-2.2,0-4.3,0-6.5,0c-1.3,0-2.8,0-2.9-1.8c0-1.7,1.4-1.9,2.8-1.9c2.6,0,5.3,0.1,7.9-0.1
			c0.9-0.1,2.1-0.5,2.7-1.2c4.3-4.9,9.5-6.8,15.9-5.4c1,0.2,1.7,0.1,2.4-0.8c3.4-4.3,7.8-5.9,13.1-4.5c5.3,1.4,8.5,5,9.2,10.5
			c0.2,1.7,0.8,2.6,2.4,3.4c2,1,3.9,2.4,5.4,4.1c1.1,1.2,2.1,1.6,3.7,1.6c6.6-0.1,12.5,4.4,13.8,10.5c0.4,1.9,1,3.5,1.9,5.1
			c3.7,6.9,1.4,16.1-5.3,21.3c-9,7-21.6,5.3-27.9-3.7c-1.7-2.5-2.6-5.2-2.7-8.2c0-1.6-0.5-2.4-2.1-2.5c-0.7-0.1-1.4-0.4-2.4-0.7
			c0,1.4-0.1,2.7,0.1,3.9c0,0.4,0.7,0.7,1.1,0.9c0.5,0.3,1,0.6,1.5,0.9c-0.1,0.2-0.1,0.3-0.2,0.5c-0.7,0.1-1.5,0.2-2.2,0.3
			c0,0.1,0,0.1,0,0.2c0.9,0,1.9,0.1,2.8,0.1c-0.1,0.1-0.2,0.3-0.4,0.4c0.9,1.2,1.7,2.5,2.8,3.6c4.3,4.2,3.7,11.7-1.2,14.2
			c-0.4,0.2-0.7,1-0.9,1.5c-0.1,0.4,0,0.8,0,1.2c0,2.8,0,2.8-2.7,3.3c0,2.5,0,4.9,0,7.6c-1.2,0-2.4,0-3.8,0c0-2.5,0-5,0-7.5
			c-1-0.2-1.7-0.3-2.7-0.4c0-1.3,0.1-2.5,0-3.8c-0.1-0.5-0.5-1.3-0.9-1.5c-3.1-1.6-5.1-3.9-5.2-7.5c-0.1-3.7,1.6-6.3,4.8-8.1
			c0.5-0.3,0.7-0.9,1-1.4C214.3,77.9,214.6,77.3,215.3,76.4z M237.9,64.6c1.5,0,2.8-0.2,4,0c1.7,0.3,2.8,1.8,2.8,3.4
			c0,1.5-1.3,2.9-3,3.2c-1,0.2-2,0.1-3,0.1c-2.8,0-5.6-0.1-8.4-0.2c-1.1,0-1.5,0.4-1.5,1.6c0.1,2.8,1,5.2,2.7,7.5
			c4.8,6.5,14.8,6.6,20.3,2.8c6.4-4.3,8.5-12.7,4.6-18.8c-0.9-1.4-1.8-2.7-1.7-4.6c0-1-0.6-2-1.1-2.9c-2.5-3.8-6.1-5.3-10.6-4.6
			c-1.4,0.2-2.6,0.6-3.8-0.8c-3.7-3.9-8.4-4.4-13.2-2.7c-3.4,1.2-5.7,3.6-6.4,7.3c-0.5,3.2,0.2,6.1,3,7.9c2.5,1.7,5.3,2,8.1,0.5
			c1.6-0.9,2.3-2.4,2.3-4.2c0-1.6-0.8-2.7-2.2-3.3c-1.1-0.6-2.2-0.6-2.9,0.9c0.3,0.2,0.6,0.3,0.8,0.5c0.5,0.5,1.3,1.1,1.2,1.6
			c-0.1,0.7-0.7,1.7-1.3,1.8c-1,0.2-2.4,0.2-3.2-0.3c-2.2-1.3-2.5-4.3-0.9-6.5c2.4-3.4,8.2-4,11.6-1.2c1.2,1,2.3,2.1,3.4,3.1
			c1.4-0.2,2.7-0.4,4.1-0.6c3.5-0.3,7.2,1.5,8,4.5c0.6,2.4,1.7,4.5,2.5,6.8c1.9,5.2-1.8,11.4-7.4,13.2c-4.5,1.5-9.2,0.2-11.8-3.3
			c-0.8-1-1.3-2.2-0.6-3.6c0.6,0.3,1,0.5,1.5,0.7c3.9,1.9,9.3,0.8,11.7-2.2c1.9-2.4,2.1-5.5,0.6-7.8c-1.4-2.2-4.4-3.3-6.9-2.7
			C239.5,62.1,238.4,62.9,237.9,64.6z M213.2,40.5c-0.9-0.6-1.7-1.1-2.6-1.6c-4.4-2.6-10.1-1.8-13.4,1.8c-2.5,2.7-2.8,6.6-0.9,9.8
			c1.8,2.9,5.1,4.1,8.7,3.1c2.1-0.6,3.7-2,3.6-3.8c-0.1-1.1-0.7-2.3-1.5-3.1c-0.4-0.5-1.6-0.3-2.9-0.5c1.1,1.6,1.9,2.7,0.5,3.7
			c-1.2,0.9-2.6,0.9-3.7-0.2c-0.6-0.7-1.2-1.6-1.3-2.6c-0.4-2.2,1-4.2,3.2-5.1c3-1.1,6.8-0.1,8.9,2.4c0.8,0.9,1.5,1.9,2.3,2.9
			c0.1-0.1,0.3-0.1,0.4-0.2c-0.2-1.5-0.4-2.9-0.7-4.7c0.8,0.7,1.5,1.2,2.2,1.7c2.3,1.7,5.7,1.8,7.4,0.1c0.7-0.7,1.1-1.9,1.1-2.9
			c0-0.7-1-1.5-1.7-2c-0.3-0.2-1.2,0-1.5,0.3c-0.2,0.2,0.1,0.9,0.1,1.4c0,0.5-0.1,1.4-0.3,1.5c-0.8,0.1-1.8,0.3-2.4-0.1
			c-2.3-1.3-2.2-4.4,0-6.4c1.8-1.6,5.9-1.9,8.7,0c-0.6-2.7-3.2-4.2-6.8-4C216.4,32.5,213.8,35.3,213.2,40.5z M215,90.7
			c0.3-0.5,0.6-0.8,0.9-1.3c0.3,0.9,0.5,1.5,0.7,2.1c1.3-3.4,0.9-6.9,1-10.4C214.5,81.8,213.4,85.7,215,90.7z M219.7,81.3
			c0,3.1,0,6.2,0,9.6c0.7-0.8,1.1-1.3,1.6-1.9c0.1,0.8,0.1,1.3,0.2,2C223.6,87.7,222.5,82.3,219.7,81.3z M213.2,82.6
			c-2.4,1.7-2.9,4.8-1.2,6.1C212.4,86.7,212.8,84.6,213.2,82.6z M224.8,88.5c1.7-1.6,1-4.5-1.4-5.9
			C223.9,84.6,224.4,86.5,224.8,88.5z"/>
		<path d="M263.9,261.4c2.2,0,4.3,0,6.6,0c0-0.9,0.1-1.6,0.1-2.3c0-2.7-0.1-5.5,0-8.2c0-1.1,0.4-2,1.7-1.9c1.2,0.1,1.9,0.5,1.9,1.9
			c-0.1,4.2,0,8.4-0.1,12.6c0,4.4-2,6.4-6.5,6.4c-13.4,0-26.8,0-40.2,0c-49,0-98.1,0-147.1,0c-16.2,0-32.5,0-48.7,0
			c-0.8,0-1.6,0-2.4-0.1c-2.6-0.4-4.5-2.2-4.6-4.8c-0.2-4.9-0.2-9.8-0.2-14.7c0-0.5,0.8-1.3,1.4-1.4c2.1-0.3,3.8,1.1,3.9,3.2
			c0.1,2.2,0.1,4.4,0.1,6.7c0,0.7,0,1.5,0,2.5c1.9,0,3.6,0.1,5.3,0c1.6-0.1,2.3,0.4,2,2c-0.1,0.5,0,1,0,1.7c0.8,0,1.4,0,2.1,0
			c65.5,0,130.9,0,196.4,0c8.4,0,16.8,0,25.2,0.1c2.8,0,2.8,0,2.9-2.8C263.8,262.2,263.9,261.9,263.9,261.4z"/>
		<path d="M247.4,96.9c0.1-1,0.1-1.8,0.2-2.8c5.5,0,10.9,0,16.5,0c0,0.9,0,1.8,0,2.8c1.8,0.2,3.5,0.2,5.1,0.6
			c5.6,1.6,9,5.6,10.3,11.1c1.3,5.7-0.6,10.5-4.9,14.3c-2.7,2.3-5.8,3.7-9.3,4.1c-1.3,0.2-2.1,0.6-1.9,2c0.2,1.4-0.6,1.8-1.9,1.8
			c-3.9,0-7.8,0-11.7,0c-1.2,0-1.8-0.4-1.6-1.6c0.2-1.5-0.5-2-2-2.3c-6.6-1.2-11.5-4.6-13.6-11.1c-2.9-9,3-17.8,12.4-18.8
			C245.8,97,246.5,96.9,247.4,96.9z M254.7,112.9c0.2-2.9,0.3-5.9,0.5-8.8c0-0.5,0.5-0.9,0.8-1.4c0.3,0.4,0.8,0.9,0.8,1.3
			c0.2,2.5,0.3,5,0.6,7.5c0.1,0.6,0.4,1.5,0.7,1.5c0.7,0.2,1.7,0.1,2.3-0.3c1.7-1.2,1.6-1.3,2.3,0.7c0.4-0.9,0.9-1.8,1.3-2.7
			c0.1,0.1,0.3,0.1,0.4,0.2c0.1,0.7,0.3,1.5,0.4,2.4c1.8-3.7,0.8-9.5-2-11.9c-0.9-0.7-2.2-1.2-3.4-1.3c-2.3-0.2-4.6,0.1-6.8-0.1
			c-1.6-0.1-2.9,0.2-3.7,1.5c-1,1.8-2,3.7-2.5,5.7c-0.4,1.6,0,3.3,0,5c0.2,0,0.4,0,0.5,0c0.2-0.6,0.3-1.2,0.7-2.3
			c0.6,1.5,1,2.5,1.4,3.5c0.2-0.6,0.3-1.2,0.6-2.3C251.1,113.1,252.6,113.8,254.7,112.9z M246.6,99.9c-4-0.5-7,1.4-9.1,4.5
			c-2.2,3.2-3.1,6.6-1.5,10.4c-0.3-5.7,0.6-6.8,5.1-6.4C242.9,105.6,244.7,102.9,246.6,99.9z M265.3,99.9c1.6,2.5,3.2,5.1,4.9,7.6
			c0.3,0.4,0.9,0.9,1.4,0.9c3.2-0.2,3.7,0.1,4.5,3.2c0.1,0.4,0.2,0.8,0.4,1.5C277.2,105.9,271.4,99.3,265.3,99.9z M267.5,107.6
			c1.8,7.8-0.5,13.5-8.1,16.8c3.9-0.3,6.7-2.1,8.5-5.4C270,115.2,269.6,111.4,267.5,107.6z M244.6,107.8c-2,3.8-2.4,7.8-0.2,11.6
			c1.7,2.9,4.1,4.9,7.7,5c-3.1-1.4-5.7-3.4-7-6.7C243.9,114.5,244.2,111.1,244.6,107.8z M260.7,127.9c-3.2,0-6.4,0-9.7,0
			C251.7,129,259,129.2,260.7,127.9z M252.7,97.4c2.3,0,4.1,0,5.8,0c0.1-0.2,0.1-0.3,0.2-0.5c-0.4-0.2-0.8-0.7-1.1-0.7
			C256.1,96.5,254.3,95.6,252.7,97.4z"/>
		<path d="M49.2,130.8c-4.7,0-9.2,0-13.8-0.1c-0.4,0-1-0.7-1.2-1.2c-0.2-0.6,0-1.4,0-2.2c-1.4-0.3-2.6-0.5-3.9-0.8
			c-6.5-1.4-11.7-6.8-12.5-13.1c-1-8.3,5.7-17,14.5-16.5c0.3,0,0.7,0,1.2,0c0.1-1,0.2-1.9,0.3-3c5.4,0,10.8,0,16.4,0
			c0.1,0.9,0.1,1.8,0.2,2.9c0.4,0,0.8,0.1,1.1,0.1c6.5,0.1,11.2,3.4,13.5,9.5c2.1,5.5,0.4,11.9-4.2,15.9c-2.6,2.3-5.6,3.9-9,4.4
			c-1.9,0.3-2.9,1-2.5,3C49.3,130.1,49.2,130.3,49.2,130.8z M32.9,112.6c0.3-0.8,0.5-1.4,0.7-1.9c0.1,0,0.3-0.1,0.4-0.1
			c0.4,1,0.8,2,1.3,3.3c0.2-0.8,0.3-1.3,0.5-2.2c0.7,0.4,1.1,0.8,1.6,1c0.8,0.2,1.7,0.5,2.5,0.4c0.3,0,0.7-0.9,0.8-1.5
			c0.2-2.6,0.3-5.1,0.5-7.7c0-0.4,0.4-0.7,0.6-1.1c0.3,0.4,0.8,0.7,0.8,1.1c0.2,1,0.3,2.1,0.3,3.1c0.1,2.1,0.2,4.1,0.4,6.4
			c1.3-0.2,2.5,0,3.1-0.5c1.2-1.2,1.7-0.6,2.1,0.2c0.5-0.7,1-1.5,1.8-2.6c0.2,1.2,0.3,1.8,0.3,2.4c0.2,0,0.4,0,0.6,0
			c0-2.2,0.4-4.4,0.1-6.5c-0.8-4.6-3.4-6.4-8.1-6.2c-1.6,0.1-3.3-0.1-4.9-0.1c-0.9,0-1.9,0.1-2.6,0.6
			C32.7,102.9,31.2,108.8,32.9,112.6z M32.6,100c-4.1-0.5-7.1,1.5-9.3,4.8c-2.1,3.2-3.3,6.6-1.7,10.4c0.1-0.7,0.1-1.4,0.1-2
			c0-0.7,0.1-1.4,0.2-2.1c0.6-2.7,1.2-3,3.8-2.7c0.5,0.1,1.3-0.3,1.6-0.7C29.2,105.2,30.9,102.6,32.6,100z M56.9,108.7
			c3.9-1.8,5,0.6,5.4,4.1c1.1-6.5-4.6-14-10.9-12.9C53.1,102.7,54.9,105.6,56.9,108.7z M53,107.3c2,7.7,0.4,13.7-7.8,17
			c3.4,0.2,6.9-1.9,8.5-5C55.7,115.3,55.3,111.3,53,107.3z M38.1,124.4c-7.2-3.4-9.4-9.2-7.8-16.7c-2.3,3.7-2.1,7.4-0.4,11
			C31.5,122,34.2,124,38.1,124.4z M46.3,128.1c-3.1-0.4-6.3-0.5-9.7-0.3C37.7,128.8,43.5,129.2,46.3,128.1z M39.4,97.4
			c1.7,0,3.4,0,5.1,0c0.1-0.2,0.1-0.4,0.2-0.6c-0.5-0.2-0.9-0.6-1.4-0.6C39.7,96.1,39.7,96.1,39.4,97.4z"/>
		<path d="M114.2,240.3c0-5.2,0.1-10.5-0.1-15.8c0-0.9-0.7-1.9-1.2-2.9c3,0,6.2,0,8.9,0c-0.3,1.6-0.8,3.2-0.8,4.7
			c-0.1,8.6-0.1,17.3,0,25.9c0,1.5,0.3,2.9,0.5,4.4c-1.9,0-4,0.1-6.2-0.1c-0.6-0.1-1.5-0.9-1.8-1.5c-2.2-4.8-4.2-9.6-6.3-14.5
			c-0.2-0.6-0.5-1.1-0.9-1.7c0.2,5.9-0.8,11.9,0.6,17.8c-2.6,0-5.5,0-8.1,0c0.2-1.6,0.6-3.2,0.6-4.8c0.1-8.3,0-16.6,0-24.9
			c0-1.9,0.2-3.9-2.1-5.4c3.1,0,5.6,0,8.2,0c0.3,0,0.7,0.6,0.9,1c2.5,5.8,5,11.7,7.5,17.5C114.2,240.3,114.3,240.3,114.2,240.3z"/>
		<path d="M212.5,221.7c2.7,0,5.4,0,8,0c2.7,6.3,5.4,12.4,8,18.6c0.1,0,0.2,0,0.3,0c0-1.9,0-3.9,0-5.8c0-2.5,0.1-5-0.1-7.5
			c-0.1-1.7-0.6-3.4-0.9-5.2c2.7,0,5.8,0,8.5,0c-0.3,1.5-0.8,2.9-0.8,4.3c-0.1,9.2,0,18.4,0,27.5c0,1,0.3,2,0.5,3.2
			c-2.1,0-4.3,0.1-6.4-0.1c-0.5,0-1.2-0.8-1.5-1.4c-2.3-5.1-4.4-10.2-6.6-15.3c-0.1-0.3-0.3-0.6-0.4-1c-0.7,2.2-0.2,15.6,0.8,17.7
			c-2.9,0-5.8,0-8.3,0c0.1-2.2,0.4-4.4,0.4-6.7c0.1-7.8,0-15.7,0.1-23.5C214,224.7,214.1,223,212.5,221.7z"/>
		<path d="M40.8,256.7c0.2-1.4,0.6-2.8,0.6-4.2c0.1-8.6,0.1-17.3,0-25.9c0-1.7-0.5-3.3-0.8-4.9c2.8,0,5.9,0,9.4,0
			c-2.1,1.3-2,3-2,4.7c0,3.1,0,6.2,0,9.4c3.5,0,6.9,0,10.2,0c0.8-4.2,0.3-11.7-1.1-14.1c3.2,0,6.2,0,9,0c-0.3,1.5-0.9,2.9-0.9,4.3
			c-0.1,8.9-0.1,17.9,0,26.8c0,1.3,0.5,2.6,0.8,4c-2.8,0-5.7,0-8.3,0c0.2-1.4,0.6-2.8,0.7-4.2c0.1-3.3,0-6.6,0-10.1
			c-3.5,0-6.8,0-10.5,0c0.5,4.7-0.9,9.5,1.2,14.3C46.3,256.7,43.4,256.7,40.8,256.7z"/>
		<path d="M158.3,221.6c3.6,0,6.7,0,9.3,0c-0.2,1.7-0.5,3.3-0.6,4.9c-0.1,3.5,0,6.9,0,10.8c2-4.5,4-8.6,5.7-12.8
			c0.3-0.7-0.2-1.8-0.4-2.8c3,0,6.3,0,9.6,0c-2,3.8-4,7.7-6.1,11.5c-0.9,1.6-1,2.9-0.3,4.6c2.3,5.5,4.5,11,6.8,16.5
			c0.3,0.8,0.9,1.5,1.4,2.4c-2.6,0-5,0.1-7.4-0.1c-0.4,0-1-0.7-1.2-1.2c-1.5-3.6-2.8-7.3-4.2-11c-0.3-0.9-0.7-1.7-1-2.7
			c-3.6,4.7-3.4,9.7-2.1,14.9c-2.7,0-5.6,0-8.2,0c0.2-1.6,0.6-3.1,0.7-4.7c0.1-8.6,0-17.2,0-25.8
			C160.3,224.6,160.3,222.9,158.3,221.6z"/>
		<path d="M95.5,239.9c-0.1,3.4-0.9,7.1-2.8,10.5c-4.5,8-14.5,8.3-19.5,0.7c-3.3-5-3.7-10.6-2.7-16.4c0.7-4.1,2.5-7.7,5.9-10.2
			c4.6-3.4,11.3-2.6,15,1.9C94,229.6,95.5,234.3,95.5,239.9z M88.8,239.1c-0.6-2.6-1-5-1.8-7.3c-0.6-1.8-2-3-4-3.1
			c-2.1-0.1-3.6,1-4.5,2.8c-2.4,5.3-2.3,10.6,0.1,15.9c0.8,1.8,2.2,3,4.4,2.8c2-0.2,3.5-1.3,4-3.2C87.8,244.4,88.2,241.7,88.8,239.1
			z"/>
		<path d="M184.2,239.7c0.1-5.4,1.2-10.1,4.9-13.9c4.9-4.9,12.5-4.4,16.6,1.2c5,6.8,5.2,17.6,0.3,24.6c-4.5,6.5-13.1,6.8-18,0.5
			C185.2,248.3,184.2,244,184.2,239.7z M203.1,239.5c-0.6-2.6-1-5.2-1.9-7.7c-0.6-1.8-2.1-3.1-4.2-3.1c-2.1,0-3.6,1.2-4.4,3
			c-2.3,5.2-2.3,10.5,0.2,15.7c0.8,1.7,2.2,2.9,4.3,2.8c2-0.1,3.5-1.3,4.1-3.1C202,244.7,202.4,242.1,203.1,239.5z"/>
		<path d="M256.6,251c0-0.9,0-1.7,0-2.5c0-3.3,0.1-3.3-3.2-4c-1.1-0.2-1.3-0.7-1.1-1.7c0.6-3.9,0.5-3.9,4.4-3.9c2.1,0,4.2,0,6.3,0
			c0.1,0,0.2,0,0.1,0c-0.1,2.9-0.1,5.7-0.2,8.5c0,2.8,0,5.6,0,8.4c-13.9,4.9-22.8-4.2-23.1-14.6c-0.2-6,1.2-11.4,5.9-15.5
			c4.8-4.2,12.4-4.2,17,0c-1.2,1.9-2.4,3.8-3.7,5.8c-0.7-0.6-1.4-1.1-2-1.6c-2.4-1.7-4.9-1.5-7,0.5c-4.8,4.4-4.5,14.9,0.4,19.1
			C251.8,250.7,254.1,251.3,256.6,251z"/>
		<path d="M142.1,251.1c0-1.8,0.1-3.5-0.1-5.1c0-0.4-0.7-0.9-1.2-1c-4.1-0.8-3.2-0.5-2.7-4.1c0.2-1.5,0.9-1.9,2.3-1.8
			c2.7,0.1,5.5,0,7.8,0c0,5.1-0.1,10.1,0,15.1c0,1.5-0.5,2-1.8,2.3c-6.4,1.4-12.3,0.9-16.9-4.3c-6.2-7-5.7-19.4,1-26
			c4.6-4.6,12.3-4.9,17.4-0.6c-1.2,1.9-2.4,3.8-3.7,5.8c-0.6-0.5-1-0.8-1.4-1.2c-2.7-2.3-6.1-1.9-8.3,0.9
			c-3.6,4.6-3.4,12.9,0.3,17.4C136.7,250.6,139.1,251.3,142.1,251.1z"/>
		<path d="M274,187.3c-3.8-1.2-7.4-2.6-11.2-3.4c-7.1-1.4-13.9-0.1-20.5,2.9c-0.2,0.1-0.3,0.1-0.5,0.2c-3.2,1.9-6.6,2.4-10.3,1.3
			c-1.6-0.5-3.3-0.6-4.9-1.1c-0.5-0.2-0.9-0.9-1.3-1.4c0.5-0.4,1.1-1.3,1.6-1.3c1.4-0.1,2.9,0.2,4.3,0.4c1.3,0.2,2.7,0.3,4,0.7
			c2.1,0.6,3.9-0.1,5.9-1.6c-2.7-0.5-5.1-0.9-7.5-1.3c-1-0.2-2.1-0.2-3.1-0.6c-0.5-0.2-1.2-1-1.1-1.4c0.1-0.5,0.9-1.1,1.4-1.2
			c1.1-0.1,2.2,0.1,3.3,0.3c3.7,0.6,7.5,1.3,11.2,1.9c0.5,0.1,1.2,0,1.7-0.1c8.4-2.6,16.7-2,24.8,1.3C274.4,184,274.3,184,274,187.3
			z"/>
		<path d="M56.6,184c2.1,1.5,3.8,2.2,5.9,1.7c2.3-0.6,4.7-0.9,7.1-1.2c0.7-0.1,1.4-0.1,2.1,0.2c0.4,0.2,0.9,0.8,0.9,1.3
			c0,0.4-0.5,1-0.8,1.1c-5.1,0.9-9.9,3-15.3,0.2c-8.5-4.6-17.5-5.1-26.6-1.9c-1.8,0.6-3.5,1.5-5.3,2.3c-0.6-3.4-0.5-3.7,2.5-4.9
			c7.8-3.1,15.8-3.6,23.8-1.1c0.8,0.2,1.7,0.1,2.5,0c4.4-0.7,8.7-1.4,13.1-2c0.6-0.1,1.7,0.7,1.9,1.3c0.3,1.2-0.9,1.3-1.7,1.4
			C63.5,182.9,60.3,183.4,56.6,184z"/>
		<path d="M259.1,159.3c-0.8-0.2-1.2-0.3-1.5-0.4c-0.4,0.8-0.8,1.5-1.2,2.3c-0.5-0.5-1.1-1-1.9-1.8c0,0-0.5,0.1-1,0.3
			c-0.1-0.2-0.3-0.4-0.3-0.5c0.2-4.1,0.4-8.2,0.6-12.2c0-0.4,0.4-0.8,0.6-1.2c0.1-0.2,0.4-0.5,0.4-0.7c-0.2-2.5-0.4-5-0.6-7.7
			c-1-0.1-2.1-0.2-3.3-0.3c0-1.8,0-3.5,0-5.3c3.3,0,6.5,0,9.9,0c0,1.7,0,3.4,0,5.4c-1.1,0.1-2.2,0.2-3.7,0.3c0,2.5,0,5,0,7.4
			c0.3,1.2,0.9,2.4,1,3.7C258.6,152,258.8,155.5,259.1,159.3z"/>
		<path d="M40.2,137.5c-1.2-0.2-3.1-0.1-3.2-0.6c-0.5-1.5-0.3-3.3-0.4-5.1c3.5,0,6.7,0,10.2,0c0,1.7,0,3.5,0,5.3
			c-1.1,0.1-2.1,0.2-3.3,0.3c0,1.7,0,3.3,0,4.9c0,0.7-0.2,1.4-0.3,2.1c0,0.3,0,0.7,0.1,1c0.3,1,0.9,2,0.9,3
			c0.3,3.7,0.5,7.4,0.8,11.4c-0.7-0.2-1.1-0.3-1.3-0.4c-0.6,0.7-1,1.3-1.5,1.9c-0.5-0.7-0.9-1.4-1.5-2.4c-0.1,0-0.6,0.2-1.1,0.3
			c-0.1-0.2-0.3-0.3-0.3-0.5c0.2-3.8,0.4-7.6,0.6-11.3c0-0.6,0.4-1.2,0.7-1.7c0.1-0.2,0.3-0.4,0.3-0.6
			C40.6,142.6,40.4,140.1,40.2,137.5z"/>
		<path d="M36.6,161.7c-4.1,0-8.1,0-12.3,0c0.5-4.7,0.8-9.2,3.3-13.3c1.5-2.6,3.4-2.6,5.2-0.2C34.8,150.8,36.6,157.2,36.6,161.7z"/>
		<path d="M261.5,161.7c0.6-4.6,1.4-9.1,3.7-13c1.7-3,3.8-3,5.5,0c2.2,4,2.9,8.4,3.3,13.1C269.7,161.7,265.7,161.7,261.5,161.7z"/>
		<path d="M256.6,173.2c-7.4-0.3-13-0.5-18.7-0.7c-0.6,0-1.3,0-1.9-0.3c-0.5-0.2-1.1-0.8-1.1-1.2c0-0.5,0.6-1,1.1-1.3
			c0.3-0.2,0.9-0.2,1.4-0.2c11.4,0.1,22.8,0.3,34.1,0.4c0.5,0,1-0.2,1.4,0c0.6,0.3,1.6,1,1.5,1.3c-0.2,0.7-0.8,1.5-1.4,1.8
			c-0.6,0.3-1.5,0.1-2.2,0.1C265.4,173.2,260.1,173.2,256.6,173.2z"/>
		<path d="M43.5,169.7c5.7,0,11.4,0,17.2,0c0.4,0,0.9-0.1,1.2,0.1c0.5,0.3,0.9,0.7,1.4,1.1c-0.4,0.5-0.8,1.1-1.3,1.4
			c-0.7,0.3-1.5,0.3-2.2,0.3c-11.2,0.2-22.3,0.5-33.5,0.7c-0.7,0-1.6-0.1-2.1-0.5c-0.4-0.3-0.6-1.3-0.3-1.7c0.4-0.5,1.2-1,1.8-1
			c3.4-0.1,6.8,0,10.2,0c2.6,0,5.1,0,7.7,0C43.5,169.8,43.5,169.7,43.5,169.7z"/>
		<path d="M42.3,167.3c-5.4,0-10.9,0-16.3,0c-1,0-2.3,0.2-2.3-1.4c0.1-1.4,1.1-1.7,2.4-1.7c10.8,0,21.6,0,32.4,0.1
			c0.8,0,1.8,0.4,2.3,0.9c0.8,1-0.3,2.1-2,2.1C53.3,167.3,47.8,167.3,42.3,167.3C42.3,167.3,42.3,167.3,42.3,167.3z"/>
		<path d="M255.7,167.3c-5.1,0-10.3,0-15.4,0c-0.6,0-1.3,0.1-1.9-0.1c-0.5-0.2-1.1-0.8-1.1-1.2c0-0.5,0.5-1.3,0.9-1.4
			c0.7-0.3,1.6-0.3,2.4-0.3c10.3,0,20.7,0,31,0c0.2,0,0.5,0,0.7,0c1,0,2,0.2,2,1.4c0,1.3-0.8,1.7-2,1.7c-1.9,0-3.9,0-5.8,0
			C262.9,167.3,259.3,167.3,255.7,167.3C255.7,167.3,255.7,167.3,255.7,167.3z"/>
		<path d="M198.9,280.3c1.2-0.1,2.1-0.1,3.3-0.2c0,2.1,0,4.1,0,6.1c0,2,0,4,0,5.9c-2.7,0.8-3.3,0.6-4.8-1.4
			c-1.1-1.4-2.1-2.8-3.5-4.7c0,2.5,0,4.4,0,6.4c-1,0-1.9,0-3,0c0-4,0-8,0-12.2c1.6-0.2,3-0.4,4,1.5c1,1.9,2.5,3.5,4,5.6
			C198.9,284.8,198.9,282.6,198.9,280.3z"/>
		<path d="M92.5,287.4c1,1.6,2,3.2,3,4.8c-3,0.8-3.4,0.6-5-1.9c-0.4-0.7-1.1-1.2-1.6-1.8c-0.2,0.1-0.4,0.2-0.5,0.3
			c0,1.2,0,2.4,0,3.7c-1.1,0-2,0-3.1,0c0-4,0-8,0-12.4c2.1,0.1,4.4,0,6.5,0.4c2.5,0.5,3.4,3.7,1.9,5.8
			C93.2,286.6,92.8,287,92.5,287.4z M88.4,285.6c1.2-0.5,2.8-0.1,2.5-1.6c-0.2-1.4-1.6-1-2.7-0.8C88.2,284,88.3,284.6,88.4,285.6z"
			/>
		<path d="M151.3,292.5c-1.9-0.1-3.7,0.8-4.3-1.7c0-0.2-0.6-0.3-0.9-0.3c-1.2,0-2.3,0-3.5,0.1c-0.4,0-0.9,0.2-1.1,0.4
			c-1.5,1.6-1.5,1.6-3.8,1.3c0.9-2.1,1.7-4.1,2.5-6.2c0.6-1.4,1.3-2.8,1.7-4.2c0.4-1.4,1.1-1.9,2.6-1.9c1.5-0.1,1.8,0.9,2.3,1.9
			C148.2,285.3,149.7,288.7,151.3,292.5z M145.7,287.7c-0.5-1.1-0.8-2-1.4-3.3c-0.5,1.4-0.9,2.3-1.2,3.3
			C144,287.7,144.7,287.7,145.7,287.7z"/>
		<path d="M162.5,280.2c1.2,0,2.2,0,3.1,0c0,2.9,0.2,5.7-0.1,8.4c-0.3,2.6-2.8,4.1-5.6,4c-2.9-0.1-5-1.8-5.2-4.4
			c-0.2-2.6,0-5.2,0-7.9c1,0,2,0,3.1,0c0,1.5,0,3,0,4.5c0,0.7,0,1.4,0,2.1c0.2,1.4,0.7,2.5,2.4,2.5c1.6,0,2.2-1.1,2.3-2.6
			c0.1-1.7,0-3.4,0-5.1C162.5,281.3,162.5,280.8,162.5,280.2z"/>
		<path d="M184.6,292.5c-1.6-0.4-3.5,0.8-4.1-1.6c-0.1-0.2-0.7-0.4-1-0.5c-1.1,0-2.2,0-3.3,0.1c-0.4,0-1,0.2-1.1,0.4
			c-0.5,2.3-2.1,1.4-3.7,1.4c0.2-0.8,0.3-1.5,0.6-2.1c1.2-3,2.5-6.1,3.6-9.1c0.5-1.4,1.4-1.1,2.4-1.2c0.9-0.1,1.4,0.2,1.8,1.2
			c1.3,3.2,2.7,6.3,4.1,9.5C184.2,291.2,184.3,291.7,184.6,292.5z M177.9,284.7c-0.1,0-0.3,0-0.4,0c-0.3,0.9-0.6,1.9-0.9,2.9
			c0.9,0,1.6,0,2.5,0C178.6,286.6,178.2,285.6,177.9,284.7z"/>
		<path d="M101.5,292.4c0-4.1,0-8,0-12.3c2.7,0,5.3-0.1,7.8,0.1c0.4,0,0.8,1.5,1.3,2.6c-2.3,0.1-4,0.2-5.8,0.3
			c-0.2,1.2-0.2,1.2,3.5,1.7c0,0.9,0,1.8,0,2.7c-1.2,0.2-2.4,0.3-3.6,0.6c-0.1,0,0,0.8,0,1.5c1.8,0,3.5,0,5.4,0c0,1.1,0,1.9,0,2.9
			C107.2,292.4,104.4,292.4,101.5,292.4z"/>
		<path d="M115.7,290.7c0.7-0.8,1.2-1.5,1.8-2.1c0.9,0.4,1.6,0.9,2.4,1.1c0.5,0.1,1.1-0.4,1.6-0.7c-0.4-0.3-0.7-0.8-1.1-1
			c-0.5-0.3-1.2-0.4-1.8-0.7c-1.8-0.9-2.6-2.4-2.3-4.2c0.4-1.8,1.7-3.1,3.7-3c1.4,0,2.8,0.5,4.4,0.8c-0.6,1.2-1,2-1.4,2.9
			c-0.8-0.3-1.5-0.6-2.3-0.7c-0.3-0.1-0.8,0.3-1.1,0.5c0.2,0.3,0.4,0.7,0.7,0.9c0.5,0.3,1.2,0.5,1.8,0.8c1.9,0.8,3,2.3,2.8,3.9
			c-0.2,1.9-1.7,3.3-3.7,3.6C119.1,292.9,117.4,292.2,115.7,290.7z"/>
		<path d="M131.3,292.4c0-3.2,0-6.2,0-9.2c-1.4-0.3-2.6-0.3-3.6-0.8c-0.3-0.1,0-1.5,0-2.4c3.5,0,6.8,0,10.3,0c0,0.9,0,1.7,0,2.8
			c-1.1,0.1-2.1,0.2-3.4,0.3c0,3.1,0,6.1,0,9.3C133.5,292.4,132.6,292.4,131.3,292.4z"/>
		<path d="M24.5,222.9c0.4-0.1,0.6-0.1,0.8-0.1c4.1-0.1,4.5,0.3,4.5,4.4c0,1.5,0,2.9,0,4.4c0,1.4-0.7,2.3-1.9,2.9
			c-1.9,0.9-3.4,0.1-3.4-2C24.5,229.3,24.5,226.2,24.5,222.9z"/>
		<path d="M218.2,280.1c0,0.9,0,1.7,0,2.7c-1.1,0.1-2.2,0.2-3.4,0.3c0,3.1,0,6.1,0,9.2c-1.1,0-2.1,0-3.2,0c0-3,0-6,0-9.2
			c-1.2-0.1-2.3-0.2-3.5-0.3c0-0.9,0-1.8,0-2.7C211.5,280.1,214.7,280.1,218.2,280.1z"/>
		<path d="M247.2,178.7c-4.1-0.4-8.1-0.7-12.2-1.2c-0.9-0.1-2.6,0.3-2.5-1.4c0.1-1.7,1.6-1.4,2.7-1.4c4.9,0.3,9.8,0.7,14.6,1.1
			c0.6,0,1.1,0.6,1.7,0.9c-0.5,0.6-0.9,1.6-1.6,1.9C249.2,178.8,248.2,178.6,247.2,178.7C247.3,178.6,247.2,178.6,247.2,178.7z"/>
		<path d="M50.5,178.6c-0.8,0-1.6,0.2-2.2-0.1c-0.7-0.3-1.1-1.2-1.6-1.8c0.5-0.3,1-0.9,1.6-1c5-0.4,10-0.8,15-1.1
			c0.4,0,0.9-0.1,1.2,0.1c0.4,0.3,1,0.8,1,1.2c0,0.4-0.6,1.1-1,1.2c-1.8,0.3-3.6,0.5-5.4,0.7C56.2,178.1,53.3,178.4,50.5,178.6
			C50.5,178.6,50.5,178.6,50.5,178.6z"/>
		<path d="M274.2,222.8c0,3.8,0,7.5-0.1,11.1c0,0.3-0.9,0.9-1.3,0.9c-1.3-0.1-2.1-1.1-2.1-2.4c-0.1-2.7-0.1-5.4,0-8
			c0-0.4,0.6-0.9,1-1.1C272.5,223.1,273.2,223,274.2,222.8z"/>
		<path d="M238.7,161.6c-0.1-3.2,1.7-5.8,3.9-5.9c2.3,0,4.6,2.7,4.8,5.9C244.5,161.6,241.7,161.6,238.7,161.6z"/>
		<path d="M50.8,161.7c0.4-3.5,2.3-5.9,4.6-5.8c2.2,0,4,2.5,4,5.8C56.6,161.7,53.7,161.7,50.8,161.7z"/>
		<path d="M36.6,93.3c0.7-2.1,2.4-0.9,3.6-1.7c0-1.4,0-3.1,0-4.8c1.1,0,1.9,0,3,0c0.1,1.2,0.2,2.4,0.2,3.5c0,1.1,0.4,1.5,1.5,1.6
			c0.6,0,1.3,0.4,1.9,0.7c-0.1,0.2-0.1,0.5-0.2,0.7C43.4,93.3,40.2,93.3,36.6,93.3z"/>
		<path d="M254.4,86.7c0.8,0,1.4,0,1.9,0c1.1-0.1,1.5,0.4,1.4,1.4c0,0.6,0,1.2,0,1.8c0,0.5,0,1,0,1.8c1,0.1,1.9,0.2,2.8,0.3
			c0.3,0.1,0.6,0.5,0.8,0.7c-0.2,0.2-0.5,0.6-0.7,0.6c-3.1,0-6.3,0-9.4,0c0.4-1.1,0.4-1.1,3.3-1.6C254.4,90.1,254.4,88.5,254.4,86.7
			z"/>
		<path d="M93.4,107.2c1.3,0,2.3,1.1,2.3,2.4c0,1.3-1,2.4-2.3,2.4c-1.3,0-2.4-1.1-2.4-2.5C91,108.1,92.1,107.1,93.4,107.2z"/>
		<path d="M208.7,99.6c0,1.3-1.1,2.4-2.3,2.4c-1.4-0.1-2.2-0.8-2.2-2.2c0-1.4,0.7-2.2,2.1-2.3C207.7,97.3,208.7,98.2,208.7,99.6z"/>
		<path d="M73.6,284.1c1.1,0.1,2,0.8,2,2.1c0,1.4-0.8,2.1-2.2,2.2c-1.3,0-2.2-0.6-2.4-2C70.9,285.1,72,284.1,73.6,284.1z"/>
		<path d="M228,284c1.1,0.1,2.2,0.6,2.2,2c0,1.3-0.8,2.2-2.2,2.3c-1.3,0.1-2.2-0.6-2.4-2C225.6,285.1,226.6,284.1,228,284z"/>
		<path d="M177,51.4c-0.2,1.4-0.9,2.3-2.2,2.3c-1.3,0-2.1-0.8-2-2.1c0-1.4,0.7-2.2,2.1-2.2C176.2,49.4,176.8,50.2,177,51.4z"/>
		<path d="M192.2,32.1c-1.1-0.2-1.8-0.9-1.8-2.2c0-1.3,0.9-2.2,2.2-2.1c1.3,0.1,2.1,0.8,2.1,2.1C194.7,31.1,193.5,32.1,192.2,32.1z"
			/>
		<path d="M121.5,37.6c-0.4-0.5-1.2-1.2-1.3-2.1c-0.2-1.3,0.7-2.1,2-2c1.2,0,2,0.7,2,1.9C124.2,36.7,123.4,37.4,121.5,37.6z"/>
		<path d="M98.8,73c0.4,0.6,1.3,1.3,1.2,1.8c0,0.6-0.9,1.5-1.5,1.5c-0.5,0-1.5-0.8-1.6-1.3c-0.1-0.6,0.7-1.3,1-2
			C98.3,73,98.5,73,98.8,73z"/>
		<path d="M196.8,76.5c1-0.8,1.6-1.6,2.1-1.6c0.6,0,1.2,0.8,1.8,1.2c-0.5,0.6-1,1.5-1.6,1.7C198.7,78,197.9,77.2,196.8,76.5z"/>
		<path d="M164.4,52.8c-0.6-1-1.1-1.6-1.1-2c0.1-0.5,0.8-1.2,1.3-1.2c0.5,0,1.3,0.8,1.3,1.2C165.8,51.3,165.2,51.9,164.4,52.8z"/>
		<path class="st2" d="M151.6,138.2c2.2,0,4.4-0.1,6.6,0.1c0.4,0,0.8,0.8,1.4,1.4c1-0.1,2.2-0.2,3.7-0.4c0,0.5,0,1.2,0,2
			c0,5.4,0.3,10.9-0.1,16.3c-0.3,4-1.2,7.9-0.9,11.9c0,0.3-0.5,0.6-0.8,0.9c-0.2-0.3-0.6-0.6-0.7-1c-0.1-0.6-0.1-1.3-0.1-1.9
			c0.1-1.5-0.5-1.9-2-1.4c0,1.4,0,2.9,0,4.6c-1.3,0-2.5,0-3.7,0c-0.2-1.3-0.4-2.7-0.7-4.1c-0.1-0.2-0.9-0.3-1.5-0.4
			c-0.1,1.6-0.3,3.1-0.4,4.6c-0.2,0-0.5,0-0.7-0.1C151.6,160,151.6,149.2,151.6,138.2z M159,149.2c0,1.1,0,2.1,0,3.1
			c0.5,0,0.9,0,1.2,0c0.3,0,0.7-0.1,1-0.2c0-1,0-2,0-3C160.4,149.2,159.7,149.2,159,149.2z M161.5,140.9c-2.7-0.6-3.1,0-2.2,2.9
			c0.6-0.1,1.3-0.1,2-0.2C161.4,142.7,161.4,141.8,161.5,140.9z M161.2,144.8c-0.8,0.2-1.8,0.1-2.2,0.6c-0.4,0.4-0.4,1.6,0,2.1
			c0.3,0.5,1.3,0.5,2.2,0.7C161.2,146.9,161.2,146,161.2,144.8z M161.1,153.6c-0.8,0.1-1.5,0.1-2.3,0.1c0.1,1.2,0.1,2.3,0.2,3.4
			c0.8,0,1.4-0.1,2.1-0.1C161.1,155.9,161.1,154.9,161.1,153.6z"/>
		<path class="st2" d="M139.7,166c-0.8,0-1.3,0-2,0c0,1.4,0,2.9,0,4.3c-0.2,0.1-0.4,0.2-0.6,0.3c-0.3-0.4-0.9-0.8-0.9-1.2
			c-0.4-5.2-0.8-10.3-0.9-15.5c-0.1-4.3,0-8.6,0-13c0-0.7,0.1-1.5,0.2-2.7c0.4,0.8,0.7,1.2,1,1.9c0.4-0.5,0.6-0.9,0.7-1
			c0.6,0.3,1.2,0.6,1.9,1.1c0.1-0.8,0.2-1.3,0.3-2c2.5,0,4.9,0,7.5,0c0,0.8,0.1,1.5,0.1,2.2c0,9.5,0,18.9,0.1,28.4
			c0,0.4,0.1,0.7,0,1c-0.1,0.3-0.3,0.5-0.5,0.8c-0.2-0.3-0.6-0.5-0.6-0.8c-0.1-1.1-0.1-2.3-0.2-3.6c-3.6,0.1-1.3,3-2.5,4.4
			c-1,0-2.2,0-3.6,0C139.7,169.1,139.7,167.6,139.7,166z M139.4,140.6c-0.9,0.1-1.7,0.1-2.5,0.2c0,1.1,0,1.9,0,2.8
			c0.9,0,1.7,0,2.5,0C139.4,142.6,139.4,141.7,139.4,140.6z M139.4,149.3c-0.9,0-1.7,0-2.4,0c0,1.1,0,2.1,0,3.1c0.9,0,1.6,0,2.4,0
			C139.4,151.2,139.4,150.2,139.4,149.3z M139.3,156.9c0-1.1,0-2.1,0-3.2c-0.8,0-1.5,0-2.1,0C136.7,157,136.8,157.2,139.3,156.9z
			 M139.4,145c-0.9,0-1.7,0-2.4,0c0,1,0,1.8,0,2.6c0.8,0,1.5,0,2.3,0C139.4,146.7,139.4,146,139.4,145z"/>
		<path class="st2" d="M160.7,104.2c-7.8,0-15.3,0-23,0c0,0.8,0,1.5,0,2.3c0,3,0,6.1,0,9.1c0,0.4-0.4,0.8-0.7,1.2
			c-0.3-0.4-0.9-0.8-0.9-1.2c-0.1-3.2,0-6.3-0.1-9.5c0-0.6,0-1.1,0-1.8c-7.8,0-15.5,0-23.3,0c0,4.1,0,8.1,0,12.1
			c-1.2,0.4-1.7,0.2-1.7-1c0-4.3,0-8.6,0-13.1c25.5,0,50.8,0,76.3,0c0,4.7,0,9.3,0,14c-1.2,0.5-1.6,0.1-1.6-1.1c0-3,0-6,0-8.9
			c0-0.6-0.1-1.3-0.1-2c-7.7,0-15.4,0-23.1,0c0,3.1,0,6.2,0,9.2c0,0.8,0,1.6-0.1,2.4c-0.1,0.3-0.5,0.6-0.8,0.9
			c-0.3-0.3-0.8-0.6-0.8-0.9c-0.1-1.3-0.1-2.6-0.1-3.9C160.7,109.5,160.7,107,160.7,104.2z"/>
		<path class="st2" d="M126.3,179.9c1.7-1.4,3.3-2.9,2.9-5.5c-3.4-0.5-6.8-0.9-10.3-1.4c0,2.9,1.6,4.9,3.5,6.9
			c-3,0.4-5.3-3.7-5.4-9.1c21.4,3.6,42.9,3.6,64.3,0.1c0.3,4.7-2.1,9-5.7,9.1c1-1.2,2-2,2.6-3.1c0.6-1.1,0.9-2.4,1.4-3.8
			c-3.6,0.5-6.9,0.9-10.3,1.4c-0.3,0-0.7,0.9-0.6,1.3c0.4,1,1,1.8,1.5,2.7c0.4,0.6,0.8,1.1,1.3,1.7c-2.5,0.1-3.5-1.2-4.8-5.7
			c-0.9,0.1-1.9,0.2-2.8,0.3c-0.2,4.1-1.4,5.7-4.5,5.9c1.1-1.8,3.7-2.9,2.6-5.3c-3.3,0-6.6,0-10,0c-0.3,2.7,2,3.6,3,5.3
			c-2.7,0-4.2-1.7-4.7-5.3c-1.1,0-2.1,0-3.2,0c-0.7,4-1.7,5.3-5,5.5c1.6-1.7,3.6-2.8,3.2-5.5c-3.3,0-6.6,0-10,0
			c-0.5,2.4,1.6,3.6,2.8,5.3c-2.8,0-4.1-1.9-4.4-5.8c-0.9-0.1-1.9-0.1-2.8-0.2c0.1,0.1,0.2,0.2,0.4,0.3c-0.9,1.5-1.7,3.1-2.8,4.6
			c-0.4,0.5-1.3,0.7-2,1C126.6,180.3,126.4,180.1,126.3,179.9z"/>
		<path class="st2" d="M206.5,205.5c-0.2,0-0.4,0-0.5,0.1c-3,1.4-5.3-0.3-7.8-1.4c-10.2-4.7-20.8-6.3-31.6-2.4c-2.8,1-5.4,2.6-7.9,4
			c-1.1,0.6-2.1,1.2-3.3,0.3c-0.5-0.4-1.3-0.5-2.3-0.8c6.7-5.2,13.9-8.3,22.1-9C186.7,195.3,197.1,198.5,206.5,205.5z"/>
		<path class="st2" d="M91.9,205c17.1-12.2,40.2-11.6,52.8,0.7c-2,0.9-3.6,1.4-5.8-0.1c-9.7-6.8-20.3-7.2-31.3-4.1
			c-2.8,0.8-5.7,1.8-8.3,3.2C96.8,206,94.5,206.3,91.9,205z"/>
		<path class="st2" d="M75.3,209.8c-2.1,0.8-3.6,0.6-5.3-0.4c-10.6-5.7-21.5-5.5-32.5-1.2c-2.9,1.1-5.6,2.8-8.5,4.2
			c-0.4-1.2-0.6-2.4,0.9-3.3c13-7.9,26.3-9.3,40.2-2.5C71.8,207.4,73.3,208.6,75.3,209.8z"/>
		<path class="st2" d="M225,210c3.1-2.9,6.6-4.6,10.3-5.8c12-3.7,23.3-1.6,33.8,5c1.3,0.8,1.1,1.9,1,3.3c-1.1-0.6-2.2-1.2-3.2-1.7
			c-9.5-5.2-19.5-7.1-30-4.1c-2.3,0.6-4.6,1.5-6.6,2.7C228.6,210.3,227.1,210.5,225,210z"/>
		<path class="st2" d="M191.6,119.9c-28.2,0-56.3,0-84.5,0c0-0.2-0.1-0.4-0.1-0.6c0.6-0.2,1.3-0.5,1.9-0.5c4.8-0.1,9.7-0.2,14.5-0.2
			c20.7,0,41.5,0,62.2,0c1.6,0,3.2,0.1,4.7,0.3c0.5,0,1,0.4,1.4,0.6C191.7,119.6,191.7,119.7,191.6,119.9z"/>
		<path class="st2" d="M108.5,137.3c2.1,0.1,4.1,0.2,6.3,0.3c0,2.1,0,4.2,0,6.3c0,1.3,0,2.6,0,3.9c0,2.4,0,2.4-2.5,2.4
			c-2.1,0-4.2,0-6.3,0c-2,0-2.5-0.8-1.8-2.6C105.5,144.2,107,140.8,108.5,137.3z"/>
		<path class="st2" d="M194.5,150.1c-3.7,0-7.1,0-10.6,0c0-4.2,0-8.2,0-12.4c1.6-0.1,3.3-0.3,4.9-0.3c0.3,0,0.8,0.5,1,0.8
			c1.5,3.2,2.9,6.4,4.3,9.6C194.4,148.3,194.4,149.1,194.5,150.1z"/>
		<path class="st2" d="M137.8,208.9c-1.6,0.9-3.1,1.3-5,0.2c-6.9-4.2-14-4.4-21-0.1c-1.6,1-3,1.4-4.7,0.7c-0.5-0.2-1.1-0.3-1.7-0.4
			C111.7,201,131,200.7,137.8,208.9z"/>
		<path class="st2" d="M181.7,150.1c-2.8,0-5.4,0-8.2,0c0-4.1,0-8,0-12.1c2.7-0.1,5.4-0.3,8.2-0.4
			C181.7,141.8,181.7,145.8,181.7,150.1z"/>
		<path class="st2" d="M160.6,208.6c7.1-6.2,22.2-9.4,32.7,0.7c-2.1,0.7-3.9,1.3-6.1-0.1c-7.2-4.5-14.6-4.5-21.8-0.1
			C163.6,210.3,162.4,208.9,160.6,208.6z"/>
		<path class="st2" d="M116.8,150c0-4.1,0-8.1,0-12.2c2.6,0,5.3,0,8.1,0c0,4.1,0,8.1,0,12.2C122.2,150,119.6,150,116.8,150z"/>
		<path class="st2" d="M104.3,152.1c3.5,0,6.8,0,10.5,0c0,2,0,4-0.1,5.9c0,0.3-0.7,0.7-1.1,0.8c-1.1,0.1-2.3,0-3.6,0
			c-0.1,1-0.2,1.9-0.3,3c-1.6-0.3-3.2-0.6-4.8-1c-0.3-0.1-0.6-0.7-0.6-1C104.3,157.3,104.3,154.8,104.3,152.1z"/>
		<path class="st2" d="M68.7,138.1c0,0.3,0,0.5,0,1.1c-2.5-1.5-4.9-2.9-7.3-4.3c-0.1,0.1-0.2,0.3-0.3,0.4c1.5,1.5,3.7,2.6,2.4,5.3
			c-0.8,1.6-2.2,1.7-3.8,1.6c-2-0.2-2.9-1.5-3.3-3.7c0.5,0.4,0.7,0.6,1,0.8c0.4,0.3,0.8,0.7,1.3,0.9c1.4,0.6,2.8,0.8,3.8-0.6
			c0.4-0.5,0.4-1.6,0.2-2.2c-0.5-1.1-2.1-1.3-4-0.5c0.5,0.8,1,1.4,1.6,2.3c-1.5-0.3-2.7-1.1-2.7-2.4c0-0.8,0.9-2.1,1.7-2.3
			c1.4-0.5,3.1-0.8,4.6-0.5c5.9,1.2,10.6,4.6,14.7,8.7c2.7,2.6,4.9,5.7,7.3,8.6c-0.1,0.1-0.2,0.2-0.4,0.3
			c-5.4-4.6-10.7-9.3-16.1-13.9C69,137.8,68.9,137.9,68.7,138.1z"/>
		<path class="st2" d="M183.9,158.6c0-2.3,0-4.3,0-6.4c3.4,0,6.7,0,10.3,0c0,2.6,0,5.2,0,7.7c0,0.3-0.5,0.7-0.8,0.7
			c-1.5,0.4-3,0.7-4.7,1.1c-0.1-1-0.2-1.8-0.2-2.8C187,158.9,185.5,158.7,183.9,158.6z"/>
		<path class="st2" d="M116.8,152.1c2.6,0,5.3,0,8.1,0c0,5.6,0,11.2,0,16.8c-1.3,0.5-1.5-0.2-1.5-1.2c0-2.4,0-4.8,0-7.2
			c0-1.3-0.5-1.7-1.8-1.7c-1.6,0-3.2-0.2-4.8-0.3C116.8,156.4,116.8,154.3,116.8,152.1z"/>
		<path class="st2" d="M181.8,152.2c0,2.2,0,4.3,0,6.7c-2.2,0-4.2,0-6.6,0c0,3.1,0,6,0,8.8c0,0.9-0.1,1.7-1.5,1.3
			c0-5.5,0-11.1,0-16.8C176.3,152.2,179,152.2,181.8,152.2z"/>
		<path class="st2" d="M237.4,139.3c0.5-0.7,0.9-1.3,1.3-1.9c-0.7-0.4-1.4-0.8-2-1.1c0.1-0.1,0.4-0.2,0.9-0.5
			c-1.8-0.4-3.1,0.2-4.4,1.1c-1,0.7-1.9,1.3-2.9,1.9c-0.2,0.1-0.5-0.2-1.2-0.5c-2.9,1.3-5.5,3.8-8.2,6.2c-2.6,2.4-5.2,4.9-8,7.6
			c0.1-0.5,0.1-0.7,0.2-0.8c4.2-6.8,9.6-12.4,16.9-15.8c1.7-0.8,3.6-1.2,5.5-1.5c1-0.1,2.2,0.2,3,0.7c0.7,0.5,1.5,1.7,1.5,2.4
			C239.8,138.1,239,139.3,237.4,139.3z"/>
		<path class="st2" d="M221.6,159.5c-3,2.8-5.9,5.7-9.2,8.8c2.7-1.5,5.1-2.7,7.4-4c-7.7,7.2-17.3,9.4-27.3,10.7
			c10.9-3,20.3-8.5,28.7-16C221.3,159.1,221.5,159.3,221.6,159.5z"/>
		<path class="st2" d="M107.4,175.2c-7,0-23.7-4.3-29.9-11.6c3,1.7,5.7,3.3,8.4,4.8c0-0.1,0.1-0.1,0.1-0.2c-3.1-2.9-6.2-5.9-9.3-8.8
			c0.1-0.2,0.2-0.3,0.4-0.5C85.7,167,95.7,172.6,107.4,175.2z"/>
		<path class="st2" d="M165.8,150.2c-0.2-3.7-0.7-7,1.5-9.9c0.9-0.4,1.9-0.9,3.1-1.5c-0.7-0.2-1-0.3-1.6-0.5
			c0.9-0.1,1.7-0.1,2.7-0.2c0,1.7,0,3.3,0,4.9c0,1.9,0,3.8,0,5.8c0,1-0.3,1.5-1.4,1.5C168.8,150.1,167.4,150.2,165.8,150.2z"/>
		<path class="st2" d="M132.7,150.1c-2,0-3.8,0-5.7,0c0-4,0-7.9,0-12c0.8,0.1,1.5,0.1,2.6,0.2c-0.7,0.2-1,0.3-1.8,0.6
			c1.3,0.6,2.2,1,3.2,1.4c0,0.3-0.2,1,0,1.1c1.9,1.4,1.6,3.4,1.6,5.3C132.7,147.8,132.7,148.9,132.7,150.1z"/>
		<path class="st2" d="M170.3,169.8c0-2.6,0-4.8,0-7c0-0.9,0.4-2-1-2.4c-0.1,0,0-1,0-1.6c-1.1,0.3-2.1,0.6-3.4,0.9c0-2.6,0-5,0-7.6
			c1.7,0,3.5,0,5.3,0C172,154.4,171.7,168.8,170.3,169.8z"/>
		<path class="st2" d="M132.6,152.2c0,2.6,0,5,0,7.6c-1.3-0.4-2.4-0.8-3.8-1.3c0.2,0.8,0.4,1.3,0.5,1.8c-0.2,0-0.3-0.1-0.5-0.1
			c-0.3,0.8-0.7,1.5-0.7,2.3c-0.1,2.3,0,4.5-0.4,7c-0.3-0.3-0.8-0.7-0.8-1c0-5.4,0-10.8,0-16.4C128.8,152.2,130.7,152.2,132.6,152.2
			z"/>
		<path class="st2" d="M68.3,194.9c8.1-3.4,16.1-4.3,24.3-1.3c-6.3-0.6-12.2,1.2-18.1,3.1c-0.7,0.2-1.5,0.1-2.2-0.1
			C71,196.1,69.8,195.5,68.3,194.9z"/>
		<path class="st2" d="M205.9,193.4c8.3-3,16.4-1.7,24.7,1.5c-2.5,1.6-4.7,2.4-7.5,1.4C217.6,194.2,211.9,193.1,205.9,193.4z"/>
		<path class="st2" d="M211.6,158.1c-2.7,1.4-5.3,3-8.1,4c-4.9,1.7-10,3.1-15.1,4.5c-1,0.3-1.5,0.6-1.8,1.7
			c-0.8,2.9-1.9,5.8-2.9,8.7c-0.2,0-0.5-0.1-0.7-0.1c0.1-1,0.1-2.1,0.3-3.1c0.6-2.5,1.3-4.9,2.1-7.4c0.1-0.5,0.6-1.1,1-1.2
			c8.3-1.4,16.2-4.4,24-7.5c0.3-0.1,0.5-0.2,0.8-0.3C211.4,157.8,211.5,157.9,211.6,158.1z"/>
		<path class="st2" d="M114.4,176.7c-0.9-2.7-1.9-5.3-2.6-8.1c-0.3-1.3-0.9-1.7-2-1.9c-7.3-1.4-14.4-3.5-20.8-7.4
			c-0.8-0.5-1.5-1-2.5-1.8c4.4,1.7,8.4,3.3,12.5,4.6c4.1,1.3,8.4,2.1,12.5,3.3c0.6,0.2,1.3,0.7,1.5,1.2c0.7,2.5,1.3,5,1.9,7.4
			c0.2,0.8,0.2,1.7,0.3,2.5C115,176.5,114.7,176.6,114.4,176.7z"/>
		<path class="st2" d="M191.2,170c11.5-3.7,22.4-7.7,31.3-16.2C219.9,161.1,200.7,171,191.2,170z"/>
		<path class="st2" d="M76.5,154.9c8.9,7.6,19.5,11.7,30.4,15.2C94.6,169.4,84.4,164.4,76.5,154.9z"/>
		<path class="st2" d="M135.6,75.6c3.1-6.8,6.2-13.6,9.5-20.8c-0.7,3.4-1.2,6.4-2,9.3c-0.7,2.7-1.7,5.3-2.5,8
			C139.8,74.7,138.1,75.9,135.6,75.6z"/>
		<path class="st2" d="M162.9,75.7c-2,0.3-3.5-0.8-4.5-2.8c-1.8-3.5-4.6-13.9-4.8-17.3C156.5,62,159.7,68.9,162.9,75.7z"/>
		<path class="st2" d="M143.3,75.6c1.5-6.4,2.9-12.7,4.3-18.6c0,3.1,0,6.7,0,10.3c0,2-0.2,4.1-0.2,6.1c0,1.4-0.4,2.2-2,2
			C144.7,75.4,144,75.5,143.3,75.6z"/>
		<path class="st2" d="M132.3,122.5c-0.4,3.1-2.7,2.3-4.5,2.8c1,0.2,2,0.3,3.1,0.5c-1.3,4.1-4,6.7-8.5,5.8c1.4-2,2.9-4.1,4.4-6.1
			c0.1-0.1,0.2-0.2,0.2-0.3C127.5,121.7,130,122.5,132.3,122.5z"/>
		<path class="st2" d="M155.6,49.9c-1.6,0-3.2,0-4.8,0c-2.2,0-4.4,0-6.7,0c-0.5,0-0.9-0.3-1.4-0.4c0.2-0.5,0.2-1.2,0.6-1.5
			c0.6-0.5,1.3-1.1,2.1-1.2c2.3-0.2,4.7-0.3,7-0.2C154.5,46.6,155.4,47.6,155.6,49.9z"/>
		<path class="st2" d="M218,169c-7.9,8.1-17.9,10.9-28.7,12C199.2,177.8,209.2,174.9,218,169z"/>
		<path class="st2" d="M176.8,131.4c-4,0.8-5.6-0.2-8.3-5.6c0.9-0.2,1.8-0.4,2.7-0.6c-1.8-0.3-3.8,0-4.3-2.8c1.2,0,2.5-0.1,3.7,0
			c0.4,0,0.8,0.4,1,0.7c0.8,1.4,1.4,3,2.3,4.3C174.7,128.9,175.8,130.1,176.8,131.4z"/>
		<path class="st2" d="M150.7,57.3c1.5,6.1,3,12.2,4.5,18.3c0.1,0,0,0.1-0.1,0.1c-3.7-0.3-3.8-0.3-3.9-4.1
			c-0.2-4.7-0.4-9.4-0.6-14.1C150.6,57.4,150.6,57.3,150.7,57.3C150.7,57.2,150.8,57.3,150.7,57.3z"/>
		<path class="st2" d="M81.2,170c4.3,2,8.7,4.2,13.4,6.1c4.6,1.8,9.4,3.3,14.1,4.9C98.5,179.7,88.7,177.3,81.2,170z"/>
		<path class="st2" d="M185.8,130.8c-4.2,1.1-6.3-2-8.8-5c1-0.3,1.9-0.5,2.7-0.8c0-0.1,0-0.2,0-0.2c-0.9,0-1.9,0.4-2.7,0
			c-0.8-0.3-1.4-1.2-2-1.9c0.1-0.2,0.1-0.3,0.2-0.5c1.1,0,2.3,0,3.4,0c0.4,0,0.8,0.2,1,0.5C181.7,125.6,183.8,128.2,185.8,130.8z"/>
		<path class="st2" d="M116,122c-1.4,2.7-3.2,2.8-5.2,2.8c0.7,0.1,1.4,0.3,2.2,0.4c-2.8,3.6-6.6,5-11.6,4.1c3.8-1.2,6.4-3.7,9.2-6
			C111.8,122.3,113.9,122.5,116,122z"/>
		<path class="st2" d="M220.3,200.4c-1.2,1.3-2.4,1.4-4,1.1c-2.1-0.5-4.4-0.7-6.6-0.5c-2.1,0.2-3.9-0.2-5.6-1.3
			C206.6,197.8,216.2,198.2,220.3,200.4z"/>
		<path class="st2" d="M197.2,129.3c-4.8,1.4-8.1-0.4-11.3-3.7c0.8-0.2,1.4-0.4,2.5-0.7c-1.3-0.1-2.3,0.1-3-0.3
			c-0.8-0.3-1.4-1.1-2.2-1.8c2.5-1,4.1-0.7,5.6,1C190.9,126.4,193.5,128.4,197.2,129.3z"/>
		<path class="st2" d="M94.4,199.3c-1.8,1.1-3.3,1.7-5.4,1.5c-1.8-0.2-3.8,0-5.5,0.6c-2,0.7-3.3-0.1-4.7-1.2
			C82.3,198.4,90.3,197.9,94.4,199.3z"/>
		<path class="st2" d="M147.6,125.6c0,0.6,0,1.1-0.1,1.6c-0.5,5,0.4,4.8-5.7,4.6c0.5-2.1,1-4.1,1.4-6.2
			C144.7,125.6,146,125.6,147.6,125.6z"/>
		<path class="st2" d="M151.7,125.6c1.5,0,2.9,0,4.3,0c0.5,2,1,4,1.5,6C152.3,132.3,152.5,132.2,151.7,125.6z"/>
		<path class="st2" d="M132.1,131.8c0.9-1.8,1.9-3.5,2.6-5.2c0.4-1,0.8-1.4,1.9-1.1c0.8,0.2,1.7,0.1,2.6,0.2
			C138.6,130.6,136.5,132.3,132.1,131.8z"/>
		<path class="st2" d="M160,125.7c1.2-0.1,2.3-0.3,3.4-0.4c0.3,0,0.9,0.3,1,0.6c0.9,1.9,1.8,3.9,2.6,5.8
			C163.2,132.5,161.1,130.8,160,125.7z"/>
		<path class="st2" d="M206.2,126.5c-5.6,1.4-10.4,0-14.6-4c1.9-0.9,3.7-0.7,5.1,0.6c2.2,1.9,4.9,2.8,7.8,3.2
			C205.1,126.4,205.6,126.4,206.2,126.5z"/>
		<path class="st2" d="M122.1,125.7c-2.3,3.7-5.5,5.8-9.9,5c0.7-0.6,1.3-1.1,1.8-1.6c0.6-0.5,1.3-0.9,1.7-1.5
			C117.2,124.7,119.6,125.3,122.1,125.7z"/>
		<path class="st2" d="M107.5,122.2c-4.7,3.9-9.6,5.7-15.4,4.4c0.6-0.1,1.2-0.2,1.7-0.4c2.5-0.9,5.2-1.5,7.4-2.9
			C103.3,122.1,105.1,121.9,107.5,122.2z"/>
		<path class="st2" d="M124.5,108c2.6,0,5.1,0,7.7,0c0.4,0,0.8,0.4,1.1,0.6c-0.3,0.2-0.7,0.6-1,0.6c-5.4,0.1-10.7,0.1-16.1,0
			c-0.3,0-0.6-0.4-0.9-0.6c0.3-0.2,0.6-0.7,0.9-0.7C119.1,108,121.8,108,124.5,108z"/>
		<path class="st2" d="M158.4,108.5c-0.3,0.3-0.7,0.8-1,0.8c-5.4,0.1-10.7,0.1-16.1,0c-0.3,0-0.6-0.4-0.8-0.6
			c0.3-0.2,0.5-0.6,0.8-0.6c5.7,0,11.3,0,17,0C158.3,108.2,158.3,108.3,158.4,108.5z"/>
		<path class="st2" d="M174.1,108c2.5,0,5,0,7.5,0c0.4,0,0.8,0.4,1.2,0.6c-0.4,0.2-0.8,0.7-1.2,0.7c-5.2,0.1-10.4,0.1-15.5,0.1
			c-0.4,0-0.7-0.5-1.1-0.7c0.4-0.2,0.7-0.6,1.1-0.6C168.8,108,171.4,108,174.1,108C174.1,108,174.1,108,174.1,108z"/>
		<path class="st2" d="M198.8,136.6c0.2,1.5,0.5,3.1,0.5,4.6c0.1,4.1,0.1,8.2,0,12.3c0,0.5-0.5,1-1.1,1.4c0-6.1,0-12.1,0-18.2
			C198.4,136.6,198.6,136.6,198.8,136.6z"/>
		<path class="st2" d="M99.8,156.2c-0.1-0.7-0.1-1.4-0.2-2.4c-0.1,0.8-0.2,1.3-0.3,1.7c-0.9,0-0.7-12.9,0.7-18.7c0,6.5,0,13,0,19.4
			C99.9,156.1,99.9,156.2,99.8,156.2z"/>
		<path class="st2" d="M175.2,88.3c1.8-0.4,2.9,0.1,4.2,1.7c1.8,2.1,4.2,3.6,6.4,5.3c-1.8,0.6-4,0-6-2
			C178.1,91.7,176.7,89.9,175.2,88.3z"/>
		<path class="st2" d="M136.6,65.7c-1.7,6.5-6.1,11.2-9.6,10.6C130.1,72.9,133.2,69.3,136.6,65.7z"/>
		<path class="st2" d="M141,88.2c-0.7,5.4-1.6,6.6-5.1,6.4c0.3-1.1,0.7-2.1,1-3.1c0.3-1.1,0.6-2.1,0.9-3.3
			C138.8,88.2,139.9,88.2,141,88.2z"/>
		<path class="st2" d="M156.7,191c-4.9,0-9.8,0-14.9,0c0-1.2,0.5-1.5,1.6-1.5c3.8,0,7.7,0,11.5,0c0.7,0,1.3,0.5,2,0.8
			C156.9,190.5,156.8,190.7,156.7,191z"/>
		<path class="st2" d="M112.4,95.5c1.9-1.4,3.4-2.6,4.9-3.9c0.9-0.8,1.7-1.7,2.7-2.5c0.7-0.6,1.6-0.9,2.6-1
			C120.3,92,117.9,95.7,112.4,95.5z"/>
		<path class="st2" d="M155.3,199.2c-3.3,2.4-9.6,2.4-12.8,0C146.9,199.2,150.9,199.2,155.3,199.2z"/>
		<path class="st2" d="M161.6,65.3c3.4,3.9,6.6,7.5,10,11.5c-1.5-0.5-2.8-0.7-3.7-1.4C164.8,72.8,163.1,69.4,161.6,65.3z"/>
		<path class="st2" d="M212.7,176.6c-5.2,4.7-11.4,7.4-18.3,8.3C200.5,182.1,206.6,179.4,212.7,176.6z"/>
		<path class="st2" d="M158.1,89.6c0.7-0.1,1.3-0.1,1.8-0.2c0-0.1,0-0.1,0-0.2c-0.8-0.1-1.5-0.2-2.3-0.3c0-0.2,0-0.4,0-0.5
			c1.1,0,2.1,0,3.2,0c0.6,2.1,1.2,4.2,1.9,6.2C159.6,95,158.6,93.6,158.1,89.6z"/>
		<path class="st2" d="M104.5,185c-6.6-1.1-13.4-3.3-18.6-8.2C92,179.5,98.6,182.4,104.5,185z"/>
		<path class="st2" d="M178.1,95.7c-4.3-0.6-6.1-3.9-7.6-7.5c1.8,0,3.2,0.2,4.1,2.3C175.4,92.4,176.9,93.9,178.1,95.7z"/>
		<path class="st2" d="M183.6,114.3c-0.9,0.9-16.6,1.2-19.2,0.4c0.5-0.3,0.9-0.7,1.2-0.7c5.8,0,11.6,0,17.5,0
			C183.2,114.1,183.3,114.2,183.6,114.3z"/>
		<path class="st2" d="M124.7,113.9c2.6,0,5.2,0,7.9,0c0.4,0,0.8,0.3,1.3,0.5c-0.4,0.2-0.8,0.6-1.2,0.6c-5.5,0.1-10.9,0.1-16.4,0
			c-0.4,0-0.8-0.4-1.2-0.6c0.4-0.2,0.7-0.5,1.1-0.5C119,113.9,121.8,113.9,124.7,113.9C124.7,113.9,124.7,113.9,124.7,113.9z"/>
		<path class="st2" d="M120.6,95.6c1.5-2.3,3-4.6,4.7-7.2c0.5,0,1.4-0.1,2.3-0.2C127.1,92,124.3,95,120.6,95.6z"/>
		<path class="st2" d="M159.2,114.5c-0.7,0.3-1.1,0.6-1.4,0.6c-5.6,0-11.2,0-16.8,0c-0.3,0-0.7-0.4-1-0.6c0.3-0.2,0.6-0.5,0.9-0.5
			c5.8,0,11.6,0.1,17.5,0.1C158.5,114,158.6,114.2,159.2,114.5z"/>
		<path class="st2" d="M132.7,89.1c-0.7-0.1-1.4-0.2-2.1-0.3c0-0.2,0-0.4,0.1-0.6c1-0.1,2.1-0.1,3.2-0.2c-0.6,5-2.5,7.1-5.5,6.5
			c0.7-1.5,1.3-3.1,2.2-4.5C130.8,89.5,132,89.4,132.7,89.1z"/>
		<path class="st2" d="M144.7,88.2c1,0,2,0,2.9,0c-0.1,1.2-0.2,2.3-0.3,3.4c-0.3,2.8-0.4,2.9-3.5,2.7
			C144.2,92.3,144.5,90.3,144.7,88.2z"/>
		<path class="st2" d="M129.2,70.5c-2.9,5.1-8.3,7.2-13.5,5.1C121,75.5,125,73.2,129.2,70.5z"/>
		<path class="st2" d="M167.2,88.4c1.2,2.3,2.2,4.4,3.3,6.5c-4.3,0.1-4.8-3.5-5.9-6.5C165.6,88.4,166.5,88.4,167.2,88.4z"/>
		<path class="st2" d="M155.2,95c-3.3-0.6-3.9-1.1-4.1-6.8c1,0,2.1-0.1,3.1-0.1c0,0.2,0.1,0.5,0.1,0.7c-0.7,0.1-1.4,0.2-2.2,0.3
			C155.7,89.9,154.1,93,155.2,95z"/>
		<path class="st2" d="M169.5,70.7c4.2,2.8,8.1,4.9,13,4.8C178.4,77.9,172.3,75.8,169.5,70.7z"/>
		<path class="st2" d="M140.9,179.1c-0.2,2.6,1.2,3.7,3.4,5c-0.6,0.4-1.1,0.9-1.7,1.3c-2.1-2.2-2.1-2.2-4-0.1
			c-0.5-0.4-1-0.9-1.4-1.3c0.4-0.4,0.8-0.7,1.1-1.2C139,181.8,139.7,180.7,140.9,179.1z"/>
		<path class="st2" d="M157.3,179.8c0.9,1.1,1.5,2.2,2.4,2.9c1.5,1.2,1.6,1.4-0.2,2.4c-1.7-2-1.8-2-3.7,0.2c-0.5-0.4-1-0.8-1.4-1.2
			c0.4-0.4,0.8-0.9,1.1-1.3c0.5-0.6,1-1.2,1.4-1.9C157.1,180.4,157.2,180,157.3,179.8z"/>
		<path class="st2" d="M175.6,184.8c-1.9-2.1-1.9-2.1-3.9,0.1c-0.4-0.3-0.9-0.7-1.2-0.9c1.2-1.7,2.3-3.2,3.5-4.8
			c0.6,1.4,0.7,3.5,3.5,3.6C176.6,183.7,176.1,184.2,175.6,184.8z"/>
		<path class="st2" d="M124.5,179c0.5,1.8,1.1,3.7,3.3,4.1c-0.7,1.9-0.7,1.9-3.4-0.3c-0.3,0.3-0.6,0.5-0.9,0.8
			c-0.3,0.3-0.6,0.6-1,1.1c-0.5-0.4-0.9-0.8-1.4-1.2c0.4-0.4,0.8-0.7,1.1-1.2C123,181.2,123.7,180.2,124.5,179z"/>
		<path class="st2" d="M240.8,138.8c0,1.9-0.9,3.1-2.6,3.3c-1.8,0.3-3.4-0.5-4.1-2c-0.6-1.4-0.4-2.5,1.4-3.4c-1,1.5-0.9,2.6,0.4,3.5
			C237.2,141.1,238.9,140.6,240.8,138.8z"/>
		<path class="st2" d="M152.5,42c-2,0-4,0-6.1,0c-0.3,0-0.6-0.4-0.9-0.6c0.2-0.3,0.5-0.8,0.7-0.8c1.9-0.1,3.8-0.2,5.7-0.2
			c0.3,0,0.6,0.7,0.9,1.1C152.7,41.7,152.6,41.9,152.5,42z"/>
		<path class="st2" d="M118.6,124.6c1-3.1,3.5-1.9,5.5-2.2C123.6,125,122.3,125.4,118.6,124.6z"/>
		<path class="st2" d="M163.8,124.7c-4,0.5-4,0.5-4.8-1.9C162.6,121.9,163.7,122.3,163.8,124.7z"/>
		<path class="st2" d="M151.3,122.6c1.5,0,2.9,0,4.5,0c0,0.8,0,1.4,0,2.1C152,125.3,151.6,125.1,151.3,122.6z"/>
		<path class="st2" d="M143.4,122.6c1.4,0,2.8,0,4.4,0c-0.1,1.1,0.6,2.4-1.4,2.3C143.5,124.9,143.3,124.9,143.4,122.6z"/>
		<path class="st2" d="M140.3,122.5c-0.8,2.9-1.3,3.1-4.6,2C135.5,122.3,135.5,122.3,140.3,122.5z"/>
		<path class="st2" d="M175.7,187.7c2.8,0,5.3,0,7.6,0C180.7,189.3,176.6,189.6,175.7,187.7z"/>
		<path class="st2" d="M193.2,138.2c0.6,0.5,1.1,1,1.7,1.4c-0.6,0.3-1,0.6-2,1c1.1,0.3,1.7,0.4,2.3,0.6c0,0.1,0.1,0.2,0.1,0.3
			c-0.6,0.1-1.1,0.3-1.7,0.4c-0.7-1.6-1.3-3-2.1-4.9c1.2,0.1,2.1,0.1,3.1,0.2c0,0.1,0,0.3,0,0.4C194,137.9,193.5,138,193.2,138.2z"
			/>
		<path class="st2" d="M122.5,187.8c-0.9,1.7-3.3,1.6-7,0C117.8,187.8,120.1,187.8,122.5,187.8z"/>
		<path class="st2" d="M136.7,84.6c1.1,0,2.3-0.1,3.4,0c0.3,0,0.6,0.5,0.9,0.7c-0.3,0.2-0.6,0.6-0.9,0.6c-0.9,0.1-1.9,0.1-2.8,0
			c-0.4,0-0.6-0.6-1-0.9C136.6,84.9,136.6,84.7,136.7,84.6z"/>
		<path class="st2" d="M166.8,84.1c0.9,0.4,1.6,0.8,2.3,1.1c-0.7,0.2-1.5,0.7-2.2,0.7c-0.8,0-1.6-0.4-2.3-0.6
			C165.3,84.9,166,84.6,166.8,84.1z"/>
		<path class="st2" d="M130,188.7c1.5,0.1,2.9,0.2,4.7,0.3c-1.1,1.9-2.7,1-3.9,1.1c-0.4,0-0.8-0.5-1.2-0.7
			C129.7,189.1,129.9,188.9,130,188.7z"/>
		<path class="st2" d="M157.4,84.5c1.3,0,2.5,0,3.7,0c0.2,0,0.6,0.3,0.7,0.5c0.1,0.2-0.2,0.7-0.2,0.7c-1.3,0-2.7-0.1-4-0.3
			C157.4,85.5,157.4,85,157.4,84.5z"/>
		<path class="st2" d="M134,85c-0.3,0.3-0.6,0.9-1,0.9c-0.8,0.1-1.7,0.1-2.6-0.1c-0.3-0.1-0.6-0.5-0.9-0.7c0.3-0.2,0.6-0.5,0.9-0.5
			c1-0.1,2.1,0,3.1,0C133.6,84.7,133.8,84.8,134,85z"/>
		<path class="st2" d="M163.6,189.1c1.7-0.1,3.2-0.3,5.1-0.4c-0.3,0.7-0.4,1.2-0.7,1.4C166.7,190.7,164.4,190.2,163.6,189.1z"/>
		<path class="st2" d="M171.8,85.4c0.4-0.3,0.7-0.8,1.1-0.9c0.8-0.1,1.6-0.1,2.4,0c0.3,0,0.6,0.4,0.9,0.6c-0.3,0.3-0.6,0.7-0.9,0.8
			c-1,0.1-2.1,0-3.1,0C172.1,85.8,171.9,85.6,171.8,85.4z"/>
		<path class="st2" d="M124.4,86.3c-0.8-0.4-1.5-0.7-2.1-1c0.7-0.3,1.3-0.7,2-0.7c0.7,0,1.5,0.4,2.2,0.6
			C125.8,85.6,125.2,85.9,124.4,86.3z"/>
		<path class="st2" d="M145.8,85.9c-0.4,0-0.8,0.1-1.2,0c-0.3-0.1-0.6-0.5-0.6-0.8c0-0.1,0.4-0.5,0.6-0.6c0.7-0.1,1.4-0.2,2.1-0.1
			c0.4,0.1,0.8,0.4,1.2,0.6c-0.4,0.3-0.7,0.6-1.2,0.8C146.5,86.1,146.1,86,145.8,85.9C145.8,85.9,145.8,85.9,145.8,85.9z"/>
		<path class="st2" d="M150.9,84.5c0.9,0,1.9-0.1,2.8,0c0.3,0,0.5,0.6,0.7,1c-1,0.1-2,0.3-3,0.3c-0.3,0-0.6-0.6-0.9-1
			C150.7,84.8,150.8,84.7,150.9,84.5z"/>
		<path class="st2" d="M136.7,81.5c1.4,0,2.9,0,4.5,0C140.2,82.6,138,82.7,136.7,81.5z"/>
		<path class="st2" d="M150.7,81.4c1-0.1,2.1-0.2,3.1-0.2c0.2,0,0.4,0.4,0.7,0.6c-0.2,0.2-0.4,0.5-0.6,0.5c-1.1,0-2.2-0.1-3.2-0.1
			C150.7,81.9,150.7,81.6,150.7,81.4z"/>
		<path class="st2" d="M169.3,81.5c-1.1,1.1-3.5,1.2-5.1,0C166.1,81.5,167.6,81.5,169.3,81.5z"/>
		<path class="st2" d="M210.5,204c1.4,0.1,2.7,0.3,4.2,0.5C213.3,206.1,212.5,206.1,210.5,204z"/>
		<path class="st2" d="M161.7,82.1c-1.5,0-2.9,0-4.4,0c0-0.2,0-0.4,0-0.5c1.4,0,2.9,0,4.3,0C161.7,81.7,161.7,81.9,161.7,82.1z"/>
		<path class="st2" d="M172,81.4c1.4-0.2,2.7-0.5,4.1,0c0,0.2,0,0.4,0,0.6c-1.4,0-2.7,0-4.1,0C172,81.8,172,81.6,172,81.4z"/>
		<path class="st2" d="M129.4,81.5c1.4,0,2.9,0,4.3,0c0,0.2,0,0.4,0,0.6c-1.4,0.4-2.9,0.3-4.4,0C129.4,81.9,129.4,81.7,129.4,81.5z"
			/>
		<path class="st2" d="M147.8,82.1c-1.3,0.6-2.5,0.4-3.8,0c0-0.2,0-0.4,0-0.6c1.3,0,2.5,0,3.8,0C147.8,81.8,147.8,81.9,147.8,82.1z"
			/>
		<path class="st2" d="M103.3,137.3c1-0.1,2-0.1,3.2-0.2c-0.2,0.9-0.3,1.6-0.4,2.3c-0.2-1.9-1.8-1.2-2.8-1.4
			C103.3,137.7,103.3,137.5,103.3,137.3z"/>
		<path class="st2" d="M88.4,204c-1.6,1.8-1.9,1.8-3.6,0.4C86,204.3,87,204.2,88.4,204z"/>
		<path class="st2" d="M60.3,56.8c-2.7-0.8-5.9-1.3-9.1,0.1c-2.6,1.1-4,3.2-4.1,6c0,1-0.4,1.6-1.2,2.3c-0.8,0.7-1.3,1.8-1.6,2.8
			c-1.3,5.1,1.4,10.1,6.7,12.4c4.7,2,10.5,0.3,13.1-3.9c0.5-0.8,0.4-1.8,0.6-2.9c-2.2,0.6-4,1.4-5.8,1.6c-4.8,0.6-8.8-2.4-9.3-6.7
			c-0.5-4.4,4-8.1,8.2-6.7c1.1,0.4,2,1.4,2.9,2.1c-0.1,0.2-0.2,0.3-0.3,0.5c-0.7,0-1.3,0-2,0c-2.7-0.1-4.4,1.3-4.4,3.4
			c0,2.1,1.6,3.4,4.2,3.4c3.1,0,6.2,0,9.3-0.2c1.5-0.1,1.9,0.5,1.8,1.9c-0.6,7.3-7,12.8-14.7,12.5c-9.1-0.3-15.7-7.5-14.5-16.2
			c0.3-2.2,1.8-4.3,2.8-6.5c0.2-0.5,0.6-1,0.7-1.5c0.5-5.6,4.3-9.6,9.8-9.2c3.4,0.2,5.9-0.4,8.8-2.5c4.5-3.3,10.7-2.3,14.6,1.6
			c3.9,3.9,3.2,10.7-1.4,13.1c-2.6,1.4-6.3,1.1-8.3-0.7c-2.3-2-2-5.5,0.7-6.9c1.1-0.6,2.2-0.6,3,0.6c-0.1,0.2-0.1,0.3-0.2,0.4
			c-1.3,0.4-2.4,1-1.9,2.6c0.5,1.5,1.7,1.8,3.2,1.5c2.4-0.4,3.9-2.9,3.3-5.3c-0.9-3.9-5.8-6-9.6-4C63.9,53.6,62.4,55.2,60.3,56.8z"
			/>
		<path class="st2" d="M83.7,47c0.2-1.3,0.4-2.6,0.6-4.1c-1.1,0.7-2,1.4-3,1.9c-1.8,0.9-3.7,1.1-5.5-0.1c-1.5-0.9-2-2.2-1.6-3.9
			c0.3-1.1,0.9-1.9,2.1-1.5c1.1,0.3,1.5,1,0.7,2.1c-0.2,0.2,0,1,0.2,1.1c0.5,0.3,1.2,0.5,1.8,0.4c2.2-0.5,3.1-2.9,2.1-5.1
			c-1.4-3-5.9-4-9-2.1c-0.5,0.3-1,0.6-1.5,1c0.3-2.6,3.3-4.5,6.8-4.5c4.4,0,7.3,2.9,7.9,7.7c1.8-0.7,3.6-1.7,5.6-2.2
			c4.5-1.2,9.1,0.9,11.4,4.8c1.6,2.9,1.3,6.6-0.8,9c-2.1,2.3-6.2,3.1-9.1,1.7c-1.7-0.8-2.6-2.1-2.6-4c0-2.2,1.7-3.3,3.3-2.7
			c0.3,1.3,0.2,2.7,0.8,3.4c0.5,0.5,2,0.6,2.9,0.3c1.5-0.5,2.2-1.8,2.2-3.4c0-2.6-2.2-4.7-5.2-5c-3.2-0.3-5.9,0.8-7.9,3.3
			c-0.6,0.7-1.1,1.4-1.7,2.1C83.9,47.2,83.8,47.1,83.7,47z"/>
		<path class="st2" d="M81.8,89.3c-0.1,0.5-0.3,1-0.4,1.5c-0.1,0-0.3,0-0.4,0c0-3.2,0-6.4,0-9.5c2.9,0.7,4.2,6.5,1.9,9.8
			c-0.2-0.7-0.4-1.3-0.6-1.9C82,89.3,81.9,89.3,81.8,89.3z"/>
		<path class="st2" d="M77.9,91c-0.4-0.5-0.8-1.1-1.3-1.7c-0.1,0.6-0.1,1.1-0.1,1.5c-0.1,0-0.2,0-0.3,0.1c-0.2-0.6-0.4-1.2-0.5-1.8
			c-0.7-4,0.4-7.1,2.8-7.8c0,3.2,0,6.4,0,9.6C78.3,90.9,78.1,91,77.9,91z"/>
		<path class="st2" d="M73.3,88.7c-1.7-1.7-1.1-4.8,1.3-6.3C74.2,84.5,73.8,86.6,73.3,88.7z"/>
		<path class="st2" d="M86.2,88.7c-0.5-2.1-0.9-4.1-1.3-6.1C87,84.2,87.6,86.6,86.2,88.7z"/>
		<path class="st2" d="M237.9,64.6c0.5-1.7,1.6-2.5,3-2.9c2.5-0.7,5.5,0.5,6.9,2.7c1.6,2.4,1.3,5.5-0.6,7.8
			c-2.5,3.1-7.8,4.1-11.7,2.2c-0.5-0.2-0.9-0.4-1.5-0.7c-0.7,1.5-0.1,2.6,0.6,3.6c2.6,3.5,7.3,4.8,11.8,3.3c5.7-1.8,9.3-8,7.4-13.2
			c-0.8-2.3-1.9-4.4-2.5-6.8c-0.8-3-4.5-4.8-8-4.5c-1.3,0.1-2.7,0.4-4.1,0.6c-1.1-1-2.2-2.1-3.4-3.1c-3.4-2.9-9.2-2.3-11.6,1.2
			c-1.6,2.2-1.3,5.2,0.9,6.5c0.9,0.5,2.2,0.5,3.2,0.3c0.6-0.1,1.2-1.1,1.3-1.8c0-0.5-0.7-1.1-1.2-1.6c-0.2-0.2-0.5-0.3-0.8-0.5
			c0.7-1.5,1.8-1.4,2.9-0.9c1.3,0.7,2.2,1.8,2.2,3.3c0,1.8-0.7,3.3-2.3,4.2c-2.8,1.5-5.6,1.3-8.1-0.5c-2.7-1.9-3.5-4.7-3-7.9
			c0.6-3.7,3-6.1,6.4-7.3c4.9-1.8,9.5-1.3,13.2,2.7c1.2,1.3,2.5,1,3.8,0.8c4.5-0.7,8.1,0.8,10.6,4.6c0.6,0.9,1.2,1.9,1.1,2.9
			c-0.1,1.8,0.8,3.1,1.7,4.6c3.9,6,1.7,14.4-4.6,18.8c-5.5,3.8-15.5,3.7-20.3-2.8c-1.7-2.2-2.6-4.7-2.7-7.5c0-1.2,0.4-1.6,1.5-1.6
			c2.8,0.1,5.6,0.1,8.4,0.2c1,0,2,0,3-0.1c1.7-0.3,2.9-1.7,3-3.2c0-1.5-1.1-3.1-2.8-3.4C240.7,64.4,239.4,64.6,237.9,64.6z"/>
		<path class="st2" d="M213.2,40.5c0.6-5.3,3.2-8.1,7.3-8.3c3.6-0.2,6.2,1.4,6.8,4c-2.8-1.9-6.9-1.6-8.7,0c-2.2,1.9-2.3,5.1,0,6.4
			c0.7,0.4,1.6,0.2,2.4,0.1c0.2,0,0.3-1,0.3-1.5c0-0.5-0.3-1.2-0.1-1.4c0.4-0.3,1.2-0.5,1.5-0.3c0.7,0.5,1.6,1.3,1.7,2
			c0,1-0.4,2.2-1.1,2.9c-1.7,1.8-5.2,1.6-7.4-0.1c-0.7-0.5-1.3-1-2.2-1.7c0.3,1.8,0.5,3.2,0.7,4.7c-0.1,0.1-0.3,0.1-0.4,0.2
			c-0.8-1-1.5-2-2.3-2.9c-2.1-2.5-5.9-3.5-8.9-2.4c-2.2,0.8-3.5,2.8-3.2,5.1c0.1,0.9,0.7,1.9,1.3,2.6c1.1,1.1,2.5,1.1,3.7,0.2
			c1.4-1,0.6-2.1-0.5-3.7c1.3,0.2,2.4,0,2.9,0.5c0.8,0.8,1.4,2,1.5,3.1c0.1,1.8-1.5,3.2-3.6,3.8c-3.6,1-7-0.2-8.7-3.1
			c-1.9-3.2-1.5-7,0.9-9.8c3.2-3.6,9-4.3,13.4-1.8C211.4,39.5,212.3,40,213.2,40.5z"/>
		<path class="st2" d="M215,90.7c-1.5-5-0.5-8.9,2.6-9.6c-0.1,3.5,0.4,7-1,10.4c-0.2-0.6-0.4-1.3-0.7-2.1
			C215.5,89.9,215.3,90.2,215,90.7z"/>
		<path class="st2" d="M219.7,81.3c2.8,1,3.8,6.4,1.8,9.7c-0.1-0.6-0.1-1.1-0.2-2c-0.5,0.6-0.9,1.1-1.6,1.9
			C219.7,87.5,219.7,84.4,219.7,81.3z"/>
		<path class="st2" d="M213.2,82.6c-0.4,2-0.8,4.1-1.2,6.1C210.3,87.4,210.8,84.3,213.2,82.6z"/>
		<path class="st2" d="M224.8,88.5c-0.5-2-0.9-3.9-1.4-5.9C225.8,84,226.5,86.9,224.8,88.5z"/>
		<path class="st2" d="M254.7,112.9c-2.1,0.8-3.6,0.1-5.1-1.7c-0.3,1.1-0.5,1.7-0.6,2.3c-0.4-1-0.8-2-1.4-3.5
			c-0.3,1.1-0.5,1.7-0.7,2.3c-0.2,0-0.4,0-0.5,0c0-1.7-0.4-3.4,0-5c0.5-2,1.4-3.9,2.5-5.7c0.7-1.2,2.1-1.6,3.7-1.5
			c2.3,0.2,4.6-0.1,6.8,0.1c1.2,0.1,2.5,0.6,3.4,1.3c2.9,2.4,3.9,8.2,2,11.9c-0.2-0.9-0.3-1.7-0.4-2.4c-0.1-0.1-0.3-0.1-0.4-0.2
			c-0.4,0.9-0.9,1.8-1.3,2.7c-0.7-1.9-0.6-1.8-2.3-0.7c-0.6,0.4-1.6,0.4-2.3,0.3c-0.3-0.1-0.6-1-0.7-1.5c-0.2-2.5-0.3-5-0.6-7.5
			c0-0.5-0.5-0.9-0.8-1.3c-0.3,0.5-0.7,0.9-0.8,1.4C255,107.1,254.9,110,254.7,112.9z"/>
		<path class="st2" d="M246.6,99.9c-1.9,2.9-3.7,5.7-5.5,8.5c-4.6-0.4-5.4,0.7-5.1,6.4c-1.5-3.7-0.6-7.2,1.5-10.4
			C239.6,101.4,242.5,99.5,246.6,99.9z"/>
		<path class="st2" d="M265.3,99.9c6.1-0.6,11.9,6,11.1,13.2c-0.2-0.7-0.3-1.1-0.4-1.5c-0.7-3.1-1.3-3.4-4.5-3.2
			c-0.5,0-1.1-0.4-1.4-0.9C268.5,105,266.9,102.5,265.3,99.9z"/>
		<path class="st2" d="M267.5,107.6c2.1,3.7,2.5,7.5,0.4,11.3c-1.8,3.3-4.7,5.2-8.5,5.4C267,121.1,269.3,115.4,267.5,107.6z"/>
		<path class="st2" d="M244.6,107.8c-0.4,3.3-0.7,6.7,0.6,9.9c1.3,3.3,3.9,5.3,7,6.7c-3.6-0.1-6.1-2.1-7.7-5
			C242.2,115.6,242.6,111.6,244.6,107.8z"/>
		<path class="st2" d="M260.7,127.9c-1.7,1.3-9,1.1-9.7,0C254.3,127.9,257.5,127.9,260.7,127.9z"/>
		<path class="st2" d="M252.7,97.4c1.6-1.8,3.4-0.9,4.9-1.1c0.3,0,0.8,0.4,1.1,0.7c-0.1,0.2-0.1,0.3-0.2,0.5
			C256.7,97.4,255,97.4,252.7,97.4z"/>
		<path class="st2" d="M32.9,112.6c-1.7-3.8-0.2-9.7,2.9-11.9c0.7-0.5,1.7-0.6,2.6-0.6c1.6-0.1,3.3,0.1,4.9,0.1
			c4.7-0.2,7.3,1.6,8.1,6.2c0.3,2.1,0,4.3-0.1,6.5c-0.2,0-0.4,0-0.6,0c-0.1-0.6-0.2-1.2-0.3-2.4c-0.8,1.1-1.3,1.9-1.8,2.6
			c-0.4-0.8-0.9-1.4-2.1-0.2c-0.6,0.5-1.9,0.3-3.1,0.5c-0.1-2.3-0.2-4.3-0.4-6.4c-0.1-1-0.1-2.1-0.3-3.1c-0.1-0.4-0.5-0.7-0.8-1.1
			c-0.2,0.4-0.5,0.7-0.6,1.1c-0.2,2.6-0.3,5.1-0.5,7.7c0,0.5-0.4,1.4-0.8,1.5c-0.8,0.1-1.7-0.1-2.5-0.4c-0.5-0.2-1-0.6-1.6-1
			c-0.2,0.9-0.3,1.4-0.5,2.2c-0.5-1.3-0.9-2.3-1.3-3.3c-0.1,0-0.3,0.1-0.4,0.1C33.4,111.3,33.2,111.8,32.9,112.6z M44.4,101.5
			c0-0.1,0-0.1-0.1-0.2c-1.7,0-3.4,0-5.1,0c0,0.1,0,0.1,0,0.2C40.9,101.5,42.7,101.5,44.4,101.5z"/>
		<path class="st2" d="M32.6,100c-1.8,2.7-3.4,5.2-5.2,7.7c-0.3,0.4-1.1,0.7-1.6,0.7c-2.7-0.3-3.2,0-3.8,2.7
			c-0.2,0.7-0.2,1.4-0.2,2.1c0,0.7,0,1.4-0.1,2c-1.6-3.8-0.4-7.2,1.7-10.4C25.5,101.5,28.5,99.5,32.6,100z"/>
		<path class="st2" d="M56.9,108.7c-2-3.1-3.8-6-5.5-8.8c6.3-1.1,12,6.4,10.9,12.9C61.9,109.4,60.8,106.9,56.9,108.7z"/>
		<path class="st2" d="M53,107.3c2.4,4,2.8,8,0.7,12c-1.6,3.1-5.1,5.2-8.5,5C53.4,121.1,55,115,53,107.3z"/>
		<path class="st2" d="M38.1,124.4c-3.8-0.4-6.5-2.4-8.1-5.7c-1.8-3.6-1.9-7.4,0.4-11C28.7,115.2,30.9,120.9,38.1,124.4z"/>
		<path class="st2" d="M46.3,128.1c-2.8,1.1-8.6,0.7-9.7-0.3C40,127.6,43.2,127.7,46.3,128.1z"/>
		<path class="st2" d="M39.4,97.4c0.2-1.3,0.2-1.3,4-1.2c0.5,0,0.9,0.4,1.4,0.6c-0.1,0.2-0.1,0.4-0.2,0.6
			C42.9,97.4,41.2,97.4,39.4,97.4z"/>
		<path class="st2" d="M88.8,239.1c-0.6,2.6-1,5.3-1.8,7.9c-0.5,1.8-2,3-4,3.2c-2.2,0.2-3.6-1-4.4-2.8c-2.4-5.3-2.5-10.6-0.1-15.9
			c0.8-1.8,2.3-2.9,4.5-2.8c2,0.1,3.4,1.3,4,3.1C87.8,234.1,88.2,236.5,88.8,239.1z"/>
		<path class="st2" d="M203.1,239.5c-0.6,2.6-1.1,5.2-1.9,7.6c-0.6,1.8-2.1,3-4.1,3.1c-2.1,0.1-3.5-1.1-4.3-2.8
			c-2.5-5.2-2.5-10.5-0.2-15.7c0.8-1.8,2.3-3,4.4-3c2.1,0,3.6,1.3,4.2,3.1C202,234.3,202.4,236.9,203.1,239.5z"/>
		<path d="M159,149.2c0.7,0,1.4,0,2.2,0c0,1,0,1.9,0,3c-0.4,0.1-0.7,0.1-1,0.2c-0.3,0-0.7,0-1.2,0C159,151.3,159,150.3,159,149.2z"
			/>
		<path d="M161.5,140.9c-0.1,1-0.1,1.8-0.2,2.8c-0.8,0.1-1.4,0.1-2,0.2C158.3,140.9,158.8,140.3,161.5,140.9z"/>
		<path d="M161.2,144.8c0,1.2,0,2.1,0,3.4c-0.9-0.2-1.9-0.2-2.2-0.7c-0.3-0.5-0.3-1.7,0-2.1C159.4,144.9,160.4,145,161.2,144.8z"/>
		<path d="M161.1,153.6c0,1.3,0,2.3,0,3.5c-0.7,0-1.3,0.1-2.1,0.1c-0.1-1.1-0.1-2.2-0.2-3.4C159.6,153.7,160.3,153.7,161.1,153.6z"
			/>
		<path d="M139.4,140.6c0,1.1,0,1.9,0,3c-0.8,0-1.6,0-2.5,0c0-0.9,0-1.7,0-2.8C137.6,140.7,138.4,140.7,139.4,140.6z"/>
		<path d="M139.4,149.3c0,1,0,1.9,0,3.1c-0.8,0-1.6,0-2.4,0c0-1,0-1.9,0-3.1C137.7,149.3,138.5,149.3,139.4,149.3z"/>
		<path d="M139.3,156.9c-2.4,0.3-2.6,0.1-2.1-3.2c0.7,0,1.3,0,2.1,0C139.3,154.8,139.3,155.9,139.3,156.9z"/>
		<path d="M139.4,145c0,0.9-0.1,1.7-0.1,2.6c-0.8,0-1.5,0-2.3,0c0-0.8,0-1.6,0-2.6C137.8,145,138.6,145,139.4,145z"/>
		<path d="M44.4,101.5c-1.7,0-3.4,0-5.1,0c0-0.1,0-0.1,0-0.2c1.7,0,3.4,0,5.1,0C44.3,101.4,44.3,101.4,44.4,101.5z"/>
	</g>
</g>
</svg>
