<?xml version="1.0" encoding="utf-8"?>
<!-- Generator: Adobe Illustrator 22.1.0, SVG Export Plug-In . SVG Version: 6.00 Build 0)  -->
<svg version="1.1" id="Capa_1" xmlns="http://www.w3.org/2000/svg" xmlns:xlink="http://www.w3.org/1999/xlink" x="0px" y="0px"
	 viewBox="0 0 369 128" style="enable-background:new 0 0 369 128;" xml:space="preserve">
<style type="text/css">
	.st0{fill:#0F1105;}
</style>
<g>
	<path class="st0" d="M347.3,78.8c3.1,0,6.1,0,9.4,0c0.1-1.3,0.1-2.3,0.1-3.3c0-3.9-0.1-7.8,0-11.7c0-1.5,0.5-2.8,2.5-2.7
		c1.7,0.1,2.7,0.8,2.6,2.8c-0.1,6,0,11.9-0.1,17.9c-0.1,6.2-2.9,9.1-9.2,9.1c-19,0-38,0-57,0c-69.6,0-139.3,0-208.9,0
		c-23.1,0-46.1,0-69.2,0c-1.2,0-2.3,0-3.5-0.2c-3.6-0.5-6.4-3.1-6.5-6.8C7.2,77,7.2,70,7.3,63.1c0-0.7,1.2-1.8,1.9-1.9
		c2.9-0.5,5.4,1.6,5.6,4.6c0.2,3.1,0.1,6.3,0.1,9.5c0,1.1,0,2.1,0,3.6c2.7,0,5.2,0.2,7.6,0c2.3-0.2,3.3,0.5,2.9,2.9
		c-0.1,0.7,0,1.5,0,2.4c1.1,0,2,0,2.9,0c92.9,0,185.9,0,278.8-0.1c11.9,0,23.9,0.1,35.8,0.1c4,0,4,0,4.2-3.9
		C347.1,79.9,347.2,79.5,347.3,78.8z"/>
	<path class="st0" d="M347.3,16c3.1,0,6.1,0,9.4,0c0.1,1.3,0.1,2.3,0.1,3.3c0,3.9-0.1,7.8,0,11.7c0,1.5,0.5,2.8,2.5,2.7
		c1.7-0.1,2.7-0.8,2.6-2.8c-0.1-6,0-11.9-0.1-17.9c-0.1-6.2-2.9-9.1-9.2-9.1c-19,0-38,0-57,0c-69.6,0-139.3,0-208.9,0
		c-23.1,0-46.1,0-69.2,0c-1.2,0-2.3,0-3.5,0.2c-3.6,0.5-6.4,3.1-6.5,6.8c-0.3,6.9-0.3,13.9-0.2,20.9c0,0.7,1.2,1.8,1.9,1.9
		c2.9,0.5,5.4-1.6,5.6-4.6c0.2-3.1,0.1-6.3,0.1-9.5c0-1.1,0-2.1,0-3.6c2.7,0,5.2-0.2,7.6,0c2.3,0.2,3.3-0.5,2.9-2.9
		c-0.1-0.7,0-1.5,0-2.4c1.1,0,2,0,2.9,0c92.9,0,185.9,0,278.8,0.1c11.9,0,23.9-0.1,35.8-0.1c4,0,4,0,4.2,3.9
		C347.1,15,347.2,15.3,347.3,16z"/>
	<path class="st0" d="M134.7,48.8c0-7.4,0.1-14.9-0.1-22.4c0-1.3-1-2.6-1.6-4.1c4.3,0,8.8,0,12.7,0c-0.4,2.2-1.1,4.5-1.1,6.7
		c-0.1,12.3-0.1,24.5,0,36.8c0,2.1,0.5,4.1,0.7,6.3c-2.7,0-5.7,0.2-8.8-0.1c-0.9-0.1-2.1-1.2-2.5-2.2c-3.1-6.8-6-13.7-8.9-20.5
		c-0.3-0.8-0.7-1.6-1.3-2.4c0.3,8.4-1.1,16.9,0.9,25.2c-3.7,0-7.7,0-11.5,0c0.3-2.3,0.8-4.6,0.8-6.8c0.1-11.8,0-23.6,0.1-35.3
		c0-2.7,0.2-5.5-3-7.7c4.4,0,8-0.1,11.6,0.1c0.5,0,1.1,0.8,1.3,1.4c3.6,8.3,7.1,16.6,10.6,24.9C134.6,48.8,134.8,48.8,134.7,48.8z"
		/>
	<path class="st0" d="M274.2,22.3c3.9,0,7.7,0,11.3,0c3.9,8.9,7.6,17.7,11.4,26.4c0.2,0,0.3,0,0.5-0.1c0-2.7,0-5.5,0-8.2
		c0-3.6,0.1-7.1-0.2-10.7c-0.2-2.4-0.8-4.8-1.2-7.4c3.8,0,8.2,0,12.1,0c-0.4,2.1-1.1,4.1-1.1,6.2c-0.1,13-0.1,26.1,0,39.1
		c0,1.4,0.5,2.9,0.7,4.6c-2.9,0-6.1,0.1-9.1-0.1c-0.8-0.1-1.8-1.1-2.1-2c-3.2-7.2-6.3-14.5-9.4-21.7c-0.2-0.5-0.4-0.9-0.6-1.5
		c-1,3.1-0.2,22.2,1.1,25.1c-4.2,0-8.2,0-11.9,0c0.2-3.1,0.6-6.3,0.6-9.5c0.1-11.1,0.1-22.2,0.1-33.4
		C276.4,26.7,276.5,24.2,274.2,22.3z"/>
	<path class="st0" d="M30.4,72.1c0.3-2,0.9-4,0.9-6c0.1-12.3,0.1-24.5,0-36.8c0-2.3-0.8-4.7-1.2-7c3.9,0,8.3,0,13.4,0
		c-2.9,1.9-2.9,4.3-2.9,6.7c0,4.4,0,8.8,0,13.3c5,0,9.7,0,14.5,0c1.2-5.9,0.4-16.6-1.6-20.1c4.5,0,8.9,0,12.8,0
		c-0.5,2.1-1.2,4.1-1.3,6.1c-0.1,12.7-0.1,25.4-0.1,38.1c0,1.9,0.8,3.7,1.2,5.7c-3.9,0-8.1,0-11.8,0c0.3-2,0.9-4,0.9-6
		c0.1-4.7,0-9.4,0-14.4c-4.9,0-9.7,0-14.9,0c0.7,6.7-1.2,13.5,1.6,20.3C38.2,72.1,34.1,72.1,30.4,72.1z"/>
	<path class="st0" d="M197.3,22.3c5.1,0,9.5,0,13.2,0c-0.3,2.4-0.8,4.6-0.8,6.9c-0.1,4.9,0,9.9,0,15.3c2.9-6.4,5.6-12.2,8.1-18.2
		c0.4-1-0.3-2.5-0.5-4c4.3,0,9,0,13.6,0c-2.9,5.5-5.7,11-8.7,16.3c-1.3,2.2-1.4,4.2-0.4,6.5c3.3,7.8,6.4,15.7,9.7,23.5
		c0.5,1.1,1.2,2.1,2,3.4c-3.6,0-7.1,0.1-10.5-0.1c-0.6,0-1.4-1-1.7-1.8c-2.1-5.2-4-10.4-6-15.6c-0.5-1.2-0.9-2.4-1.5-3.9
		c-5.1,6.7-4.9,13.7-2.9,21.2c-3.9,0-8,0-11.6,0c0.3-2.2,0.9-4.4,0.9-6.6c0.1-12.2,0-24.4,0-36.6C200.1,26.5,200.1,24.2,197.3,22.3z
		"/>
	<path class="st0" d="M108,48.2c-0.1,4.8-1.2,10.1-4,15c-6.4,11.3-20.6,11.8-27.7,1C71.7,57,71.2,49,72.6,40.9
		c1-5.8,3.5-10.9,8.3-14.5c6.6-4.9,16-3.7,21.3,2.7C106,33.6,108.1,40.3,108,48.2z M98.6,47.1c-0.9-3.6-1.4-7.1-2.5-10.3
		c-0.9-2.6-2.9-4.3-5.7-4.4c-3-0.2-5.2,1.4-6.3,4c-3.4,7.5-3.3,15.1,0.1,22.6c1.2,2.5,3.2,4.2,6.3,3.9c2.9-0.3,4.9-1.9,5.7-4.5
		C97.2,54.6,97.8,50.8,98.6,47.1z"/>
	<path class="st0" d="M234,47.9c0.1-7.7,1.7-14.4,7-19.8c6.9-7,17.8-6.3,23.6,1.7c7.1,9.7,7.3,25,0.5,34.9
		c-6.4,9.2-18.6,9.6-25.6,0.7C235.4,60.2,234,54,234,47.9z M260.8,47.7c-0.9-3.8-1.5-7.4-2.7-10.9c-0.9-2.6-3-4.4-6-4.4
		s-5.1,1.6-6.2,4.2c-3.2,7.5-3.3,15,0.3,22.3c1.2,2.4,3.2,4.1,6.1,3.9c2.9-0.1,5-1.8,5.8-4.3C259.3,55.1,259.9,51.4,260.8,47.7z"/>
	<path class="st0" d="M336.8,64c0-1.3,0-2.4,0-3.6c0.1-4.6,0.1-4.7-4.5-5.6c-1.5-0.3-1.8-1-1.6-2.4c0.8-5.5,0.7-5.5,6.2-5.5
		c3,0,6,0,9,0c0.2,0,0.3,0.1,0.1,0c-0.1,4.1-0.2,8-0.3,12c0,4,0,7.9,0,11.9c-19.8,7-32.3-6-32.9-20.8c-0.3-8.5,1.7-16.2,8.4-22
		c6.8-6,17.6-6,24.1-0.1c-1.7,2.7-3.4,5.4-5.2,8.2c-1.1-0.8-1.9-1.6-2.9-2.2c-3.4-2.3-7-2.1-10,0.7c-6.7,6.2-6.4,21.2,0.6,27.1
		C330,63.5,333.3,64.4,336.8,64z"/>
	<path class="st0" d="M174.2,64.1c0-2.5,0.1-4.9-0.1-7.3c0-0.6-1-1.3-1.7-1.5c-5.8-1.2-4.5-0.8-3.8-5.9c0.3-2.1,1.3-2.7,3.3-2.6
		c3.9,0.1,7.8,0,11,0c0,7.3-0.1,14.4,0.1,21.5c0,2.1-0.6,2.9-2.6,3.3c-9.1,2-17.5,1.2-24-6.1c-8.8-10-8-27.5,1.4-36.9
		c6.6-6.5,17.5-6.9,24.7-0.8c-1.7,2.7-3.4,5.3-5.2,8.2c-0.8-0.7-1.4-1.2-2-1.7c-3.9-3.3-8.7-2.7-11.8,1.3c-5,6.6-4.8,18.3,0.4,24.7
		C166.6,63.5,169.9,64.4,174.2,64.1z"/>
	<path class="st0" d="M254.9,105.5c1.7-0.1,3-0.2,4.7-0.2c0,3,0,5.9,0,8.7c0,2.8,0,5.6,0,8.4c-3.8,1.1-4.6,0.9-6.9-2
		c-1.5-2-3-4-4.9-6.6c0,3.5,0,6.2,0,9.1c-1.5,0-2.7,0-4.3,0c0-5.7,0-11.4,0-17.3c2.3-0.3,4.3-0.6,5.7,2.2c1.4,2.7,3.5,5,5.7,7.9
		C254.9,112,254.9,108.9,254.9,105.5z"/>
	<path class="st0" d="M103.8,115.7c1.4,2.3,2.8,4.5,4.2,6.8c-4.3,1.1-4.9,0.8-7.1-2.7c-0.6-1-1.5-1.7-2.3-2.6
		c-0.3,0.1-0.5,0.3-0.8,0.4c0,1.7,0,3.4,0,5.2c-1.6,0-2.9,0-4.4,0c0-5.7,0-11.4,0-17.7c3,0.2,6.2,0,9.2,0.6c3.5,0.7,4.8,5.2,2.7,8.3
		C104.8,114.6,104.3,115.1,103.8,115.7z M97.9,113.1c1.7-0.7,3.9-0.1,3.6-2.3c-0.3-1.9-2.2-1.4-3.8-1.1
		C97.8,110.8,97.8,111.7,97.9,113.1z"/>
	<path class="st0" d="M187.4,122.9c-2.6-0.2-5.3,1.1-6.1-2.4c-0.1-0.3-0.8-0.5-1.3-0.5c-1.7,0-3.3,0-5,0.2c-0.5,0-1.2,0.2-1.6,0.6
		c-2.2,2.3-2.2,2.3-5.4,1.8c1.2-3,2.4-5.9,3.6-8.8c0.8-2,1.8-3.9,2.4-6c0.6-2,1.5-2.7,3.6-2.7c2.2-0.1,2.6,1.2,3.2,2.7
		C182.9,112.7,185.1,117.6,187.4,122.9z M179.4,116.1c-0.7-1.6-1.2-2.9-2-4.8c-0.7,2-1.2,3.3-1.8,4.8
		C176.9,116.1,177.9,116.1,179.4,116.1z"/>
	<path class="st0" d="M203.2,105.5c1.8,0,3.1,0,4.4,0c0,4.1,0.3,8.1-0.1,12c-0.4,3.7-3.9,5.8-7.9,5.6c-4.2-0.2-7.1-2.5-7.4-6.3
		c-0.3-3.7-0.1-7.4-0.1-11.3c1.5,0,2.9,0,4.5,0c0,2.2,0,4.3,0,6.4c0,1-0.1,2,0,3c0.2,2,1,3.6,3.4,3.5c2.3-0.1,3.2-1.6,3.2-3.6
		c0.1-2.4,0-4.8,0-7.2C203.2,107,203.2,106.4,203.2,105.5z"/>
	<path class="st0" d="M234.7,123c-2.3-0.6-4.9,1.2-5.8-2.2c-0.1-0.3-0.9-0.6-1.4-0.6c-1.6,0-3.2,0-4.7,0.1c-0.5,0-1.5,0.3-1.5,0.6
		c-0.7,3.2-3,2-5.2,2c0.3-1.1,0.5-2.1,0.8-3c1.7-4.3,3.5-8.6,5.1-13c0.7-1.9,2-1.6,3.4-1.7c1.3-0.1,2.1,0.3,2.6,1.6
		c1.8,4.5,3.9,9,5.8,13.5C234,121.1,234.2,121.8,234.7,123z M225,111.9c-0.2,0-0.4,0-0.6,0c-0.4,1.3-0.8,2.7-1.3,4.1
		c1.3,0,2.2,0,3.5,0C226.1,114.5,225.6,113.2,225,111.9z"/>
	<path class="st0" d="M116.6,122.7c0-5.8,0-11.4,0-17.5c3.8,0,7.5-0.2,11.1,0.2c0.6,0.1,1.1,2.1,1.8,3.7c-3.3,0.1-5.7,0.3-8.2,0.4
		c-0.3,1.8-0.3,1.8,5,2.4c0,1.2,0,2.5,0,3.9c-1.7,0.2-3.5,0.5-5.2,0.8c-0.1,0,0,1.2,0,2.1c2.6,0,5,0,7.6,0c0,1.5,0,2.8,0,4.1
		C124.7,122.7,120.7,122.7,116.6,122.7z"/>
	<path class="st0" d="M136.8,120.4c0.9-1.1,1.7-2.1,2.5-3c1.2,0.6,2.3,1.3,3.4,1.5c0.7,0.1,1.5-0.6,2.3-1c-0.5-0.5-1-1.1-1.6-1.4
		c-0.8-0.4-1.7-0.6-2.5-1c-2.6-1.2-3.7-3.4-3.2-6s2.4-4.4,5.3-4.3c2,0,4,0.7,6.2,1.1c-0.8,1.7-1.4,2.9-2,4.2c-1.2-0.4-2.2-0.9-3.2-1
		c-0.5-0.1-1.1,0.5-1.6,0.8c0.3,0.4,0.5,1,0.9,1.3c0.8,0.5,1.7,0.7,2.5,1.1c2.7,1.1,4.3,3.2,4,5.6c-0.3,2.6-2.4,4.7-5.3,5.1
		C141.6,123.5,139.2,122.5,136.8,120.4z"/>
	<path class="st0" d="M158.9,122.8c0-4.6,0-8.8,0-13c-1.9-0.4-3.7-0.4-5.2-1.1c-0.4-0.2-0.1-2.1-0.1-3.4c5,0,9.7,0,14.7,0
		c0,1.3,0,2.5,0,3.9c-1.5,0.1-3,0.3-4.8,0.4c0,4.4,0,8.7,0,13.2C162,122.8,160.7,122.8,158.9,122.8z"/>
	<path class="st0" d="M7.3,17c0.6-0.2,0.9-0.2,1.1-0.2c5.9-0.1,6.4,0.4,6.4,6.2c0,2.1,0.1,4.1,0.1,6.2c0,1.9-1,3.3-2.7,4.1
		c-2.7,1.3-4.8,0.1-4.9-2.9C7.2,26,7.3,21.5,7.3,17z"/>
	<path class="st0" d="M282.4,105.3c0,1.3,0,2.5,0,3.8c-1.5,0.1-3.1,0.3-4.8,0.4c0,4.4,0,8.7,0,13.1c-1.6,0-2.9,0-4.5,0
		c0-4.3,0-8.5,0-13.1c-1.7-0.1-3.2-0.3-4.9-0.4c0-1.3,0-2.5,0-3.9C272.7,105.3,277.4,105.3,282.4,105.3z"/>
	<path class="st0" d="M361.9,16.8c0,5.5,0,10.6-0.1,15.8c0,0.5-1.2,1.3-1.8,1.3c-1.9-0.2-3-1.5-3-3.4c-0.1-3.8-0.1-7.6,0-11.4
		c0-0.5,0.8-1.3,1.4-1.5C359.4,17.1,360.4,17.1,361.9,16.8z"/>
	<path class="st0" d="M77,110.9c1.6,0.1,2.9,1.1,2.9,3s-1.2,3-3.2,3.1c-1.9,0-3.2-0.9-3.4-2.9C73.2,112.4,74.8,110.9,77,110.9z"/>
	<path class="st0" d="M296.2,110.9c1.6,0.1,3.1,0.9,3.2,2.8c0,1.9-1.2,3.1-3.1,3.2s-3.2-0.9-3.4-2.9
		C292.8,112.4,294.2,111,296.2,110.9z"/>
</g>
</svg>
