<?xml version="1.0" encoding="utf-8"?>
<!-- Generator: Adobe Illustrator 22.1.0, SVG Export Plug-In . SVG Version: 6.00 Build 0)  -->
<svg version="1.1" id="Capa_1" xmlns="http://www.w3.org/2000/svg" xmlns:xlink="http://www.w3.org/1999/xlink" x="0px" y="0px"
	 viewBox="0 0 620 90" style="enable-background:new 0 0 620 90;" xml:space="preserve">
<style type="text/css">
	.st0{fill:#0C3559;stroke:#0C3559;stroke-width:0.2691;stroke-miterlimit:10;}
	.st1{fill:#FC7E12;}
</style>
<rect class="st0" width="620" height="90"/>
<g>
	<path class="st1" d="M13.6,15.4c-0.1,6.1-6.1,13.2-12.1,14.2c-1,0.2-2.5,0.7-2.9-1.1C-1.8,26.3,0,27.1,1,26.9
		c5.1-1.6,8.9-4.8,9.7-10C11.4,12.6,9.4,8.9,6.1,6C4.5,4.7,2.7,4.5,0.9,4c-1.1-0.3-2.6-0.2-2.3-1.8c0.3-1.7,2-0.9,2.9-0.8
		C7.7,1.8,13.7,8.9,13.6,15.4z"/>
	<path class="st1" d="M1.2,31.3c4.5,0.8,8.1,3.2,10.4,7.5c2.5,4.9,2.8,9.7-0.5,14.3c-2.3,3.1-5.2,5.4-8.9,6.7
		c-1.1,0.4-2.9,0.9-3.5-0.8c-0.8-2.4,1.4-1.4,2.4-1.7c5.6-1.6,9.7-6.8,9.5-12.1c-0.2-5.4-3.9-9.5-10-10.9c-1.1-0.3-2.1-0.3-2.1-1.7
		C-1.3,30.7,0.2,31.7,1.2,31.3z"/>
	<path class="st1" d="M1.4,90.1c-1.6,0.1-2.7,0.4-2.8-1c-0.1-1.3,0.8-1.6,2-1.8c4.5-0.7,7.8-3.1,9.4-7.5c2.7-7.7-3-13.6-8.5-15.3
		c-1-0.3-3.4,0.7-2.8-1.6c0.6-2.3,2.4-1,3.9-0.7c6.5,1.5,10.7,7.9,11,13.7c0.3,5.4-4.4,11.6-10,13.6C2.7,89.9,1.7,90,1.4,90.1z"/>
	<path class="st1" d="M22.6,30.8c-0.1,4.4-2.3,7.7-5.3,10.7c-0.7,0.6-1.4,2.1-2.5,1.2c-1.1-1-0.3-2.1,0.7-3.2
		c5-5.4,5.5-9.2,2.7-14.8c-0.8-1.5-1.9-2.6-3.1-3.7c-1-0.8-1.4-1.5-0.5-2.5c0.9-0.9,1.5-0.1,2.2,0.5C20.4,22.1,22.7,25.8,22.6,30.8z
		"/>
	<path class="st1" d="M22.5,62c-0.2,3-1.9,6.6-5,9.5c-0.8,0.7-1.7,2.3-2.8,1.2c-0.9-0.9-0.4-2.1,0.8-3.2c5.5-5.3,5.3-10.5,2.5-15.1
		c-0.8-1.3-2-2.5-3.3-3.4c-1.3-0.9-0.3-1.6-0.1-2.1c0.3-0.9,1.1-0.7,1.8-0.1C19.9,52,22.7,55.6,22.5,62z"/>
	<path class="st1" d="M8.3,15.1c0,4.8-3.4,9-7.5,9.2c-0.8,0-1.9,0.5-2.1-0.7c-0.2-0.9,0.2-1.8,1.3-1.9c3.7-0.6,5.6-2.8,5.6-6.5
		c0-3.8-2.3-5.8-5.6-6.7c-1-0.3-1.7-0.4-1.4-1.6C-1,5.4,0.1,5.5,1.1,5.7C4.7,6.4,8.3,11.2,8.3,15.1z"/>
	<path class="st1" d="M8.3,45.4c0,4-2.7,8.2-6.1,9c-1,0.2-2.9,1.3-3.4-0.4c-0.5-1.6,1-1.8,2.3-2.3c4.9-1.9,6.2-7.9,2.5-11.3
		c-0.8-0.8-1.9-1.3-3-1.7c-1-0.4-2.7-0.2-1.9-2c0.6-1.5,1.8-0.8,3-0.4C5.8,37.8,8.3,41.1,8.3,45.4z"/>
	<path class="st1" d="M8.3,75.9c0,4.4-3.3,8.8-7.4,9.6c-0.9,0.2-1.8,0.3-2.3-0.7c-0.5-1.4,0.3-1.6,1.5-2c3.3-1,5.6-3,5.5-6.9
		c-0.1-3.7-2.2-5.4-5.5-6.3c-0.9-0.3-1.7-0.8-1.6-1.8c0.2-1.5,1.4-1,2.4-0.9C5,67.4,8.3,71.3,8.3,75.9z"/>
	<path class="st1" d="M17.8,30.1c-0.7,2.4-0.6,5.1-2.8,6.8c-0.7,0.5-1.2,1.5-2.1,0.6c-0.6-0.6-0.9-1.3-0.2-2.2
		c2.6-3.4,3-6.9-0.4-10.1c-1-1,0-1.7,0.5-2.2c0.8-0.9,1.3-0.2,2,0.5C16.6,25.5,17.3,27.8,17.8,30.1z"/>
	<path class="st1" d="M17.8,59.2c-0.4,3.9-1,6.6-3.3,8.5c-0.5,0.4-0.9,1.5-1.6,0.5c-0.4-0.5-1.4-1.2-0.5-2.2c3.2-3.5,3.4-7.1,0-10.6
		c-0.8-0.9,0.1-1.3,0.4-1.8c0.4-0.9,1.1-0.8,1.7-0.1C16,55.5,17.8,57.5,17.8,59.2z"/>
	<path class="st1" d="M4.5,60.5c3.1,0.7,4.2-5.7,7.6-2.4c1.5,1.4,1.4,4.3-0.2,5.5C8.6,65.7,7.3,61.3,4.5,60.5z"/>
	<path class="st1" d="M-1.8,45.8c1.2-1.6-1.2-4.5,2.1-4.5c1.9,0,3.7,1.7,3.5,3.7c-0.2,2.3-1.2,5.1-4,4.8
		C-2.9,49.7-0.3,46.9-1.8,45.8z"/>
	<path class="st1" d="M-1.8,75.9c1.3-1.5-1-4.4,1.8-4.3c2.2,0,3.9,2.2,3.8,4.6c-0.2,2-1.2,4.3-3.7,4C-3.2,79.9-0.2,77-1.8,75.9z"/>
	<path class="st1" d="M4.9,30.4c3,0.4,4-5.7,7.3-2.5c1.4,1.3,1.3,4-0.2,5.2C8.7,35.9,7.8,30.3,4.9,30.4z"/>
	<path class="st1" d="M33.7,46.4c-0.1,4.4-2.3,7.7-5.3,10.7c-0.7,0.6-1.4,2.1-2.5,1.2c-1.1-1-0.3-2.1,0.7-3.2
		c5-5.4,5.5-9.2,2.7-14.8c-0.8-1.5-1.9-2.6-3.1-3.7c-1-0.8-1.4-1.5-0.5-2.5c0.9-0.9,1.5-0.1,2.2,0.5C31.5,37.7,33.9,41.4,33.7,46.4z
		"/>
	<path class="st1" d="M29,45.7c-0.7,2.4-0.6,5.1-2.8,6.8c-0.7,0.5-1.2,1.5-2.1,0.6c-0.6-0.6-0.9-1.3-0.2-2.2c2.6-3.4,3-6.9-0.4-10.1
		c-1-1,0-1.7,0.5-2.2c0.8-0.9,1.3-0.2,2,0.5C27.8,41.1,28.4,43.4,29,45.7z"/>
	<path class="st1" d="M16,46c3,0.4,4-5.7,7.3-2.5c1.4,1.3,1.3,4-0.2,5.2C19.8,51.6,19,45.9,16,46z"/>
	<path class="st1" d="M-1.6,15.3c1-1.4-1.3-4.1,1.6-4.2c2.4-0.1,3.5,2.2,3.6,4.3c0.1,2.2-1.5,4.4-3.6,4.3
		C-3.2,19.6-0.4,16.6-1.6,15.3z"/>
</g>
<g>
	<path class="st1" d="M606.3,14.4c0.1,6.1,6.1,13.2,12.1,14.2c1,0.2,2.5,0.7,2.9-1.1c0.4-2.1-1.4-1.3-2.3-1.6
		c-5.1-1.6-8.9-4.8-9.7-10c-0.7-4.2,1.3-7.9,4.6-10.8c1.5-1.3,3.4-1.6,5.1-2.1c1.1-0.3,2.6-0.2,2.3-1.8c-0.3-1.7-2-0.9-2.9-0.8
		C612.2,0.8,606.2,7.9,606.3,14.4z"/>
	<path class="st1" d="M618.7,30.3c-4.5,0.8-8.1,3.2-10.4,7.5c-2.5,4.9-2.8,9.7,0.5,14.3c2.3,3.1,5.2,5.4,8.9,6.7
		c1.1,0.4,2.9,0.9,3.5-0.8c0.8-2.4-1.4-1.4-2.4-1.7c-5.6-1.6-9.7-6.8-9.5-12.1c0.2-5.4,3.9-9.5,10-10.9c1.1-0.3,2.1-0.3,2.1-1.7
		C621.2,29.7,619.8,30.7,618.7,30.3z"/>
	<path class="st1" d="M618.5,89.1c1.6,0.1,2.7,0.4,2.8-1c0.1-1.3-0.8-1.6-2-1.8c-4.5-0.7-7.8-3.1-9.4-7.5c-2.7-7.7,3-13.6,8.5-15.3
		c1-0.3,3.4,0.7,2.8-1.6c-0.6-2.3-2.4-1-3.9-0.7c-6.5,1.5-10.7,7.9-11,13.7c-0.3,5.4,4.4,11.6,10,13.6
		C617.2,88.9,618.3,89,618.5,89.1z"/>
	<path class="st1" d="M597.3,29.8c0.1,4.4,2.3,7.7,5.3,10.7c0.7,0.6,1.4,2.1,2.5,1.2c1.1-1,0.3-2.1-0.7-3.2c-5-5.4-5.5-9.2-2.7-14.8
		c0.8-1.5,1.9-2.6,3.1-3.7c1-0.8,1.4-1.5,0.5-2.5c-0.9-0.9-1.5-0.1-2.2,0.5C599.5,21.1,597.2,24.8,597.3,29.8z"/>
	<path class="st1" d="M597.4,61c0.2,3,1.9,6.6,5,9.5c0.8,0.7,1.7,2.3,2.8,1.2c0.9-0.9,0.4-2.1-0.8-3.2c-5.5-5.3-5.3-10.5-2.5-15.1
		c0.8-1.3,2-2.5,3.3-3.4c1.3-0.9,0.3-1.6,0.1-2.1c-0.3-0.9-1.1-0.7-1.8-0.1C600,51,597.2,54.6,597.4,61z"/>
	<path class="st1" d="M611.6,14.1c0,4.8,3.4,9,7.5,9.2c0.8,0,1.9,0.5,2.1-0.7c0.2-0.9-0.2-1.8-1.3-1.9c-3.7-0.6-5.6-2.8-5.6-6.5
		c0-3.8,2.3-5.8,5.6-6.7c1-0.3,1.7-0.4,1.4-1.6c-0.4-1.4-1.5-1.3-2.5-1.1C615.2,5.4,611.6,10.2,611.6,14.1z"/>
	<path class="st1" d="M611.6,44.4c0,4,2.7,8.2,6.1,9c1,0.2,2.9,1.3,3.4-0.4c0.5-1.6-1-1.8-2.3-2.3c-4.9-1.9-6.2-7.9-2.5-11.3
		c0.8-0.8,1.9-1.3,3-1.7c1-0.4,2.7-0.2,1.9-2c-0.6-1.5-1.8-0.8-3-0.4C614.1,36.8,611.6,40.1,611.6,44.4z"/>
	<path class="st1" d="M611.6,74.9c0,4.4,3.3,8.8,7.4,9.6c0.9,0.2,1.8,0.3,2.3-0.7c0.5-1.4-0.3-1.6-1.5-2c-3.3-1-5.6-3-5.5-6.9
		c0.1-3.7,2.2-5.4,5.5-6.3c0.9-0.3,1.7-0.8,1.6-1.8c-0.2-1.5-1.4-1-2.4-0.9C614.9,66.4,611.6,70.3,611.6,74.9z"/>
	<path class="st1" d="M602.1,29.1c0.7,2.4,0.6,5.1,2.8,6.8c0.7,0.5,1.2,1.5,2.1,0.6c0.6-0.6,0.9-1.3,0.2-2.2
		c-2.6-3.4-3-6.9,0.4-10.1c1-1,0-1.7-0.5-2.2c-0.8-0.9-1.3-0.2-2,0.5C603.3,24.5,602.6,26.8,602.1,29.1z"/>
	<path class="st1" d="M602.1,58.2c0.4,3.9,1,6.6,3.3,8.5c0.5,0.4,0.9,1.5,1.6,0.5c0.4-0.5,1.4-1.2,0.5-2.2c-3.2-3.5-3.4-7.1,0-10.6
		c0.8-0.9-0.1-1.3-0.4-1.8c-0.4-0.9-1.1-0.8-1.7-0.1C603.9,54.5,602.1,56.5,602.1,58.2z"/>
	<path class="st1" d="M615.4,59.5c-3.1,0.7-4.2-5.7-7.6-2.4c-1.5,1.4-1.4,4.3,0.2,5.5C611.3,64.7,612.6,60.3,615.4,59.5z"/>
	<path class="st1" d="M621.7,44.8c-1.2-1.6,1.2-4.5-2.1-4.5c-1.9,0-3.7,1.7-3.5,3.7c0.2,2.3,1.2,5.1,4,4.8
		C622.8,48.7,620.2,45.9,621.7,44.8z"/>
	<path class="st1" d="M621.7,74.9c-1.3-1.5,1-4.4-1.8-4.3c-2.2,0-3.9,2.2-3.8,4.6c0.2,2,1.2,4.3,3.7,4
		C623.1,78.9,620.1,76,621.7,74.9z"/>
	<path class="st1" d="M615,29.4c-3,0.4-4-5.7-7.3-2.5c-1.4,1.3-1.3,4,0.2,5.2C611.2,34.9,612.1,29.3,615,29.4z"/>
	<path class="st1" d="M586.2,45.4c0.1,4.4,2.3,7.7,5.3,10.7c0.7,0.6,1.4,2.1,2.5,1.2c1.1-1,0.3-2.1-0.7-3.2c-5-5.4-5.5-9.2-2.7-14.8
		c0.8-1.5,1.9-2.6,3.1-3.7c1-0.8,1.4-1.5,0.5-2.5c-0.9-0.9-1.5-0.1-2.2,0.5C588.4,36.7,586,40.4,586.2,45.4z"/>
	<path class="st1" d="M590.9,44.7c0.7,2.4,0.6,5.1,2.8,6.8c0.7,0.5,1.2,1.5,2.1,0.6c0.6-0.6,0.9-1.3,0.2-2.2
		c-2.6-3.4-3-6.9,0.4-10.1c1-1,0-1.7-0.5-2.2c-0.8-0.9-1.3-0.2-2,0.5C592.1,40.1,591.5,42.4,590.9,44.7z"/>
	<path class="st1" d="M603.9,45c-3,0.4-4-5.7-7.3-2.5c-1.4,1.3-1.3,4,0.2,5.2C600.1,50.6,600.9,44.9,603.9,45z"/>
	<path class="st1" d="M621.5,14.3c-1-1.4,1.3-4.1-1.6-4.2c-2.4-0.1-3.5,2.2-3.6,4.3c-0.1,2.2,1.5,4.4,3.6,4.3
		C623.1,18.6,620.3,15.6,621.5,14.3z"/>
</g>
</svg>
