<?xml version="1.0" encoding="utf-8"?>
<!-- Generator: Adobe Illustrator 22.1.0, SVG Export Plug-In . SVG Version: 6.00 Build 0)  -->
<svg version="1.1" id="Capa_1" xmlns="http://www.w3.org/2000/svg" xmlns:xlink="http://www.w3.org/1999/xlink" x="0px" y="0px"
	 viewBox="0 0 1920 100" style="enable-background:new 0 0 1920 100;" xml:space="preserve">
<style type="text/css">
	.st0{fill:#A60303;stroke:#EFD46B;stroke-width:7;stroke-miterlimit:10;}
	.st1{fill:none;stroke:#EFD46B;stroke-width:2;stroke-miterlimit:10;}
</style>
<g>
	<path class="st0" d="M1910.7,16.3l-0.9-2.5h-178.7H192.8H14.2l-0.9,2.5c-5.7,16.4-3.9,31.8,5.2,44.7C30.6,78,51.2,85.2,57.3,85.2
		l29.3,0.5h1750.7l29.3-0.5c6.2,0,26.8-7.2,38.9-24.3C1914.7,48.1,1916.4,32.6,1910.7,16.3z"/>
</g>
<g>
	<line class="st1" x1="12.1" y1="26.6" x2="595.7" y2="26.6"/>
	<line class="st1" x1="11.5" y1="42.8" x2="403.8" y2="42.8"/>
	<line class="st1" x1="418.2" y1="42.8" x2="547" y2="42.8"/>
	<line class="st1" x1="14.7" y1="59" x2="271" y2="59"/>
	<line class="st1" x1="328.6" y1="59.1" x2="377.9" y2="59.1"/>
	<line class="st1" x1="1912.9" y1="26.6" x2="1329.2" y2="26.6"/>
	<line class="st1" x1="1913.5" y1="42.8" x2="1521.2" y2="42.8"/>
	<line class="st1" x1="1506.7" y1="42.8" x2="1377.9" y2="42.8"/>
	<line class="st1" x1="1910.3" y1="59" x2="1657.1" y2="59"/>
	<line class="st1" x1="1255.2" y1="27.5" x2="671.5" y2="27.5"/>
	<line class="st1" x1="1192.6" y1="43.7" x2="734.1" y2="43.7"/>
	<line class="st1" x1="1548.8" y1="59.1" x2="1598.2" y2="59.1"/>
</g>
</svg>
