<?xml version="1.0" encoding="utf-8"?>
<!-- Generator: Adobe Illustrator 22.1.0, SVG Export Plug-In . SVG Version: 6.00 Build 0)  -->
<svg version="1.1" id="Capa_1" xmlns="http://www.w3.org/2000/svg" xmlns:xlink="http://www.w3.org/1999/xlink" x="0px" y="0px"
	 viewBox="0 0 200 300" style="enable-background:new 0 0 200 300;" xml:space="preserve">
<style type="text/css">
	.st0{fill:#0C3559;}
</style>
<g>
	<path class="st0" d="M104.2,97.1c0,3.9,0,7.5,0,10.7c-11.2-1.3-22.3-0.9-33.6-0.2c0-3.1,0-6.7,0-10.5c3.9,0,7.7,0,11.8,0
		c-4.8-6.6-2.8-13.2,4.3-14.4c0-2.2,0-4.4,0-6.7c0-9.5-0.1-19.1,0.1-28.6c0-2.1-0.6-2.7-2.6-2.6c-23.3,0.1-46.6,0-70,0
		c-3.4,0-5.3-1.9-5.1-5.1c0.1-2.6,2.1-4.2,5.2-4.2c12.9,0,25.9,0,38.8,0c0.4,0,0.8,0,1.2,0c1.5,0.1,2.6-0.6,2.7-2.1
		c0.1-1.6-1-2.4-2.6-2.4c-5.9,0-11.8,0-17.8,0c-2.3,0-4.2-1.6-4.6-3.6c-0.5-2.4,0.6-4.6,2.8-5.5c0.7-0.3,1.4-0.3,2.2-0.3
		c10.8,0,21.6,0,32.5,0c0.7,0,1.7,0,2.1-0.4c0.6-0.5,1.1-1.5,1-2.2c-0.1-0.7-1-1.4-1.7-1.8c-0.5-0.3-1.2-0.1-1.8-0.1
		c-18.2,0-36.4,0-54.5,0c-3.2,0-5.3-1.6-5.5-4.2c-0.2-3.2,1.7-5.2,5-5.2c10,0,20,0,30,0c18.2,0,36.3,0,54.5,0c2.9,0,4.8,1.9,4.9,4.8
		c0,2.7-1.9,4.6-4.8,4.7c-4.1,0.1-8.2,0-12.3,0c-1.6,0-3.3-0.2-3.5,2.1c-0.1,1.7,1,2.4,3.4,2.4c12.9,0,25.7,0,38.6,0
		c2.6,0,4.4,1.5,4.9,4c0.4,1.9-0.9,4.2-3,5c-0.7,0.3-1.6,0.3-2.4,0.3c-19.1,0-38.3,0-57.4,0c-1.6,0-3.1,0.2-3.2,2.2
		c-0.1,1.6,1,2.3,3.3,2.3c10.5,0,21,0,31.5,0c2.3,0,4.4,1.6,4.8,3.6c0.5,2.4-0.8,4.8-3.1,5.5c-1.1,0.3-2.3,0.3-3.4,0.3
		c-2.7,0-5.3,0-8,0c-0.1,0-0.3,0.1-0.6,0.2c0,12.5,0,25,0,37.6c6.3,1.4,9.6,8.1,4.2,14.5C96.4,97.1,100.2,97.1,104.2,97.1z
		 M93.6,90.9c0.4-4.2-3.4-6.5-6-6.5c-4.2-0.1-6.5,3.2-6.7,6.2C80.8,93.9,84,97,87.6,97C90.6,97.1,93.6,94.1,93.6,90.9z"/>
	<path class="st0" d="M84.3,258.1c-2.2-1.5-2.8-3.6-2.5-5.8c0.3-2.1,1.7-3.4,3.6-4.4c0.6-0.3,1.2-1,1.2-1.5c0.1-9,0.1-18.1,0.1-27.1
		c-3.8-1.4-4.7-5.4-1-8.3c-1-0.9-2-1.8-3.2-2.9c-0.8,1.1-1.7,2.3-2.5,3.3c-1.5-1.2-1.5-1.2,1.3-4.5c-1-0.9-2.1-1.8-3.1-2.7
		c-1.6,2-3.2,2.7-5.1,1.9c-1.7-0.7-2.7-2-2.8-3.9c0-1.8,1.5-3.7,3.1-4.1c2-0.5,3.5,0.1,4.9,2.4c1-1,2-2,3.1-3.1
		c-0.9-1.2-1.9-2.3-2.8-3.5c0-0.1,0.4-0.5,0.8-1c0.9,1.2,1.8,2.3,2.8,3.6c1.2-1.4,2.1-2.3,3-3.4c-0.5-0.8-1.4-1.6-1.8-2.6
		c-0.8-1.7,0.2-3.9,2-5.1c0.5-0.3,1.1-0.9,1.1-1.4c0.1-2.2,0.1-4.5,0.1-6.5c-5,0-9.9,0-14.8-0.1c-0.5,0-1.3-0.7-1.4-1.1
		c-0.1-3.3-0.1-6.6-0.1-9.6c11.4,0.9,22.4,0.9,33.8,0c0,3.1,0,6.5-0.1,9.9c0,0.3-1.1,0.7-1.8,0.7c-4.6,0.1-9.3,0-14.3,0
		c0,2.4,0,4.6,0,6.8c0,0.4,0.6,0.8,1,1.1c3.1,2.1,3.1,5.4-0.4,7.8c1.1,0.9,2.2,1.8,3.4,2.7c1-0.9,2.1-1.9,3.4-3.1
		c1.1,2.5-1.7,2.8-1.9,4.7c0.7,0.7,1.6,1.7,2.6,2.7c2.4-2.7,4.9-3.2,6.7-1.5c1.8,1.8,1.9,4.5,0.2,6.1c-2,1.9-4.4,1.5-6.8-1.2
		c-1,1-2,2-3.1,3c0.8,0.8,1.7,1.4,2.4,2.2c0.3,0.4,0.2,1,0.3,1.6c-0.5-0.1-1.1-0.1-1.4-0.4c-0.7-0.7-1.3-1.5-2.1-2.5
		c-1.3,1.2-2.3,2.1-2.9,2.6c0.7,1.7,1.8,3.2,1.9,4.8c0.2,1.9-1.3,3.1-3.2,3.8c0,9.5,0,18.9,0,28.4c5.5,2.9,6.4,6.5,2.3,10.6
		c3.3,2.1,3.8,5.2,3.7,8.9c-0.2,7.5,0,15,0,22.4c0,0.9-0.5,1.8-0.8,2.7c-0.3-0.8-0.7-1.7-0.7-2.5c-0.1-7.1,0-14.3,0-21.5
		c-1.5,0-2.9,0-4.5,0c0,4.8,0,9.5,0,14.3c0,2.6,0,5.3,0,7.9c0,0.7-0.5,1.3-0.7,2c-0.2-0.1-0.5-0.2-0.7-0.2c0-7.9,0-15.8,0-23.9
		c-1.6,0-3,0-4.6,0c0,4.7,0,9.3,0,14c0,2.7,0,5.4,0,8.2c0,0.6-0.4,1.3-0.6,1.9c-0.3,0-0.5-0.1-0.8-0.1c-0.1-0.8-0.2-1.5-0.2-2.3
		c0-8.1,0.1-16.2,0-24.3C80.4,262.3,81.2,259.8,84.3,258.1z M83.4,253.3c0,2.4,1.7,4,4.1,4c2.1,0,4-1.9,4-4c0-2.1-2.1-4.2-4.2-4.2
		C85,249.1,83.3,250.9,83.4,253.3z M89.2,201.8c1,1.3,1.9,2.6,2.8,3.8c1.4-1.3,2.5-2.4,3.6-3.5c-1.1-1.2-2.2-2.4-3.2-3.5
		C91.1,199.9,89.9,201,89.2,201.8z M87.2,203.5c-1,1.1-2.1,2.3-3,3.2c1,1.2,2.1,2.5,3.2,3.8c1.3-1.4,2.4-2.5,3.6-3.8
		C89.7,205.6,88.5,204.6,87.2,203.5z M86.2,202.2c-1.3-1.4-2.4-2.5-3.4-3.6c-1.3,1.2-2.5,2.4-3.5,3.4c1,1.3,2,2.5,3.1,4
		C83.8,204.5,84.9,203.4,86.2,202.2z M87.6,194.1c-1.4,1.1-2.6,2.2-3.6,3c1.2,1.4,2.3,2.5,3.5,3.8c1.1-1.1,2.3-2.3,3.4-3.4
		C89.7,196.2,88.6,195.1,87.6,194.1z M89.9,189.6c-0.1-1.8-1.3-3.1-2.6-2.9c-1.6,0.2-2.5,1.2-2.5,2.7c0,1.6,1.2,2.4,2.8,2.3
		C89,191.6,89.8,190.7,89.9,189.6z M89.9,214.6c-0.1-1.2-1-2-2.5-2.2c-1.2-0.2-2.7,1.3-2.6,2.5c0,1.6,1.1,2.4,2.5,2.7
		C88.5,217.8,89.9,216.3,89.9,214.6z M74.6,204.6c1.4-0.1,2.4-1,2.4-2.4c0-1.5-0.7-2.6-2.4-2.6c-1.6,0-2.5,0.8-2.6,2.4
		C71.9,203.8,73,204.4,74.6,204.6z M99.9,204.6c1.6,0,3.2-1.3,3-2.5c-0.2-1.4-1-2.6-2.7-2.5c-1.5,0.1-2.5,0.9-2.5,2.4
		C97.6,203.6,98.7,204.3,99.9,204.6z"/>
	<path class="st0" d="M83.4,166.1c-5.4,1.3-9-2.2-12.3-5.8c-4.6-5.2-7-11.4-7.9-18.3c-1.1-9.1,0.7-17.5,5.8-25.1
		c2.4-3.5,5.5-6.4,9.3-8.2c1.5-0.7,3.4-0.5,5.2-0.7C78.2,127.5,78.2,146.7,83.4,166.1z"/>
	<path class="st0" d="M91.1,166.4c5.5-19.6,5.4-38.8,0.1-58c4.8-1.2,8.2,1.6,11.2,4.7c6.3,6.4,9.1,14.2,9.3,23.2
		c0.2,8.6-1.9,16.4-7.4,23.1c-2.1,2.5-4.8,4.6-7.6,6.3C95.2,166.5,93,166.1,91.1,166.4z"/>
	<path class="st0" d="M141.9,78.8c-11.3,0-22.6,0-33.9,0c-3.5,0-5.6-2-5.6-5.2c0-3,2.4-5.4,5.6-5.4c2.5,0,4.9,0.1,7.3,0
		c0.8,0,1.5-0.8,2.2-1.2c-0.7-0.5-1.5-1.5-2.2-1.5c-5.2-0.1-10.3-0.1-15.5-0.1c-3.5,0-5.9-2.2-5.9-5.4c0-2.8,2.7-5.3,5.8-5.3
		c14.9,0,29.8,0,44.7,0c0.4,0,0.9,0.1,1.2,0c0.7-0.4,1.4-0.9,2.1-1.4c-0.7-0.5-1.4-1.1-2.2-1.4c-0.7-0.2-1.5,0-2.2,0
		c-6.1,0-12.1,0-18.2,0c-3.4,0-5.8-2.2-5.9-5.4c-0.1-2.9,2.5-5.2,5.8-5.2c14.6,0,29.3,0,43.9,0c3.5,0,5.8,2.2,5.8,5.4
		c0,3.1-2.3,5.2-5.7,5.2c-2.7,0-5.3-0.1-8,0.1c-0.8,0-2,0.8-2.1,1.3c-0.1,1.1,0.9,1.6,2.1,1.5c7.7,0,15.4,0,23.1,0
		c3.4,0,5.7,2.2,5.7,5.5c0,3-2.2,5.2-5.6,5.2c-17,0-34,0-51.1,0c-0.5,0-1.1-0.2-1.4,0c-0.6,0.4-1.2,1-1.7,1.5
		c0.6,0.4,1.1,1.2,1.7,1.2c3.8,0.1,7.6,0.1,11.4,0.1c10.8,0,21.6,0,32.5,0c2.3,0,4,1,5.2,2.9c1.1,1.8,0.9,3.6-0.2,5.4
		c-1.1,1.7-2.6,2.4-4.6,2.4C164.8,78.7,153.4,78.8,141.9,78.8z M141.8,77.1C141.8,77.2,141.8,77.2,141.8,77.1c2.5,0,5,0,7.5,0
		c8.9,0,17.8,0,26.7,0.1c1.7,0,2.9-0.7,3.7-2.1c1.4-2.6-0.6-5.4-3.9-5.4c-14.6,0-29.3,0-43.9,0c-2.7,0-4.2-2.3-3-4.5
		c0.8-1.6,2.3-1.7,3.9-1.6c17.1,0,34.2,0,51.2,0c2.9,0,4.3-1.2,4.3-3.6c0-2.4-1.5-3.7-4.2-3.8c-7.7,0-15.4,0-23.1,0
		c-2.2,0-3.5-1.2-3.5-3.1c0-1.8,1.3-3,3.5-3c2.7,0,5.3,0,8,0c2.5,0,4.1-1.5,4.2-3.7c0-2.3-1.5-3.7-4.1-3.7c-14.7,0-29.4,0-44.1,0
		c-0.9,0-2.2,0.3-2.7,1c-0.7,1-1.3,2.4-1.1,3.6c0.3,1.8,1.7,2.8,3.7,2.8c7,0,14,0,21,0c1.7,0,2.9,0.6,3.4,2.3
		c0.6,2.1-0.9,3.8-3.4,3.8c-15.5,0-30.9,0-46.4,0c-2.3,0-4,1.6-4,3.6c0,2.1,1.6,3.7,3.9,3.7c3.1,0,6.3,0,9.4,0
		c2.4,0,4.9-0.1,7.3,0.1c2,0.2,2.9,1.5,2.8,3.3c-0.1,1.6-1.3,2.6-3.2,2.7c-2.5,0-5,0-7.6,0c-2.5,0-4.6,1.6-4.4,3.8
		c0.1,2,1.7,3.7,4.3,3.7C119.4,77.1,130.6,77.1,141.8,77.1z"/>
	<path class="st0" d="M94.1,135.5c-0.4,10-0.5,19.6-3.6,28.9c-0.7,2.2-2.1,1.7-3.6,1.9c-1.6,0.2-2.1-0.7-2.5-2
		c-3-8.9-3.5-18.2-3.4-27.5c0-7.9,0.5-15.8,2.5-23.5c0.2-0.8,0.5-1.7,0.8-2.5c0.9-2.5,2.3-3.2,4.8-2.5c0.4,0.1,0.9,0.8,1,1.3
		c1.1,4.4,2.4,8.8,3.1,13.3C93.8,127.1,93.8,131.5,94.1,135.5z"/>
	<path class="st0" d="M99,107.8c2.5,0.9,5.1,1.8,7.6,2.8c7.1,3.1,12.8,7.9,16.3,14.9c5.6,11.1,3.2,22.9-6.2,31.7
		c-4.4,4.1-9.6,7-15.4,8.7c-0.3,0.1-0.6,0.2-1,0.2c-0.5,0-0.9,0-1.9,0c10.2-7.3,14.5-17.1,14.5-28.9c0-11.8-4.3-21.7-14.2-28.7
		C98.8,108.3,98.9,108,99,107.8z"/>
	<path class="st0" d="M75.7,166.5c-1.7-0.5-3.5-0.9-5.2-1.5c-7.6-3.1-14.1-7.7-18.2-15c-2.3-3.9-3.7-8.3-3.6-12.7
		c0.2-5.7,2-10.9,5.5-15.6c5.1-6.7,11.9-10.8,19.8-13.3c0.6-0.2,1.3-0.1,2.4-0.1c-10.3,7.3-14.6,17.2-14.6,29
		c0,11.8,4.1,21.8,14.2,28.8C75.9,166.1,75.8,166.3,75.7,166.5z"/>
	<path class="st0" d="M127.8,227.4c-1.1-2-0.6-4-0.4-5.9c0-0.1,1-0.3,1.1-0.1C129,221.9,128.5,226.6,127.8,227.4z"/>
	<path class="st0" d="M60,63.5c-0.4,0.6-0.6,0.8-0.7,1c-1,1.1-2.1,2.2-3.2,3.2c-0.2,0.2-0.7,0.2-1.1,0.3c0-0.4-0.1-0.9,0.1-1.2
		c1-1.1,2-2.2,3.1-3.2C58.5,63.3,59.2,63.5,60,63.5z"/>
	<path class="st0" d="M136.9,224.4c0,0.4,0.1,1-0.1,1.2c-1,1.1-2.2,2.2-3.3,3.2c-0.2,0.2-0.8,0.1-1.2,0.1c0.1-0.3,0-0.8,0.2-1
		c1.1-1.4,2.3-2.7,3.5-4.1C136.3,224.1,136.6,224.3,136.9,224.4z"/>
	<path class="st0" d="M127.6,239.6c1.4,1.2,1.5,5.2,0,6.7C127.6,243.9,127.6,241.8,127.6,239.6z"/>
	<path class="st0" d="M41.7,81.1c1.1-1.9,2.4-3.6,4.6-4.2C45.2,78.9,43.8,80.3,41.7,81.1z"/>
	<path class="st0" d="M124.2,238.7c-1.4,1.2-2.7,2.4-4.1,3.5c-0.2,0.2-0.7,0.1-1,0.1c0-0.3-0.2-0.8,0-0.9c1.2-1.2,2.4-2.4,3.6-3.5
		c0.2-0.2,0.7,0.1,1.1,0.2C123.9,238.3,124.1,238.5,124.2,238.7z"/>
	<path class="st0" d="M41.1,73c-0.6,0-1.2,0.1-1.8,0c-0.4-0.1-0.8-0.5-1.2-0.7c0.4-0.2,0.7-0.6,1.1-0.7c1.3-0.1,2.7-0.1,4,0
		c0.3,0,0.7,0.5,1,0.8c-0.3,0.2-0.7,0.6-1,0.6C42.4,73.1,41.7,73,41.1,73z"/>
	<path class="st0" d="M123.8,228.8c-1.7,0.1-4.3-2.2-4.9-4.4C121.4,225.2,122.3,227.4,123.8,228.8z"/>
	<path class="st0" d="M132.4,237.9c0.1,0,0.8-0.1,1,0.1c1.3,1.3,2.4,2.7,3.6,4.1c-0.2,0.2-0.5,0.4-0.7,0.6
		C135.1,241.1,133.8,239.5,132.4,237.9z"/>
	<path class="st0" d="M50.9,84.8c-1.3-0.7-1.5-4.6,0-6.8C50.9,80.6,50.9,82.7,50.9,84.8z"/>
	<path class="st0" d="M51,59.7c0,2.1,0,4.2,0,6.3C49.6,65.3,49.4,61.3,51,59.7z"/>
	<path class="st0" d="M63.2,71.9c-1,1.6-5.3,1.6-6.6,0C58.9,71.9,60.9,71.9,63.2,71.9z"/>
	<path class="st0" d="M134.2,234c1-1.7,5.4-1.6,6.3,0C138.4,234,136.4,234,134.2,234z"/>
	<path class="st0" d="M41.8,63.5c0.1,0,0.7-0.2,0.9,0c1.2,1.4,3.2,2.3,3.2,4.7C44.5,66.6,43.1,65.1,41.8,63.5z"/>
	<path class="st0" d="M115.6,233.9c0.7-1.4,4.9-1.6,6.3,0C119.7,233.9,117.7,233.9,115.6,233.9z"/>
	<path class="st0" d="M55.5,76.6c1.4,1.3,2.8,2.7,4.2,4.1c-1.1,0.6-1.1,0.6-4.2-2.5c-0.4-0.4-0.4-1-0.6-1.5
		C55.1,76.6,55.3,76.6,55.5,76.6z"/>
</g>
</svg>
